G75*
%MOIN*%
%OFA0B0*%
%FSLAX25Y25*%
%IPPOS*%
%LPD*%
%AMOC8*
5,1,8,0,0,1.08239X$1,22.5*
%
%ADD10OC8,0.17717*%
%ADD11C,0.18504*%
%ADD12C,0.05150*%
%ADD13C,0.00000*%
%ADD14C,0.07400*%
%ADD15R,0.08000X0.08000*%
%ADD16C,0.08000*%
%ADD17C,0.10000*%
%ADD18OC8,0.10000*%
%ADD19C,0.06500*%
%ADD20R,0.07400X0.07400*%
%ADD21C,0.02400*%
%ADD22C,0.01000*%
%ADD23C,0.05200*%
%ADD24C,0.01600*%
%ADD25C,0.01200*%
D10*
X0335000Y0092500D03*
D11*
X0353750Y0080000D03*
X0335000Y0067500D03*
D12*
X0195000Y0112425D02*
X0195000Y0117575D01*
X0185000Y0117575D02*
X0185000Y0112425D01*
X0175000Y0112425D02*
X0175000Y0117575D01*
X0165000Y0117575D02*
X0165000Y0112425D01*
X0155000Y0112425D02*
X0155000Y0117575D01*
X0145000Y0117575D02*
X0145000Y0112425D01*
X0135000Y0112425D02*
X0135000Y0117575D01*
X0125000Y0117575D02*
X0125000Y0112425D01*
X0115000Y0112425D02*
X0115000Y0117575D01*
X0105000Y0117575D02*
X0105000Y0112425D01*
X0095000Y0112425D02*
X0095000Y0117575D01*
X0085000Y0117575D02*
X0085000Y0112425D01*
X0075000Y0112425D02*
X0075000Y0117575D01*
X0065000Y0117575D02*
X0065000Y0112425D01*
X0055000Y0112425D02*
X0055000Y0117575D01*
X0055000Y0172425D02*
X0055000Y0177575D01*
X0065000Y0177575D02*
X0065000Y0172425D01*
X0075000Y0172425D02*
X0075000Y0177575D01*
X0085000Y0177575D02*
X0085000Y0172425D01*
X0095000Y0172425D02*
X0095000Y0177575D01*
X0105000Y0177575D02*
X0105000Y0172425D01*
X0115000Y0172425D02*
X0115000Y0177575D01*
X0125000Y0177575D02*
X0125000Y0172425D01*
X0135000Y0172425D02*
X0135000Y0177575D01*
X0145000Y0177575D02*
X0145000Y0172425D01*
X0155000Y0172425D02*
X0155000Y0177575D01*
X0165000Y0177575D02*
X0165000Y0172425D01*
X0175000Y0172425D02*
X0175000Y0177575D01*
X0185000Y0177575D02*
X0185000Y0172425D01*
X0195000Y0172425D02*
X0195000Y0177575D01*
D13*
X0032559Y0005000D02*
X0014843Y0005000D01*
X0014605Y0005003D01*
X0014367Y0005011D01*
X0014130Y0005026D01*
X0013893Y0005046D01*
X0013657Y0005072D01*
X0013421Y0005103D01*
X0013186Y0005140D01*
X0012952Y0005183D01*
X0012719Y0005232D01*
X0012487Y0005286D01*
X0012257Y0005346D01*
X0012028Y0005411D01*
X0011801Y0005482D01*
X0011576Y0005558D01*
X0011353Y0005640D01*
X0011131Y0005727D01*
X0010912Y0005819D01*
X0010695Y0005917D01*
X0010481Y0006019D01*
X0010269Y0006127D01*
X0010059Y0006241D01*
X0009853Y0006359D01*
X0009649Y0006482D01*
X0009449Y0006610D01*
X0009252Y0006742D01*
X0009057Y0006880D01*
X0008867Y0007022D01*
X0008679Y0007169D01*
X0008496Y0007320D01*
X0008316Y0007475D01*
X0008140Y0007635D01*
X0007968Y0007799D01*
X0007799Y0007968D01*
X0007635Y0008140D01*
X0007475Y0008316D01*
X0007320Y0008496D01*
X0007169Y0008679D01*
X0007022Y0008867D01*
X0006880Y0009057D01*
X0006742Y0009252D01*
X0006610Y0009449D01*
X0006482Y0009649D01*
X0006359Y0009853D01*
X0006241Y0010059D01*
X0006127Y0010269D01*
X0006019Y0010481D01*
X0005917Y0010695D01*
X0005819Y0010912D01*
X0005727Y0011131D01*
X0005640Y0011353D01*
X0005558Y0011576D01*
X0005482Y0011801D01*
X0005411Y0012028D01*
X0005346Y0012257D01*
X0005286Y0012487D01*
X0005232Y0012719D01*
X0005183Y0012952D01*
X0005140Y0013186D01*
X0005103Y0013421D01*
X0005072Y0013657D01*
X0005046Y0013893D01*
X0005026Y0014130D01*
X0005011Y0014367D01*
X0005003Y0014605D01*
X0005000Y0014843D01*
X0005000Y0036500D01*
X0005000Y0265000D01*
X0004989Y0265252D01*
X0004984Y0265504D01*
X0004986Y0265757D01*
X0004993Y0266009D01*
X0005006Y0266261D01*
X0005026Y0266512D01*
X0005051Y0266763D01*
X0005083Y0267013D01*
X0005121Y0267263D01*
X0005164Y0267511D01*
X0005214Y0267758D01*
X0005270Y0268004D01*
X0005331Y0268249D01*
X0005399Y0268492D01*
X0005472Y0268733D01*
X0005551Y0268973D01*
X0005636Y0269210D01*
X0005727Y0269446D01*
X0005823Y0269679D01*
X0005925Y0269909D01*
X0006032Y0270138D01*
X0006145Y0270363D01*
X0006263Y0270586D01*
X0006387Y0270806D01*
X0006516Y0271022D01*
X0006650Y0271236D01*
X0006789Y0271446D01*
X0006934Y0271653D01*
X0007083Y0271857D01*
X0007237Y0272056D01*
X0007396Y0272252D01*
X0007560Y0272444D01*
X0007728Y0272632D01*
X0007900Y0272816D01*
X0008077Y0272995D01*
X0008259Y0273171D01*
X0008444Y0273342D01*
X0008634Y0273508D01*
X0008828Y0273670D01*
X0009025Y0273827D01*
X0009226Y0273979D01*
X0009431Y0274126D01*
X0009639Y0274268D01*
X0009851Y0274405D01*
X0010066Y0274537D01*
X0010284Y0274664D01*
X0010505Y0274786D01*
X0010729Y0274902D01*
X0010955Y0275012D01*
X0011185Y0275118D01*
X0011416Y0275217D01*
X0011650Y0275311D01*
X0011887Y0275399D01*
X0012125Y0275482D01*
X0012365Y0275559D01*
X0012607Y0275630D01*
X0012851Y0275695D01*
X0013096Y0275754D01*
X0013343Y0275807D01*
X0013590Y0275854D01*
X0013839Y0275895D01*
X0014089Y0275931D01*
X0014339Y0275960D01*
X0014591Y0275983D01*
X0014842Y0276000D01*
X0014843Y0276000D02*
X0064055Y0276000D01*
X0387598Y0276000D01*
X0387857Y0275989D01*
X0388115Y0275973D01*
X0388372Y0275950D01*
X0388630Y0275921D01*
X0388886Y0275886D01*
X0389141Y0275844D01*
X0389395Y0275797D01*
X0389648Y0275743D01*
X0389900Y0275683D01*
X0390150Y0275617D01*
X0390399Y0275545D01*
X0390646Y0275467D01*
X0390890Y0275384D01*
X0391133Y0275294D01*
X0391373Y0275198D01*
X0391611Y0275097D01*
X0391847Y0274990D01*
X0392080Y0274877D01*
X0392310Y0274759D01*
X0392537Y0274635D01*
X0392761Y0274506D01*
X0392982Y0274371D01*
X0393199Y0274231D01*
X0393413Y0274086D01*
X0393624Y0273936D01*
X0393831Y0273780D01*
X0394034Y0273620D01*
X0394233Y0273455D01*
X0394428Y0273285D01*
X0394619Y0273110D01*
X0394805Y0272931D01*
X0394988Y0272748D01*
X0395165Y0272560D01*
X0395339Y0272367D01*
X0395507Y0272171D01*
X0395671Y0271971D01*
X0395829Y0271766D01*
X0395983Y0271558D01*
X0396132Y0271347D01*
X0396276Y0271132D01*
X0396414Y0270913D01*
X0396547Y0270691D01*
X0396674Y0270466D01*
X0396797Y0270238D01*
X0396913Y0270007D01*
X0397024Y0269773D01*
X0397129Y0269537D01*
X0397229Y0269298D01*
X0397323Y0269057D01*
X0397411Y0268814D01*
X0397493Y0268568D01*
X0397569Y0268321D01*
X0397639Y0268072D01*
X0397703Y0267822D01*
X0397760Y0267569D01*
X0397812Y0267316D01*
X0397858Y0267061D01*
X0397897Y0266806D01*
X0397931Y0266549D01*
X0397958Y0266292D01*
X0397979Y0266034D01*
X0397993Y0265776D01*
X0398002Y0265517D01*
X0398004Y0265259D01*
X0398000Y0265000D01*
X0398000Y0243000D01*
X0398000Y0014843D01*
X0398000Y0014842D02*
X0397990Y0014598D01*
X0397975Y0014354D01*
X0397953Y0014110D01*
X0397926Y0013867D01*
X0397893Y0013624D01*
X0397854Y0013383D01*
X0397809Y0013142D01*
X0397758Y0012903D01*
X0397701Y0012665D01*
X0397639Y0012428D01*
X0397571Y0012193D01*
X0397498Y0011960D01*
X0397418Y0011728D01*
X0397334Y0011499D01*
X0397243Y0011271D01*
X0397147Y0011046D01*
X0397046Y0010823D01*
X0396940Y0010603D01*
X0396828Y0010385D01*
X0396711Y0010170D01*
X0396589Y0009958D01*
X0396461Y0009749D01*
X0396329Y0009544D01*
X0396192Y0009341D01*
X0396050Y0009142D01*
X0395903Y0008946D01*
X0395751Y0008754D01*
X0395595Y0008566D01*
X0395434Y0008381D01*
X0395269Y0008201D01*
X0395100Y0008024D01*
X0394926Y0007852D01*
X0394748Y0007683D01*
X0394567Y0007519D01*
X0394381Y0007360D01*
X0394191Y0007205D01*
X0393998Y0007055D01*
X0393802Y0006909D01*
X0393601Y0006769D01*
X0393398Y0006633D01*
X0393191Y0006502D01*
X0392981Y0006376D01*
X0392769Y0006255D01*
X0392553Y0006140D01*
X0392334Y0006029D01*
X0392113Y0005924D01*
X0391890Y0005825D01*
X0391664Y0005730D01*
X0391436Y0005642D01*
X0391206Y0005558D01*
X0390974Y0005481D01*
X0390740Y0005409D01*
X0390504Y0005343D01*
X0390267Y0005282D01*
X0390029Y0005227D01*
X0389789Y0005178D01*
X0389548Y0005135D01*
X0389307Y0005097D01*
X0389064Y0005066D01*
X0388821Y0005040D01*
X0388577Y0005020D01*
X0388332Y0005006D01*
X0388088Y0004998D01*
X0387843Y0004996D01*
X0387598Y0005000D01*
X0032559Y0005000D01*
X0017126Y0025000D02*
X0017128Y0025193D01*
X0017135Y0025386D01*
X0017147Y0025579D01*
X0017164Y0025772D01*
X0017185Y0025964D01*
X0017211Y0026155D01*
X0017242Y0026346D01*
X0017277Y0026536D01*
X0017317Y0026725D01*
X0017362Y0026913D01*
X0017411Y0027100D01*
X0017465Y0027286D01*
X0017523Y0027470D01*
X0017586Y0027653D01*
X0017654Y0027834D01*
X0017725Y0028013D01*
X0017802Y0028191D01*
X0017882Y0028367D01*
X0017967Y0028540D01*
X0018056Y0028712D01*
X0018149Y0028881D01*
X0018246Y0029048D01*
X0018348Y0029213D01*
X0018453Y0029375D01*
X0018562Y0029534D01*
X0018676Y0029691D01*
X0018793Y0029844D01*
X0018913Y0029995D01*
X0019038Y0030143D01*
X0019166Y0030288D01*
X0019297Y0030429D01*
X0019432Y0030568D01*
X0019571Y0030703D01*
X0019712Y0030834D01*
X0019857Y0030962D01*
X0020005Y0031087D01*
X0020156Y0031207D01*
X0020309Y0031324D01*
X0020466Y0031438D01*
X0020625Y0031547D01*
X0020787Y0031652D01*
X0020952Y0031754D01*
X0021119Y0031851D01*
X0021288Y0031944D01*
X0021460Y0032033D01*
X0021633Y0032118D01*
X0021809Y0032198D01*
X0021987Y0032275D01*
X0022166Y0032346D01*
X0022347Y0032414D01*
X0022530Y0032477D01*
X0022714Y0032535D01*
X0022900Y0032589D01*
X0023087Y0032638D01*
X0023275Y0032683D01*
X0023464Y0032723D01*
X0023654Y0032758D01*
X0023845Y0032789D01*
X0024036Y0032815D01*
X0024228Y0032836D01*
X0024421Y0032853D01*
X0024614Y0032865D01*
X0024807Y0032872D01*
X0025000Y0032874D01*
X0025193Y0032872D01*
X0025386Y0032865D01*
X0025579Y0032853D01*
X0025772Y0032836D01*
X0025964Y0032815D01*
X0026155Y0032789D01*
X0026346Y0032758D01*
X0026536Y0032723D01*
X0026725Y0032683D01*
X0026913Y0032638D01*
X0027100Y0032589D01*
X0027286Y0032535D01*
X0027470Y0032477D01*
X0027653Y0032414D01*
X0027834Y0032346D01*
X0028013Y0032275D01*
X0028191Y0032198D01*
X0028367Y0032118D01*
X0028540Y0032033D01*
X0028712Y0031944D01*
X0028881Y0031851D01*
X0029048Y0031754D01*
X0029213Y0031652D01*
X0029375Y0031547D01*
X0029534Y0031438D01*
X0029691Y0031324D01*
X0029844Y0031207D01*
X0029995Y0031087D01*
X0030143Y0030962D01*
X0030288Y0030834D01*
X0030429Y0030703D01*
X0030568Y0030568D01*
X0030703Y0030429D01*
X0030834Y0030288D01*
X0030962Y0030143D01*
X0031087Y0029995D01*
X0031207Y0029844D01*
X0031324Y0029691D01*
X0031438Y0029534D01*
X0031547Y0029375D01*
X0031652Y0029213D01*
X0031754Y0029048D01*
X0031851Y0028881D01*
X0031944Y0028712D01*
X0032033Y0028540D01*
X0032118Y0028367D01*
X0032198Y0028191D01*
X0032275Y0028013D01*
X0032346Y0027834D01*
X0032414Y0027653D01*
X0032477Y0027470D01*
X0032535Y0027286D01*
X0032589Y0027100D01*
X0032638Y0026913D01*
X0032683Y0026725D01*
X0032723Y0026536D01*
X0032758Y0026346D01*
X0032789Y0026155D01*
X0032815Y0025964D01*
X0032836Y0025772D01*
X0032853Y0025579D01*
X0032865Y0025386D01*
X0032872Y0025193D01*
X0032874Y0025000D01*
X0032872Y0024807D01*
X0032865Y0024614D01*
X0032853Y0024421D01*
X0032836Y0024228D01*
X0032815Y0024036D01*
X0032789Y0023845D01*
X0032758Y0023654D01*
X0032723Y0023464D01*
X0032683Y0023275D01*
X0032638Y0023087D01*
X0032589Y0022900D01*
X0032535Y0022714D01*
X0032477Y0022530D01*
X0032414Y0022347D01*
X0032346Y0022166D01*
X0032275Y0021987D01*
X0032198Y0021809D01*
X0032118Y0021633D01*
X0032033Y0021460D01*
X0031944Y0021288D01*
X0031851Y0021119D01*
X0031754Y0020952D01*
X0031652Y0020787D01*
X0031547Y0020625D01*
X0031438Y0020466D01*
X0031324Y0020309D01*
X0031207Y0020156D01*
X0031087Y0020005D01*
X0030962Y0019857D01*
X0030834Y0019712D01*
X0030703Y0019571D01*
X0030568Y0019432D01*
X0030429Y0019297D01*
X0030288Y0019166D01*
X0030143Y0019038D01*
X0029995Y0018913D01*
X0029844Y0018793D01*
X0029691Y0018676D01*
X0029534Y0018562D01*
X0029375Y0018453D01*
X0029213Y0018348D01*
X0029048Y0018246D01*
X0028881Y0018149D01*
X0028712Y0018056D01*
X0028540Y0017967D01*
X0028367Y0017882D01*
X0028191Y0017802D01*
X0028013Y0017725D01*
X0027834Y0017654D01*
X0027653Y0017586D01*
X0027470Y0017523D01*
X0027286Y0017465D01*
X0027100Y0017411D01*
X0026913Y0017362D01*
X0026725Y0017317D01*
X0026536Y0017277D01*
X0026346Y0017242D01*
X0026155Y0017211D01*
X0025964Y0017185D01*
X0025772Y0017164D01*
X0025579Y0017147D01*
X0025386Y0017135D01*
X0025193Y0017128D01*
X0025000Y0017126D01*
X0024807Y0017128D01*
X0024614Y0017135D01*
X0024421Y0017147D01*
X0024228Y0017164D01*
X0024036Y0017185D01*
X0023845Y0017211D01*
X0023654Y0017242D01*
X0023464Y0017277D01*
X0023275Y0017317D01*
X0023087Y0017362D01*
X0022900Y0017411D01*
X0022714Y0017465D01*
X0022530Y0017523D01*
X0022347Y0017586D01*
X0022166Y0017654D01*
X0021987Y0017725D01*
X0021809Y0017802D01*
X0021633Y0017882D01*
X0021460Y0017967D01*
X0021288Y0018056D01*
X0021119Y0018149D01*
X0020952Y0018246D01*
X0020787Y0018348D01*
X0020625Y0018453D01*
X0020466Y0018562D01*
X0020309Y0018676D01*
X0020156Y0018793D01*
X0020005Y0018913D01*
X0019857Y0019038D01*
X0019712Y0019166D01*
X0019571Y0019297D01*
X0019432Y0019432D01*
X0019297Y0019571D01*
X0019166Y0019712D01*
X0019038Y0019857D01*
X0018913Y0020005D01*
X0018793Y0020156D01*
X0018676Y0020309D01*
X0018562Y0020466D01*
X0018453Y0020625D01*
X0018348Y0020787D01*
X0018246Y0020952D01*
X0018149Y0021119D01*
X0018056Y0021288D01*
X0017967Y0021460D01*
X0017882Y0021633D01*
X0017802Y0021809D01*
X0017725Y0021987D01*
X0017654Y0022166D01*
X0017586Y0022347D01*
X0017523Y0022530D01*
X0017465Y0022714D01*
X0017411Y0022900D01*
X0017362Y0023087D01*
X0017317Y0023275D01*
X0017277Y0023464D01*
X0017242Y0023654D01*
X0017211Y0023845D01*
X0017185Y0024036D01*
X0017164Y0024228D01*
X0017147Y0024421D01*
X0017135Y0024614D01*
X0017128Y0024807D01*
X0017126Y0025000D01*
X0017126Y0256000D02*
X0017128Y0256193D01*
X0017135Y0256386D01*
X0017147Y0256579D01*
X0017164Y0256772D01*
X0017185Y0256964D01*
X0017211Y0257155D01*
X0017242Y0257346D01*
X0017277Y0257536D01*
X0017317Y0257725D01*
X0017362Y0257913D01*
X0017411Y0258100D01*
X0017465Y0258286D01*
X0017523Y0258470D01*
X0017586Y0258653D01*
X0017654Y0258834D01*
X0017725Y0259013D01*
X0017802Y0259191D01*
X0017882Y0259367D01*
X0017967Y0259540D01*
X0018056Y0259712D01*
X0018149Y0259881D01*
X0018246Y0260048D01*
X0018348Y0260213D01*
X0018453Y0260375D01*
X0018562Y0260534D01*
X0018676Y0260691D01*
X0018793Y0260844D01*
X0018913Y0260995D01*
X0019038Y0261143D01*
X0019166Y0261288D01*
X0019297Y0261429D01*
X0019432Y0261568D01*
X0019571Y0261703D01*
X0019712Y0261834D01*
X0019857Y0261962D01*
X0020005Y0262087D01*
X0020156Y0262207D01*
X0020309Y0262324D01*
X0020466Y0262438D01*
X0020625Y0262547D01*
X0020787Y0262652D01*
X0020952Y0262754D01*
X0021119Y0262851D01*
X0021288Y0262944D01*
X0021460Y0263033D01*
X0021633Y0263118D01*
X0021809Y0263198D01*
X0021987Y0263275D01*
X0022166Y0263346D01*
X0022347Y0263414D01*
X0022530Y0263477D01*
X0022714Y0263535D01*
X0022900Y0263589D01*
X0023087Y0263638D01*
X0023275Y0263683D01*
X0023464Y0263723D01*
X0023654Y0263758D01*
X0023845Y0263789D01*
X0024036Y0263815D01*
X0024228Y0263836D01*
X0024421Y0263853D01*
X0024614Y0263865D01*
X0024807Y0263872D01*
X0025000Y0263874D01*
X0025193Y0263872D01*
X0025386Y0263865D01*
X0025579Y0263853D01*
X0025772Y0263836D01*
X0025964Y0263815D01*
X0026155Y0263789D01*
X0026346Y0263758D01*
X0026536Y0263723D01*
X0026725Y0263683D01*
X0026913Y0263638D01*
X0027100Y0263589D01*
X0027286Y0263535D01*
X0027470Y0263477D01*
X0027653Y0263414D01*
X0027834Y0263346D01*
X0028013Y0263275D01*
X0028191Y0263198D01*
X0028367Y0263118D01*
X0028540Y0263033D01*
X0028712Y0262944D01*
X0028881Y0262851D01*
X0029048Y0262754D01*
X0029213Y0262652D01*
X0029375Y0262547D01*
X0029534Y0262438D01*
X0029691Y0262324D01*
X0029844Y0262207D01*
X0029995Y0262087D01*
X0030143Y0261962D01*
X0030288Y0261834D01*
X0030429Y0261703D01*
X0030568Y0261568D01*
X0030703Y0261429D01*
X0030834Y0261288D01*
X0030962Y0261143D01*
X0031087Y0260995D01*
X0031207Y0260844D01*
X0031324Y0260691D01*
X0031438Y0260534D01*
X0031547Y0260375D01*
X0031652Y0260213D01*
X0031754Y0260048D01*
X0031851Y0259881D01*
X0031944Y0259712D01*
X0032033Y0259540D01*
X0032118Y0259367D01*
X0032198Y0259191D01*
X0032275Y0259013D01*
X0032346Y0258834D01*
X0032414Y0258653D01*
X0032477Y0258470D01*
X0032535Y0258286D01*
X0032589Y0258100D01*
X0032638Y0257913D01*
X0032683Y0257725D01*
X0032723Y0257536D01*
X0032758Y0257346D01*
X0032789Y0257155D01*
X0032815Y0256964D01*
X0032836Y0256772D01*
X0032853Y0256579D01*
X0032865Y0256386D01*
X0032872Y0256193D01*
X0032874Y0256000D01*
X0032872Y0255807D01*
X0032865Y0255614D01*
X0032853Y0255421D01*
X0032836Y0255228D01*
X0032815Y0255036D01*
X0032789Y0254845D01*
X0032758Y0254654D01*
X0032723Y0254464D01*
X0032683Y0254275D01*
X0032638Y0254087D01*
X0032589Y0253900D01*
X0032535Y0253714D01*
X0032477Y0253530D01*
X0032414Y0253347D01*
X0032346Y0253166D01*
X0032275Y0252987D01*
X0032198Y0252809D01*
X0032118Y0252633D01*
X0032033Y0252460D01*
X0031944Y0252288D01*
X0031851Y0252119D01*
X0031754Y0251952D01*
X0031652Y0251787D01*
X0031547Y0251625D01*
X0031438Y0251466D01*
X0031324Y0251309D01*
X0031207Y0251156D01*
X0031087Y0251005D01*
X0030962Y0250857D01*
X0030834Y0250712D01*
X0030703Y0250571D01*
X0030568Y0250432D01*
X0030429Y0250297D01*
X0030288Y0250166D01*
X0030143Y0250038D01*
X0029995Y0249913D01*
X0029844Y0249793D01*
X0029691Y0249676D01*
X0029534Y0249562D01*
X0029375Y0249453D01*
X0029213Y0249348D01*
X0029048Y0249246D01*
X0028881Y0249149D01*
X0028712Y0249056D01*
X0028540Y0248967D01*
X0028367Y0248882D01*
X0028191Y0248802D01*
X0028013Y0248725D01*
X0027834Y0248654D01*
X0027653Y0248586D01*
X0027470Y0248523D01*
X0027286Y0248465D01*
X0027100Y0248411D01*
X0026913Y0248362D01*
X0026725Y0248317D01*
X0026536Y0248277D01*
X0026346Y0248242D01*
X0026155Y0248211D01*
X0025964Y0248185D01*
X0025772Y0248164D01*
X0025579Y0248147D01*
X0025386Y0248135D01*
X0025193Y0248128D01*
X0025000Y0248126D01*
X0024807Y0248128D01*
X0024614Y0248135D01*
X0024421Y0248147D01*
X0024228Y0248164D01*
X0024036Y0248185D01*
X0023845Y0248211D01*
X0023654Y0248242D01*
X0023464Y0248277D01*
X0023275Y0248317D01*
X0023087Y0248362D01*
X0022900Y0248411D01*
X0022714Y0248465D01*
X0022530Y0248523D01*
X0022347Y0248586D01*
X0022166Y0248654D01*
X0021987Y0248725D01*
X0021809Y0248802D01*
X0021633Y0248882D01*
X0021460Y0248967D01*
X0021288Y0249056D01*
X0021119Y0249149D01*
X0020952Y0249246D01*
X0020787Y0249348D01*
X0020625Y0249453D01*
X0020466Y0249562D01*
X0020309Y0249676D01*
X0020156Y0249793D01*
X0020005Y0249913D01*
X0019857Y0250038D01*
X0019712Y0250166D01*
X0019571Y0250297D01*
X0019432Y0250432D01*
X0019297Y0250571D01*
X0019166Y0250712D01*
X0019038Y0250857D01*
X0018913Y0251005D01*
X0018793Y0251156D01*
X0018676Y0251309D01*
X0018562Y0251466D01*
X0018453Y0251625D01*
X0018348Y0251787D01*
X0018246Y0251952D01*
X0018149Y0252119D01*
X0018056Y0252288D01*
X0017967Y0252460D01*
X0017882Y0252633D01*
X0017802Y0252809D01*
X0017725Y0252987D01*
X0017654Y0253166D01*
X0017586Y0253347D01*
X0017523Y0253530D01*
X0017465Y0253714D01*
X0017411Y0253900D01*
X0017362Y0254087D01*
X0017317Y0254275D01*
X0017277Y0254464D01*
X0017242Y0254654D01*
X0017211Y0254845D01*
X0017185Y0255036D01*
X0017164Y0255228D01*
X0017147Y0255421D01*
X0017135Y0255614D01*
X0017128Y0255807D01*
X0017126Y0256000D01*
X0370126Y0256000D02*
X0370128Y0256193D01*
X0370135Y0256386D01*
X0370147Y0256579D01*
X0370164Y0256772D01*
X0370185Y0256964D01*
X0370211Y0257155D01*
X0370242Y0257346D01*
X0370277Y0257536D01*
X0370317Y0257725D01*
X0370362Y0257913D01*
X0370411Y0258100D01*
X0370465Y0258286D01*
X0370523Y0258470D01*
X0370586Y0258653D01*
X0370654Y0258834D01*
X0370725Y0259013D01*
X0370802Y0259191D01*
X0370882Y0259367D01*
X0370967Y0259540D01*
X0371056Y0259712D01*
X0371149Y0259881D01*
X0371246Y0260048D01*
X0371348Y0260213D01*
X0371453Y0260375D01*
X0371562Y0260534D01*
X0371676Y0260691D01*
X0371793Y0260844D01*
X0371913Y0260995D01*
X0372038Y0261143D01*
X0372166Y0261288D01*
X0372297Y0261429D01*
X0372432Y0261568D01*
X0372571Y0261703D01*
X0372712Y0261834D01*
X0372857Y0261962D01*
X0373005Y0262087D01*
X0373156Y0262207D01*
X0373309Y0262324D01*
X0373466Y0262438D01*
X0373625Y0262547D01*
X0373787Y0262652D01*
X0373952Y0262754D01*
X0374119Y0262851D01*
X0374288Y0262944D01*
X0374460Y0263033D01*
X0374633Y0263118D01*
X0374809Y0263198D01*
X0374987Y0263275D01*
X0375166Y0263346D01*
X0375347Y0263414D01*
X0375530Y0263477D01*
X0375714Y0263535D01*
X0375900Y0263589D01*
X0376087Y0263638D01*
X0376275Y0263683D01*
X0376464Y0263723D01*
X0376654Y0263758D01*
X0376845Y0263789D01*
X0377036Y0263815D01*
X0377228Y0263836D01*
X0377421Y0263853D01*
X0377614Y0263865D01*
X0377807Y0263872D01*
X0378000Y0263874D01*
X0378193Y0263872D01*
X0378386Y0263865D01*
X0378579Y0263853D01*
X0378772Y0263836D01*
X0378964Y0263815D01*
X0379155Y0263789D01*
X0379346Y0263758D01*
X0379536Y0263723D01*
X0379725Y0263683D01*
X0379913Y0263638D01*
X0380100Y0263589D01*
X0380286Y0263535D01*
X0380470Y0263477D01*
X0380653Y0263414D01*
X0380834Y0263346D01*
X0381013Y0263275D01*
X0381191Y0263198D01*
X0381367Y0263118D01*
X0381540Y0263033D01*
X0381712Y0262944D01*
X0381881Y0262851D01*
X0382048Y0262754D01*
X0382213Y0262652D01*
X0382375Y0262547D01*
X0382534Y0262438D01*
X0382691Y0262324D01*
X0382844Y0262207D01*
X0382995Y0262087D01*
X0383143Y0261962D01*
X0383288Y0261834D01*
X0383429Y0261703D01*
X0383568Y0261568D01*
X0383703Y0261429D01*
X0383834Y0261288D01*
X0383962Y0261143D01*
X0384087Y0260995D01*
X0384207Y0260844D01*
X0384324Y0260691D01*
X0384438Y0260534D01*
X0384547Y0260375D01*
X0384652Y0260213D01*
X0384754Y0260048D01*
X0384851Y0259881D01*
X0384944Y0259712D01*
X0385033Y0259540D01*
X0385118Y0259367D01*
X0385198Y0259191D01*
X0385275Y0259013D01*
X0385346Y0258834D01*
X0385414Y0258653D01*
X0385477Y0258470D01*
X0385535Y0258286D01*
X0385589Y0258100D01*
X0385638Y0257913D01*
X0385683Y0257725D01*
X0385723Y0257536D01*
X0385758Y0257346D01*
X0385789Y0257155D01*
X0385815Y0256964D01*
X0385836Y0256772D01*
X0385853Y0256579D01*
X0385865Y0256386D01*
X0385872Y0256193D01*
X0385874Y0256000D01*
X0385872Y0255807D01*
X0385865Y0255614D01*
X0385853Y0255421D01*
X0385836Y0255228D01*
X0385815Y0255036D01*
X0385789Y0254845D01*
X0385758Y0254654D01*
X0385723Y0254464D01*
X0385683Y0254275D01*
X0385638Y0254087D01*
X0385589Y0253900D01*
X0385535Y0253714D01*
X0385477Y0253530D01*
X0385414Y0253347D01*
X0385346Y0253166D01*
X0385275Y0252987D01*
X0385198Y0252809D01*
X0385118Y0252633D01*
X0385033Y0252460D01*
X0384944Y0252288D01*
X0384851Y0252119D01*
X0384754Y0251952D01*
X0384652Y0251787D01*
X0384547Y0251625D01*
X0384438Y0251466D01*
X0384324Y0251309D01*
X0384207Y0251156D01*
X0384087Y0251005D01*
X0383962Y0250857D01*
X0383834Y0250712D01*
X0383703Y0250571D01*
X0383568Y0250432D01*
X0383429Y0250297D01*
X0383288Y0250166D01*
X0383143Y0250038D01*
X0382995Y0249913D01*
X0382844Y0249793D01*
X0382691Y0249676D01*
X0382534Y0249562D01*
X0382375Y0249453D01*
X0382213Y0249348D01*
X0382048Y0249246D01*
X0381881Y0249149D01*
X0381712Y0249056D01*
X0381540Y0248967D01*
X0381367Y0248882D01*
X0381191Y0248802D01*
X0381013Y0248725D01*
X0380834Y0248654D01*
X0380653Y0248586D01*
X0380470Y0248523D01*
X0380286Y0248465D01*
X0380100Y0248411D01*
X0379913Y0248362D01*
X0379725Y0248317D01*
X0379536Y0248277D01*
X0379346Y0248242D01*
X0379155Y0248211D01*
X0378964Y0248185D01*
X0378772Y0248164D01*
X0378579Y0248147D01*
X0378386Y0248135D01*
X0378193Y0248128D01*
X0378000Y0248126D01*
X0377807Y0248128D01*
X0377614Y0248135D01*
X0377421Y0248147D01*
X0377228Y0248164D01*
X0377036Y0248185D01*
X0376845Y0248211D01*
X0376654Y0248242D01*
X0376464Y0248277D01*
X0376275Y0248317D01*
X0376087Y0248362D01*
X0375900Y0248411D01*
X0375714Y0248465D01*
X0375530Y0248523D01*
X0375347Y0248586D01*
X0375166Y0248654D01*
X0374987Y0248725D01*
X0374809Y0248802D01*
X0374633Y0248882D01*
X0374460Y0248967D01*
X0374288Y0249056D01*
X0374119Y0249149D01*
X0373952Y0249246D01*
X0373787Y0249348D01*
X0373625Y0249453D01*
X0373466Y0249562D01*
X0373309Y0249676D01*
X0373156Y0249793D01*
X0373005Y0249913D01*
X0372857Y0250038D01*
X0372712Y0250166D01*
X0372571Y0250297D01*
X0372432Y0250432D01*
X0372297Y0250571D01*
X0372166Y0250712D01*
X0372038Y0250857D01*
X0371913Y0251005D01*
X0371793Y0251156D01*
X0371676Y0251309D01*
X0371562Y0251466D01*
X0371453Y0251625D01*
X0371348Y0251787D01*
X0371246Y0251952D01*
X0371149Y0252119D01*
X0371056Y0252288D01*
X0370967Y0252460D01*
X0370882Y0252633D01*
X0370802Y0252809D01*
X0370725Y0252987D01*
X0370654Y0253166D01*
X0370586Y0253347D01*
X0370523Y0253530D01*
X0370465Y0253714D01*
X0370411Y0253900D01*
X0370362Y0254087D01*
X0370317Y0254275D01*
X0370277Y0254464D01*
X0370242Y0254654D01*
X0370211Y0254845D01*
X0370185Y0255036D01*
X0370164Y0255228D01*
X0370147Y0255421D01*
X0370135Y0255614D01*
X0370128Y0255807D01*
X0370126Y0256000D01*
X0370126Y0025000D02*
X0370128Y0025193D01*
X0370135Y0025386D01*
X0370147Y0025579D01*
X0370164Y0025772D01*
X0370185Y0025964D01*
X0370211Y0026155D01*
X0370242Y0026346D01*
X0370277Y0026536D01*
X0370317Y0026725D01*
X0370362Y0026913D01*
X0370411Y0027100D01*
X0370465Y0027286D01*
X0370523Y0027470D01*
X0370586Y0027653D01*
X0370654Y0027834D01*
X0370725Y0028013D01*
X0370802Y0028191D01*
X0370882Y0028367D01*
X0370967Y0028540D01*
X0371056Y0028712D01*
X0371149Y0028881D01*
X0371246Y0029048D01*
X0371348Y0029213D01*
X0371453Y0029375D01*
X0371562Y0029534D01*
X0371676Y0029691D01*
X0371793Y0029844D01*
X0371913Y0029995D01*
X0372038Y0030143D01*
X0372166Y0030288D01*
X0372297Y0030429D01*
X0372432Y0030568D01*
X0372571Y0030703D01*
X0372712Y0030834D01*
X0372857Y0030962D01*
X0373005Y0031087D01*
X0373156Y0031207D01*
X0373309Y0031324D01*
X0373466Y0031438D01*
X0373625Y0031547D01*
X0373787Y0031652D01*
X0373952Y0031754D01*
X0374119Y0031851D01*
X0374288Y0031944D01*
X0374460Y0032033D01*
X0374633Y0032118D01*
X0374809Y0032198D01*
X0374987Y0032275D01*
X0375166Y0032346D01*
X0375347Y0032414D01*
X0375530Y0032477D01*
X0375714Y0032535D01*
X0375900Y0032589D01*
X0376087Y0032638D01*
X0376275Y0032683D01*
X0376464Y0032723D01*
X0376654Y0032758D01*
X0376845Y0032789D01*
X0377036Y0032815D01*
X0377228Y0032836D01*
X0377421Y0032853D01*
X0377614Y0032865D01*
X0377807Y0032872D01*
X0378000Y0032874D01*
X0378193Y0032872D01*
X0378386Y0032865D01*
X0378579Y0032853D01*
X0378772Y0032836D01*
X0378964Y0032815D01*
X0379155Y0032789D01*
X0379346Y0032758D01*
X0379536Y0032723D01*
X0379725Y0032683D01*
X0379913Y0032638D01*
X0380100Y0032589D01*
X0380286Y0032535D01*
X0380470Y0032477D01*
X0380653Y0032414D01*
X0380834Y0032346D01*
X0381013Y0032275D01*
X0381191Y0032198D01*
X0381367Y0032118D01*
X0381540Y0032033D01*
X0381712Y0031944D01*
X0381881Y0031851D01*
X0382048Y0031754D01*
X0382213Y0031652D01*
X0382375Y0031547D01*
X0382534Y0031438D01*
X0382691Y0031324D01*
X0382844Y0031207D01*
X0382995Y0031087D01*
X0383143Y0030962D01*
X0383288Y0030834D01*
X0383429Y0030703D01*
X0383568Y0030568D01*
X0383703Y0030429D01*
X0383834Y0030288D01*
X0383962Y0030143D01*
X0384087Y0029995D01*
X0384207Y0029844D01*
X0384324Y0029691D01*
X0384438Y0029534D01*
X0384547Y0029375D01*
X0384652Y0029213D01*
X0384754Y0029048D01*
X0384851Y0028881D01*
X0384944Y0028712D01*
X0385033Y0028540D01*
X0385118Y0028367D01*
X0385198Y0028191D01*
X0385275Y0028013D01*
X0385346Y0027834D01*
X0385414Y0027653D01*
X0385477Y0027470D01*
X0385535Y0027286D01*
X0385589Y0027100D01*
X0385638Y0026913D01*
X0385683Y0026725D01*
X0385723Y0026536D01*
X0385758Y0026346D01*
X0385789Y0026155D01*
X0385815Y0025964D01*
X0385836Y0025772D01*
X0385853Y0025579D01*
X0385865Y0025386D01*
X0385872Y0025193D01*
X0385874Y0025000D01*
X0385872Y0024807D01*
X0385865Y0024614D01*
X0385853Y0024421D01*
X0385836Y0024228D01*
X0385815Y0024036D01*
X0385789Y0023845D01*
X0385758Y0023654D01*
X0385723Y0023464D01*
X0385683Y0023275D01*
X0385638Y0023087D01*
X0385589Y0022900D01*
X0385535Y0022714D01*
X0385477Y0022530D01*
X0385414Y0022347D01*
X0385346Y0022166D01*
X0385275Y0021987D01*
X0385198Y0021809D01*
X0385118Y0021633D01*
X0385033Y0021460D01*
X0384944Y0021288D01*
X0384851Y0021119D01*
X0384754Y0020952D01*
X0384652Y0020787D01*
X0384547Y0020625D01*
X0384438Y0020466D01*
X0384324Y0020309D01*
X0384207Y0020156D01*
X0384087Y0020005D01*
X0383962Y0019857D01*
X0383834Y0019712D01*
X0383703Y0019571D01*
X0383568Y0019432D01*
X0383429Y0019297D01*
X0383288Y0019166D01*
X0383143Y0019038D01*
X0382995Y0018913D01*
X0382844Y0018793D01*
X0382691Y0018676D01*
X0382534Y0018562D01*
X0382375Y0018453D01*
X0382213Y0018348D01*
X0382048Y0018246D01*
X0381881Y0018149D01*
X0381712Y0018056D01*
X0381540Y0017967D01*
X0381367Y0017882D01*
X0381191Y0017802D01*
X0381013Y0017725D01*
X0380834Y0017654D01*
X0380653Y0017586D01*
X0380470Y0017523D01*
X0380286Y0017465D01*
X0380100Y0017411D01*
X0379913Y0017362D01*
X0379725Y0017317D01*
X0379536Y0017277D01*
X0379346Y0017242D01*
X0379155Y0017211D01*
X0378964Y0017185D01*
X0378772Y0017164D01*
X0378579Y0017147D01*
X0378386Y0017135D01*
X0378193Y0017128D01*
X0378000Y0017126D01*
X0377807Y0017128D01*
X0377614Y0017135D01*
X0377421Y0017147D01*
X0377228Y0017164D01*
X0377036Y0017185D01*
X0376845Y0017211D01*
X0376654Y0017242D01*
X0376464Y0017277D01*
X0376275Y0017317D01*
X0376087Y0017362D01*
X0375900Y0017411D01*
X0375714Y0017465D01*
X0375530Y0017523D01*
X0375347Y0017586D01*
X0375166Y0017654D01*
X0374987Y0017725D01*
X0374809Y0017802D01*
X0374633Y0017882D01*
X0374460Y0017967D01*
X0374288Y0018056D01*
X0374119Y0018149D01*
X0373952Y0018246D01*
X0373787Y0018348D01*
X0373625Y0018453D01*
X0373466Y0018562D01*
X0373309Y0018676D01*
X0373156Y0018793D01*
X0373005Y0018913D01*
X0372857Y0019038D01*
X0372712Y0019166D01*
X0372571Y0019297D01*
X0372432Y0019432D01*
X0372297Y0019571D01*
X0372166Y0019712D01*
X0372038Y0019857D01*
X0371913Y0020005D01*
X0371793Y0020156D01*
X0371676Y0020309D01*
X0371562Y0020466D01*
X0371453Y0020625D01*
X0371348Y0020787D01*
X0371246Y0020952D01*
X0371149Y0021119D01*
X0371056Y0021288D01*
X0370967Y0021460D01*
X0370882Y0021633D01*
X0370802Y0021809D01*
X0370725Y0021987D01*
X0370654Y0022166D01*
X0370586Y0022347D01*
X0370523Y0022530D01*
X0370465Y0022714D01*
X0370411Y0022900D01*
X0370362Y0023087D01*
X0370317Y0023275D01*
X0370277Y0023464D01*
X0370242Y0023654D01*
X0370211Y0023845D01*
X0370185Y0024036D01*
X0370164Y0024228D01*
X0370147Y0024421D01*
X0370135Y0024614D01*
X0370128Y0024807D01*
X0370126Y0025000D01*
D14*
X0215000Y0070500D03*
X0205000Y0069500D03*
X0195000Y0070500D03*
X0195000Y0080500D03*
X0205000Y0079500D03*
X0215000Y0080500D03*
X0200000Y0040500D03*
X0190000Y0039500D03*
X0180000Y0040500D03*
X0170000Y0039500D03*
X0160000Y0040500D03*
X0150000Y0039500D03*
X0140000Y0040500D03*
X0110000Y0040500D03*
X0100000Y0039500D03*
X0090000Y0040500D03*
X0080000Y0039500D03*
X0070000Y0040500D03*
X0060000Y0039500D03*
X0050000Y0040500D03*
X0024500Y0105000D03*
X0025500Y0115000D03*
X0024500Y0125000D03*
X0025500Y0135000D03*
X0024500Y0145000D03*
X0025500Y0155000D03*
X0024500Y0165000D03*
X0074500Y0210000D03*
X0084500Y0210000D03*
X0085500Y0220000D03*
X0075500Y0220000D03*
X0074500Y0230000D03*
X0084500Y0230000D03*
X0190000Y0234500D03*
X0200000Y0235500D03*
X0210000Y0234500D03*
X0220000Y0235500D03*
X0230000Y0234500D03*
X0240000Y0235500D03*
X0250000Y0234500D03*
X0250000Y0215000D03*
X0230000Y0215000D03*
X0230000Y0175000D03*
X0250000Y0175000D03*
D15*
X0285700Y0050000D03*
D16*
X0270520Y0050000D03*
X0258141Y0050000D03*
X0242961Y0050000D03*
D17*
X0352953Y0175000D03*
D18*
X0366063Y0175000D03*
D19*
X0365000Y0135000D03*
X0355000Y0135000D03*
D20*
X0210000Y0039500D03*
X0120000Y0039500D03*
X0025500Y0175000D03*
X0180000Y0235500D03*
D21*
X0230000Y0215000D02*
X0227500Y0200000D01*
X0232500Y0190000D02*
X0230000Y0175000D01*
X0250000Y0175000D02*
X0252500Y0190000D01*
X0247500Y0200000D02*
X0250000Y0215000D01*
D22*
X0247500Y0200000D02*
X0252500Y0190000D01*
X0232500Y0190000D02*
X0227500Y0200000D01*
D23*
X0165000Y0142600D02*
X0165000Y0137400D01*
X0155000Y0137400D02*
X0155000Y0142600D01*
X0145000Y0142600D02*
X0145000Y0137400D01*
X0135000Y0137400D02*
X0135000Y0142600D01*
X0125000Y0142600D02*
X0125000Y0137400D01*
X0115000Y0137400D02*
X0115000Y0142600D01*
X0105000Y0142600D02*
X0105000Y0137400D01*
X0095000Y0137400D02*
X0095000Y0142600D01*
X0085000Y0142600D02*
X0085000Y0137400D01*
X0227400Y0120000D02*
X0232600Y0120000D01*
X0247400Y0130000D02*
X0252600Y0130000D01*
X0272400Y0120000D02*
X0277600Y0120000D01*
X0292400Y0110000D02*
X0297600Y0110000D01*
X0297600Y0130000D02*
X0292400Y0130000D01*
X0252600Y0110000D02*
X0247400Y0110000D01*
D24*
X0243291Y0112100D02*
X0199575Y0112100D01*
X0199575Y0111515D02*
X0198878Y0109834D01*
X0197591Y0108547D01*
X0195910Y0107850D01*
X0194090Y0107850D01*
X0192409Y0108547D01*
X0191122Y0109834D01*
X0190425Y0111515D01*
X0190425Y0118485D01*
X0191122Y0120166D01*
X0192409Y0121453D01*
X0194090Y0122150D01*
X0195910Y0122150D01*
X0197591Y0121453D01*
X0198878Y0120166D01*
X0199575Y0118485D01*
X0199575Y0111515D01*
X0199155Y0110502D02*
X0242800Y0110502D01*
X0242800Y0110915D02*
X0242800Y0109085D01*
X0243500Y0107394D01*
X0244794Y0106100D01*
X0246485Y0105400D01*
X0253515Y0105400D01*
X0255206Y0106100D01*
X0256500Y0107394D01*
X0257200Y0109085D01*
X0257200Y0110915D01*
X0256500Y0112606D01*
X0255206Y0113900D01*
X0253515Y0114600D01*
X0246485Y0114600D01*
X0244794Y0113900D01*
X0243500Y0112606D01*
X0242800Y0110915D01*
X0242875Y0108903D02*
X0197948Y0108903D01*
X0199575Y0113699D02*
X0244593Y0113699D01*
X0243590Y0107305D02*
X0161372Y0107305D01*
X0162409Y0108547D02*
X0164090Y0107850D01*
X0165910Y0107850D01*
X0167591Y0108547D01*
X0168878Y0109834D01*
X0169575Y0111515D01*
X0169575Y0118485D01*
X0168878Y0120166D01*
X0167591Y0121453D01*
X0165910Y0122150D01*
X0164090Y0122150D01*
X0162409Y0121453D01*
X0161122Y0120166D01*
X0160425Y0118485D01*
X0160425Y0111515D01*
X0161122Y0109834D01*
X0162409Y0108547D01*
X0162052Y0108903D02*
X0159774Y0108903D01*
X0158861Y0109816D02*
X0158878Y0109834D01*
X0159575Y0111515D01*
X0159575Y0118485D01*
X0158878Y0120166D01*
X0157591Y0121453D01*
X0155910Y0122150D01*
X0154090Y0122150D01*
X0152409Y0121453D01*
X0151122Y0120166D01*
X0150425Y0118485D01*
X0150425Y0111515D01*
X0151122Y0109834D01*
X0152409Y0108547D01*
X0153036Y0108287D01*
X0162796Y0098527D01*
X0163527Y0097796D01*
X0164000Y0097600D01*
X0156077Y0097600D01*
X0147600Y0106077D01*
X0147600Y0108555D01*
X0148878Y0109834D01*
X0149575Y0111515D01*
X0149575Y0118485D01*
X0148878Y0120166D01*
X0147591Y0121453D01*
X0145910Y0122150D01*
X0144090Y0122150D01*
X0142409Y0121453D01*
X0141122Y0120166D01*
X0140425Y0118485D01*
X0140425Y0111515D01*
X0141122Y0109834D01*
X0142400Y0108555D01*
X0142400Y0104483D01*
X0142796Y0103527D01*
X0152796Y0093527D01*
X0153527Y0092796D01*
X0154483Y0092400D01*
X0198923Y0092400D01*
X0202400Y0088923D01*
X0202400Y0084593D01*
X0201771Y0084332D01*
X0200223Y0082784D01*
X0199832Y0083729D01*
X0198229Y0085332D01*
X0196134Y0086200D01*
X0193866Y0086200D01*
X0191771Y0085332D01*
X0190168Y0083729D01*
X0189892Y0083062D01*
X0189027Y0082704D01*
X0178527Y0072204D01*
X0177796Y0071473D01*
X0177400Y0070517D01*
X0177400Y0059483D01*
X0177796Y0058527D01*
X0182796Y0053527D01*
X0183527Y0052796D01*
X0184483Y0052400D01*
X0193923Y0052400D01*
X0197400Y0048923D01*
X0197400Y0045593D01*
X0196771Y0045332D01*
X0195168Y0043729D01*
X0194777Y0042784D01*
X0193229Y0044332D01*
X0191134Y0045200D01*
X0188866Y0045200D01*
X0186771Y0044332D01*
X0185223Y0042784D01*
X0184832Y0043729D01*
X0183229Y0045332D01*
X0181134Y0046200D01*
X0178866Y0046200D01*
X0176771Y0045332D01*
X0175168Y0043729D01*
X0174777Y0042784D01*
X0173229Y0044332D01*
X0171134Y0045200D01*
X0168866Y0045200D01*
X0166771Y0044332D01*
X0165223Y0042784D01*
X0164832Y0043729D01*
X0163229Y0045332D01*
X0161134Y0046200D01*
X0158866Y0046200D01*
X0156771Y0045332D01*
X0155168Y0043729D01*
X0154777Y0042784D01*
X0153229Y0044332D01*
X0151134Y0045200D01*
X0148866Y0045200D01*
X0146771Y0044332D01*
X0145223Y0042784D01*
X0144832Y0043729D01*
X0143229Y0045332D01*
X0141134Y0046200D01*
X0138866Y0046200D01*
X0136771Y0045332D01*
X0135168Y0043729D01*
X0134300Y0041634D01*
X0134300Y0039366D01*
X0135168Y0037271D01*
X0136771Y0035668D01*
X0138866Y0034800D01*
X0141134Y0034800D01*
X0143229Y0035668D01*
X0144777Y0037216D01*
X0145168Y0036271D01*
X0146771Y0034668D01*
X0148866Y0033800D01*
X0151134Y0033800D01*
X0153229Y0034668D01*
X0154832Y0036271D01*
X0155223Y0037216D01*
X0156771Y0035668D01*
X0158866Y0034800D01*
X0161134Y0034800D01*
X0163229Y0035668D01*
X0164777Y0037216D01*
X0165168Y0036271D01*
X0166771Y0034668D01*
X0168866Y0033800D01*
X0171134Y0033800D01*
X0173229Y0034668D01*
X0174832Y0036271D01*
X0175223Y0037216D01*
X0176771Y0035668D01*
X0178866Y0034800D01*
X0181134Y0034800D01*
X0183229Y0035668D01*
X0184777Y0037216D01*
X0185168Y0036271D01*
X0186771Y0034668D01*
X0188866Y0033800D01*
X0191134Y0033800D01*
X0193229Y0034668D01*
X0194832Y0036271D01*
X0195223Y0037216D01*
X0196771Y0035668D01*
X0198866Y0034800D01*
X0201134Y0034800D01*
X0203229Y0035668D01*
X0204300Y0036739D01*
X0204300Y0034972D01*
X0205472Y0033800D01*
X0214528Y0033800D01*
X0215700Y0034972D01*
X0215700Y0044028D01*
X0214528Y0045200D01*
X0205472Y0045200D01*
X0204416Y0044145D01*
X0203229Y0045332D01*
X0202600Y0045593D01*
X0202600Y0050517D01*
X0202204Y0051473D01*
X0196473Y0057204D01*
X0195517Y0057600D01*
X0186077Y0057600D01*
X0182600Y0061077D01*
X0182600Y0068923D01*
X0190558Y0076881D01*
X0191771Y0075668D01*
X0192176Y0075500D01*
X0191771Y0075332D01*
X0190168Y0073729D01*
X0189300Y0071634D01*
X0189300Y0069366D01*
X0190168Y0067271D01*
X0191771Y0065668D01*
X0193866Y0064800D01*
X0196134Y0064800D01*
X0198229Y0065668D01*
X0199777Y0067216D01*
X0200168Y0066271D01*
X0201771Y0064668D01*
X0202438Y0064392D01*
X0202796Y0063527D01*
X0208527Y0057796D01*
X0209483Y0057400D01*
X0220517Y0057400D01*
X0221473Y0057796D01*
X0222204Y0058527D01*
X0227204Y0063527D01*
X0227600Y0064483D01*
X0227600Y0095517D01*
X0227204Y0096473D01*
X0226473Y0097204D01*
X0221473Y0102204D01*
X0220517Y0102600D01*
X0166077Y0102600D01*
X0158861Y0109816D01*
X0159155Y0110502D02*
X0160845Y0110502D01*
X0160425Y0112100D02*
X0159575Y0112100D01*
X0159575Y0113699D02*
X0160425Y0113699D01*
X0160425Y0115297D02*
X0159575Y0115297D01*
X0159575Y0116896D02*
X0160425Y0116896D01*
X0160429Y0118494D02*
X0159571Y0118494D01*
X0158909Y0120093D02*
X0161091Y0120093D01*
X0162984Y0121691D02*
X0157016Y0121691D01*
X0152984Y0121691D02*
X0147016Y0121691D01*
X0148909Y0120093D02*
X0151091Y0120093D01*
X0150429Y0118494D02*
X0149571Y0118494D01*
X0149575Y0116896D02*
X0150425Y0116896D01*
X0150425Y0115297D02*
X0149575Y0115297D01*
X0149575Y0113699D02*
X0150425Y0113699D01*
X0150425Y0112100D02*
X0149575Y0112100D01*
X0149155Y0110502D02*
X0150845Y0110502D01*
X0152052Y0108903D02*
X0147948Y0108903D01*
X0147600Y0107305D02*
X0154018Y0107305D01*
X0155617Y0105706D02*
X0147971Y0105706D01*
X0149569Y0104108D02*
X0157215Y0104108D01*
X0158814Y0102509D02*
X0151168Y0102509D01*
X0152766Y0100911D02*
X0160412Y0100911D01*
X0162011Y0099312D02*
X0154365Y0099312D01*
X0155963Y0097714D02*
X0163726Y0097714D01*
X0164569Y0104108D02*
X0393200Y0104108D01*
X0393200Y0105706D02*
X0299254Y0105706D01*
X0298515Y0105400D02*
X0300206Y0106100D01*
X0301500Y0107394D01*
X0302200Y0109085D01*
X0302200Y0110915D01*
X0301500Y0112606D01*
X0300206Y0113900D01*
X0298515Y0114600D01*
X0291485Y0114600D01*
X0289794Y0113900D01*
X0288500Y0112606D01*
X0287800Y0110915D01*
X0287800Y0109085D01*
X0288500Y0107394D01*
X0289794Y0106100D01*
X0291485Y0105400D01*
X0298515Y0105400D01*
X0301410Y0107305D02*
X0393200Y0107305D01*
X0393200Y0108903D02*
X0302125Y0108903D01*
X0302200Y0110502D02*
X0393200Y0110502D01*
X0393200Y0112100D02*
X0301709Y0112100D01*
X0300407Y0113699D02*
X0393200Y0113699D01*
X0393200Y0115297D02*
X0199575Y0115297D01*
X0199575Y0116896D02*
X0223999Y0116896D01*
X0223500Y0117394D02*
X0224794Y0116100D01*
X0226485Y0115400D01*
X0233515Y0115400D01*
X0235206Y0116100D01*
X0236500Y0117394D01*
X0237200Y0119085D01*
X0237200Y0120915D01*
X0236500Y0122606D01*
X0235206Y0123900D01*
X0233515Y0124600D01*
X0226485Y0124600D01*
X0224794Y0123900D01*
X0223500Y0122606D01*
X0222800Y0120915D01*
X0222800Y0119085D01*
X0223500Y0117394D01*
X0223045Y0118494D02*
X0199571Y0118494D01*
X0198909Y0120093D02*
X0222800Y0120093D01*
X0223122Y0121691D02*
X0197016Y0121691D01*
X0192984Y0121691D02*
X0186488Y0121691D01*
X0186679Y0121629D02*
X0186024Y0121842D01*
X0185344Y0121950D01*
X0185000Y0121950D01*
X0184656Y0121950D01*
X0183976Y0121842D01*
X0183321Y0121629D01*
X0182707Y0121316D01*
X0182150Y0120912D01*
X0181663Y0120425D01*
X0181258Y0119868D01*
X0180946Y0119254D01*
X0180733Y0118599D01*
X0180625Y0117919D01*
X0180625Y0115000D01*
X0185000Y0115000D01*
X0189375Y0115000D01*
X0189375Y0117919D01*
X0189267Y0118599D01*
X0189054Y0119254D01*
X0188742Y0119868D01*
X0188337Y0120425D01*
X0187850Y0120912D01*
X0187293Y0121316D01*
X0186679Y0121629D01*
X0185000Y0121691D02*
X0185000Y0121691D01*
X0185000Y0121950D02*
X0185000Y0115000D01*
X0185000Y0115000D01*
X0185000Y0115000D01*
X0185000Y0121950D01*
X0183512Y0121691D02*
X0177016Y0121691D01*
X0177591Y0121453D02*
X0175910Y0122150D01*
X0174090Y0122150D01*
X0172409Y0121453D01*
X0171122Y0120166D01*
X0170425Y0118485D01*
X0170425Y0111515D01*
X0171122Y0109834D01*
X0172409Y0108547D01*
X0174090Y0107850D01*
X0175910Y0107850D01*
X0177591Y0108547D01*
X0178878Y0109834D01*
X0179575Y0111515D01*
X0179575Y0118485D01*
X0178878Y0120166D01*
X0177591Y0121453D01*
X0178909Y0120093D02*
X0181422Y0120093D01*
X0180716Y0118494D02*
X0179571Y0118494D01*
X0179575Y0116896D02*
X0180625Y0116896D01*
X0180625Y0115297D02*
X0179575Y0115297D01*
X0180625Y0115000D02*
X0180625Y0112081D01*
X0180733Y0111401D01*
X0180946Y0110746D01*
X0181258Y0110132D01*
X0181663Y0109575D01*
X0182150Y0109088D01*
X0182707Y0108684D01*
X0183321Y0108371D01*
X0183976Y0108158D01*
X0184656Y0108050D01*
X0185000Y0108050D01*
X0185000Y0115000D01*
X0189375Y0115000D01*
X0189375Y0112081D01*
X0189267Y0111401D01*
X0189054Y0110746D01*
X0188742Y0110132D01*
X0188337Y0109575D01*
X0187850Y0109088D01*
X0187293Y0108684D01*
X0186679Y0108371D01*
X0186024Y0108158D01*
X0185344Y0108050D01*
X0185000Y0108050D01*
X0185000Y0115000D01*
X0185000Y0115000D01*
X0185000Y0115000D01*
X0180625Y0115000D01*
X0180625Y0113699D02*
X0179575Y0113699D01*
X0179575Y0112100D02*
X0180625Y0112100D01*
X0181070Y0110502D02*
X0179155Y0110502D01*
X0177948Y0108903D02*
X0182405Y0108903D01*
X0185000Y0108903D02*
X0185000Y0108903D01*
X0185000Y0110502D02*
X0185000Y0110502D01*
X0185000Y0112100D02*
X0185000Y0112100D01*
X0185000Y0113699D02*
X0185000Y0113699D01*
X0185000Y0115297D02*
X0185000Y0115297D01*
X0185000Y0116896D02*
X0185000Y0116896D01*
X0185000Y0118494D02*
X0185000Y0118494D01*
X0185000Y0120093D02*
X0185000Y0120093D01*
X0188578Y0120093D02*
X0191091Y0120093D01*
X0190429Y0118494D02*
X0189284Y0118494D01*
X0189375Y0116896D02*
X0190425Y0116896D01*
X0190425Y0115297D02*
X0189375Y0115297D01*
X0189375Y0113699D02*
X0190425Y0113699D01*
X0190425Y0112100D02*
X0189375Y0112100D01*
X0188930Y0110502D02*
X0190845Y0110502D01*
X0192052Y0108903D02*
X0187595Y0108903D01*
X0172052Y0108903D02*
X0167948Y0108903D01*
X0169155Y0110502D02*
X0170845Y0110502D01*
X0170425Y0112100D02*
X0169575Y0112100D01*
X0169575Y0113699D02*
X0170425Y0113699D01*
X0170425Y0115297D02*
X0169575Y0115297D01*
X0169575Y0116896D02*
X0170425Y0116896D01*
X0170429Y0118494D02*
X0169571Y0118494D01*
X0168909Y0120093D02*
X0171091Y0120093D01*
X0172984Y0121691D02*
X0167016Y0121691D01*
X0165346Y0133000D02*
X0165000Y0133000D01*
X0165000Y0140000D01*
X0165000Y0140000D01*
X0165000Y0147000D01*
X0165346Y0147000D01*
X0166030Y0146892D01*
X0166689Y0146678D01*
X0167306Y0146363D01*
X0167866Y0145956D01*
X0168356Y0145466D01*
X0168763Y0144906D01*
X0169078Y0144289D01*
X0169292Y0143630D01*
X0169400Y0142946D01*
X0169400Y0140000D01*
X0165000Y0140000D01*
X0165000Y0140000D01*
X0165000Y0140000D01*
X0160600Y0140000D01*
X0160600Y0142946D01*
X0160708Y0143630D01*
X0160922Y0144289D01*
X0161237Y0144906D01*
X0161644Y0145466D01*
X0162134Y0145956D01*
X0162694Y0146363D01*
X0163311Y0146678D01*
X0163970Y0146892D01*
X0164654Y0147000D01*
X0165000Y0147000D01*
X0165000Y0140000D01*
X0169400Y0140000D01*
X0169400Y0137054D01*
X0169292Y0136370D01*
X0169078Y0135711D01*
X0168763Y0135094D01*
X0168356Y0134534D01*
X0167866Y0134044D01*
X0167306Y0133637D01*
X0166689Y0133322D01*
X0166030Y0133108D01*
X0165346Y0133000D01*
X0165000Y0133000D02*
X0165000Y0140000D01*
X0165000Y0140000D01*
X0160600Y0140000D01*
X0160600Y0137054D01*
X0160708Y0136370D01*
X0160922Y0135711D01*
X0161237Y0135094D01*
X0161644Y0134534D01*
X0162134Y0134044D01*
X0162694Y0133637D01*
X0163311Y0133322D01*
X0163970Y0133108D01*
X0164654Y0133000D01*
X0165000Y0133000D01*
X0165000Y0134479D02*
X0165000Y0134479D01*
X0165000Y0136078D02*
X0165000Y0136078D01*
X0165000Y0137676D02*
X0165000Y0137676D01*
X0165000Y0139275D02*
X0165000Y0139275D01*
X0165000Y0140873D02*
X0165000Y0140873D01*
X0165000Y0142472D02*
X0165000Y0142472D01*
X0165000Y0144070D02*
X0165000Y0144070D01*
X0165000Y0145669D02*
X0165000Y0145669D01*
X0168154Y0145669D02*
X0393200Y0145669D01*
X0393200Y0144070D02*
X0169149Y0144070D01*
X0169400Y0142472D02*
X0393200Y0142472D01*
X0393200Y0140873D02*
X0169400Y0140873D01*
X0169400Y0139275D02*
X0351850Y0139275D01*
X0352026Y0139451D02*
X0350549Y0137974D01*
X0349750Y0136044D01*
X0349750Y0133956D01*
X0350549Y0132026D01*
X0352026Y0130549D01*
X0353956Y0129750D01*
X0356044Y0129750D01*
X0357974Y0130549D01*
X0359451Y0132026D01*
X0360126Y0133657D01*
X0360320Y0133061D01*
X0360681Y0132353D01*
X0361148Y0131710D01*
X0361710Y0131148D01*
X0362353Y0130681D01*
X0363061Y0130320D01*
X0363817Y0130074D01*
X0364603Y0129950D01*
X0365000Y0129950D01*
X0365397Y0129950D01*
X0366183Y0130074D01*
X0366939Y0130320D01*
X0367647Y0130681D01*
X0368290Y0131148D01*
X0368852Y0131710D01*
X0369319Y0132353D01*
X0369680Y0133061D01*
X0369926Y0133817D01*
X0370050Y0134603D01*
X0370050Y0135000D01*
X0370050Y0135397D01*
X0369926Y0136183D01*
X0369680Y0136939D01*
X0369319Y0137647D01*
X0368852Y0138290D01*
X0368290Y0138852D01*
X0367647Y0139319D01*
X0366939Y0139680D01*
X0366183Y0139926D01*
X0365397Y0140050D01*
X0365000Y0140050D01*
X0365000Y0135000D01*
X0370050Y0135000D01*
X0365000Y0135000D01*
X0365000Y0135000D01*
X0365000Y0135000D01*
X0365000Y0129950D01*
X0365000Y0135000D01*
X0365000Y0135000D01*
X0365000Y0140050D01*
X0364603Y0140050D01*
X0363817Y0139926D01*
X0363061Y0139680D01*
X0362353Y0139319D01*
X0361710Y0138852D01*
X0361148Y0138290D01*
X0360681Y0137647D01*
X0360320Y0136939D01*
X0360126Y0136343D01*
X0359451Y0137974D01*
X0357974Y0139451D01*
X0356044Y0140250D01*
X0353956Y0140250D01*
X0352026Y0139451D01*
X0350426Y0137676D02*
X0169400Y0137676D01*
X0169197Y0136078D02*
X0349764Y0136078D01*
X0349750Y0134479D02*
X0168302Y0134479D01*
X0161698Y0134479D02*
X0158585Y0134479D01*
X0158900Y0134794D02*
X0159600Y0136485D01*
X0159600Y0143515D01*
X0158900Y0145206D01*
X0157606Y0146500D01*
X0155915Y0147200D01*
X0154085Y0147200D01*
X0152394Y0146500D01*
X0151100Y0145206D01*
X0150400Y0143515D01*
X0150400Y0136485D01*
X0151100Y0134794D01*
X0152394Y0133500D01*
X0154085Y0132800D01*
X0155915Y0132800D01*
X0157606Y0133500D01*
X0158900Y0134794D01*
X0159431Y0136078D02*
X0160803Y0136078D01*
X0160600Y0137676D02*
X0159600Y0137676D01*
X0159600Y0139275D02*
X0160600Y0139275D01*
X0160600Y0140873D02*
X0159600Y0140873D01*
X0159600Y0142472D02*
X0160600Y0142472D01*
X0160851Y0144070D02*
X0159370Y0144070D01*
X0158436Y0145669D02*
X0161846Y0145669D01*
X0159483Y0152400D02*
X0240517Y0152400D01*
X0241473Y0152796D01*
X0242204Y0153527D01*
X0252204Y0163527D01*
X0252600Y0164483D01*
X0252600Y0169907D01*
X0253229Y0170168D01*
X0254832Y0171771D01*
X0255700Y0173866D01*
X0255700Y0176134D01*
X0254832Y0178229D01*
X0253932Y0179129D01*
X0255761Y0190102D01*
X0255474Y0191342D01*
X0254734Y0192378D01*
X0253821Y0192947D01*
X0250632Y0199326D01*
X0252380Y0209816D01*
X0253229Y0210168D01*
X0254832Y0211771D01*
X0255700Y0213866D01*
X0255700Y0216134D01*
X0254832Y0218229D01*
X0253229Y0219832D01*
X0251134Y0220700D01*
X0248866Y0220700D01*
X0246771Y0219832D01*
X0245168Y0218229D01*
X0244300Y0216134D01*
X0244300Y0213866D01*
X0245168Y0211771D01*
X0246068Y0210871D01*
X0244239Y0199898D01*
X0244526Y0198658D01*
X0245266Y0197622D01*
X0246179Y0197053D01*
X0249368Y0190674D01*
X0247620Y0180184D01*
X0246771Y0179832D01*
X0245168Y0178229D01*
X0244300Y0176134D01*
X0244300Y0173866D01*
X0245168Y0171771D01*
X0246771Y0170168D01*
X0247400Y0169907D01*
X0247400Y0166077D01*
X0238923Y0157600D01*
X0161077Y0157600D01*
X0157600Y0161077D01*
X0157600Y0168555D01*
X0158878Y0169834D01*
X0159575Y0171515D01*
X0159575Y0178485D01*
X0158878Y0180166D01*
X0157591Y0181453D01*
X0155910Y0182150D01*
X0154090Y0182150D01*
X0152409Y0181453D01*
X0151122Y0180166D01*
X0150425Y0178485D01*
X0150425Y0171515D01*
X0151122Y0169834D01*
X0152400Y0168555D01*
X0152400Y0159483D01*
X0152796Y0158527D01*
X0153527Y0157796D01*
X0158527Y0152796D01*
X0159483Y0152400D01*
X0157661Y0153662D02*
X0112338Y0153662D01*
X0110740Y0152063D02*
X0393200Y0152063D01*
X0393200Y0150465D02*
X0109141Y0150465D01*
X0107543Y0148866D02*
X0393200Y0148866D01*
X0393200Y0147268D02*
X0080944Y0147268D01*
X0081077Y0147400D02*
X0105517Y0147400D01*
X0106473Y0147796D01*
X0107204Y0148527D01*
X0126964Y0168287D01*
X0127591Y0168547D01*
X0128878Y0169834D01*
X0129575Y0171515D01*
X0129575Y0178485D01*
X0128878Y0180166D01*
X0127591Y0181453D01*
X0125910Y0182150D01*
X0124090Y0182150D01*
X0122409Y0181453D01*
X0121122Y0180166D01*
X0120425Y0178485D01*
X0120425Y0171515D01*
X0121122Y0169834D01*
X0121139Y0169816D01*
X0103923Y0152600D01*
X0101000Y0152600D01*
X0101473Y0152796D01*
X0102204Y0153527D01*
X0116964Y0168287D01*
X0117591Y0168547D01*
X0118878Y0169834D01*
X0119575Y0171515D01*
X0119575Y0178485D01*
X0118878Y0180166D01*
X0117591Y0181453D01*
X0115910Y0182150D01*
X0114090Y0182150D01*
X0112409Y0181453D01*
X0111122Y0180166D01*
X0110425Y0178485D01*
X0110425Y0171515D01*
X0111122Y0169834D01*
X0111139Y0169816D01*
X0098923Y0157600D01*
X0096000Y0157600D01*
X0096473Y0157796D01*
X0097204Y0158527D01*
X0106964Y0168287D01*
X0107591Y0168547D01*
X0108878Y0169834D01*
X0109575Y0171515D01*
X0109575Y0178485D01*
X0108878Y0180166D01*
X0107591Y0181453D01*
X0105910Y0182150D01*
X0104090Y0182150D01*
X0102409Y0181453D01*
X0101122Y0180166D01*
X0100425Y0178485D01*
X0100425Y0171515D01*
X0101122Y0169834D01*
X0101139Y0169816D01*
X0093923Y0162600D01*
X0086000Y0162600D01*
X0086473Y0162796D01*
X0087204Y0163527D01*
X0092316Y0168639D01*
X0092409Y0168547D01*
X0094090Y0167850D01*
X0095910Y0167850D01*
X0097591Y0168547D01*
X0098878Y0169834D01*
X0099575Y0171515D01*
X0099575Y0178485D01*
X0098878Y0180166D01*
X0097591Y0181453D01*
X0095910Y0182150D01*
X0094090Y0182150D01*
X0092409Y0181453D01*
X0091122Y0180166D01*
X0090425Y0178485D01*
X0090425Y0174102D01*
X0089575Y0173252D01*
X0089575Y0178485D01*
X0088878Y0180166D01*
X0087591Y0181453D01*
X0085910Y0182150D01*
X0084090Y0182150D01*
X0082409Y0181453D01*
X0081122Y0180166D01*
X0080425Y0178485D01*
X0080425Y0171515D01*
X0081122Y0169834D01*
X0082409Y0168547D01*
X0084090Y0167850D01*
X0084173Y0167850D01*
X0083923Y0167600D01*
X0074483Y0167600D01*
X0073527Y0167204D01*
X0053923Y0147600D01*
X0029593Y0147600D01*
X0029332Y0148229D01*
X0027784Y0149777D01*
X0028729Y0150168D01*
X0030332Y0151771D01*
X0030593Y0152400D01*
X0055517Y0152400D01*
X0056473Y0152796D01*
X0057204Y0153527D01*
X0067204Y0163527D01*
X0067600Y0164483D01*
X0067600Y0168555D01*
X0068878Y0169834D01*
X0069575Y0171515D01*
X0069575Y0178485D01*
X0068878Y0180166D01*
X0067591Y0181453D01*
X0065910Y0182150D01*
X0064090Y0182150D01*
X0062409Y0181453D01*
X0061122Y0180166D01*
X0060425Y0178485D01*
X0060425Y0171515D01*
X0061122Y0169834D01*
X0062400Y0168555D01*
X0062400Y0166077D01*
X0053923Y0157600D01*
X0030593Y0157600D01*
X0030332Y0158229D01*
X0028729Y0159832D01*
X0027784Y0160223D01*
X0029332Y0161771D01*
X0029593Y0162400D01*
X0030517Y0162400D01*
X0031473Y0162796D01*
X0041077Y0172400D01*
X0050425Y0172400D01*
X0050425Y0171515D01*
X0051122Y0169834D01*
X0052409Y0168547D01*
X0054090Y0167850D01*
X0055910Y0167850D01*
X0057591Y0168547D01*
X0058878Y0169834D01*
X0059575Y0171515D01*
X0059575Y0178485D01*
X0058878Y0180166D01*
X0057591Y0181453D01*
X0055910Y0182150D01*
X0054090Y0182150D01*
X0052409Y0181453D01*
X0051122Y0180166D01*
X0050425Y0178485D01*
X0050425Y0177600D01*
X0039483Y0177600D01*
X0038527Y0177204D01*
X0037796Y0176473D01*
X0037796Y0176473D01*
X0029397Y0168073D01*
X0029332Y0168229D01*
X0028261Y0169300D01*
X0030028Y0169300D01*
X0031200Y0170472D01*
X0031200Y0179528D01*
X0030028Y0180700D01*
X0020972Y0180700D01*
X0019800Y0179528D01*
X0019800Y0170472D01*
X0020855Y0169416D01*
X0019668Y0168229D01*
X0018800Y0166134D01*
X0018800Y0163866D01*
X0019668Y0161771D01*
X0021271Y0160168D01*
X0022216Y0159777D01*
X0020668Y0158229D01*
X0019800Y0156134D01*
X0019800Y0153866D01*
X0020668Y0151771D01*
X0022216Y0150223D01*
X0021271Y0149832D01*
X0019668Y0148229D01*
X0018800Y0146134D01*
X0018800Y0143866D01*
X0019668Y0141771D01*
X0021271Y0140168D01*
X0022216Y0139777D01*
X0020668Y0138229D01*
X0020407Y0137600D01*
X0019483Y0137600D01*
X0018527Y0137204D01*
X0017796Y0136473D01*
X0017400Y0135517D01*
X0017400Y0134483D01*
X0017796Y0133527D01*
X0018527Y0132796D01*
X0019483Y0132400D01*
X0020407Y0132400D01*
X0020668Y0131771D01*
X0022216Y0130223D01*
X0021271Y0129832D01*
X0019668Y0128229D01*
X0018800Y0126134D01*
X0018800Y0123866D01*
X0019668Y0121771D01*
X0021271Y0120168D01*
X0022216Y0119777D01*
X0020668Y0118229D01*
X0020407Y0117600D01*
X0019483Y0117600D01*
X0018527Y0117204D01*
X0017796Y0116473D01*
X0017400Y0115517D01*
X0017400Y0114483D01*
X0017796Y0113527D01*
X0018527Y0112796D01*
X0019483Y0112400D01*
X0020407Y0112400D01*
X0020668Y0111771D01*
X0022271Y0110168D01*
X0022419Y0110107D01*
X0022389Y0110097D01*
X0021617Y0109704D01*
X0020917Y0109195D01*
X0020305Y0108583D01*
X0019796Y0107883D01*
X0019403Y0107111D01*
X0019135Y0106288D01*
X0019000Y0105433D01*
X0019000Y0105200D01*
X0024300Y0105200D01*
X0024300Y0104800D01*
X0024700Y0104800D01*
X0024700Y0105200D01*
X0030000Y0105200D01*
X0030000Y0105433D01*
X0029865Y0106288D01*
X0029597Y0107111D01*
X0029204Y0107883D01*
X0028695Y0108583D01*
X0028083Y0109195D01*
X0027465Y0109644D01*
X0028729Y0110168D01*
X0030332Y0111771D01*
X0030593Y0112400D01*
X0045517Y0112400D01*
X0046473Y0112796D01*
X0047204Y0113527D01*
X0050425Y0116748D01*
X0050425Y0111515D01*
X0051122Y0109834D01*
X0052409Y0108547D01*
X0054090Y0107850D01*
X0055910Y0107850D01*
X0057591Y0108547D01*
X0058878Y0109834D01*
X0059575Y0111515D01*
X0059575Y0118485D01*
X0058878Y0120166D01*
X0057591Y0121453D01*
X0055910Y0122150D01*
X0055827Y0122150D01*
X0081077Y0147400D01*
X0082394Y0146500D02*
X0084085Y0147200D01*
X0085915Y0147200D01*
X0087606Y0146500D01*
X0088900Y0145206D01*
X0089600Y0143515D01*
X0089600Y0136485D01*
X0088900Y0134794D01*
X0087606Y0133500D01*
X0085915Y0132800D01*
X0084085Y0132800D01*
X0082394Y0133500D01*
X0081100Y0134794D01*
X0080400Y0136485D01*
X0080400Y0143515D01*
X0081100Y0145206D01*
X0082394Y0146500D01*
X0081564Y0145669D02*
X0079346Y0145669D01*
X0080630Y0144070D02*
X0077747Y0144070D01*
X0076149Y0142472D02*
X0080400Y0142472D01*
X0080400Y0140873D02*
X0074550Y0140873D01*
X0072952Y0139275D02*
X0080400Y0139275D01*
X0080400Y0137676D02*
X0071353Y0137676D01*
X0069755Y0136078D02*
X0080569Y0136078D01*
X0081415Y0134479D02*
X0068156Y0134479D01*
X0066558Y0132881D02*
X0083890Y0132881D01*
X0086110Y0132881D02*
X0093890Y0132881D01*
X0094085Y0132800D02*
X0095915Y0132800D01*
X0097606Y0133500D01*
X0098900Y0134794D01*
X0099600Y0136485D01*
X0099600Y0143515D01*
X0098900Y0145206D01*
X0097606Y0146500D01*
X0095915Y0147200D01*
X0094085Y0147200D01*
X0092394Y0146500D01*
X0091100Y0145206D01*
X0090400Y0143515D01*
X0090400Y0136485D01*
X0091100Y0134794D01*
X0092394Y0133500D01*
X0094085Y0132800D01*
X0096110Y0132881D02*
X0103890Y0132881D01*
X0104085Y0132800D02*
X0105915Y0132800D01*
X0107606Y0133500D01*
X0108900Y0134794D01*
X0109600Y0136485D01*
X0109600Y0143515D01*
X0108900Y0145206D01*
X0107606Y0146500D01*
X0105915Y0147200D01*
X0104085Y0147200D01*
X0102394Y0146500D01*
X0101100Y0145206D01*
X0100400Y0143515D01*
X0100400Y0136485D01*
X0101100Y0134794D01*
X0102394Y0133500D01*
X0104085Y0132800D01*
X0106110Y0132881D02*
X0113890Y0132881D01*
X0114085Y0132800D02*
X0115915Y0132800D01*
X0117606Y0133500D01*
X0118900Y0134794D01*
X0119600Y0136485D01*
X0119600Y0143515D01*
X0118900Y0145206D01*
X0117606Y0146500D01*
X0115915Y0147200D01*
X0114085Y0147200D01*
X0112394Y0146500D01*
X0111100Y0145206D01*
X0110400Y0143515D01*
X0110400Y0136485D01*
X0111100Y0134794D01*
X0112394Y0133500D01*
X0114085Y0132800D01*
X0116110Y0132881D02*
X0123890Y0132881D01*
X0124085Y0132800D02*
X0125915Y0132800D01*
X0127606Y0133500D01*
X0128900Y0134794D01*
X0129600Y0136485D01*
X0129600Y0143515D01*
X0128900Y0145206D01*
X0127606Y0146500D01*
X0125915Y0147200D01*
X0124085Y0147200D01*
X0122394Y0146500D01*
X0121100Y0145206D01*
X0120400Y0143515D01*
X0120400Y0136485D01*
X0121100Y0134794D01*
X0122394Y0133500D01*
X0124085Y0132800D01*
X0126110Y0132881D02*
X0133890Y0132881D01*
X0134085Y0132800D02*
X0135915Y0132800D01*
X0137606Y0133500D01*
X0138900Y0134794D01*
X0139600Y0136485D01*
X0139600Y0143515D01*
X0138900Y0145206D01*
X0137606Y0146500D01*
X0135915Y0147200D01*
X0134085Y0147200D01*
X0132394Y0146500D01*
X0131100Y0145206D01*
X0130400Y0143515D01*
X0130400Y0136485D01*
X0131100Y0134794D01*
X0132394Y0133500D01*
X0134085Y0132800D01*
X0136110Y0132881D02*
X0143890Y0132881D01*
X0144085Y0132800D02*
X0145915Y0132800D01*
X0147606Y0133500D01*
X0148900Y0134794D01*
X0149600Y0136485D01*
X0149600Y0143515D01*
X0148900Y0145206D01*
X0147606Y0146500D01*
X0145915Y0147200D01*
X0144085Y0147200D01*
X0142394Y0146500D01*
X0141100Y0145206D01*
X0140400Y0143515D01*
X0140400Y0136485D01*
X0141100Y0134794D01*
X0142394Y0133500D01*
X0144085Y0132800D01*
X0146110Y0132881D02*
X0153890Y0132881D01*
X0156110Y0132881D02*
X0244058Y0132881D01*
X0244044Y0132866D02*
X0243637Y0132306D01*
X0243322Y0131689D01*
X0243108Y0131030D01*
X0243000Y0130346D01*
X0243000Y0130000D01*
X0250000Y0130000D01*
X0250000Y0130000D01*
X0250000Y0134400D01*
X0252946Y0134400D01*
X0253630Y0134292D01*
X0254289Y0134078D01*
X0254906Y0133763D01*
X0255466Y0133356D01*
X0255956Y0132866D01*
X0256363Y0132306D01*
X0256678Y0131689D01*
X0256892Y0131030D01*
X0257000Y0130346D01*
X0257000Y0130000D01*
X0250000Y0130000D01*
X0250000Y0130000D01*
X0250000Y0125600D01*
X0252946Y0125600D01*
X0253630Y0125708D01*
X0254289Y0125922D01*
X0254906Y0126237D01*
X0255466Y0126644D01*
X0255956Y0127134D01*
X0256363Y0127694D01*
X0256678Y0128311D01*
X0256892Y0128970D01*
X0257000Y0129654D01*
X0257000Y0130000D01*
X0250000Y0130000D01*
X0250000Y0130000D01*
X0250000Y0130000D01*
X0250000Y0134400D01*
X0247054Y0134400D01*
X0246370Y0134292D01*
X0245711Y0134078D01*
X0245094Y0133763D01*
X0244534Y0133356D01*
X0244044Y0132866D01*
X0243190Y0131282D02*
X0064959Y0131282D01*
X0063361Y0129684D02*
X0243000Y0129684D01*
X0243000Y0129654D02*
X0243108Y0128970D01*
X0243322Y0128311D01*
X0243637Y0127694D01*
X0244044Y0127134D01*
X0244534Y0126644D01*
X0245094Y0126237D01*
X0245711Y0125922D01*
X0246370Y0125708D01*
X0247054Y0125600D01*
X0250000Y0125600D01*
X0250000Y0130000D01*
X0243000Y0130000D01*
X0243000Y0129654D01*
X0243437Y0128085D02*
X0061762Y0128085D01*
X0060164Y0126487D02*
X0244750Y0126487D01*
X0250000Y0126487D02*
X0250000Y0126487D01*
X0250000Y0128085D02*
X0250000Y0128085D01*
X0250000Y0129684D02*
X0250000Y0129684D01*
X0250000Y0131282D02*
X0250000Y0131282D01*
X0250000Y0132881D02*
X0250000Y0132881D01*
X0255942Y0132881D02*
X0289058Y0132881D01*
X0289044Y0132866D02*
X0288637Y0132306D01*
X0288322Y0131689D01*
X0288108Y0131030D01*
X0288000Y0130346D01*
X0288000Y0130000D01*
X0295000Y0130000D01*
X0295000Y0130000D01*
X0295000Y0134400D01*
X0297946Y0134400D01*
X0298630Y0134292D01*
X0299289Y0134078D01*
X0299906Y0133763D01*
X0300466Y0133356D01*
X0300956Y0132866D01*
X0301363Y0132306D01*
X0301678Y0131689D01*
X0301892Y0131030D01*
X0302000Y0130346D01*
X0302000Y0130000D01*
X0295000Y0130000D01*
X0295000Y0130000D01*
X0295000Y0125600D01*
X0297946Y0125600D01*
X0298630Y0125708D01*
X0299289Y0125922D01*
X0299906Y0126237D01*
X0300466Y0126644D01*
X0300956Y0127134D01*
X0301363Y0127694D01*
X0301678Y0128311D01*
X0301892Y0128970D01*
X0302000Y0129654D01*
X0302000Y0130000D01*
X0295000Y0130000D01*
X0295000Y0130000D01*
X0295000Y0130000D01*
X0295000Y0134400D01*
X0292054Y0134400D01*
X0291370Y0134292D01*
X0290711Y0134078D01*
X0290094Y0133763D01*
X0289534Y0133356D01*
X0289044Y0132866D01*
X0288190Y0131282D02*
X0256810Y0131282D01*
X0257000Y0129684D02*
X0288000Y0129684D01*
X0288000Y0129654D02*
X0288108Y0128970D01*
X0288322Y0128311D01*
X0288637Y0127694D01*
X0289044Y0127134D01*
X0289534Y0126644D01*
X0290094Y0126237D01*
X0290711Y0125922D01*
X0291370Y0125708D01*
X0292054Y0125600D01*
X0295000Y0125600D01*
X0295000Y0130000D01*
X0288000Y0130000D01*
X0288000Y0129654D01*
X0288437Y0128085D02*
X0256563Y0128085D01*
X0255250Y0126487D02*
X0289750Y0126487D01*
X0295000Y0126487D02*
X0295000Y0126487D01*
X0295000Y0128085D02*
X0295000Y0128085D01*
X0295000Y0129684D02*
X0295000Y0129684D01*
X0295000Y0131282D02*
X0295000Y0131282D01*
X0295000Y0132881D02*
X0295000Y0132881D01*
X0300942Y0132881D02*
X0350195Y0132881D01*
X0351293Y0131282D02*
X0301810Y0131282D01*
X0302000Y0129684D02*
X0393200Y0129684D01*
X0393200Y0131282D02*
X0368424Y0131282D01*
X0369588Y0132881D02*
X0393200Y0132881D01*
X0393200Y0134479D02*
X0370030Y0134479D01*
X0369942Y0136078D02*
X0393200Y0136078D01*
X0393200Y0137676D02*
X0369298Y0137676D01*
X0367708Y0139275D02*
X0393200Y0139275D01*
X0393200Y0128085D02*
X0301563Y0128085D01*
X0300250Y0126487D02*
X0393200Y0126487D01*
X0393200Y0124888D02*
X0058565Y0124888D01*
X0056967Y0123290D02*
X0224184Y0123290D01*
X0235816Y0123290D02*
X0269184Y0123290D01*
X0269794Y0123900D02*
X0268500Y0122606D01*
X0267800Y0120915D01*
X0267800Y0119085D01*
X0268500Y0117394D01*
X0269794Y0116100D01*
X0271485Y0115400D01*
X0278515Y0115400D01*
X0280206Y0116100D01*
X0281500Y0117394D01*
X0282200Y0119085D01*
X0282200Y0120915D01*
X0281500Y0122606D01*
X0280206Y0123900D01*
X0278515Y0124600D01*
X0271485Y0124600D01*
X0269794Y0123900D01*
X0268122Y0121691D02*
X0236878Y0121691D01*
X0237200Y0120093D02*
X0267800Y0120093D01*
X0268045Y0118494D02*
X0236955Y0118494D01*
X0236001Y0116896D02*
X0268999Y0116896D01*
X0281001Y0116896D02*
X0393200Y0116896D01*
X0393200Y0118494D02*
X0281955Y0118494D01*
X0282200Y0120093D02*
X0393200Y0120093D01*
X0393200Y0121691D02*
X0281878Y0121691D01*
X0280816Y0123290D02*
X0393200Y0123290D01*
X0365000Y0131282D02*
X0365000Y0131282D01*
X0365000Y0132881D02*
X0365000Y0132881D01*
X0365000Y0134479D02*
X0365000Y0134479D01*
X0365000Y0136078D02*
X0365000Y0136078D01*
X0365000Y0137676D02*
X0365000Y0137676D01*
X0365000Y0139275D02*
X0365000Y0139275D01*
X0362292Y0139275D02*
X0358150Y0139275D01*
X0359574Y0137676D02*
X0360702Y0137676D01*
X0360412Y0132881D02*
X0359805Y0132881D01*
X0358707Y0131282D02*
X0361576Y0131282D01*
X0393200Y0153662D02*
X0242338Y0153662D01*
X0243937Y0155260D02*
X0393200Y0155260D01*
X0393200Y0156859D02*
X0245536Y0156859D01*
X0247134Y0158457D02*
X0393200Y0158457D01*
X0393200Y0160056D02*
X0248733Y0160056D01*
X0250331Y0161654D02*
X0393200Y0161654D01*
X0393200Y0163253D02*
X0251930Y0163253D01*
X0252600Y0164851D02*
X0393200Y0164851D01*
X0393200Y0166450D02*
X0252600Y0166450D01*
X0252600Y0168048D02*
X0351444Y0168048D01*
X0351560Y0168000D02*
X0354345Y0168000D01*
X0356918Y0169066D01*
X0358887Y0171035D01*
X0359334Y0172113D01*
X0363246Y0168200D01*
X0365863Y0168200D01*
X0365863Y0174800D01*
X0366263Y0174800D01*
X0366263Y0175200D01*
X0372863Y0175200D01*
X0372863Y0177817D01*
X0368880Y0181800D01*
X0366263Y0181800D01*
X0366263Y0175200D01*
X0365863Y0175200D01*
X0365863Y0181800D01*
X0363246Y0181800D01*
X0359334Y0177887D01*
X0358887Y0178965D01*
X0356918Y0180934D01*
X0354345Y0182000D01*
X0351560Y0182000D01*
X0348988Y0180934D01*
X0347018Y0178965D01*
X0345953Y0176392D01*
X0345953Y0173608D01*
X0347018Y0171035D01*
X0348988Y0169066D01*
X0351560Y0168000D01*
X0354461Y0168048D02*
X0393200Y0168048D01*
X0393200Y0169647D02*
X0370326Y0169647D01*
X0368880Y0168200D02*
X0372863Y0172183D01*
X0372863Y0174800D01*
X0366263Y0174800D01*
X0366263Y0168200D01*
X0368880Y0168200D01*
X0366263Y0169647D02*
X0365863Y0169647D01*
X0365863Y0171245D02*
X0366263Y0171245D01*
X0366263Y0172844D02*
X0365863Y0172844D01*
X0365863Y0174442D02*
X0366263Y0174442D01*
X0366263Y0176041D02*
X0365863Y0176041D01*
X0365863Y0177639D02*
X0366263Y0177639D01*
X0366263Y0179238D02*
X0365863Y0179238D01*
X0365863Y0180836D02*
X0366263Y0180836D01*
X0369843Y0180836D02*
X0393200Y0180836D01*
X0393200Y0179238D02*
X0371442Y0179238D01*
X0372863Y0177639D02*
X0393200Y0177639D01*
X0393200Y0176041D02*
X0372863Y0176041D01*
X0372863Y0174442D02*
X0393200Y0174442D01*
X0393200Y0172844D02*
X0372863Y0172844D01*
X0371925Y0171245D02*
X0393200Y0171245D01*
X0393200Y0182435D02*
X0254483Y0182435D01*
X0254750Y0184033D02*
X0393200Y0184033D01*
X0393200Y0185632D02*
X0255016Y0185632D01*
X0255282Y0187230D02*
X0393200Y0187230D01*
X0393200Y0188829D02*
X0255549Y0188829D01*
X0255686Y0190427D02*
X0393200Y0190427D01*
X0393200Y0192026D02*
X0254985Y0192026D01*
X0253483Y0193624D02*
X0393200Y0193624D01*
X0393200Y0195223D02*
X0252684Y0195223D01*
X0251884Y0196821D02*
X0393200Y0196821D01*
X0393200Y0198420D02*
X0251085Y0198420D01*
X0250747Y0200018D02*
X0393200Y0200018D01*
X0393200Y0201617D02*
X0251014Y0201617D01*
X0251280Y0203215D02*
X0393200Y0203215D01*
X0393200Y0204814D02*
X0251546Y0204814D01*
X0251813Y0206412D02*
X0393200Y0206412D01*
X0393200Y0208011D02*
X0252079Y0208011D01*
X0252346Y0209609D02*
X0393200Y0209609D01*
X0393200Y0211208D02*
X0254269Y0211208D01*
X0255261Y0212806D02*
X0393200Y0212806D01*
X0393200Y0214405D02*
X0255700Y0214405D01*
X0255700Y0216003D02*
X0393200Y0216003D01*
X0393200Y0217602D02*
X0255092Y0217602D01*
X0253860Y0219201D02*
X0393200Y0219201D01*
X0393200Y0220799D02*
X0091200Y0220799D01*
X0091200Y0221134D02*
X0090332Y0223229D01*
X0088729Y0224832D01*
X0087465Y0225356D01*
X0088083Y0225805D01*
X0088695Y0226417D01*
X0089204Y0227117D01*
X0089597Y0227889D01*
X0089865Y0228712D01*
X0090000Y0229567D01*
X0090000Y0229800D01*
X0084700Y0229800D01*
X0084700Y0230200D01*
X0090000Y0230200D01*
X0090000Y0230433D01*
X0089865Y0231288D01*
X0089597Y0232111D01*
X0089204Y0232883D01*
X0088695Y0233583D01*
X0088083Y0234195D01*
X0087383Y0234704D01*
X0086611Y0235097D01*
X0085788Y0235365D01*
X0084933Y0235500D01*
X0084700Y0235500D01*
X0084700Y0230200D01*
X0084300Y0230200D01*
X0084300Y0235500D01*
X0084067Y0235500D01*
X0083212Y0235365D01*
X0082389Y0235097D01*
X0081617Y0234704D01*
X0080917Y0234195D01*
X0080305Y0233583D01*
X0079796Y0232883D01*
X0079500Y0232302D01*
X0079204Y0232883D01*
X0078695Y0233583D01*
X0078083Y0234195D01*
X0077383Y0234704D01*
X0076611Y0235097D01*
X0075788Y0235365D01*
X0074933Y0235500D01*
X0074700Y0235500D01*
X0074700Y0230200D01*
X0074300Y0230200D01*
X0074300Y0235500D01*
X0074067Y0235500D01*
X0073212Y0235365D01*
X0072389Y0235097D01*
X0071617Y0234704D01*
X0070917Y0234195D01*
X0070305Y0233583D01*
X0069796Y0232883D01*
X0069403Y0232111D01*
X0069135Y0231288D01*
X0069000Y0230433D01*
X0069000Y0230200D01*
X0074300Y0230200D01*
X0074300Y0229800D01*
X0069000Y0229800D01*
X0069000Y0229567D01*
X0069135Y0228712D01*
X0069403Y0227889D01*
X0069796Y0227117D01*
X0070305Y0226417D01*
X0070917Y0225805D01*
X0071617Y0225296D01*
X0072389Y0224903D01*
X0072419Y0224893D01*
X0072271Y0224832D01*
X0070668Y0223229D01*
X0069800Y0221134D01*
X0069800Y0218866D01*
X0070668Y0216771D01*
X0072216Y0215223D01*
X0071271Y0214832D01*
X0069668Y0213229D01*
X0068800Y0211134D01*
X0068800Y0208866D01*
X0069668Y0206771D01*
X0071271Y0205168D01*
X0073366Y0204300D01*
X0075634Y0204300D01*
X0077729Y0205168D01*
X0079332Y0206771D01*
X0079500Y0207176D01*
X0079668Y0206771D01*
X0081271Y0205168D01*
X0083366Y0204300D01*
X0085634Y0204300D01*
X0087729Y0205168D01*
X0089332Y0206771D01*
X0090200Y0208866D01*
X0090200Y0211134D01*
X0089332Y0213229D01*
X0087784Y0214777D01*
X0088729Y0215168D01*
X0090332Y0216771D01*
X0091200Y0218866D01*
X0091200Y0221134D01*
X0090677Y0222398D02*
X0393200Y0222398D01*
X0393200Y0223996D02*
X0089565Y0223996D01*
X0087794Y0225595D02*
X0393200Y0225595D01*
X0393200Y0227193D02*
X0089243Y0227193D01*
X0089877Y0228792D02*
X0393200Y0228792D01*
X0393200Y0230390D02*
X0253951Y0230390D01*
X0253229Y0229668D02*
X0254832Y0231271D01*
X0255700Y0233366D01*
X0255700Y0235634D01*
X0254832Y0237729D01*
X0253229Y0239332D01*
X0251134Y0240200D01*
X0248866Y0240200D01*
X0246771Y0239332D01*
X0245223Y0237784D01*
X0244832Y0238729D01*
X0243229Y0240332D01*
X0241134Y0241200D01*
X0238866Y0241200D01*
X0236771Y0240332D01*
X0235168Y0238729D01*
X0234777Y0237784D01*
X0233229Y0239332D01*
X0231134Y0240200D01*
X0228866Y0240200D01*
X0226771Y0239332D01*
X0225223Y0237784D01*
X0224832Y0238729D01*
X0223229Y0240332D01*
X0221134Y0241200D01*
X0218866Y0241200D01*
X0216771Y0240332D01*
X0215168Y0238729D01*
X0214644Y0237465D01*
X0214195Y0238083D01*
X0213583Y0238695D01*
X0212883Y0239204D01*
X0212111Y0239597D01*
X0211288Y0239865D01*
X0210433Y0240000D01*
X0210200Y0240000D01*
X0210200Y0234700D01*
X0209800Y0234700D01*
X0209800Y0240000D01*
X0209567Y0240000D01*
X0208712Y0239865D01*
X0207889Y0239597D01*
X0207117Y0239204D01*
X0206417Y0238695D01*
X0205805Y0238083D01*
X0205356Y0237465D01*
X0204832Y0238729D01*
X0203229Y0240332D01*
X0201134Y0241200D01*
X0198866Y0241200D01*
X0196771Y0240332D01*
X0195168Y0238729D01*
X0194644Y0237465D01*
X0194195Y0238083D01*
X0193583Y0238695D01*
X0192883Y0239204D01*
X0192111Y0239597D01*
X0191288Y0239865D01*
X0190433Y0240000D01*
X0190200Y0240000D01*
X0190200Y0234700D01*
X0189800Y0234700D01*
X0189800Y0240000D01*
X0189567Y0240000D01*
X0188712Y0239865D01*
X0187889Y0239597D01*
X0187117Y0239204D01*
X0186417Y0238695D01*
X0185805Y0238083D01*
X0185700Y0237939D01*
X0185700Y0240028D01*
X0184528Y0241200D01*
X0175472Y0241200D01*
X0174300Y0240028D01*
X0174300Y0230972D01*
X0175472Y0229800D01*
X0184528Y0229800D01*
X0185700Y0230972D01*
X0185700Y0231061D01*
X0185805Y0230917D01*
X0186417Y0230305D01*
X0187117Y0229796D01*
X0187889Y0229403D01*
X0188712Y0229135D01*
X0189567Y0229000D01*
X0189800Y0229000D01*
X0189800Y0234300D01*
X0190200Y0234300D01*
X0190200Y0229000D01*
X0190433Y0229000D01*
X0191288Y0229135D01*
X0192111Y0229403D01*
X0192883Y0229796D01*
X0193583Y0230305D01*
X0194195Y0230917D01*
X0194704Y0231617D01*
X0195097Y0232389D01*
X0195107Y0232419D01*
X0195168Y0232271D01*
X0196771Y0230668D01*
X0198866Y0229800D01*
X0201134Y0229800D01*
X0203229Y0230668D01*
X0204832Y0232271D01*
X0204893Y0232419D01*
X0204903Y0232389D01*
X0205296Y0231617D01*
X0205805Y0230917D01*
X0206417Y0230305D01*
X0207117Y0229796D01*
X0207889Y0229403D01*
X0208712Y0229135D01*
X0209567Y0229000D01*
X0209800Y0229000D01*
X0209800Y0234300D01*
X0210200Y0234300D01*
X0210200Y0229000D01*
X0210433Y0229000D01*
X0211288Y0229135D01*
X0212111Y0229403D01*
X0212883Y0229796D01*
X0213583Y0230305D01*
X0214195Y0230917D01*
X0214704Y0231617D01*
X0215097Y0232389D01*
X0215107Y0232419D01*
X0215168Y0232271D01*
X0216771Y0230668D01*
X0218866Y0229800D01*
X0221134Y0229800D01*
X0223229Y0230668D01*
X0224777Y0232216D01*
X0225168Y0231271D01*
X0226771Y0229668D01*
X0228866Y0228800D01*
X0231134Y0228800D01*
X0233229Y0229668D01*
X0234832Y0231271D01*
X0235223Y0232216D01*
X0236771Y0230668D01*
X0238866Y0229800D01*
X0241134Y0229800D01*
X0243229Y0230668D01*
X0244777Y0232216D01*
X0245168Y0231271D01*
X0246771Y0229668D01*
X0248866Y0228800D01*
X0251134Y0228800D01*
X0253229Y0229668D01*
X0255129Y0231989D02*
X0393200Y0231989D01*
X0393200Y0233587D02*
X0255700Y0233587D01*
X0255700Y0235186D02*
X0393200Y0235186D01*
X0393200Y0236784D02*
X0255224Y0236784D01*
X0254178Y0238383D02*
X0393200Y0238383D01*
X0393200Y0239981D02*
X0251662Y0239981D01*
X0248338Y0239981D02*
X0243580Y0239981D01*
X0244976Y0238383D02*
X0245822Y0238383D01*
X0236420Y0239981D02*
X0231662Y0239981D01*
X0234178Y0238383D02*
X0235024Y0238383D01*
X0228338Y0239981D02*
X0223580Y0239981D01*
X0224976Y0238383D02*
X0225822Y0238383D01*
X0216420Y0239981D02*
X0210552Y0239981D01*
X0210200Y0239981D02*
X0209800Y0239981D01*
X0209448Y0239981D02*
X0203580Y0239981D01*
X0204976Y0238383D02*
X0206104Y0238383D01*
X0209800Y0238383D02*
X0210200Y0238383D01*
X0210200Y0236784D02*
X0209800Y0236784D01*
X0209800Y0235186D02*
X0210200Y0235186D01*
X0210200Y0233587D02*
X0209800Y0233587D01*
X0209800Y0231989D02*
X0210200Y0231989D01*
X0210200Y0230390D02*
X0209800Y0230390D01*
X0206332Y0230390D02*
X0202558Y0230390D01*
X0204550Y0231989D02*
X0205107Y0231989D01*
X0197442Y0230390D02*
X0193668Y0230390D01*
X0194893Y0231989D02*
X0195450Y0231989D01*
X0190200Y0231989D02*
X0189800Y0231989D01*
X0189800Y0233587D02*
X0190200Y0233587D01*
X0190200Y0235186D02*
X0189800Y0235186D01*
X0189800Y0236784D02*
X0190200Y0236784D01*
X0190200Y0238383D02*
X0189800Y0238383D01*
X0189800Y0239981D02*
X0190200Y0239981D01*
X0190552Y0239981D02*
X0196420Y0239981D01*
X0195024Y0238383D02*
X0193895Y0238383D01*
X0189448Y0239981D02*
X0185700Y0239981D01*
X0185700Y0238383D02*
X0186104Y0238383D01*
X0174300Y0238383D02*
X0009800Y0238383D01*
X0009800Y0239981D02*
X0174300Y0239981D01*
X0174300Y0236784D02*
X0009800Y0236784D01*
X0009800Y0235186D02*
X0072661Y0235186D01*
X0074300Y0235186D02*
X0074700Y0235186D01*
X0074700Y0233587D02*
X0074300Y0233587D01*
X0074300Y0231989D02*
X0074700Y0231989D01*
X0074700Y0230390D02*
X0074300Y0230390D01*
X0074700Y0230200D02*
X0084300Y0230200D01*
X0084300Y0229800D01*
X0080000Y0229800D01*
X0074700Y0229800D01*
X0074700Y0230200D01*
X0078691Y0233587D02*
X0080309Y0233587D01*
X0082661Y0235186D02*
X0076339Y0235186D01*
X0084300Y0235186D02*
X0084700Y0235186D01*
X0084700Y0233587D02*
X0084300Y0233587D01*
X0084300Y0231989D02*
X0084700Y0231989D01*
X0084700Y0230390D02*
X0084300Y0230390D01*
X0088691Y0233587D02*
X0174300Y0233587D01*
X0174300Y0231989D02*
X0089637Y0231989D01*
X0090000Y0230390D02*
X0174881Y0230390D01*
X0174300Y0235186D02*
X0086339Y0235186D01*
X0070309Y0233587D02*
X0009800Y0233587D01*
X0009800Y0231989D02*
X0069363Y0231989D01*
X0069000Y0230390D02*
X0009800Y0230390D01*
X0009800Y0228792D02*
X0069123Y0228792D01*
X0069757Y0227193D02*
X0009800Y0227193D01*
X0009800Y0225595D02*
X0071206Y0225595D01*
X0071435Y0223996D02*
X0009800Y0223996D01*
X0009800Y0222398D02*
X0070323Y0222398D01*
X0069800Y0220799D02*
X0009800Y0220799D01*
X0009800Y0219201D02*
X0069800Y0219201D01*
X0070324Y0217602D02*
X0009800Y0217602D01*
X0009800Y0216003D02*
X0071435Y0216003D01*
X0070844Y0214405D02*
X0009800Y0214405D01*
X0009800Y0212806D02*
X0069493Y0212806D01*
X0068831Y0211208D02*
X0009800Y0211208D01*
X0009800Y0209609D02*
X0068800Y0209609D01*
X0069154Y0208011D02*
X0009800Y0208011D01*
X0009800Y0206412D02*
X0070027Y0206412D01*
X0072125Y0204814D02*
X0009800Y0204814D01*
X0009800Y0203215D02*
X0224792Y0203215D01*
X0224525Y0201617D02*
X0009800Y0201617D01*
X0009800Y0200018D02*
X0224259Y0200018D01*
X0224239Y0199898D02*
X0224526Y0198658D01*
X0225266Y0197622D01*
X0226179Y0197053D01*
X0229368Y0190674D01*
X0227745Y0180932D01*
X0216473Y0192204D01*
X0215517Y0192600D01*
X0149483Y0192600D01*
X0148527Y0192204D01*
X0147796Y0191473D01*
X0142796Y0186473D01*
X0142400Y0185517D01*
X0142400Y0181445D01*
X0141122Y0180166D01*
X0140425Y0178485D01*
X0140425Y0171515D01*
X0141122Y0169834D01*
X0142409Y0168547D01*
X0144090Y0167850D01*
X0145910Y0167850D01*
X0147591Y0168547D01*
X0148878Y0169834D01*
X0149575Y0171515D01*
X0149575Y0178485D01*
X0148878Y0180166D01*
X0147600Y0181445D01*
X0147600Y0183923D01*
X0151077Y0187400D01*
X0213923Y0187400D01*
X0224560Y0176763D01*
X0224300Y0176134D01*
X0224300Y0173866D01*
X0225168Y0171771D01*
X0226771Y0170168D01*
X0228866Y0169300D01*
X0231134Y0169300D01*
X0233229Y0170168D01*
X0234832Y0171771D01*
X0235700Y0173866D01*
X0235700Y0176134D01*
X0234832Y0178229D01*
X0233932Y0179129D01*
X0235761Y0190102D01*
X0235474Y0191342D01*
X0234734Y0192378D01*
X0233821Y0192947D01*
X0230632Y0199326D01*
X0232380Y0209816D01*
X0233229Y0210168D01*
X0234832Y0211771D01*
X0235700Y0213866D01*
X0235700Y0216134D01*
X0234832Y0218229D01*
X0233229Y0219832D01*
X0231134Y0220700D01*
X0228866Y0220700D01*
X0226771Y0219832D01*
X0225168Y0218229D01*
X0224300Y0216134D01*
X0224300Y0213866D01*
X0225168Y0211771D01*
X0226068Y0210871D01*
X0224239Y0199898D01*
X0224696Y0198420D02*
X0009800Y0198420D01*
X0009800Y0196821D02*
X0226294Y0196821D01*
X0227093Y0195223D02*
X0009800Y0195223D01*
X0009800Y0193624D02*
X0227893Y0193624D01*
X0228692Y0192026D02*
X0216651Y0192026D01*
X0218250Y0190427D02*
X0229327Y0190427D01*
X0229061Y0188829D02*
X0219848Y0188829D01*
X0221447Y0187230D02*
X0228794Y0187230D01*
X0228528Y0185632D02*
X0223045Y0185632D01*
X0224644Y0184033D02*
X0228261Y0184033D01*
X0227995Y0182435D02*
X0226242Y0182435D01*
X0222085Y0179238D02*
X0199263Y0179238D01*
X0199575Y0178485D02*
X0198878Y0180166D01*
X0197591Y0181453D01*
X0195910Y0182150D01*
X0194090Y0182150D01*
X0192409Y0181453D01*
X0191122Y0180166D01*
X0190425Y0178485D01*
X0190425Y0171515D01*
X0191122Y0169834D01*
X0192409Y0168547D01*
X0194090Y0167850D01*
X0195910Y0167850D01*
X0197591Y0168547D01*
X0198878Y0169834D01*
X0199575Y0171515D01*
X0199575Y0178485D01*
X0199575Y0177639D02*
X0223684Y0177639D01*
X0224300Y0176041D02*
X0199575Y0176041D01*
X0199575Y0174442D02*
X0224300Y0174442D01*
X0224724Y0172844D02*
X0199575Y0172844D01*
X0199463Y0171245D02*
X0225694Y0171245D01*
X0228029Y0169647D02*
X0198691Y0169647D01*
X0196387Y0168048D02*
X0247400Y0168048D01*
X0247400Y0166450D02*
X0157600Y0166450D01*
X0157600Y0168048D02*
X0173613Y0168048D01*
X0174090Y0167850D02*
X0172409Y0168547D01*
X0171122Y0169834D01*
X0170425Y0171515D01*
X0170425Y0178485D01*
X0171122Y0180166D01*
X0172409Y0181453D01*
X0174090Y0182150D01*
X0175910Y0182150D01*
X0177591Y0181453D01*
X0178878Y0180166D01*
X0179575Y0178485D01*
X0179575Y0171515D01*
X0178878Y0169834D01*
X0177591Y0168547D01*
X0175910Y0167850D01*
X0174090Y0167850D01*
X0176387Y0168048D02*
X0183613Y0168048D01*
X0184090Y0167850D02*
X0185910Y0167850D01*
X0187591Y0168547D01*
X0188878Y0169834D01*
X0189575Y0171515D01*
X0189575Y0178485D01*
X0188878Y0180166D01*
X0187591Y0181453D01*
X0185910Y0182150D01*
X0184090Y0182150D01*
X0182409Y0181453D01*
X0181122Y0180166D01*
X0180425Y0178485D01*
X0180425Y0171515D01*
X0181122Y0169834D01*
X0182409Y0168547D01*
X0184090Y0167850D01*
X0186387Y0168048D02*
X0193613Y0168048D01*
X0191309Y0169647D02*
X0188691Y0169647D01*
X0189463Y0171245D02*
X0190537Y0171245D01*
X0190425Y0172844D02*
X0189575Y0172844D01*
X0189575Y0174442D02*
X0190425Y0174442D01*
X0190425Y0176041D02*
X0189575Y0176041D01*
X0189575Y0177639D02*
X0190425Y0177639D01*
X0190737Y0179238D02*
X0189263Y0179238D01*
X0188208Y0180836D02*
X0191792Y0180836D01*
X0198208Y0180836D02*
X0220487Y0180836D01*
X0218888Y0182435D02*
X0147600Y0182435D01*
X0147710Y0184033D02*
X0217290Y0184033D01*
X0215691Y0185632D02*
X0149309Y0185632D01*
X0150907Y0187230D02*
X0214093Y0187230D01*
X0231884Y0196821D02*
X0246294Y0196821D01*
X0247093Y0195223D02*
X0232684Y0195223D01*
X0233483Y0193624D02*
X0247893Y0193624D01*
X0248692Y0192026D02*
X0234985Y0192026D01*
X0235686Y0190427D02*
X0249327Y0190427D01*
X0249061Y0188829D02*
X0235549Y0188829D01*
X0235282Y0187230D02*
X0248794Y0187230D01*
X0248528Y0185632D02*
X0235016Y0185632D01*
X0234750Y0184033D02*
X0248261Y0184033D01*
X0247995Y0182435D02*
X0234483Y0182435D01*
X0234217Y0180836D02*
X0247729Y0180836D01*
X0246177Y0179238D02*
X0233950Y0179238D01*
X0235076Y0177639D02*
X0244924Y0177639D01*
X0244300Y0176041D02*
X0235700Y0176041D01*
X0235700Y0174442D02*
X0244300Y0174442D01*
X0244724Y0172844D02*
X0235276Y0172844D01*
X0234306Y0171245D02*
X0245694Y0171245D01*
X0247400Y0169647D02*
X0231971Y0169647D01*
X0241379Y0160056D02*
X0158621Y0160056D01*
X0157600Y0161654D02*
X0242977Y0161654D01*
X0244576Y0163253D02*
X0157600Y0163253D01*
X0157600Y0164851D02*
X0246174Y0164851D01*
X0252600Y0169647D02*
X0348407Y0169647D01*
X0346931Y0171245D02*
X0254306Y0171245D01*
X0255276Y0172844D02*
X0346269Y0172844D01*
X0345953Y0174442D02*
X0255700Y0174442D01*
X0255700Y0176041D02*
X0345953Y0176041D01*
X0346469Y0177639D02*
X0255076Y0177639D01*
X0253950Y0179238D02*
X0347291Y0179238D01*
X0348890Y0180836D02*
X0254217Y0180836D01*
X0244696Y0198420D02*
X0231085Y0198420D01*
X0230747Y0200018D02*
X0244259Y0200018D01*
X0244525Y0201617D02*
X0231014Y0201617D01*
X0231280Y0203215D02*
X0244792Y0203215D01*
X0245058Y0204814D02*
X0231546Y0204814D01*
X0231813Y0206412D02*
X0245325Y0206412D01*
X0245591Y0208011D02*
X0232079Y0208011D01*
X0232346Y0209609D02*
X0245857Y0209609D01*
X0245731Y0211208D02*
X0234269Y0211208D01*
X0235261Y0212806D02*
X0244739Y0212806D01*
X0244300Y0214405D02*
X0235700Y0214405D01*
X0235700Y0216003D02*
X0244300Y0216003D01*
X0244908Y0217602D02*
X0235092Y0217602D01*
X0233860Y0219201D02*
X0246139Y0219201D01*
X0246049Y0230390D02*
X0242558Y0230390D01*
X0244550Y0231989D02*
X0244871Y0231989D01*
X0237442Y0230390D02*
X0233951Y0230390D01*
X0235129Y0231989D02*
X0235450Y0231989D01*
X0226049Y0230390D02*
X0222558Y0230390D01*
X0224550Y0231989D02*
X0224871Y0231989D01*
X0217442Y0230390D02*
X0213668Y0230390D01*
X0214893Y0231989D02*
X0215450Y0231989D01*
X0215024Y0238383D02*
X0213895Y0238383D01*
X0190200Y0230390D02*
X0189800Y0230390D01*
X0186332Y0230390D02*
X0185119Y0230390D01*
X0224300Y0216003D02*
X0089565Y0216003D01*
X0090676Y0217602D02*
X0224908Y0217602D01*
X0226139Y0219201D02*
X0091200Y0219201D01*
X0088156Y0214405D02*
X0224300Y0214405D01*
X0224739Y0212806D02*
X0089507Y0212806D01*
X0090169Y0211208D02*
X0225731Y0211208D01*
X0225857Y0209609D02*
X0090200Y0209609D01*
X0089846Y0208011D02*
X0225591Y0208011D01*
X0225325Y0206412D02*
X0088973Y0206412D01*
X0086875Y0204814D02*
X0225058Y0204814D01*
X0181792Y0180836D02*
X0178208Y0180836D01*
X0179263Y0179238D02*
X0180737Y0179238D01*
X0180425Y0177639D02*
X0179575Y0177639D01*
X0179575Y0176041D02*
X0180425Y0176041D01*
X0180425Y0174442D02*
X0179575Y0174442D01*
X0179575Y0172844D02*
X0180425Y0172844D01*
X0180537Y0171245D02*
X0179463Y0171245D01*
X0178691Y0169647D02*
X0181309Y0169647D01*
X0171309Y0169647D02*
X0168389Y0169647D01*
X0168337Y0169575D02*
X0168742Y0170132D01*
X0169054Y0170746D01*
X0169267Y0171401D01*
X0169375Y0172081D01*
X0169375Y0175000D01*
X0169375Y0177919D01*
X0169267Y0178599D01*
X0169054Y0179254D01*
X0168742Y0179868D01*
X0168337Y0180425D01*
X0167850Y0180912D01*
X0167293Y0181316D01*
X0166679Y0181629D01*
X0166024Y0181842D01*
X0165344Y0181950D01*
X0165000Y0181950D01*
X0164656Y0181950D01*
X0163976Y0181842D01*
X0163321Y0181629D01*
X0162707Y0181316D01*
X0162150Y0180912D01*
X0161663Y0180425D01*
X0161258Y0179868D01*
X0160946Y0179254D01*
X0160733Y0178599D01*
X0160625Y0177919D01*
X0160625Y0175000D01*
X0165000Y0175000D01*
X0169375Y0175000D01*
X0165000Y0175000D01*
X0165000Y0175000D01*
X0165000Y0175000D01*
X0165000Y0181950D01*
X0165000Y0175000D01*
X0165000Y0168050D01*
X0165000Y0175000D01*
X0165000Y0175000D01*
X0165000Y0175000D01*
X0160625Y0175000D01*
X0160625Y0172081D01*
X0160733Y0171401D01*
X0160946Y0170746D01*
X0161258Y0170132D01*
X0161663Y0169575D01*
X0162150Y0169088D01*
X0162707Y0168684D01*
X0163321Y0168371D01*
X0163976Y0168158D01*
X0164656Y0168050D01*
X0165000Y0168050D01*
X0165344Y0168050D01*
X0166024Y0168158D01*
X0166679Y0168371D01*
X0167293Y0168684D01*
X0167850Y0169088D01*
X0168337Y0169575D01*
X0169217Y0171245D02*
X0170537Y0171245D01*
X0170425Y0172844D02*
X0169375Y0172844D01*
X0169375Y0174442D02*
X0170425Y0174442D01*
X0170425Y0176041D02*
X0169375Y0176041D01*
X0169375Y0177639D02*
X0170425Y0177639D01*
X0170737Y0179238D02*
X0169060Y0179238D01*
X0167925Y0180836D02*
X0171792Y0180836D01*
X0165000Y0180836D02*
X0165000Y0180836D01*
X0165000Y0179238D02*
X0165000Y0179238D01*
X0165000Y0177639D02*
X0165000Y0177639D01*
X0165000Y0176041D02*
X0165000Y0176041D01*
X0165000Y0174442D02*
X0165000Y0174442D01*
X0165000Y0172844D02*
X0165000Y0172844D01*
X0165000Y0171245D02*
X0165000Y0171245D01*
X0165000Y0169647D02*
X0165000Y0169647D01*
X0161611Y0169647D02*
X0158691Y0169647D01*
X0159463Y0171245D02*
X0160783Y0171245D01*
X0160625Y0172844D02*
X0159575Y0172844D01*
X0159575Y0174442D02*
X0160625Y0174442D01*
X0160625Y0176041D02*
X0159575Y0176041D01*
X0159575Y0177639D02*
X0160625Y0177639D01*
X0160940Y0179238D02*
X0159263Y0179238D01*
X0158208Y0180836D02*
X0162075Y0180836D01*
X0151792Y0180836D02*
X0148208Y0180836D01*
X0149263Y0179238D02*
X0150737Y0179238D01*
X0150425Y0177639D02*
X0149575Y0177639D01*
X0149575Y0176041D02*
X0150425Y0176041D01*
X0150425Y0174442D02*
X0149575Y0174442D01*
X0149575Y0172844D02*
X0150425Y0172844D01*
X0150537Y0171245D02*
X0149463Y0171245D01*
X0148691Y0169647D02*
X0151309Y0169647D01*
X0152400Y0168048D02*
X0146387Y0168048D01*
X0143613Y0168048D02*
X0136387Y0168048D01*
X0135910Y0167850D02*
X0137591Y0168547D01*
X0138878Y0169834D01*
X0139575Y0171515D01*
X0139575Y0178485D01*
X0138878Y0180166D01*
X0137591Y0181453D01*
X0135910Y0182150D01*
X0134090Y0182150D01*
X0132409Y0181453D01*
X0131122Y0180166D01*
X0130425Y0178485D01*
X0130425Y0171515D01*
X0131122Y0169834D01*
X0132409Y0168547D01*
X0134090Y0167850D01*
X0135910Y0167850D01*
X0133613Y0168048D02*
X0126725Y0168048D01*
X0125127Y0166450D02*
X0152400Y0166450D01*
X0152400Y0164851D02*
X0123528Y0164851D01*
X0121930Y0163253D02*
X0152400Y0163253D01*
X0152400Y0161654D02*
X0120331Y0161654D01*
X0118733Y0160056D02*
X0152400Y0160056D01*
X0152866Y0158457D02*
X0117134Y0158457D01*
X0115536Y0156859D02*
X0154464Y0156859D01*
X0156063Y0155260D02*
X0113937Y0155260D01*
X0109780Y0158457D02*
X0107134Y0158457D01*
X0108182Y0156859D02*
X0105536Y0156859D01*
X0106583Y0155260D02*
X0103937Y0155260D01*
X0104985Y0153662D02*
X0102338Y0153662D01*
X0099780Y0158457D02*
X0097134Y0158457D01*
X0098733Y0160056D02*
X0101379Y0160056D01*
X0100331Y0161654D02*
X0102977Y0161654D01*
X0101930Y0163253D02*
X0104576Y0163253D01*
X0103528Y0164851D02*
X0106174Y0164851D01*
X0105127Y0166450D02*
X0107773Y0166450D01*
X0106725Y0168048D02*
X0109371Y0168048D01*
X0108691Y0169647D02*
X0110970Y0169647D01*
X0110537Y0171245D02*
X0109463Y0171245D01*
X0109575Y0172844D02*
X0110425Y0172844D01*
X0110425Y0174442D02*
X0109575Y0174442D01*
X0109575Y0176041D02*
X0110425Y0176041D01*
X0110425Y0177639D02*
X0109575Y0177639D01*
X0109263Y0179238D02*
X0110737Y0179238D01*
X0111792Y0180836D02*
X0108208Y0180836D01*
X0101792Y0180836D02*
X0098208Y0180836D01*
X0099263Y0179238D02*
X0100737Y0179238D01*
X0100425Y0177639D02*
X0099575Y0177639D01*
X0099575Y0176041D02*
X0100425Y0176041D01*
X0100425Y0174442D02*
X0099575Y0174442D01*
X0099575Y0172844D02*
X0100425Y0172844D01*
X0100537Y0171245D02*
X0099463Y0171245D01*
X0098691Y0169647D02*
X0100970Y0169647D01*
X0099371Y0168048D02*
X0096387Y0168048D01*
X0097773Y0166450D02*
X0090127Y0166450D01*
X0091725Y0168048D02*
X0093613Y0168048D01*
X0096174Y0164851D02*
X0088528Y0164851D01*
X0086930Y0163253D02*
X0094576Y0163253D01*
X0083613Y0168048D02*
X0076387Y0168048D01*
X0075910Y0167850D02*
X0077591Y0168547D01*
X0078878Y0169834D01*
X0079575Y0171515D01*
X0079575Y0178485D01*
X0078878Y0180166D01*
X0077591Y0181453D01*
X0075910Y0182150D01*
X0074090Y0182150D01*
X0072409Y0181453D01*
X0071122Y0180166D01*
X0070425Y0178485D01*
X0070425Y0171515D01*
X0071122Y0169834D01*
X0072409Y0168547D01*
X0074090Y0167850D01*
X0075910Y0167850D01*
X0073613Y0168048D02*
X0067600Y0168048D01*
X0067600Y0166450D02*
X0072773Y0166450D01*
X0071174Y0164851D02*
X0067600Y0164851D01*
X0066930Y0163253D02*
X0069576Y0163253D01*
X0067977Y0161654D02*
X0065331Y0161654D01*
X0066379Y0160056D02*
X0063733Y0160056D01*
X0064780Y0158457D02*
X0062134Y0158457D01*
X0063182Y0156859D02*
X0060536Y0156859D01*
X0061583Y0155260D02*
X0058937Y0155260D01*
X0059985Y0153662D02*
X0057338Y0153662D01*
X0058386Y0152063D02*
X0030453Y0152063D01*
X0029026Y0150465D02*
X0056788Y0150465D01*
X0055189Y0148866D02*
X0028695Y0148866D01*
X0021974Y0150465D02*
X0009800Y0150465D01*
X0009800Y0152063D02*
X0020547Y0152063D01*
X0019885Y0153662D02*
X0009800Y0153662D01*
X0009800Y0155260D02*
X0019800Y0155260D01*
X0020100Y0156859D02*
X0009800Y0156859D01*
X0009800Y0158457D02*
X0020896Y0158457D01*
X0021542Y0160056D02*
X0009800Y0160056D01*
X0009800Y0161654D02*
X0019785Y0161654D01*
X0019054Y0163253D02*
X0009800Y0163253D01*
X0009800Y0164851D02*
X0018800Y0164851D01*
X0018931Y0166450D02*
X0009800Y0166450D01*
X0009800Y0168048D02*
X0019593Y0168048D01*
X0020625Y0169647D02*
X0009800Y0169647D01*
X0009800Y0171245D02*
X0019800Y0171245D01*
X0019800Y0172844D02*
X0009800Y0172844D01*
X0009800Y0174442D02*
X0019800Y0174442D01*
X0019800Y0176041D02*
X0009800Y0176041D01*
X0009800Y0177639D02*
X0019800Y0177639D01*
X0019800Y0179238D02*
X0009800Y0179238D01*
X0009800Y0180836D02*
X0051792Y0180836D01*
X0050737Y0179238D02*
X0031200Y0179238D01*
X0031200Y0177639D02*
X0050425Y0177639D01*
X0050537Y0171245D02*
X0039922Y0171245D01*
X0038324Y0169647D02*
X0051309Y0169647D01*
X0053613Y0168048D02*
X0036725Y0168048D01*
X0035127Y0166450D02*
X0062400Y0166450D01*
X0062400Y0168048D02*
X0056387Y0168048D01*
X0058691Y0169647D02*
X0061309Y0169647D01*
X0060537Y0171245D02*
X0059463Y0171245D01*
X0059575Y0172844D02*
X0060425Y0172844D01*
X0060425Y0174442D02*
X0059575Y0174442D01*
X0059575Y0176041D02*
X0060425Y0176041D01*
X0060425Y0177639D02*
X0059575Y0177639D01*
X0059263Y0179238D02*
X0060737Y0179238D01*
X0061792Y0180836D02*
X0058208Y0180836D01*
X0068208Y0180836D02*
X0071792Y0180836D01*
X0070737Y0179238D02*
X0069263Y0179238D01*
X0069575Y0177639D02*
X0070425Y0177639D01*
X0070425Y0176041D02*
X0069575Y0176041D01*
X0069575Y0174442D02*
X0070425Y0174442D01*
X0070425Y0172844D02*
X0069575Y0172844D01*
X0069463Y0171245D02*
X0070537Y0171245D01*
X0071309Y0169647D02*
X0068691Y0169647D01*
X0061174Y0164851D02*
X0033528Y0164851D01*
X0031930Y0163253D02*
X0059576Y0163253D01*
X0057977Y0161654D02*
X0029215Y0161654D01*
X0028190Y0160056D02*
X0056379Y0160056D01*
X0054780Y0158457D02*
X0030104Y0158457D01*
X0020305Y0148866D02*
X0009800Y0148866D01*
X0009800Y0147268D02*
X0019270Y0147268D01*
X0018800Y0145669D02*
X0009800Y0145669D01*
X0009800Y0144070D02*
X0018800Y0144070D01*
X0019377Y0142472D02*
X0009800Y0142472D01*
X0009800Y0140873D02*
X0020566Y0140873D01*
X0021714Y0139275D02*
X0009800Y0139275D01*
X0009800Y0137676D02*
X0020439Y0137676D01*
X0017632Y0136078D02*
X0009800Y0136078D01*
X0009800Y0134479D02*
X0017401Y0134479D01*
X0018442Y0132881D02*
X0009800Y0132881D01*
X0009800Y0131282D02*
X0021157Y0131282D01*
X0021123Y0129684D02*
X0009800Y0129684D01*
X0009800Y0128085D02*
X0019608Y0128085D01*
X0018946Y0126487D02*
X0009800Y0126487D01*
X0009800Y0124888D02*
X0018800Y0124888D01*
X0019039Y0123290D02*
X0009800Y0123290D01*
X0009800Y0121691D02*
X0019748Y0121691D01*
X0021452Y0120093D02*
X0009800Y0120093D01*
X0009800Y0118494D02*
X0020933Y0118494D01*
X0018219Y0116896D02*
X0009800Y0116896D01*
X0009800Y0115297D02*
X0017400Y0115297D01*
X0017725Y0113699D02*
X0009800Y0113699D01*
X0009800Y0112100D02*
X0020531Y0112100D01*
X0021937Y0110502D02*
X0009800Y0110502D01*
X0009800Y0108903D02*
X0020625Y0108903D01*
X0019502Y0107305D02*
X0009800Y0107305D01*
X0009800Y0105706D02*
X0019043Y0105706D01*
X0019000Y0104800D02*
X0019000Y0104567D01*
X0019135Y0103712D01*
X0019403Y0102889D01*
X0019796Y0102117D01*
X0020305Y0101417D01*
X0020917Y0100805D01*
X0021617Y0100296D01*
X0022389Y0099903D01*
X0023212Y0099635D01*
X0024067Y0099500D01*
X0024300Y0099500D01*
X0024300Y0104800D01*
X0019000Y0104800D01*
X0019073Y0104108D02*
X0009800Y0104108D01*
X0009800Y0102509D02*
X0019596Y0102509D01*
X0020811Y0100911D02*
X0009800Y0100911D01*
X0009800Y0099312D02*
X0147011Y0099312D01*
X0148609Y0097714D02*
X0009800Y0097714D01*
X0009800Y0096115D02*
X0150208Y0096115D01*
X0151806Y0094517D02*
X0009800Y0094517D01*
X0009800Y0092918D02*
X0153405Y0092918D01*
X0145412Y0100911D02*
X0028189Y0100911D01*
X0028083Y0100805D02*
X0028695Y0101417D01*
X0029204Y0102117D01*
X0029597Y0102889D01*
X0029865Y0103712D01*
X0030000Y0104567D01*
X0030000Y0104800D01*
X0024700Y0104800D01*
X0024700Y0099500D01*
X0024933Y0099500D01*
X0025788Y0099635D01*
X0026611Y0099903D01*
X0027383Y0100296D01*
X0028083Y0100805D01*
X0029404Y0102509D02*
X0143814Y0102509D01*
X0142555Y0104108D02*
X0029927Y0104108D01*
X0029957Y0105706D02*
X0142400Y0105706D01*
X0142400Y0107305D02*
X0029498Y0107305D01*
X0028375Y0108903D02*
X0052052Y0108903D01*
X0050845Y0110502D02*
X0029063Y0110502D01*
X0030469Y0112100D02*
X0050425Y0112100D01*
X0050425Y0113699D02*
X0047376Y0113699D01*
X0048974Y0115297D02*
X0050425Y0115297D01*
X0057016Y0121691D02*
X0062984Y0121691D01*
X0062409Y0121453D02*
X0061122Y0120166D01*
X0060425Y0118485D01*
X0060425Y0111515D01*
X0061122Y0109834D01*
X0062409Y0108547D01*
X0064090Y0107850D01*
X0065910Y0107850D01*
X0067591Y0108547D01*
X0068878Y0109834D01*
X0069575Y0111515D01*
X0069575Y0118485D01*
X0068878Y0120166D01*
X0067591Y0121453D01*
X0065910Y0122150D01*
X0064090Y0122150D01*
X0062409Y0121453D01*
X0061091Y0120093D02*
X0058909Y0120093D01*
X0059571Y0118494D02*
X0060429Y0118494D01*
X0060425Y0116896D02*
X0059575Y0116896D01*
X0059575Y0115297D02*
X0060425Y0115297D01*
X0060425Y0113699D02*
X0059575Y0113699D01*
X0059575Y0112100D02*
X0060425Y0112100D01*
X0060845Y0110502D02*
X0059155Y0110502D01*
X0057948Y0108903D02*
X0062052Y0108903D01*
X0067948Y0108903D02*
X0072052Y0108903D01*
X0072409Y0108547D02*
X0071122Y0109834D01*
X0070425Y0111515D01*
X0070425Y0118485D01*
X0071122Y0120166D01*
X0072409Y0121453D01*
X0074090Y0122150D01*
X0075910Y0122150D01*
X0077591Y0121453D01*
X0078878Y0120166D01*
X0079575Y0118485D01*
X0079575Y0111515D01*
X0078878Y0109834D01*
X0077591Y0108547D01*
X0075910Y0107850D01*
X0074090Y0107850D01*
X0072409Y0108547D01*
X0070845Y0110502D02*
X0069155Y0110502D01*
X0069575Y0112100D02*
X0070425Y0112100D01*
X0070425Y0113699D02*
X0069575Y0113699D01*
X0069575Y0115297D02*
X0070425Y0115297D01*
X0070425Y0116896D02*
X0069575Y0116896D01*
X0069571Y0118494D02*
X0070429Y0118494D01*
X0071091Y0120093D02*
X0068909Y0120093D01*
X0067016Y0121691D02*
X0072984Y0121691D01*
X0077016Y0121691D02*
X0082984Y0121691D01*
X0082409Y0121453D02*
X0081122Y0120166D01*
X0080425Y0118485D01*
X0080425Y0111515D01*
X0081122Y0109834D01*
X0082409Y0108547D01*
X0084090Y0107850D01*
X0085910Y0107850D01*
X0087591Y0108547D01*
X0088878Y0109834D01*
X0089575Y0111515D01*
X0089575Y0118485D01*
X0088878Y0120166D01*
X0087591Y0121453D01*
X0085910Y0122150D01*
X0084090Y0122150D01*
X0082409Y0121453D01*
X0081091Y0120093D02*
X0078909Y0120093D01*
X0079571Y0118494D02*
X0080429Y0118494D01*
X0080425Y0116896D02*
X0079575Y0116896D01*
X0079575Y0115297D02*
X0080425Y0115297D01*
X0080425Y0113699D02*
X0079575Y0113699D01*
X0079575Y0112100D02*
X0080425Y0112100D01*
X0080845Y0110502D02*
X0079155Y0110502D01*
X0077948Y0108903D02*
X0082052Y0108903D01*
X0087948Y0108903D02*
X0092052Y0108903D01*
X0092409Y0108547D02*
X0091122Y0109834D01*
X0090425Y0111515D01*
X0090425Y0118485D01*
X0091122Y0120166D01*
X0092409Y0121453D01*
X0094090Y0122150D01*
X0095910Y0122150D01*
X0097591Y0121453D01*
X0098878Y0120166D01*
X0099575Y0118485D01*
X0099575Y0111515D01*
X0098878Y0109834D01*
X0097591Y0108547D01*
X0095910Y0107850D01*
X0094090Y0107850D01*
X0092409Y0108547D01*
X0090845Y0110502D02*
X0089155Y0110502D01*
X0089575Y0112100D02*
X0090425Y0112100D01*
X0090425Y0113699D02*
X0089575Y0113699D01*
X0089575Y0115297D02*
X0090425Y0115297D01*
X0090425Y0116896D02*
X0089575Y0116896D01*
X0089571Y0118494D02*
X0090429Y0118494D01*
X0091091Y0120093D02*
X0088909Y0120093D01*
X0087016Y0121691D02*
X0092984Y0121691D01*
X0097016Y0121691D02*
X0102984Y0121691D01*
X0102409Y0121453D02*
X0101122Y0120166D01*
X0100425Y0118485D01*
X0100425Y0111515D01*
X0101122Y0109834D01*
X0102409Y0108547D01*
X0104090Y0107850D01*
X0105910Y0107850D01*
X0107591Y0108547D01*
X0108878Y0109834D01*
X0109575Y0111515D01*
X0109575Y0118485D01*
X0108878Y0120166D01*
X0107591Y0121453D01*
X0105910Y0122150D01*
X0104090Y0122150D01*
X0102409Y0121453D01*
X0101091Y0120093D02*
X0098909Y0120093D01*
X0099571Y0118494D02*
X0100429Y0118494D01*
X0100425Y0116896D02*
X0099575Y0116896D01*
X0099575Y0115297D02*
X0100425Y0115297D01*
X0100425Y0113699D02*
X0099575Y0113699D01*
X0099575Y0112100D02*
X0100425Y0112100D01*
X0100845Y0110502D02*
X0099155Y0110502D01*
X0097948Y0108903D02*
X0102052Y0108903D01*
X0107948Y0108903D02*
X0112052Y0108903D01*
X0112409Y0108547D02*
X0111122Y0109834D01*
X0110425Y0111515D01*
X0110425Y0118485D01*
X0111122Y0120166D01*
X0112409Y0121453D01*
X0114090Y0122150D01*
X0115910Y0122150D01*
X0117591Y0121453D01*
X0118878Y0120166D01*
X0119575Y0118485D01*
X0119575Y0111515D01*
X0118878Y0109834D01*
X0117591Y0108547D01*
X0115910Y0107850D01*
X0114090Y0107850D01*
X0112409Y0108547D01*
X0110845Y0110502D02*
X0109155Y0110502D01*
X0109575Y0112100D02*
X0110425Y0112100D01*
X0110425Y0113699D02*
X0109575Y0113699D01*
X0109575Y0115297D02*
X0110425Y0115297D01*
X0110425Y0116896D02*
X0109575Y0116896D01*
X0109571Y0118494D02*
X0110429Y0118494D01*
X0111091Y0120093D02*
X0108909Y0120093D01*
X0107016Y0121691D02*
X0112984Y0121691D01*
X0117016Y0121691D02*
X0122984Y0121691D01*
X0122409Y0121453D02*
X0124090Y0122150D01*
X0125910Y0122150D01*
X0127591Y0121453D01*
X0128878Y0120166D01*
X0129575Y0118485D01*
X0129575Y0111515D01*
X0128878Y0109834D01*
X0127591Y0108547D01*
X0125910Y0107850D01*
X0124090Y0107850D01*
X0122409Y0108547D01*
X0121122Y0109834D01*
X0120425Y0111515D01*
X0120425Y0118485D01*
X0121122Y0120166D01*
X0122409Y0121453D01*
X0121091Y0120093D02*
X0118909Y0120093D01*
X0119571Y0118494D02*
X0120429Y0118494D01*
X0120425Y0116896D02*
X0119575Y0116896D01*
X0119575Y0115297D02*
X0120425Y0115297D01*
X0120425Y0113699D02*
X0119575Y0113699D01*
X0119575Y0112100D02*
X0120425Y0112100D01*
X0120845Y0110502D02*
X0119155Y0110502D01*
X0117948Y0108903D02*
X0122052Y0108903D01*
X0127948Y0108903D02*
X0132052Y0108903D01*
X0132409Y0108547D02*
X0134090Y0107850D01*
X0135910Y0107850D01*
X0137591Y0108547D01*
X0138878Y0109834D01*
X0139575Y0111515D01*
X0139575Y0118485D01*
X0138878Y0120166D01*
X0137591Y0121453D01*
X0135910Y0122150D01*
X0134090Y0122150D01*
X0132409Y0121453D01*
X0131122Y0120166D01*
X0130425Y0118485D01*
X0130425Y0111515D01*
X0131122Y0109834D01*
X0132409Y0108547D01*
X0130845Y0110502D02*
X0129155Y0110502D01*
X0129575Y0112100D02*
X0130425Y0112100D01*
X0130425Y0113699D02*
X0129575Y0113699D01*
X0129575Y0115297D02*
X0130425Y0115297D01*
X0130425Y0116896D02*
X0129575Y0116896D01*
X0129571Y0118494D02*
X0130429Y0118494D01*
X0131091Y0120093D02*
X0128909Y0120093D01*
X0127016Y0121691D02*
X0132984Y0121691D01*
X0137016Y0121691D02*
X0142984Y0121691D01*
X0141091Y0120093D02*
X0138909Y0120093D01*
X0139571Y0118494D02*
X0140429Y0118494D01*
X0140425Y0116896D02*
X0139575Y0116896D01*
X0139575Y0115297D02*
X0140425Y0115297D01*
X0140425Y0113699D02*
X0139575Y0113699D01*
X0139575Y0112100D02*
X0140425Y0112100D01*
X0140845Y0110502D02*
X0139155Y0110502D01*
X0137948Y0108903D02*
X0142052Y0108903D01*
X0162971Y0105706D02*
X0245746Y0105706D01*
X0254254Y0105706D02*
X0290746Y0105706D01*
X0288590Y0107305D02*
X0256410Y0107305D01*
X0257125Y0108903D02*
X0287875Y0108903D01*
X0287800Y0110502D02*
X0257200Y0110502D01*
X0256709Y0112100D02*
X0288291Y0112100D01*
X0289593Y0113699D02*
X0255407Y0113699D01*
X0227352Y0096115D02*
X0324142Y0096115D01*
X0324142Y0096998D02*
X0324142Y0088002D01*
X0330502Y0081642D01*
X0339498Y0081642D01*
X0345858Y0088002D01*
X0345858Y0096998D01*
X0339498Y0103358D01*
X0330502Y0103358D01*
X0324142Y0096998D01*
X0324858Y0097714D02*
X0225963Y0097714D01*
X0224365Y0099312D02*
X0326456Y0099312D01*
X0328055Y0100911D02*
X0222766Y0100911D01*
X0220736Y0102509D02*
X0329653Y0102509D01*
X0324142Y0094517D02*
X0227600Y0094517D01*
X0227600Y0092918D02*
X0324142Y0092918D01*
X0324142Y0091320D02*
X0227600Y0091320D01*
X0227600Y0089721D02*
X0324142Y0089721D01*
X0324142Y0088123D02*
X0227600Y0088123D01*
X0227600Y0086524D02*
X0325620Y0086524D01*
X0327219Y0084926D02*
X0227600Y0084926D01*
X0227600Y0083327D02*
X0328817Y0083327D01*
X0330416Y0081729D02*
X0227600Y0081729D01*
X0227600Y0080130D02*
X0352950Y0080130D01*
X0352950Y0080800D02*
X0352950Y0079200D01*
X0354550Y0079200D01*
X0354550Y0080800D01*
X0364782Y0080800D01*
X0364663Y0081854D01*
X0364387Y0083064D01*
X0363977Y0084236D01*
X0363438Y0085354D01*
X0362778Y0086406D01*
X0362004Y0087376D01*
X0361126Y0088254D01*
X0360156Y0089028D01*
X0359104Y0089688D01*
X0357986Y0090227D01*
X0356814Y0090637D01*
X0355604Y0090913D01*
X0354550Y0091032D01*
X0354550Y0080800D01*
X0352950Y0080800D01*
X0352950Y0091032D01*
X0351896Y0090913D01*
X0350686Y0090637D01*
X0349514Y0090227D01*
X0348396Y0089688D01*
X0347344Y0089028D01*
X0346374Y0088254D01*
X0345496Y0087376D01*
X0344722Y0086406D01*
X0344062Y0085354D01*
X0343523Y0084236D01*
X0343113Y0083064D01*
X0342837Y0081854D01*
X0342718Y0080800D01*
X0352950Y0080800D01*
X0352950Y0081729D02*
X0354550Y0081729D01*
X0354550Y0083327D02*
X0352950Y0083327D01*
X0352950Y0084926D02*
X0354550Y0084926D01*
X0354550Y0086524D02*
X0352950Y0086524D01*
X0352950Y0088123D02*
X0354550Y0088123D01*
X0354550Y0089721D02*
X0352950Y0089721D01*
X0348464Y0089721D02*
X0345858Y0089721D01*
X0345858Y0088123D02*
X0346243Y0088123D01*
X0344817Y0086524D02*
X0344380Y0086524D01*
X0343855Y0084926D02*
X0342781Y0084926D01*
X0343205Y0083327D02*
X0341183Y0083327D01*
X0339584Y0081729D02*
X0342823Y0081729D01*
X0342718Y0079200D02*
X0342837Y0078146D01*
X0343113Y0076936D01*
X0343523Y0075764D01*
X0344062Y0074646D01*
X0344722Y0073594D01*
X0345496Y0072624D01*
X0346374Y0071746D01*
X0347344Y0070972D01*
X0348396Y0070312D01*
X0349514Y0069773D01*
X0350686Y0069363D01*
X0351896Y0069087D01*
X0352950Y0068968D01*
X0352950Y0079200D01*
X0342718Y0079200D01*
X0342794Y0078532D02*
X0335802Y0078532D01*
X0335800Y0078532D02*
X0336854Y0078413D01*
X0338064Y0078137D01*
X0339236Y0077727D01*
X0340354Y0077188D01*
X0341406Y0076528D01*
X0342376Y0075754D01*
X0343254Y0074876D01*
X0344028Y0073906D01*
X0344688Y0072854D01*
X0345227Y0071736D01*
X0345637Y0070564D01*
X0345913Y0069354D01*
X0346032Y0068300D01*
X0335800Y0068300D01*
X0335800Y0066700D01*
X0346032Y0066700D01*
X0345913Y0065646D01*
X0345637Y0064436D01*
X0345227Y0063264D01*
X0344688Y0062146D01*
X0344028Y0061094D01*
X0343254Y0060124D01*
X0342376Y0059246D01*
X0341406Y0058472D01*
X0340354Y0057812D01*
X0339236Y0057273D01*
X0338064Y0056863D01*
X0336854Y0056587D01*
X0335800Y0056468D01*
X0335800Y0066700D01*
X0334200Y0066700D01*
X0334200Y0056468D01*
X0333146Y0056587D01*
X0331936Y0056863D01*
X0330764Y0057273D01*
X0329646Y0057812D01*
X0328594Y0058472D01*
X0327624Y0059246D01*
X0326746Y0060124D01*
X0325972Y0061094D01*
X0325312Y0062146D01*
X0324773Y0063264D01*
X0324363Y0064436D01*
X0324087Y0065646D01*
X0323968Y0066700D01*
X0334200Y0066700D01*
X0334200Y0068300D01*
X0334200Y0078532D01*
X0333146Y0078413D01*
X0331936Y0078137D01*
X0330764Y0077727D01*
X0329646Y0077188D01*
X0328594Y0076528D01*
X0327624Y0075754D01*
X0326746Y0074876D01*
X0325972Y0073906D01*
X0325312Y0072854D01*
X0324773Y0071736D01*
X0324363Y0070564D01*
X0324087Y0069354D01*
X0323968Y0068300D01*
X0334200Y0068300D01*
X0335800Y0068300D01*
X0335800Y0078532D01*
X0334200Y0078532D01*
X0334198Y0078532D02*
X0227600Y0078532D01*
X0227600Y0076933D02*
X0329239Y0076933D01*
X0327205Y0075334D02*
X0227600Y0075334D01*
X0227600Y0073736D02*
X0325866Y0073736D01*
X0324967Y0072137D02*
X0227600Y0072137D01*
X0227600Y0070539D02*
X0324357Y0070539D01*
X0324040Y0068940D02*
X0227600Y0068940D01*
X0227600Y0067342D02*
X0334200Y0067342D01*
X0334200Y0068940D02*
X0335800Y0068940D01*
X0335800Y0067342D02*
X0393200Y0067342D01*
X0393200Y0068940D02*
X0345960Y0068940D01*
X0345643Y0070539D02*
X0348034Y0070539D01*
X0345983Y0072137D02*
X0345033Y0072137D01*
X0344633Y0073736D02*
X0344134Y0073736D01*
X0343730Y0075334D02*
X0342795Y0075334D01*
X0343114Y0076933D02*
X0340761Y0076933D01*
X0335800Y0076933D02*
X0334200Y0076933D01*
X0334200Y0075334D02*
X0335800Y0075334D01*
X0335800Y0073736D02*
X0334200Y0073736D01*
X0334200Y0072137D02*
X0335800Y0072137D01*
X0335800Y0070539D02*
X0334200Y0070539D01*
X0334200Y0065743D02*
X0335800Y0065743D01*
X0335800Y0064145D02*
X0334200Y0064145D01*
X0334200Y0062546D02*
X0335800Y0062546D01*
X0335800Y0060948D02*
X0334200Y0060948D01*
X0334200Y0059349D02*
X0335800Y0059349D01*
X0335800Y0057751D02*
X0334200Y0057751D01*
X0329772Y0057751D02*
X0221364Y0057751D01*
X0223026Y0059349D02*
X0327521Y0059349D01*
X0326089Y0060948D02*
X0224625Y0060948D01*
X0226223Y0062546D02*
X0325119Y0062546D01*
X0324465Y0064145D02*
X0227460Y0064145D01*
X0227600Y0065743D02*
X0324076Y0065743D01*
X0340228Y0057751D02*
X0393200Y0057751D01*
X0393200Y0059349D02*
X0342479Y0059349D01*
X0343911Y0060948D02*
X0393200Y0060948D01*
X0393200Y0062546D02*
X0344881Y0062546D01*
X0345535Y0064145D02*
X0393200Y0064145D01*
X0393200Y0065743D02*
X0345924Y0065743D01*
X0352950Y0070539D02*
X0354550Y0070539D01*
X0354550Y0068968D02*
X0355604Y0069087D01*
X0356814Y0069363D01*
X0357986Y0069773D01*
X0359104Y0070312D01*
X0360156Y0070972D01*
X0361126Y0071746D01*
X0362004Y0072624D01*
X0362778Y0073594D01*
X0363438Y0074646D01*
X0363977Y0075764D01*
X0364387Y0076936D01*
X0364663Y0078146D01*
X0364782Y0079200D01*
X0354550Y0079200D01*
X0354550Y0068968D01*
X0354550Y0072137D02*
X0352950Y0072137D01*
X0352950Y0073736D02*
X0354550Y0073736D01*
X0354550Y0075334D02*
X0352950Y0075334D01*
X0352950Y0076933D02*
X0354550Y0076933D01*
X0354550Y0078532D02*
X0352950Y0078532D01*
X0354550Y0080130D02*
X0393200Y0080130D01*
X0393200Y0078532D02*
X0364706Y0078532D01*
X0364386Y0076933D02*
X0393200Y0076933D01*
X0393200Y0075334D02*
X0363770Y0075334D01*
X0362867Y0073736D02*
X0393200Y0073736D01*
X0393200Y0072137D02*
X0361517Y0072137D01*
X0359466Y0070539D02*
X0393200Y0070539D01*
X0393200Y0081729D02*
X0364677Y0081729D01*
X0364295Y0083327D02*
X0393200Y0083327D01*
X0393200Y0084926D02*
X0363645Y0084926D01*
X0362683Y0086524D02*
X0393200Y0086524D01*
X0393200Y0088123D02*
X0361257Y0088123D01*
X0359036Y0089721D02*
X0393200Y0089721D01*
X0393200Y0091320D02*
X0345858Y0091320D01*
X0345858Y0092918D02*
X0393200Y0092918D01*
X0393200Y0094517D02*
X0345858Y0094517D01*
X0345858Y0096115D02*
X0393200Y0096115D01*
X0393200Y0097714D02*
X0345142Y0097714D01*
X0343544Y0099312D02*
X0393200Y0099312D01*
X0393200Y0100911D02*
X0341945Y0100911D01*
X0340347Y0102509D02*
X0393200Y0102509D01*
X0393200Y0056152D02*
X0197525Y0056152D01*
X0199123Y0054554D02*
X0239030Y0054554D01*
X0239563Y0055087D02*
X0237875Y0053399D01*
X0236961Y0051193D01*
X0236961Y0048807D01*
X0237875Y0046601D01*
X0239563Y0044913D01*
X0241768Y0044000D01*
X0244155Y0044000D01*
X0246360Y0044913D01*
X0248048Y0046601D01*
X0248961Y0048807D01*
X0248961Y0051193D01*
X0248048Y0053399D01*
X0246360Y0055087D01*
X0244155Y0056000D01*
X0241768Y0056000D01*
X0239563Y0055087D01*
X0237691Y0052955D02*
X0200722Y0052955D01*
X0202252Y0051357D02*
X0237029Y0051357D01*
X0236961Y0049758D02*
X0202600Y0049758D01*
X0202600Y0048160D02*
X0237229Y0048160D01*
X0237915Y0046561D02*
X0202600Y0046561D01*
X0203598Y0044963D02*
X0205234Y0044963D01*
X0197400Y0046561D02*
X0009800Y0046561D01*
X0009800Y0044963D02*
X0046402Y0044963D01*
X0046771Y0045332D02*
X0045168Y0043729D01*
X0044300Y0041634D01*
X0044300Y0039366D01*
X0045168Y0037271D01*
X0046771Y0035668D01*
X0048866Y0034800D01*
X0051134Y0034800D01*
X0053229Y0035668D01*
X0054777Y0037216D01*
X0055168Y0036271D01*
X0056771Y0034668D01*
X0058866Y0033800D01*
X0061134Y0033800D01*
X0063229Y0034668D01*
X0064832Y0036271D01*
X0065223Y0037216D01*
X0066771Y0035668D01*
X0068866Y0034800D01*
X0071134Y0034800D01*
X0073229Y0035668D01*
X0074777Y0037216D01*
X0075168Y0036271D01*
X0076771Y0034668D01*
X0078866Y0033800D01*
X0081134Y0033800D01*
X0083229Y0034668D01*
X0084832Y0036271D01*
X0085223Y0037216D01*
X0086771Y0035668D01*
X0088866Y0034800D01*
X0091134Y0034800D01*
X0093229Y0035668D01*
X0094777Y0037216D01*
X0095168Y0036271D01*
X0096771Y0034668D01*
X0098866Y0033800D01*
X0101134Y0033800D01*
X0103229Y0034668D01*
X0104832Y0036271D01*
X0105223Y0037216D01*
X0106771Y0035668D01*
X0108866Y0034800D01*
X0111134Y0034800D01*
X0113229Y0035668D01*
X0114300Y0036739D01*
X0114300Y0034972D01*
X0115472Y0033800D01*
X0124528Y0033800D01*
X0125700Y0034972D01*
X0125700Y0044028D01*
X0124528Y0045200D01*
X0115472Y0045200D01*
X0114416Y0044145D01*
X0113229Y0045332D01*
X0111134Y0046200D01*
X0108866Y0046200D01*
X0106771Y0045332D01*
X0105168Y0043729D01*
X0104777Y0042784D01*
X0103229Y0044332D01*
X0101134Y0045200D01*
X0098866Y0045200D01*
X0096771Y0044332D01*
X0095223Y0042784D01*
X0094832Y0043729D01*
X0093229Y0045332D01*
X0091134Y0046200D01*
X0088866Y0046200D01*
X0086771Y0045332D01*
X0085168Y0043729D01*
X0084777Y0042784D01*
X0083229Y0044332D01*
X0081134Y0045200D01*
X0078866Y0045200D01*
X0076771Y0044332D01*
X0075223Y0042784D01*
X0074832Y0043729D01*
X0073229Y0045332D01*
X0071134Y0046200D01*
X0068866Y0046200D01*
X0066771Y0045332D01*
X0065168Y0043729D01*
X0064777Y0042784D01*
X0063229Y0044332D01*
X0061134Y0045200D01*
X0058866Y0045200D01*
X0056771Y0044332D01*
X0055223Y0042784D01*
X0054832Y0043729D01*
X0053229Y0045332D01*
X0051134Y0046200D01*
X0048866Y0046200D01*
X0046771Y0045332D01*
X0045017Y0043364D02*
X0009800Y0043364D01*
X0009800Y0041766D02*
X0044355Y0041766D01*
X0044300Y0040167D02*
X0009800Y0040167D01*
X0009800Y0038569D02*
X0044630Y0038569D01*
X0045469Y0036970D02*
X0029295Y0036970D01*
X0029892Y0036810D02*
X0026669Y0037674D01*
X0023331Y0037674D01*
X0020108Y0036810D01*
X0017218Y0035142D01*
X0014858Y0032782D01*
X0013190Y0029892D01*
X0012326Y0026669D01*
X0012326Y0023331D01*
X0013190Y0020108D01*
X0014858Y0017218D01*
X0017218Y0014858D01*
X0020108Y0013190D01*
X0023331Y0012326D01*
X0026669Y0012326D01*
X0029892Y0013190D01*
X0032782Y0014858D01*
X0035142Y0017218D01*
X0036810Y0020108D01*
X0037674Y0023331D01*
X0037674Y0026669D01*
X0036810Y0029892D01*
X0035142Y0032782D01*
X0032782Y0035142D01*
X0029892Y0036810D01*
X0032384Y0035372D02*
X0047486Y0035372D01*
X0052514Y0035372D02*
X0056067Y0035372D01*
X0054878Y0036970D02*
X0054531Y0036970D01*
X0054983Y0043364D02*
X0055803Y0043364D01*
X0053598Y0044963D02*
X0058294Y0044963D01*
X0061706Y0044963D02*
X0066402Y0044963D01*
X0065017Y0043364D02*
X0064197Y0043364D01*
X0065122Y0036970D02*
X0065469Y0036970D01*
X0063933Y0035372D02*
X0067486Y0035372D01*
X0072514Y0035372D02*
X0076067Y0035372D01*
X0074878Y0036970D02*
X0074531Y0036970D01*
X0074983Y0043364D02*
X0075803Y0043364D01*
X0073598Y0044963D02*
X0078294Y0044963D01*
X0081706Y0044963D02*
X0086402Y0044963D01*
X0085017Y0043364D02*
X0084197Y0043364D01*
X0085122Y0036970D02*
X0085469Y0036970D01*
X0083933Y0035372D02*
X0087486Y0035372D01*
X0092514Y0035372D02*
X0096067Y0035372D01*
X0094878Y0036970D02*
X0094531Y0036970D01*
X0094983Y0043364D02*
X0095803Y0043364D01*
X0093598Y0044963D02*
X0098294Y0044963D01*
X0101706Y0044963D02*
X0106402Y0044963D01*
X0105017Y0043364D02*
X0104197Y0043364D01*
X0105122Y0036970D02*
X0105469Y0036970D01*
X0103933Y0035372D02*
X0107486Y0035372D01*
X0112514Y0035372D02*
X0114300Y0035372D01*
X0113598Y0044963D02*
X0115234Y0044963D01*
X0124766Y0044963D02*
X0136402Y0044963D01*
X0135017Y0043364D02*
X0125700Y0043364D01*
X0125700Y0041766D02*
X0134355Y0041766D01*
X0134300Y0040167D02*
X0125700Y0040167D01*
X0125700Y0038569D02*
X0134630Y0038569D01*
X0135469Y0036970D02*
X0125700Y0036970D01*
X0125700Y0035372D02*
X0137486Y0035372D01*
X0142514Y0035372D02*
X0146067Y0035372D01*
X0144878Y0036970D02*
X0144531Y0036970D01*
X0144983Y0043364D02*
X0145803Y0043364D01*
X0143598Y0044963D02*
X0148294Y0044963D01*
X0151706Y0044963D02*
X0156402Y0044963D01*
X0155017Y0043364D02*
X0154197Y0043364D01*
X0155122Y0036970D02*
X0155469Y0036970D01*
X0153933Y0035372D02*
X0157486Y0035372D01*
X0162514Y0035372D02*
X0166067Y0035372D01*
X0164878Y0036970D02*
X0164531Y0036970D01*
X0164983Y0043364D02*
X0165803Y0043364D01*
X0163598Y0044963D02*
X0168294Y0044963D01*
X0171706Y0044963D02*
X0176402Y0044963D01*
X0175017Y0043364D02*
X0174197Y0043364D01*
X0175122Y0036970D02*
X0175469Y0036970D01*
X0173933Y0035372D02*
X0177486Y0035372D01*
X0182514Y0035372D02*
X0186067Y0035372D01*
X0184878Y0036970D02*
X0184531Y0036970D01*
X0184983Y0043364D02*
X0185803Y0043364D01*
X0183598Y0044963D02*
X0188294Y0044963D01*
X0191706Y0044963D02*
X0196402Y0044963D01*
X0195017Y0043364D02*
X0194197Y0043364D01*
X0197400Y0048160D02*
X0009800Y0048160D01*
X0009800Y0049758D02*
X0196565Y0049758D01*
X0194966Y0051357D02*
X0009800Y0051357D01*
X0009800Y0052955D02*
X0183368Y0052955D01*
X0181769Y0054554D02*
X0009800Y0054554D01*
X0009800Y0056152D02*
X0180171Y0056152D01*
X0178572Y0057751D02*
X0009800Y0057751D01*
X0009800Y0059349D02*
X0177455Y0059349D01*
X0177400Y0060948D02*
X0009800Y0060948D01*
X0009800Y0062546D02*
X0177400Y0062546D01*
X0177400Y0064145D02*
X0009800Y0064145D01*
X0009800Y0065743D02*
X0177400Y0065743D01*
X0177400Y0067342D02*
X0009800Y0067342D01*
X0009800Y0068940D02*
X0177400Y0068940D01*
X0177409Y0070539D02*
X0009800Y0070539D01*
X0009800Y0072137D02*
X0178461Y0072137D01*
X0180059Y0073736D02*
X0009800Y0073736D01*
X0009800Y0075334D02*
X0181658Y0075334D01*
X0183256Y0076933D02*
X0009800Y0076933D01*
X0009800Y0078532D02*
X0184855Y0078532D01*
X0186453Y0080130D02*
X0009800Y0080130D01*
X0009800Y0081729D02*
X0188052Y0081729D01*
X0190001Y0083327D02*
X0009800Y0083327D01*
X0009800Y0084926D02*
X0191365Y0084926D01*
X0198635Y0084926D02*
X0202400Y0084926D01*
X0202400Y0086524D02*
X0009800Y0086524D01*
X0009800Y0088123D02*
X0202400Y0088123D01*
X0201602Y0089721D02*
X0009800Y0089721D01*
X0009800Y0091320D02*
X0200003Y0091320D01*
X0199999Y0083327D02*
X0200766Y0083327D01*
X0191777Y0075334D02*
X0189011Y0075334D01*
X0190175Y0073736D02*
X0187413Y0073736D01*
X0185814Y0072137D02*
X0189509Y0072137D01*
X0189300Y0070539D02*
X0184216Y0070539D01*
X0182617Y0068940D02*
X0189476Y0068940D01*
X0190138Y0067342D02*
X0182600Y0067342D01*
X0182600Y0065743D02*
X0191696Y0065743D01*
X0198304Y0065743D02*
X0200696Y0065743D01*
X0202540Y0064145D02*
X0182600Y0064145D01*
X0182600Y0062546D02*
X0203777Y0062546D01*
X0205375Y0060948D02*
X0182729Y0060948D01*
X0184328Y0059349D02*
X0206974Y0059349D01*
X0208636Y0057751D02*
X0185926Y0057751D01*
X0195122Y0036970D02*
X0195469Y0036970D01*
X0193933Y0035372D02*
X0197486Y0035372D01*
X0202514Y0035372D02*
X0204300Y0035372D01*
X0215700Y0035372D02*
X0370616Y0035372D01*
X0370218Y0035142D02*
X0367858Y0032782D01*
X0366190Y0029892D01*
X0365326Y0026669D01*
X0365326Y0023331D01*
X0366190Y0020108D01*
X0367858Y0017218D01*
X0370218Y0014858D01*
X0373108Y0013190D01*
X0376331Y0012326D01*
X0379669Y0012326D01*
X0382892Y0013190D01*
X0385782Y0014858D01*
X0388142Y0017218D01*
X0389810Y0020108D01*
X0390674Y0023331D01*
X0390674Y0026669D01*
X0389810Y0029892D01*
X0388142Y0032782D01*
X0385782Y0035142D01*
X0382892Y0036810D01*
X0379669Y0037674D01*
X0376331Y0037674D01*
X0373108Y0036810D01*
X0370218Y0035142D01*
X0368849Y0033773D02*
X0034151Y0033773D01*
X0035492Y0032175D02*
X0367508Y0032175D01*
X0366585Y0030576D02*
X0036415Y0030576D01*
X0037055Y0028978D02*
X0365945Y0028978D01*
X0365516Y0027379D02*
X0037484Y0027379D01*
X0037674Y0025781D02*
X0365326Y0025781D01*
X0365326Y0024182D02*
X0037674Y0024182D01*
X0037474Y0022584D02*
X0365526Y0022584D01*
X0365955Y0020985D02*
X0037045Y0020985D01*
X0036394Y0019387D02*
X0366606Y0019387D01*
X0367529Y0017788D02*
X0035471Y0017788D01*
X0034113Y0016190D02*
X0368887Y0016190D01*
X0370681Y0014591D02*
X0032319Y0014591D01*
X0029156Y0012993D02*
X0373844Y0012993D01*
X0382156Y0012993D02*
X0392753Y0012993D01*
X0392740Y0012949D02*
X0392012Y0011764D01*
X0391002Y0010809D01*
X0389779Y0010147D01*
X0388427Y0009825D01*
X0387779Y0009800D01*
X0387664Y0009800D01*
X0386776Y0009825D01*
X0386712Y0009800D01*
X0014842Y0009800D01*
X0014184Y0009843D01*
X0012913Y0010184D01*
X0011773Y0010842D01*
X0010842Y0011773D01*
X0010184Y0012913D01*
X0009843Y0014184D01*
X0009800Y0014843D01*
X0009800Y0264183D01*
X0009846Y0264313D01*
X0009800Y0265133D01*
X0009800Y0265955D01*
X0009799Y0265956D01*
X0009800Y0266004D01*
X0010101Y0267444D01*
X0010765Y0268757D01*
X0011747Y0269854D01*
X0012978Y0270659D01*
X0014377Y0271118D01*
X0015048Y0271200D01*
X0387484Y0271200D01*
X0388233Y0271130D01*
X0389710Y0270689D01*
X0391023Y0269882D01*
X0392083Y0268762D01*
X0392816Y0267406D01*
X0393173Y0265906D01*
X0393200Y0265184D01*
X0393200Y0265067D01*
X0393175Y0264180D01*
X0393200Y0264115D01*
X0393200Y0014955D01*
X0393137Y0014281D01*
X0392740Y0012949D01*
X0393166Y0014591D02*
X0385319Y0014591D01*
X0387113Y0016190D02*
X0393200Y0016190D01*
X0393200Y0017788D02*
X0388471Y0017788D01*
X0389394Y0019387D02*
X0393200Y0019387D01*
X0393200Y0020985D02*
X0390045Y0020985D01*
X0390474Y0022584D02*
X0393200Y0022584D01*
X0393200Y0024182D02*
X0390674Y0024182D01*
X0390674Y0025781D02*
X0393200Y0025781D01*
X0393200Y0027379D02*
X0390484Y0027379D01*
X0390055Y0028978D02*
X0393200Y0028978D01*
X0393200Y0030576D02*
X0389415Y0030576D01*
X0388492Y0032175D02*
X0393200Y0032175D01*
X0393200Y0033773D02*
X0387151Y0033773D01*
X0385384Y0035372D02*
X0393200Y0035372D01*
X0393200Y0036970D02*
X0382295Y0036970D01*
X0373705Y0036970D02*
X0215700Y0036970D01*
X0215700Y0038569D02*
X0393200Y0038569D01*
X0393200Y0040167D02*
X0215700Y0040167D01*
X0215700Y0041766D02*
X0393200Y0041766D01*
X0393200Y0043364D02*
X0215700Y0043364D01*
X0214766Y0044963D02*
X0239513Y0044963D01*
X0246409Y0044963D02*
X0255251Y0044963D01*
X0255101Y0045039D02*
X0255915Y0044625D01*
X0256783Y0044343D01*
X0257684Y0044200D01*
X0257760Y0044200D01*
X0257760Y0049619D01*
X0258522Y0049619D01*
X0258522Y0050381D01*
X0263941Y0050381D01*
X0263941Y0050456D01*
X0263798Y0051358D01*
X0263516Y0052226D01*
X0263102Y0053040D01*
X0262565Y0053778D01*
X0261919Y0054424D01*
X0261181Y0054961D01*
X0260367Y0055375D01*
X0259499Y0055657D01*
X0258597Y0055800D01*
X0258522Y0055800D01*
X0258522Y0050381D01*
X0257760Y0050381D01*
X0257760Y0055800D01*
X0257684Y0055800D01*
X0256783Y0055657D01*
X0255915Y0055375D01*
X0255101Y0054961D01*
X0254362Y0054424D01*
X0253717Y0053778D01*
X0253180Y0053040D01*
X0252766Y0052226D01*
X0252484Y0051358D01*
X0252341Y0050456D01*
X0252341Y0050381D01*
X0257760Y0050381D01*
X0257760Y0049619D01*
X0252341Y0049619D01*
X0252341Y0049544D01*
X0252484Y0048642D01*
X0252766Y0047774D01*
X0253180Y0046960D01*
X0253717Y0046222D01*
X0254362Y0045576D01*
X0255101Y0045039D01*
X0253470Y0046561D02*
X0248008Y0046561D01*
X0248694Y0048160D02*
X0252640Y0048160D01*
X0252484Y0051357D02*
X0248894Y0051357D01*
X0248961Y0049758D02*
X0257760Y0049758D01*
X0258522Y0049758D02*
X0264520Y0049758D01*
X0263941Y0049619D02*
X0258522Y0049619D01*
X0258522Y0044200D01*
X0258597Y0044200D01*
X0259499Y0044343D01*
X0260367Y0044625D01*
X0261181Y0045039D01*
X0261919Y0045576D01*
X0262565Y0046222D01*
X0263102Y0046960D01*
X0263516Y0047774D01*
X0263798Y0048642D01*
X0263941Y0049544D01*
X0263941Y0049619D01*
X0264520Y0048807D02*
X0265434Y0046601D01*
X0267122Y0044913D01*
X0269327Y0044000D01*
X0271714Y0044000D01*
X0273919Y0044913D01*
X0275607Y0046601D01*
X0276520Y0048807D01*
X0276520Y0051193D01*
X0275607Y0053399D01*
X0273919Y0055087D01*
X0271714Y0056000D01*
X0269327Y0056000D01*
X0267122Y0055087D01*
X0265434Y0053399D01*
X0264520Y0051193D01*
X0264520Y0048807D01*
X0264788Y0048160D02*
X0263641Y0048160D01*
X0262812Y0046561D02*
X0265474Y0046561D01*
X0267072Y0044963D02*
X0261030Y0044963D01*
X0258522Y0044963D02*
X0257760Y0044963D01*
X0257760Y0046561D02*
X0258522Y0046561D01*
X0258522Y0048160D02*
X0257760Y0048160D01*
X0257760Y0051357D02*
X0258522Y0051357D01*
X0258522Y0052955D02*
X0257760Y0052955D01*
X0257760Y0054554D02*
X0258522Y0054554D01*
X0261741Y0054554D02*
X0266589Y0054554D01*
X0265250Y0052955D02*
X0263145Y0052955D01*
X0263798Y0051357D02*
X0264588Y0051357D01*
X0274452Y0054554D02*
X0279985Y0054554D01*
X0280023Y0054695D02*
X0279900Y0054237D01*
X0279900Y0050381D01*
X0285319Y0050381D01*
X0285319Y0049619D01*
X0279900Y0049619D01*
X0279900Y0045763D01*
X0280023Y0045305D01*
X0280260Y0044895D01*
X0280595Y0044560D01*
X0281005Y0044323D01*
X0281463Y0044200D01*
X0285319Y0044200D01*
X0285319Y0049619D01*
X0286081Y0049619D01*
X0286081Y0050381D01*
X0285319Y0050381D01*
X0285319Y0055800D01*
X0281463Y0055800D01*
X0281005Y0055677D01*
X0280595Y0055440D01*
X0280260Y0055105D01*
X0280023Y0054695D01*
X0279900Y0052955D02*
X0275791Y0052955D01*
X0276453Y0051357D02*
X0279900Y0051357D01*
X0279900Y0048160D02*
X0276253Y0048160D01*
X0276520Y0049758D02*
X0285319Y0049758D01*
X0286081Y0049758D02*
X0393200Y0049758D01*
X0393200Y0048160D02*
X0291500Y0048160D01*
X0291500Y0049619D02*
X0286081Y0049619D01*
X0286081Y0044200D01*
X0289937Y0044200D01*
X0290395Y0044323D01*
X0290805Y0044560D01*
X0291140Y0044895D01*
X0291377Y0045305D01*
X0291500Y0045763D01*
X0291500Y0049619D01*
X0291500Y0050381D02*
X0286081Y0050381D01*
X0286081Y0055800D01*
X0289937Y0055800D01*
X0290395Y0055677D01*
X0290805Y0055440D01*
X0291140Y0055105D01*
X0291377Y0054695D01*
X0291500Y0054237D01*
X0291500Y0050381D01*
X0291500Y0051357D02*
X0393200Y0051357D01*
X0393200Y0052955D02*
X0291500Y0052955D01*
X0291415Y0054554D02*
X0393200Y0054554D01*
X0393200Y0046561D02*
X0291500Y0046561D01*
X0291180Y0044963D02*
X0393200Y0044963D01*
X0391621Y0011394D02*
X0011221Y0011394D01*
X0010162Y0012993D02*
X0020844Y0012993D01*
X0017681Y0014591D02*
X0009816Y0014591D01*
X0009800Y0016190D02*
X0015887Y0016190D01*
X0014529Y0017788D02*
X0009800Y0017788D01*
X0009800Y0019387D02*
X0013606Y0019387D01*
X0012955Y0020985D02*
X0009800Y0020985D01*
X0009800Y0022584D02*
X0012526Y0022584D01*
X0012326Y0024182D02*
X0009800Y0024182D01*
X0009800Y0025781D02*
X0012326Y0025781D01*
X0012516Y0027379D02*
X0009800Y0027379D01*
X0009800Y0028978D02*
X0012945Y0028978D01*
X0013585Y0030576D02*
X0009800Y0030576D01*
X0009800Y0032175D02*
X0014508Y0032175D01*
X0015849Y0033773D02*
X0009800Y0033773D01*
X0009800Y0035372D02*
X0017616Y0035372D01*
X0020705Y0036970D02*
X0009800Y0036970D01*
X0024300Y0100911D02*
X0024700Y0100911D01*
X0024700Y0102509D02*
X0024300Y0102509D01*
X0024300Y0104108D02*
X0024700Y0104108D01*
X0088585Y0134479D02*
X0091415Y0134479D01*
X0090569Y0136078D02*
X0089431Y0136078D01*
X0089600Y0137676D02*
X0090400Y0137676D01*
X0090400Y0139275D02*
X0089600Y0139275D01*
X0089600Y0140873D02*
X0090400Y0140873D01*
X0090400Y0142472D02*
X0089600Y0142472D01*
X0089370Y0144070D02*
X0090630Y0144070D01*
X0091564Y0145669D02*
X0088436Y0145669D01*
X0098436Y0145669D02*
X0101564Y0145669D01*
X0100630Y0144070D02*
X0099370Y0144070D01*
X0099600Y0142472D02*
X0100400Y0142472D01*
X0100400Y0140873D02*
X0099600Y0140873D01*
X0099600Y0139275D02*
X0100400Y0139275D01*
X0100400Y0137676D02*
X0099600Y0137676D01*
X0099431Y0136078D02*
X0100569Y0136078D01*
X0101415Y0134479D02*
X0098585Y0134479D01*
X0108585Y0134479D02*
X0111415Y0134479D01*
X0110569Y0136078D02*
X0109431Y0136078D01*
X0109600Y0137676D02*
X0110400Y0137676D01*
X0110400Y0139275D02*
X0109600Y0139275D01*
X0109600Y0140873D02*
X0110400Y0140873D01*
X0110400Y0142472D02*
X0109600Y0142472D01*
X0109370Y0144070D02*
X0110630Y0144070D01*
X0111564Y0145669D02*
X0108436Y0145669D01*
X0118436Y0145669D02*
X0121564Y0145669D01*
X0120630Y0144070D02*
X0119370Y0144070D01*
X0119600Y0142472D02*
X0120400Y0142472D01*
X0120400Y0140873D02*
X0119600Y0140873D01*
X0119600Y0139275D02*
X0120400Y0139275D01*
X0120400Y0137676D02*
X0119600Y0137676D01*
X0119431Y0136078D02*
X0120569Y0136078D01*
X0121415Y0134479D02*
X0118585Y0134479D01*
X0128585Y0134479D02*
X0131415Y0134479D01*
X0130569Y0136078D02*
X0129431Y0136078D01*
X0129600Y0137676D02*
X0130400Y0137676D01*
X0130400Y0139275D02*
X0129600Y0139275D01*
X0129600Y0140873D02*
X0130400Y0140873D01*
X0130400Y0142472D02*
X0129600Y0142472D01*
X0129370Y0144070D02*
X0130630Y0144070D01*
X0131564Y0145669D02*
X0128436Y0145669D01*
X0138436Y0145669D02*
X0141564Y0145669D01*
X0140630Y0144070D02*
X0139370Y0144070D01*
X0139600Y0142472D02*
X0140400Y0142472D01*
X0140400Y0140873D02*
X0139600Y0140873D01*
X0139600Y0139275D02*
X0140400Y0139275D01*
X0140400Y0137676D02*
X0139600Y0137676D01*
X0139431Y0136078D02*
X0140569Y0136078D01*
X0141415Y0134479D02*
X0138585Y0134479D01*
X0148585Y0134479D02*
X0151415Y0134479D01*
X0150569Y0136078D02*
X0149431Y0136078D01*
X0149600Y0137676D02*
X0150400Y0137676D01*
X0150400Y0139275D02*
X0149600Y0139275D01*
X0149600Y0140873D02*
X0150400Y0140873D01*
X0150400Y0142472D02*
X0149600Y0142472D01*
X0149370Y0144070D02*
X0150630Y0144070D01*
X0151564Y0145669D02*
X0148436Y0145669D01*
X0160220Y0158457D02*
X0239780Y0158457D01*
X0148349Y0192026D02*
X0009800Y0192026D01*
X0009800Y0190427D02*
X0146750Y0190427D01*
X0145152Y0188829D02*
X0009800Y0188829D01*
X0009800Y0187230D02*
X0143553Y0187230D01*
X0142447Y0185632D02*
X0009800Y0185632D01*
X0009800Y0184033D02*
X0142400Y0184033D01*
X0142400Y0182435D02*
X0009800Y0182435D01*
X0031200Y0176041D02*
X0037364Y0176041D01*
X0035765Y0174442D02*
X0031200Y0174442D01*
X0031200Y0172844D02*
X0034167Y0172844D01*
X0032568Y0171245D02*
X0031200Y0171245D01*
X0030970Y0169647D02*
X0030375Y0169647D01*
X0078691Y0169647D02*
X0081309Y0169647D01*
X0080537Y0171245D02*
X0079463Y0171245D01*
X0079575Y0172844D02*
X0080425Y0172844D01*
X0080425Y0174442D02*
X0079575Y0174442D01*
X0079575Y0176041D02*
X0080425Y0176041D01*
X0080425Y0177639D02*
X0079575Y0177639D01*
X0079263Y0179238D02*
X0080737Y0179238D01*
X0081792Y0180836D02*
X0078208Y0180836D01*
X0088208Y0180836D02*
X0091792Y0180836D01*
X0090737Y0179238D02*
X0089263Y0179238D01*
X0089575Y0177639D02*
X0090425Y0177639D01*
X0090425Y0176041D02*
X0089575Y0176041D01*
X0089575Y0174442D02*
X0090425Y0174442D01*
X0108733Y0160056D02*
X0111379Y0160056D01*
X0110331Y0161654D02*
X0112977Y0161654D01*
X0111930Y0163253D02*
X0114576Y0163253D01*
X0113528Y0164851D02*
X0116174Y0164851D01*
X0115127Y0166450D02*
X0117773Y0166450D01*
X0116725Y0168048D02*
X0119371Y0168048D01*
X0118691Y0169647D02*
X0120970Y0169647D01*
X0120537Y0171245D02*
X0119463Y0171245D01*
X0119575Y0172844D02*
X0120425Y0172844D01*
X0120425Y0174442D02*
X0119575Y0174442D01*
X0119575Y0176041D02*
X0120425Y0176041D01*
X0120425Y0177639D02*
X0119575Y0177639D01*
X0119263Y0179238D02*
X0120737Y0179238D01*
X0121792Y0180836D02*
X0118208Y0180836D01*
X0128208Y0180836D02*
X0131792Y0180836D01*
X0130737Y0179238D02*
X0129263Y0179238D01*
X0129575Y0177639D02*
X0130425Y0177639D01*
X0130425Y0176041D02*
X0129575Y0176041D01*
X0129575Y0174442D02*
X0130425Y0174442D01*
X0130425Y0172844D02*
X0129575Y0172844D01*
X0129463Y0171245D02*
X0130537Y0171245D01*
X0131309Y0169647D02*
X0128691Y0169647D01*
X0138691Y0169647D02*
X0141309Y0169647D01*
X0140537Y0171245D02*
X0139463Y0171245D01*
X0139575Y0172844D02*
X0140425Y0172844D01*
X0140425Y0174442D02*
X0139575Y0174442D01*
X0139575Y0176041D02*
X0140425Y0176041D01*
X0140425Y0177639D02*
X0139575Y0177639D01*
X0139263Y0179238D02*
X0140737Y0179238D01*
X0141792Y0180836D02*
X0138208Y0180836D01*
X0082125Y0204814D02*
X0076875Y0204814D01*
X0078973Y0206412D02*
X0080027Y0206412D01*
X0029892Y0244190D02*
X0026669Y0243326D01*
X0023331Y0243326D01*
X0020108Y0244190D01*
X0017218Y0245858D01*
X0014858Y0248218D01*
X0013190Y0251108D01*
X0012326Y0254331D01*
X0012326Y0257669D01*
X0013190Y0260892D01*
X0014858Y0263782D01*
X0017218Y0266142D01*
X0020108Y0267810D01*
X0023331Y0268674D01*
X0026669Y0268674D01*
X0029892Y0267810D01*
X0032782Y0266142D01*
X0035142Y0263782D01*
X0036810Y0260892D01*
X0037674Y0257669D01*
X0037674Y0254331D01*
X0036810Y0251108D01*
X0035142Y0248218D01*
X0032782Y0245858D01*
X0029892Y0244190D01*
X0030909Y0244777D02*
X0372091Y0244777D01*
X0373108Y0244190D02*
X0370218Y0245858D01*
X0367858Y0248218D01*
X0366190Y0251108D01*
X0365326Y0254331D01*
X0365326Y0257669D01*
X0366190Y0260892D01*
X0367858Y0263782D01*
X0370218Y0266142D01*
X0373108Y0267810D01*
X0376331Y0268674D01*
X0379669Y0268674D01*
X0382892Y0267810D01*
X0385782Y0266142D01*
X0388142Y0263782D01*
X0389810Y0260892D01*
X0390674Y0257669D01*
X0390674Y0254331D01*
X0389810Y0251108D01*
X0388142Y0248218D01*
X0385782Y0245858D01*
X0382892Y0244190D01*
X0379669Y0243326D01*
X0376331Y0243326D01*
X0373108Y0244190D01*
X0369701Y0246375D02*
X0033299Y0246375D01*
X0034897Y0247974D02*
X0368102Y0247974D01*
X0367076Y0249572D02*
X0035924Y0249572D01*
X0036827Y0251171D02*
X0366173Y0251171D01*
X0365745Y0252769D02*
X0037255Y0252769D01*
X0037674Y0254368D02*
X0365326Y0254368D01*
X0365326Y0255966D02*
X0037674Y0255966D01*
X0037674Y0257565D02*
X0365326Y0257565D01*
X0365727Y0259163D02*
X0037273Y0259163D01*
X0036845Y0260762D02*
X0366155Y0260762D01*
X0367037Y0262360D02*
X0035963Y0262360D01*
X0034965Y0263959D02*
X0368035Y0263959D01*
X0369634Y0265557D02*
X0033366Y0265557D01*
X0031026Y0267156D02*
X0371974Y0267156D01*
X0384026Y0267156D02*
X0392875Y0267156D01*
X0393186Y0265557D02*
X0386366Y0265557D01*
X0387965Y0263959D02*
X0393200Y0263959D01*
X0393200Y0262360D02*
X0388963Y0262360D01*
X0389845Y0260762D02*
X0393200Y0260762D01*
X0393200Y0259163D02*
X0390273Y0259163D01*
X0390674Y0257565D02*
X0393200Y0257565D01*
X0393200Y0255966D02*
X0390674Y0255966D01*
X0390674Y0254368D02*
X0393200Y0254368D01*
X0393200Y0252769D02*
X0390255Y0252769D01*
X0389827Y0251171D02*
X0393200Y0251171D01*
X0393200Y0249572D02*
X0388924Y0249572D01*
X0387897Y0247974D02*
X0393200Y0247974D01*
X0393200Y0246375D02*
X0386299Y0246375D01*
X0383909Y0244777D02*
X0393200Y0244777D01*
X0393200Y0243178D02*
X0009800Y0243178D01*
X0009800Y0241580D02*
X0393200Y0241580D01*
X0392086Y0268754D02*
X0010764Y0268754D01*
X0010041Y0267156D02*
X0018974Y0267156D01*
X0016634Y0265557D02*
X0009800Y0265557D01*
X0009800Y0263959D02*
X0015035Y0263959D01*
X0014037Y0262360D02*
X0009800Y0262360D01*
X0009800Y0260762D02*
X0013155Y0260762D01*
X0012727Y0259163D02*
X0009800Y0259163D01*
X0009800Y0257565D02*
X0012326Y0257565D01*
X0012326Y0255966D02*
X0009800Y0255966D01*
X0009800Y0254368D02*
X0012326Y0254368D01*
X0012745Y0252769D02*
X0009800Y0252769D01*
X0009800Y0251171D02*
X0013173Y0251171D01*
X0014076Y0249572D02*
X0009800Y0249572D01*
X0009800Y0247974D02*
X0015102Y0247974D01*
X0016701Y0246375D02*
X0009800Y0246375D01*
X0009800Y0244777D02*
X0019091Y0244777D01*
X0012510Y0270353D02*
X0390257Y0270353D01*
X0362283Y0180836D02*
X0357016Y0180836D01*
X0358614Y0179238D02*
X0360684Y0179238D01*
X0360201Y0171245D02*
X0358974Y0171245D01*
X0357499Y0169647D02*
X0361800Y0169647D01*
X0286081Y0054554D02*
X0285319Y0054554D01*
X0285319Y0052955D02*
X0286081Y0052955D01*
X0286081Y0051357D02*
X0285319Y0051357D01*
X0285319Y0048160D02*
X0286081Y0048160D01*
X0286081Y0046561D02*
X0285319Y0046561D01*
X0285319Y0044963D02*
X0286081Y0044963D01*
X0280220Y0044963D02*
X0273969Y0044963D01*
X0275567Y0046561D02*
X0279900Y0046561D01*
X0254541Y0054554D02*
X0246893Y0054554D01*
X0248232Y0052955D02*
X0253137Y0052955D01*
D25*
X0225000Y0065000D02*
X0220000Y0060000D01*
X0210000Y0060000D01*
X0205000Y0065000D01*
X0205000Y0069500D01*
X0205000Y0079500D02*
X0205000Y0090000D01*
X0200000Y0095000D01*
X0155000Y0095000D01*
X0145000Y0105000D01*
X0145000Y0115000D01*
X0155000Y0115000D02*
X0155000Y0110000D01*
X0165000Y0100000D01*
X0220000Y0100000D01*
X0225000Y0095000D01*
X0225000Y0065000D01*
X0200000Y0050000D02*
X0195000Y0055000D01*
X0185000Y0055000D01*
X0180000Y0060000D01*
X0180000Y0070000D01*
X0190500Y0080500D01*
X0195000Y0080500D01*
X0200000Y0050000D02*
X0200000Y0040500D01*
X0080000Y0160000D02*
X0055000Y0135000D01*
X0025500Y0135000D01*
X0020000Y0135000D01*
X0024500Y0125000D02*
X0050000Y0125000D01*
X0080000Y0155000D01*
X0100000Y0155000D01*
X0115000Y0170000D01*
X0115000Y0175000D01*
X0125000Y0175000D02*
X0125000Y0170000D01*
X0105000Y0150000D01*
X0080000Y0150000D01*
X0045000Y0115000D01*
X0025500Y0115000D01*
X0020000Y0115000D01*
X0024500Y0145000D02*
X0055000Y0145000D01*
X0075000Y0165000D01*
X0085000Y0165000D01*
X0095000Y0175000D01*
X0105000Y0175000D02*
X0105000Y0170000D01*
X0095000Y0160000D01*
X0080000Y0160000D01*
X0065000Y0165000D02*
X0055000Y0155000D01*
X0025500Y0155000D01*
X0025000Y0155000D01*
X0024500Y0165000D02*
X0030000Y0165000D01*
X0040000Y0175000D01*
X0055000Y0175000D01*
X0065000Y0175000D02*
X0065000Y0165000D01*
X0145000Y0175000D02*
X0145000Y0185000D01*
X0150000Y0190000D01*
X0215000Y0190000D01*
X0230000Y0175000D01*
X0250000Y0175000D02*
X0250000Y0165000D01*
X0240000Y0155000D01*
X0160000Y0155000D01*
X0155000Y0160000D01*
X0155000Y0175000D01*
M02*
