G75*
%MOIN*%
%OFA0B0*%
%FSLAX25Y25*%
%IPPOS*%
%LPD*%
%AMOC8*
5,1,8,0,0,1.08239X$1,22.5*
%
%ADD10OC8,0.17717*%
%ADD11C,0.18504*%
%ADD12C,0.05150*%
%ADD13C,0.00000*%
%ADD14C,0.07400*%
%ADD15R,0.08000X0.08000*%
%ADD16C,0.08000*%
%ADD17C,0.10000*%
%ADD18OC8,0.10000*%
%ADD19C,0.06500*%
%ADD20R,0.07400X0.07400*%
%ADD21C,0.05200*%
%ADD22C,0.01600*%
%ADD23C,0.01200*%
D10*
X0335000Y0092500D03*
D11*
X0353750Y0080000D03*
X0335000Y0067500D03*
D12*
X0195000Y0112425D02*
X0195000Y0117575D01*
X0185000Y0117575D02*
X0185000Y0112425D01*
X0175000Y0112425D02*
X0175000Y0117575D01*
X0165000Y0117575D02*
X0165000Y0112425D01*
X0155000Y0112425D02*
X0155000Y0117575D01*
X0145000Y0117575D02*
X0145000Y0112425D01*
X0135000Y0112425D02*
X0135000Y0117575D01*
X0125000Y0117575D02*
X0125000Y0112425D01*
X0115000Y0112425D02*
X0115000Y0117575D01*
X0105000Y0117575D02*
X0105000Y0112425D01*
X0095000Y0112425D02*
X0095000Y0117575D01*
X0085000Y0117575D02*
X0085000Y0112425D01*
X0075000Y0112425D02*
X0075000Y0117575D01*
X0065000Y0117575D02*
X0065000Y0112425D01*
X0055000Y0112425D02*
X0055000Y0117575D01*
X0055000Y0172425D02*
X0055000Y0177575D01*
X0065000Y0177575D02*
X0065000Y0172425D01*
X0075000Y0172425D02*
X0075000Y0177575D01*
X0085000Y0177575D02*
X0085000Y0172425D01*
X0095000Y0172425D02*
X0095000Y0177575D01*
X0105000Y0177575D02*
X0105000Y0172425D01*
X0115000Y0172425D02*
X0115000Y0177575D01*
X0125000Y0177575D02*
X0125000Y0172425D01*
X0135000Y0172425D02*
X0135000Y0177575D01*
X0145000Y0177575D02*
X0145000Y0172425D01*
X0155000Y0172425D02*
X0155000Y0177575D01*
X0165000Y0177575D02*
X0165000Y0172425D01*
X0175000Y0172425D02*
X0175000Y0177575D01*
X0185000Y0177575D02*
X0185000Y0172425D01*
X0195000Y0172425D02*
X0195000Y0177575D01*
D13*
X0032559Y0005000D02*
X0014843Y0005000D01*
X0014605Y0005003D01*
X0014367Y0005011D01*
X0014130Y0005026D01*
X0013893Y0005046D01*
X0013657Y0005072D01*
X0013421Y0005103D01*
X0013186Y0005140D01*
X0012952Y0005183D01*
X0012719Y0005232D01*
X0012487Y0005286D01*
X0012257Y0005346D01*
X0012028Y0005411D01*
X0011801Y0005482D01*
X0011576Y0005558D01*
X0011353Y0005640D01*
X0011131Y0005727D01*
X0010912Y0005819D01*
X0010695Y0005917D01*
X0010481Y0006019D01*
X0010269Y0006127D01*
X0010059Y0006241D01*
X0009853Y0006359D01*
X0009649Y0006482D01*
X0009449Y0006610D01*
X0009252Y0006742D01*
X0009057Y0006880D01*
X0008867Y0007022D01*
X0008679Y0007169D01*
X0008496Y0007320D01*
X0008316Y0007475D01*
X0008140Y0007635D01*
X0007968Y0007799D01*
X0007799Y0007968D01*
X0007635Y0008140D01*
X0007475Y0008316D01*
X0007320Y0008496D01*
X0007169Y0008679D01*
X0007022Y0008867D01*
X0006880Y0009057D01*
X0006742Y0009252D01*
X0006610Y0009449D01*
X0006482Y0009649D01*
X0006359Y0009853D01*
X0006241Y0010059D01*
X0006127Y0010269D01*
X0006019Y0010481D01*
X0005917Y0010695D01*
X0005819Y0010912D01*
X0005727Y0011131D01*
X0005640Y0011353D01*
X0005558Y0011576D01*
X0005482Y0011801D01*
X0005411Y0012028D01*
X0005346Y0012257D01*
X0005286Y0012487D01*
X0005232Y0012719D01*
X0005183Y0012952D01*
X0005140Y0013186D01*
X0005103Y0013421D01*
X0005072Y0013657D01*
X0005046Y0013893D01*
X0005026Y0014130D01*
X0005011Y0014367D01*
X0005003Y0014605D01*
X0005000Y0014843D01*
X0005000Y0036500D01*
X0005000Y0265000D01*
X0004989Y0265252D01*
X0004984Y0265504D01*
X0004986Y0265757D01*
X0004993Y0266009D01*
X0005006Y0266261D01*
X0005026Y0266512D01*
X0005051Y0266763D01*
X0005083Y0267013D01*
X0005121Y0267263D01*
X0005164Y0267511D01*
X0005214Y0267758D01*
X0005270Y0268004D01*
X0005331Y0268249D01*
X0005399Y0268492D01*
X0005472Y0268733D01*
X0005551Y0268973D01*
X0005636Y0269210D01*
X0005727Y0269446D01*
X0005823Y0269679D01*
X0005925Y0269909D01*
X0006032Y0270138D01*
X0006145Y0270363D01*
X0006263Y0270586D01*
X0006387Y0270806D01*
X0006516Y0271022D01*
X0006650Y0271236D01*
X0006789Y0271446D01*
X0006934Y0271653D01*
X0007083Y0271857D01*
X0007237Y0272056D01*
X0007396Y0272252D01*
X0007560Y0272444D01*
X0007728Y0272632D01*
X0007900Y0272816D01*
X0008077Y0272995D01*
X0008259Y0273171D01*
X0008444Y0273342D01*
X0008634Y0273508D01*
X0008828Y0273670D01*
X0009025Y0273827D01*
X0009226Y0273979D01*
X0009431Y0274126D01*
X0009639Y0274268D01*
X0009851Y0274405D01*
X0010066Y0274537D01*
X0010284Y0274664D01*
X0010505Y0274786D01*
X0010729Y0274902D01*
X0010955Y0275012D01*
X0011185Y0275118D01*
X0011416Y0275217D01*
X0011650Y0275311D01*
X0011887Y0275399D01*
X0012125Y0275482D01*
X0012365Y0275559D01*
X0012607Y0275630D01*
X0012851Y0275695D01*
X0013096Y0275754D01*
X0013343Y0275807D01*
X0013590Y0275854D01*
X0013839Y0275895D01*
X0014089Y0275931D01*
X0014339Y0275960D01*
X0014591Y0275983D01*
X0014842Y0276000D01*
X0014843Y0276000D02*
X0064055Y0276000D01*
X0387598Y0276000D01*
X0387857Y0275989D01*
X0388115Y0275973D01*
X0388372Y0275950D01*
X0388630Y0275921D01*
X0388886Y0275886D01*
X0389141Y0275844D01*
X0389395Y0275797D01*
X0389648Y0275743D01*
X0389900Y0275683D01*
X0390150Y0275617D01*
X0390399Y0275545D01*
X0390646Y0275467D01*
X0390890Y0275384D01*
X0391133Y0275294D01*
X0391373Y0275198D01*
X0391611Y0275097D01*
X0391847Y0274990D01*
X0392080Y0274877D01*
X0392310Y0274759D01*
X0392537Y0274635D01*
X0392761Y0274506D01*
X0392982Y0274371D01*
X0393199Y0274231D01*
X0393413Y0274086D01*
X0393624Y0273936D01*
X0393831Y0273780D01*
X0394034Y0273620D01*
X0394233Y0273455D01*
X0394428Y0273285D01*
X0394619Y0273110D01*
X0394805Y0272931D01*
X0394988Y0272748D01*
X0395165Y0272560D01*
X0395339Y0272367D01*
X0395507Y0272171D01*
X0395671Y0271971D01*
X0395829Y0271766D01*
X0395983Y0271558D01*
X0396132Y0271347D01*
X0396276Y0271132D01*
X0396414Y0270913D01*
X0396547Y0270691D01*
X0396674Y0270466D01*
X0396797Y0270238D01*
X0396913Y0270007D01*
X0397024Y0269773D01*
X0397129Y0269537D01*
X0397229Y0269298D01*
X0397323Y0269057D01*
X0397411Y0268814D01*
X0397493Y0268568D01*
X0397569Y0268321D01*
X0397639Y0268072D01*
X0397703Y0267822D01*
X0397760Y0267569D01*
X0397812Y0267316D01*
X0397858Y0267061D01*
X0397897Y0266806D01*
X0397931Y0266549D01*
X0397958Y0266292D01*
X0397979Y0266034D01*
X0397993Y0265776D01*
X0398002Y0265517D01*
X0398004Y0265259D01*
X0398000Y0265000D01*
X0398000Y0243000D01*
X0398000Y0014843D01*
X0398000Y0014842D02*
X0397990Y0014598D01*
X0397975Y0014354D01*
X0397953Y0014110D01*
X0397926Y0013867D01*
X0397893Y0013624D01*
X0397854Y0013383D01*
X0397809Y0013142D01*
X0397758Y0012903D01*
X0397701Y0012665D01*
X0397639Y0012428D01*
X0397571Y0012193D01*
X0397498Y0011960D01*
X0397418Y0011728D01*
X0397334Y0011499D01*
X0397243Y0011271D01*
X0397147Y0011046D01*
X0397046Y0010823D01*
X0396940Y0010603D01*
X0396828Y0010385D01*
X0396711Y0010170D01*
X0396589Y0009958D01*
X0396461Y0009749D01*
X0396329Y0009544D01*
X0396192Y0009341D01*
X0396050Y0009142D01*
X0395903Y0008946D01*
X0395751Y0008754D01*
X0395595Y0008566D01*
X0395434Y0008381D01*
X0395269Y0008201D01*
X0395100Y0008024D01*
X0394926Y0007852D01*
X0394748Y0007683D01*
X0394567Y0007519D01*
X0394381Y0007360D01*
X0394191Y0007205D01*
X0393998Y0007055D01*
X0393802Y0006909D01*
X0393601Y0006769D01*
X0393398Y0006633D01*
X0393191Y0006502D01*
X0392981Y0006376D01*
X0392769Y0006255D01*
X0392553Y0006140D01*
X0392334Y0006029D01*
X0392113Y0005924D01*
X0391890Y0005825D01*
X0391664Y0005730D01*
X0391436Y0005642D01*
X0391206Y0005558D01*
X0390974Y0005481D01*
X0390740Y0005409D01*
X0390504Y0005343D01*
X0390267Y0005282D01*
X0390029Y0005227D01*
X0389789Y0005178D01*
X0389548Y0005135D01*
X0389307Y0005097D01*
X0389064Y0005066D01*
X0388821Y0005040D01*
X0388577Y0005020D01*
X0388332Y0005006D01*
X0388088Y0004998D01*
X0387843Y0004996D01*
X0387598Y0005000D01*
X0032559Y0005000D01*
X0017126Y0025000D02*
X0017128Y0025193D01*
X0017135Y0025386D01*
X0017147Y0025579D01*
X0017164Y0025772D01*
X0017185Y0025964D01*
X0017211Y0026155D01*
X0017242Y0026346D01*
X0017277Y0026536D01*
X0017317Y0026725D01*
X0017362Y0026913D01*
X0017411Y0027100D01*
X0017465Y0027286D01*
X0017523Y0027470D01*
X0017586Y0027653D01*
X0017654Y0027834D01*
X0017725Y0028013D01*
X0017802Y0028191D01*
X0017882Y0028367D01*
X0017967Y0028540D01*
X0018056Y0028712D01*
X0018149Y0028881D01*
X0018246Y0029048D01*
X0018348Y0029213D01*
X0018453Y0029375D01*
X0018562Y0029534D01*
X0018676Y0029691D01*
X0018793Y0029844D01*
X0018913Y0029995D01*
X0019038Y0030143D01*
X0019166Y0030288D01*
X0019297Y0030429D01*
X0019432Y0030568D01*
X0019571Y0030703D01*
X0019712Y0030834D01*
X0019857Y0030962D01*
X0020005Y0031087D01*
X0020156Y0031207D01*
X0020309Y0031324D01*
X0020466Y0031438D01*
X0020625Y0031547D01*
X0020787Y0031652D01*
X0020952Y0031754D01*
X0021119Y0031851D01*
X0021288Y0031944D01*
X0021460Y0032033D01*
X0021633Y0032118D01*
X0021809Y0032198D01*
X0021987Y0032275D01*
X0022166Y0032346D01*
X0022347Y0032414D01*
X0022530Y0032477D01*
X0022714Y0032535D01*
X0022900Y0032589D01*
X0023087Y0032638D01*
X0023275Y0032683D01*
X0023464Y0032723D01*
X0023654Y0032758D01*
X0023845Y0032789D01*
X0024036Y0032815D01*
X0024228Y0032836D01*
X0024421Y0032853D01*
X0024614Y0032865D01*
X0024807Y0032872D01*
X0025000Y0032874D01*
X0025193Y0032872D01*
X0025386Y0032865D01*
X0025579Y0032853D01*
X0025772Y0032836D01*
X0025964Y0032815D01*
X0026155Y0032789D01*
X0026346Y0032758D01*
X0026536Y0032723D01*
X0026725Y0032683D01*
X0026913Y0032638D01*
X0027100Y0032589D01*
X0027286Y0032535D01*
X0027470Y0032477D01*
X0027653Y0032414D01*
X0027834Y0032346D01*
X0028013Y0032275D01*
X0028191Y0032198D01*
X0028367Y0032118D01*
X0028540Y0032033D01*
X0028712Y0031944D01*
X0028881Y0031851D01*
X0029048Y0031754D01*
X0029213Y0031652D01*
X0029375Y0031547D01*
X0029534Y0031438D01*
X0029691Y0031324D01*
X0029844Y0031207D01*
X0029995Y0031087D01*
X0030143Y0030962D01*
X0030288Y0030834D01*
X0030429Y0030703D01*
X0030568Y0030568D01*
X0030703Y0030429D01*
X0030834Y0030288D01*
X0030962Y0030143D01*
X0031087Y0029995D01*
X0031207Y0029844D01*
X0031324Y0029691D01*
X0031438Y0029534D01*
X0031547Y0029375D01*
X0031652Y0029213D01*
X0031754Y0029048D01*
X0031851Y0028881D01*
X0031944Y0028712D01*
X0032033Y0028540D01*
X0032118Y0028367D01*
X0032198Y0028191D01*
X0032275Y0028013D01*
X0032346Y0027834D01*
X0032414Y0027653D01*
X0032477Y0027470D01*
X0032535Y0027286D01*
X0032589Y0027100D01*
X0032638Y0026913D01*
X0032683Y0026725D01*
X0032723Y0026536D01*
X0032758Y0026346D01*
X0032789Y0026155D01*
X0032815Y0025964D01*
X0032836Y0025772D01*
X0032853Y0025579D01*
X0032865Y0025386D01*
X0032872Y0025193D01*
X0032874Y0025000D01*
X0032872Y0024807D01*
X0032865Y0024614D01*
X0032853Y0024421D01*
X0032836Y0024228D01*
X0032815Y0024036D01*
X0032789Y0023845D01*
X0032758Y0023654D01*
X0032723Y0023464D01*
X0032683Y0023275D01*
X0032638Y0023087D01*
X0032589Y0022900D01*
X0032535Y0022714D01*
X0032477Y0022530D01*
X0032414Y0022347D01*
X0032346Y0022166D01*
X0032275Y0021987D01*
X0032198Y0021809D01*
X0032118Y0021633D01*
X0032033Y0021460D01*
X0031944Y0021288D01*
X0031851Y0021119D01*
X0031754Y0020952D01*
X0031652Y0020787D01*
X0031547Y0020625D01*
X0031438Y0020466D01*
X0031324Y0020309D01*
X0031207Y0020156D01*
X0031087Y0020005D01*
X0030962Y0019857D01*
X0030834Y0019712D01*
X0030703Y0019571D01*
X0030568Y0019432D01*
X0030429Y0019297D01*
X0030288Y0019166D01*
X0030143Y0019038D01*
X0029995Y0018913D01*
X0029844Y0018793D01*
X0029691Y0018676D01*
X0029534Y0018562D01*
X0029375Y0018453D01*
X0029213Y0018348D01*
X0029048Y0018246D01*
X0028881Y0018149D01*
X0028712Y0018056D01*
X0028540Y0017967D01*
X0028367Y0017882D01*
X0028191Y0017802D01*
X0028013Y0017725D01*
X0027834Y0017654D01*
X0027653Y0017586D01*
X0027470Y0017523D01*
X0027286Y0017465D01*
X0027100Y0017411D01*
X0026913Y0017362D01*
X0026725Y0017317D01*
X0026536Y0017277D01*
X0026346Y0017242D01*
X0026155Y0017211D01*
X0025964Y0017185D01*
X0025772Y0017164D01*
X0025579Y0017147D01*
X0025386Y0017135D01*
X0025193Y0017128D01*
X0025000Y0017126D01*
X0024807Y0017128D01*
X0024614Y0017135D01*
X0024421Y0017147D01*
X0024228Y0017164D01*
X0024036Y0017185D01*
X0023845Y0017211D01*
X0023654Y0017242D01*
X0023464Y0017277D01*
X0023275Y0017317D01*
X0023087Y0017362D01*
X0022900Y0017411D01*
X0022714Y0017465D01*
X0022530Y0017523D01*
X0022347Y0017586D01*
X0022166Y0017654D01*
X0021987Y0017725D01*
X0021809Y0017802D01*
X0021633Y0017882D01*
X0021460Y0017967D01*
X0021288Y0018056D01*
X0021119Y0018149D01*
X0020952Y0018246D01*
X0020787Y0018348D01*
X0020625Y0018453D01*
X0020466Y0018562D01*
X0020309Y0018676D01*
X0020156Y0018793D01*
X0020005Y0018913D01*
X0019857Y0019038D01*
X0019712Y0019166D01*
X0019571Y0019297D01*
X0019432Y0019432D01*
X0019297Y0019571D01*
X0019166Y0019712D01*
X0019038Y0019857D01*
X0018913Y0020005D01*
X0018793Y0020156D01*
X0018676Y0020309D01*
X0018562Y0020466D01*
X0018453Y0020625D01*
X0018348Y0020787D01*
X0018246Y0020952D01*
X0018149Y0021119D01*
X0018056Y0021288D01*
X0017967Y0021460D01*
X0017882Y0021633D01*
X0017802Y0021809D01*
X0017725Y0021987D01*
X0017654Y0022166D01*
X0017586Y0022347D01*
X0017523Y0022530D01*
X0017465Y0022714D01*
X0017411Y0022900D01*
X0017362Y0023087D01*
X0017317Y0023275D01*
X0017277Y0023464D01*
X0017242Y0023654D01*
X0017211Y0023845D01*
X0017185Y0024036D01*
X0017164Y0024228D01*
X0017147Y0024421D01*
X0017135Y0024614D01*
X0017128Y0024807D01*
X0017126Y0025000D01*
X0017126Y0256000D02*
X0017128Y0256193D01*
X0017135Y0256386D01*
X0017147Y0256579D01*
X0017164Y0256772D01*
X0017185Y0256964D01*
X0017211Y0257155D01*
X0017242Y0257346D01*
X0017277Y0257536D01*
X0017317Y0257725D01*
X0017362Y0257913D01*
X0017411Y0258100D01*
X0017465Y0258286D01*
X0017523Y0258470D01*
X0017586Y0258653D01*
X0017654Y0258834D01*
X0017725Y0259013D01*
X0017802Y0259191D01*
X0017882Y0259367D01*
X0017967Y0259540D01*
X0018056Y0259712D01*
X0018149Y0259881D01*
X0018246Y0260048D01*
X0018348Y0260213D01*
X0018453Y0260375D01*
X0018562Y0260534D01*
X0018676Y0260691D01*
X0018793Y0260844D01*
X0018913Y0260995D01*
X0019038Y0261143D01*
X0019166Y0261288D01*
X0019297Y0261429D01*
X0019432Y0261568D01*
X0019571Y0261703D01*
X0019712Y0261834D01*
X0019857Y0261962D01*
X0020005Y0262087D01*
X0020156Y0262207D01*
X0020309Y0262324D01*
X0020466Y0262438D01*
X0020625Y0262547D01*
X0020787Y0262652D01*
X0020952Y0262754D01*
X0021119Y0262851D01*
X0021288Y0262944D01*
X0021460Y0263033D01*
X0021633Y0263118D01*
X0021809Y0263198D01*
X0021987Y0263275D01*
X0022166Y0263346D01*
X0022347Y0263414D01*
X0022530Y0263477D01*
X0022714Y0263535D01*
X0022900Y0263589D01*
X0023087Y0263638D01*
X0023275Y0263683D01*
X0023464Y0263723D01*
X0023654Y0263758D01*
X0023845Y0263789D01*
X0024036Y0263815D01*
X0024228Y0263836D01*
X0024421Y0263853D01*
X0024614Y0263865D01*
X0024807Y0263872D01*
X0025000Y0263874D01*
X0025193Y0263872D01*
X0025386Y0263865D01*
X0025579Y0263853D01*
X0025772Y0263836D01*
X0025964Y0263815D01*
X0026155Y0263789D01*
X0026346Y0263758D01*
X0026536Y0263723D01*
X0026725Y0263683D01*
X0026913Y0263638D01*
X0027100Y0263589D01*
X0027286Y0263535D01*
X0027470Y0263477D01*
X0027653Y0263414D01*
X0027834Y0263346D01*
X0028013Y0263275D01*
X0028191Y0263198D01*
X0028367Y0263118D01*
X0028540Y0263033D01*
X0028712Y0262944D01*
X0028881Y0262851D01*
X0029048Y0262754D01*
X0029213Y0262652D01*
X0029375Y0262547D01*
X0029534Y0262438D01*
X0029691Y0262324D01*
X0029844Y0262207D01*
X0029995Y0262087D01*
X0030143Y0261962D01*
X0030288Y0261834D01*
X0030429Y0261703D01*
X0030568Y0261568D01*
X0030703Y0261429D01*
X0030834Y0261288D01*
X0030962Y0261143D01*
X0031087Y0260995D01*
X0031207Y0260844D01*
X0031324Y0260691D01*
X0031438Y0260534D01*
X0031547Y0260375D01*
X0031652Y0260213D01*
X0031754Y0260048D01*
X0031851Y0259881D01*
X0031944Y0259712D01*
X0032033Y0259540D01*
X0032118Y0259367D01*
X0032198Y0259191D01*
X0032275Y0259013D01*
X0032346Y0258834D01*
X0032414Y0258653D01*
X0032477Y0258470D01*
X0032535Y0258286D01*
X0032589Y0258100D01*
X0032638Y0257913D01*
X0032683Y0257725D01*
X0032723Y0257536D01*
X0032758Y0257346D01*
X0032789Y0257155D01*
X0032815Y0256964D01*
X0032836Y0256772D01*
X0032853Y0256579D01*
X0032865Y0256386D01*
X0032872Y0256193D01*
X0032874Y0256000D01*
X0032872Y0255807D01*
X0032865Y0255614D01*
X0032853Y0255421D01*
X0032836Y0255228D01*
X0032815Y0255036D01*
X0032789Y0254845D01*
X0032758Y0254654D01*
X0032723Y0254464D01*
X0032683Y0254275D01*
X0032638Y0254087D01*
X0032589Y0253900D01*
X0032535Y0253714D01*
X0032477Y0253530D01*
X0032414Y0253347D01*
X0032346Y0253166D01*
X0032275Y0252987D01*
X0032198Y0252809D01*
X0032118Y0252633D01*
X0032033Y0252460D01*
X0031944Y0252288D01*
X0031851Y0252119D01*
X0031754Y0251952D01*
X0031652Y0251787D01*
X0031547Y0251625D01*
X0031438Y0251466D01*
X0031324Y0251309D01*
X0031207Y0251156D01*
X0031087Y0251005D01*
X0030962Y0250857D01*
X0030834Y0250712D01*
X0030703Y0250571D01*
X0030568Y0250432D01*
X0030429Y0250297D01*
X0030288Y0250166D01*
X0030143Y0250038D01*
X0029995Y0249913D01*
X0029844Y0249793D01*
X0029691Y0249676D01*
X0029534Y0249562D01*
X0029375Y0249453D01*
X0029213Y0249348D01*
X0029048Y0249246D01*
X0028881Y0249149D01*
X0028712Y0249056D01*
X0028540Y0248967D01*
X0028367Y0248882D01*
X0028191Y0248802D01*
X0028013Y0248725D01*
X0027834Y0248654D01*
X0027653Y0248586D01*
X0027470Y0248523D01*
X0027286Y0248465D01*
X0027100Y0248411D01*
X0026913Y0248362D01*
X0026725Y0248317D01*
X0026536Y0248277D01*
X0026346Y0248242D01*
X0026155Y0248211D01*
X0025964Y0248185D01*
X0025772Y0248164D01*
X0025579Y0248147D01*
X0025386Y0248135D01*
X0025193Y0248128D01*
X0025000Y0248126D01*
X0024807Y0248128D01*
X0024614Y0248135D01*
X0024421Y0248147D01*
X0024228Y0248164D01*
X0024036Y0248185D01*
X0023845Y0248211D01*
X0023654Y0248242D01*
X0023464Y0248277D01*
X0023275Y0248317D01*
X0023087Y0248362D01*
X0022900Y0248411D01*
X0022714Y0248465D01*
X0022530Y0248523D01*
X0022347Y0248586D01*
X0022166Y0248654D01*
X0021987Y0248725D01*
X0021809Y0248802D01*
X0021633Y0248882D01*
X0021460Y0248967D01*
X0021288Y0249056D01*
X0021119Y0249149D01*
X0020952Y0249246D01*
X0020787Y0249348D01*
X0020625Y0249453D01*
X0020466Y0249562D01*
X0020309Y0249676D01*
X0020156Y0249793D01*
X0020005Y0249913D01*
X0019857Y0250038D01*
X0019712Y0250166D01*
X0019571Y0250297D01*
X0019432Y0250432D01*
X0019297Y0250571D01*
X0019166Y0250712D01*
X0019038Y0250857D01*
X0018913Y0251005D01*
X0018793Y0251156D01*
X0018676Y0251309D01*
X0018562Y0251466D01*
X0018453Y0251625D01*
X0018348Y0251787D01*
X0018246Y0251952D01*
X0018149Y0252119D01*
X0018056Y0252288D01*
X0017967Y0252460D01*
X0017882Y0252633D01*
X0017802Y0252809D01*
X0017725Y0252987D01*
X0017654Y0253166D01*
X0017586Y0253347D01*
X0017523Y0253530D01*
X0017465Y0253714D01*
X0017411Y0253900D01*
X0017362Y0254087D01*
X0017317Y0254275D01*
X0017277Y0254464D01*
X0017242Y0254654D01*
X0017211Y0254845D01*
X0017185Y0255036D01*
X0017164Y0255228D01*
X0017147Y0255421D01*
X0017135Y0255614D01*
X0017128Y0255807D01*
X0017126Y0256000D01*
X0370126Y0256000D02*
X0370128Y0256193D01*
X0370135Y0256386D01*
X0370147Y0256579D01*
X0370164Y0256772D01*
X0370185Y0256964D01*
X0370211Y0257155D01*
X0370242Y0257346D01*
X0370277Y0257536D01*
X0370317Y0257725D01*
X0370362Y0257913D01*
X0370411Y0258100D01*
X0370465Y0258286D01*
X0370523Y0258470D01*
X0370586Y0258653D01*
X0370654Y0258834D01*
X0370725Y0259013D01*
X0370802Y0259191D01*
X0370882Y0259367D01*
X0370967Y0259540D01*
X0371056Y0259712D01*
X0371149Y0259881D01*
X0371246Y0260048D01*
X0371348Y0260213D01*
X0371453Y0260375D01*
X0371562Y0260534D01*
X0371676Y0260691D01*
X0371793Y0260844D01*
X0371913Y0260995D01*
X0372038Y0261143D01*
X0372166Y0261288D01*
X0372297Y0261429D01*
X0372432Y0261568D01*
X0372571Y0261703D01*
X0372712Y0261834D01*
X0372857Y0261962D01*
X0373005Y0262087D01*
X0373156Y0262207D01*
X0373309Y0262324D01*
X0373466Y0262438D01*
X0373625Y0262547D01*
X0373787Y0262652D01*
X0373952Y0262754D01*
X0374119Y0262851D01*
X0374288Y0262944D01*
X0374460Y0263033D01*
X0374633Y0263118D01*
X0374809Y0263198D01*
X0374987Y0263275D01*
X0375166Y0263346D01*
X0375347Y0263414D01*
X0375530Y0263477D01*
X0375714Y0263535D01*
X0375900Y0263589D01*
X0376087Y0263638D01*
X0376275Y0263683D01*
X0376464Y0263723D01*
X0376654Y0263758D01*
X0376845Y0263789D01*
X0377036Y0263815D01*
X0377228Y0263836D01*
X0377421Y0263853D01*
X0377614Y0263865D01*
X0377807Y0263872D01*
X0378000Y0263874D01*
X0378193Y0263872D01*
X0378386Y0263865D01*
X0378579Y0263853D01*
X0378772Y0263836D01*
X0378964Y0263815D01*
X0379155Y0263789D01*
X0379346Y0263758D01*
X0379536Y0263723D01*
X0379725Y0263683D01*
X0379913Y0263638D01*
X0380100Y0263589D01*
X0380286Y0263535D01*
X0380470Y0263477D01*
X0380653Y0263414D01*
X0380834Y0263346D01*
X0381013Y0263275D01*
X0381191Y0263198D01*
X0381367Y0263118D01*
X0381540Y0263033D01*
X0381712Y0262944D01*
X0381881Y0262851D01*
X0382048Y0262754D01*
X0382213Y0262652D01*
X0382375Y0262547D01*
X0382534Y0262438D01*
X0382691Y0262324D01*
X0382844Y0262207D01*
X0382995Y0262087D01*
X0383143Y0261962D01*
X0383288Y0261834D01*
X0383429Y0261703D01*
X0383568Y0261568D01*
X0383703Y0261429D01*
X0383834Y0261288D01*
X0383962Y0261143D01*
X0384087Y0260995D01*
X0384207Y0260844D01*
X0384324Y0260691D01*
X0384438Y0260534D01*
X0384547Y0260375D01*
X0384652Y0260213D01*
X0384754Y0260048D01*
X0384851Y0259881D01*
X0384944Y0259712D01*
X0385033Y0259540D01*
X0385118Y0259367D01*
X0385198Y0259191D01*
X0385275Y0259013D01*
X0385346Y0258834D01*
X0385414Y0258653D01*
X0385477Y0258470D01*
X0385535Y0258286D01*
X0385589Y0258100D01*
X0385638Y0257913D01*
X0385683Y0257725D01*
X0385723Y0257536D01*
X0385758Y0257346D01*
X0385789Y0257155D01*
X0385815Y0256964D01*
X0385836Y0256772D01*
X0385853Y0256579D01*
X0385865Y0256386D01*
X0385872Y0256193D01*
X0385874Y0256000D01*
X0385872Y0255807D01*
X0385865Y0255614D01*
X0385853Y0255421D01*
X0385836Y0255228D01*
X0385815Y0255036D01*
X0385789Y0254845D01*
X0385758Y0254654D01*
X0385723Y0254464D01*
X0385683Y0254275D01*
X0385638Y0254087D01*
X0385589Y0253900D01*
X0385535Y0253714D01*
X0385477Y0253530D01*
X0385414Y0253347D01*
X0385346Y0253166D01*
X0385275Y0252987D01*
X0385198Y0252809D01*
X0385118Y0252633D01*
X0385033Y0252460D01*
X0384944Y0252288D01*
X0384851Y0252119D01*
X0384754Y0251952D01*
X0384652Y0251787D01*
X0384547Y0251625D01*
X0384438Y0251466D01*
X0384324Y0251309D01*
X0384207Y0251156D01*
X0384087Y0251005D01*
X0383962Y0250857D01*
X0383834Y0250712D01*
X0383703Y0250571D01*
X0383568Y0250432D01*
X0383429Y0250297D01*
X0383288Y0250166D01*
X0383143Y0250038D01*
X0382995Y0249913D01*
X0382844Y0249793D01*
X0382691Y0249676D01*
X0382534Y0249562D01*
X0382375Y0249453D01*
X0382213Y0249348D01*
X0382048Y0249246D01*
X0381881Y0249149D01*
X0381712Y0249056D01*
X0381540Y0248967D01*
X0381367Y0248882D01*
X0381191Y0248802D01*
X0381013Y0248725D01*
X0380834Y0248654D01*
X0380653Y0248586D01*
X0380470Y0248523D01*
X0380286Y0248465D01*
X0380100Y0248411D01*
X0379913Y0248362D01*
X0379725Y0248317D01*
X0379536Y0248277D01*
X0379346Y0248242D01*
X0379155Y0248211D01*
X0378964Y0248185D01*
X0378772Y0248164D01*
X0378579Y0248147D01*
X0378386Y0248135D01*
X0378193Y0248128D01*
X0378000Y0248126D01*
X0377807Y0248128D01*
X0377614Y0248135D01*
X0377421Y0248147D01*
X0377228Y0248164D01*
X0377036Y0248185D01*
X0376845Y0248211D01*
X0376654Y0248242D01*
X0376464Y0248277D01*
X0376275Y0248317D01*
X0376087Y0248362D01*
X0375900Y0248411D01*
X0375714Y0248465D01*
X0375530Y0248523D01*
X0375347Y0248586D01*
X0375166Y0248654D01*
X0374987Y0248725D01*
X0374809Y0248802D01*
X0374633Y0248882D01*
X0374460Y0248967D01*
X0374288Y0249056D01*
X0374119Y0249149D01*
X0373952Y0249246D01*
X0373787Y0249348D01*
X0373625Y0249453D01*
X0373466Y0249562D01*
X0373309Y0249676D01*
X0373156Y0249793D01*
X0373005Y0249913D01*
X0372857Y0250038D01*
X0372712Y0250166D01*
X0372571Y0250297D01*
X0372432Y0250432D01*
X0372297Y0250571D01*
X0372166Y0250712D01*
X0372038Y0250857D01*
X0371913Y0251005D01*
X0371793Y0251156D01*
X0371676Y0251309D01*
X0371562Y0251466D01*
X0371453Y0251625D01*
X0371348Y0251787D01*
X0371246Y0251952D01*
X0371149Y0252119D01*
X0371056Y0252288D01*
X0370967Y0252460D01*
X0370882Y0252633D01*
X0370802Y0252809D01*
X0370725Y0252987D01*
X0370654Y0253166D01*
X0370586Y0253347D01*
X0370523Y0253530D01*
X0370465Y0253714D01*
X0370411Y0253900D01*
X0370362Y0254087D01*
X0370317Y0254275D01*
X0370277Y0254464D01*
X0370242Y0254654D01*
X0370211Y0254845D01*
X0370185Y0255036D01*
X0370164Y0255228D01*
X0370147Y0255421D01*
X0370135Y0255614D01*
X0370128Y0255807D01*
X0370126Y0256000D01*
X0370126Y0025000D02*
X0370128Y0025193D01*
X0370135Y0025386D01*
X0370147Y0025579D01*
X0370164Y0025772D01*
X0370185Y0025964D01*
X0370211Y0026155D01*
X0370242Y0026346D01*
X0370277Y0026536D01*
X0370317Y0026725D01*
X0370362Y0026913D01*
X0370411Y0027100D01*
X0370465Y0027286D01*
X0370523Y0027470D01*
X0370586Y0027653D01*
X0370654Y0027834D01*
X0370725Y0028013D01*
X0370802Y0028191D01*
X0370882Y0028367D01*
X0370967Y0028540D01*
X0371056Y0028712D01*
X0371149Y0028881D01*
X0371246Y0029048D01*
X0371348Y0029213D01*
X0371453Y0029375D01*
X0371562Y0029534D01*
X0371676Y0029691D01*
X0371793Y0029844D01*
X0371913Y0029995D01*
X0372038Y0030143D01*
X0372166Y0030288D01*
X0372297Y0030429D01*
X0372432Y0030568D01*
X0372571Y0030703D01*
X0372712Y0030834D01*
X0372857Y0030962D01*
X0373005Y0031087D01*
X0373156Y0031207D01*
X0373309Y0031324D01*
X0373466Y0031438D01*
X0373625Y0031547D01*
X0373787Y0031652D01*
X0373952Y0031754D01*
X0374119Y0031851D01*
X0374288Y0031944D01*
X0374460Y0032033D01*
X0374633Y0032118D01*
X0374809Y0032198D01*
X0374987Y0032275D01*
X0375166Y0032346D01*
X0375347Y0032414D01*
X0375530Y0032477D01*
X0375714Y0032535D01*
X0375900Y0032589D01*
X0376087Y0032638D01*
X0376275Y0032683D01*
X0376464Y0032723D01*
X0376654Y0032758D01*
X0376845Y0032789D01*
X0377036Y0032815D01*
X0377228Y0032836D01*
X0377421Y0032853D01*
X0377614Y0032865D01*
X0377807Y0032872D01*
X0378000Y0032874D01*
X0378193Y0032872D01*
X0378386Y0032865D01*
X0378579Y0032853D01*
X0378772Y0032836D01*
X0378964Y0032815D01*
X0379155Y0032789D01*
X0379346Y0032758D01*
X0379536Y0032723D01*
X0379725Y0032683D01*
X0379913Y0032638D01*
X0380100Y0032589D01*
X0380286Y0032535D01*
X0380470Y0032477D01*
X0380653Y0032414D01*
X0380834Y0032346D01*
X0381013Y0032275D01*
X0381191Y0032198D01*
X0381367Y0032118D01*
X0381540Y0032033D01*
X0381712Y0031944D01*
X0381881Y0031851D01*
X0382048Y0031754D01*
X0382213Y0031652D01*
X0382375Y0031547D01*
X0382534Y0031438D01*
X0382691Y0031324D01*
X0382844Y0031207D01*
X0382995Y0031087D01*
X0383143Y0030962D01*
X0383288Y0030834D01*
X0383429Y0030703D01*
X0383568Y0030568D01*
X0383703Y0030429D01*
X0383834Y0030288D01*
X0383962Y0030143D01*
X0384087Y0029995D01*
X0384207Y0029844D01*
X0384324Y0029691D01*
X0384438Y0029534D01*
X0384547Y0029375D01*
X0384652Y0029213D01*
X0384754Y0029048D01*
X0384851Y0028881D01*
X0384944Y0028712D01*
X0385033Y0028540D01*
X0385118Y0028367D01*
X0385198Y0028191D01*
X0385275Y0028013D01*
X0385346Y0027834D01*
X0385414Y0027653D01*
X0385477Y0027470D01*
X0385535Y0027286D01*
X0385589Y0027100D01*
X0385638Y0026913D01*
X0385683Y0026725D01*
X0385723Y0026536D01*
X0385758Y0026346D01*
X0385789Y0026155D01*
X0385815Y0025964D01*
X0385836Y0025772D01*
X0385853Y0025579D01*
X0385865Y0025386D01*
X0385872Y0025193D01*
X0385874Y0025000D01*
X0385872Y0024807D01*
X0385865Y0024614D01*
X0385853Y0024421D01*
X0385836Y0024228D01*
X0385815Y0024036D01*
X0385789Y0023845D01*
X0385758Y0023654D01*
X0385723Y0023464D01*
X0385683Y0023275D01*
X0385638Y0023087D01*
X0385589Y0022900D01*
X0385535Y0022714D01*
X0385477Y0022530D01*
X0385414Y0022347D01*
X0385346Y0022166D01*
X0385275Y0021987D01*
X0385198Y0021809D01*
X0385118Y0021633D01*
X0385033Y0021460D01*
X0384944Y0021288D01*
X0384851Y0021119D01*
X0384754Y0020952D01*
X0384652Y0020787D01*
X0384547Y0020625D01*
X0384438Y0020466D01*
X0384324Y0020309D01*
X0384207Y0020156D01*
X0384087Y0020005D01*
X0383962Y0019857D01*
X0383834Y0019712D01*
X0383703Y0019571D01*
X0383568Y0019432D01*
X0383429Y0019297D01*
X0383288Y0019166D01*
X0383143Y0019038D01*
X0382995Y0018913D01*
X0382844Y0018793D01*
X0382691Y0018676D01*
X0382534Y0018562D01*
X0382375Y0018453D01*
X0382213Y0018348D01*
X0382048Y0018246D01*
X0381881Y0018149D01*
X0381712Y0018056D01*
X0381540Y0017967D01*
X0381367Y0017882D01*
X0381191Y0017802D01*
X0381013Y0017725D01*
X0380834Y0017654D01*
X0380653Y0017586D01*
X0380470Y0017523D01*
X0380286Y0017465D01*
X0380100Y0017411D01*
X0379913Y0017362D01*
X0379725Y0017317D01*
X0379536Y0017277D01*
X0379346Y0017242D01*
X0379155Y0017211D01*
X0378964Y0017185D01*
X0378772Y0017164D01*
X0378579Y0017147D01*
X0378386Y0017135D01*
X0378193Y0017128D01*
X0378000Y0017126D01*
X0377807Y0017128D01*
X0377614Y0017135D01*
X0377421Y0017147D01*
X0377228Y0017164D01*
X0377036Y0017185D01*
X0376845Y0017211D01*
X0376654Y0017242D01*
X0376464Y0017277D01*
X0376275Y0017317D01*
X0376087Y0017362D01*
X0375900Y0017411D01*
X0375714Y0017465D01*
X0375530Y0017523D01*
X0375347Y0017586D01*
X0375166Y0017654D01*
X0374987Y0017725D01*
X0374809Y0017802D01*
X0374633Y0017882D01*
X0374460Y0017967D01*
X0374288Y0018056D01*
X0374119Y0018149D01*
X0373952Y0018246D01*
X0373787Y0018348D01*
X0373625Y0018453D01*
X0373466Y0018562D01*
X0373309Y0018676D01*
X0373156Y0018793D01*
X0373005Y0018913D01*
X0372857Y0019038D01*
X0372712Y0019166D01*
X0372571Y0019297D01*
X0372432Y0019432D01*
X0372297Y0019571D01*
X0372166Y0019712D01*
X0372038Y0019857D01*
X0371913Y0020005D01*
X0371793Y0020156D01*
X0371676Y0020309D01*
X0371562Y0020466D01*
X0371453Y0020625D01*
X0371348Y0020787D01*
X0371246Y0020952D01*
X0371149Y0021119D01*
X0371056Y0021288D01*
X0370967Y0021460D01*
X0370882Y0021633D01*
X0370802Y0021809D01*
X0370725Y0021987D01*
X0370654Y0022166D01*
X0370586Y0022347D01*
X0370523Y0022530D01*
X0370465Y0022714D01*
X0370411Y0022900D01*
X0370362Y0023087D01*
X0370317Y0023275D01*
X0370277Y0023464D01*
X0370242Y0023654D01*
X0370211Y0023845D01*
X0370185Y0024036D01*
X0370164Y0024228D01*
X0370147Y0024421D01*
X0370135Y0024614D01*
X0370128Y0024807D01*
X0370126Y0025000D01*
D14*
X0215000Y0070500D03*
X0205000Y0069500D03*
X0195000Y0070500D03*
X0195000Y0080500D03*
X0205000Y0079500D03*
X0215000Y0080500D03*
X0200000Y0040500D03*
X0190000Y0039500D03*
X0180000Y0040500D03*
X0170000Y0039500D03*
X0160000Y0040500D03*
X0150000Y0039500D03*
X0140000Y0040500D03*
X0110000Y0040500D03*
X0100000Y0039500D03*
X0090000Y0040500D03*
X0080000Y0039500D03*
X0070000Y0040500D03*
X0060000Y0039500D03*
X0050000Y0040500D03*
X0024500Y0105000D03*
X0025500Y0115000D03*
X0024500Y0125000D03*
X0025500Y0135000D03*
X0024500Y0145000D03*
X0025500Y0155000D03*
X0024500Y0165000D03*
X0074500Y0210000D03*
X0084500Y0210000D03*
X0085500Y0220000D03*
X0075500Y0220000D03*
X0074500Y0230000D03*
X0084500Y0230000D03*
X0190000Y0234500D03*
X0200000Y0235500D03*
X0210000Y0234500D03*
X0220000Y0235500D03*
X0230000Y0234500D03*
X0240000Y0235500D03*
X0250000Y0234500D03*
X0250000Y0215000D03*
X0230000Y0215000D03*
X0230000Y0175000D03*
X0250000Y0175000D03*
D15*
X0285700Y0050000D03*
D16*
X0270520Y0050000D03*
X0258141Y0050000D03*
X0242961Y0050000D03*
D17*
X0352953Y0175000D03*
D18*
X0366063Y0175000D03*
D19*
X0365000Y0135000D03*
X0355000Y0135000D03*
D20*
X0210000Y0039500D03*
X0120000Y0039500D03*
X0025500Y0175000D03*
X0180000Y0235500D03*
D21*
X0165000Y0142600D02*
X0165000Y0137400D01*
X0155000Y0137400D02*
X0155000Y0142600D01*
X0145000Y0142600D02*
X0145000Y0137400D01*
X0135000Y0137400D02*
X0135000Y0142600D01*
X0125000Y0142600D02*
X0125000Y0137400D01*
X0115000Y0137400D02*
X0115000Y0142600D01*
X0105000Y0142600D02*
X0105000Y0137400D01*
X0095000Y0137400D02*
X0095000Y0142600D01*
X0085000Y0142600D02*
X0085000Y0137400D01*
X0227400Y0120000D02*
X0232600Y0120000D01*
X0247400Y0130000D02*
X0252600Y0130000D01*
X0272400Y0120000D02*
X0277600Y0120000D01*
X0292400Y0110000D02*
X0297600Y0110000D01*
X0297600Y0130000D02*
X0292400Y0130000D01*
X0252600Y0110000D02*
X0247400Y0110000D01*
D22*
X0250000Y0110000D02*
X0243000Y0110000D01*
X0250000Y0110000D01*
X0250000Y0110000D01*
X0250000Y0114400D01*
X0252946Y0114400D01*
X0253630Y0114292D01*
X0254289Y0114078D01*
X0254906Y0113763D01*
X0255466Y0113356D01*
X0255956Y0112866D01*
X0256363Y0112306D01*
X0256678Y0111689D01*
X0256892Y0111030D01*
X0257000Y0110346D01*
X0257000Y0110000D01*
X0250000Y0110000D01*
X0250000Y0110000D01*
X0250000Y0105600D01*
X0252946Y0105600D01*
X0253630Y0105708D01*
X0254289Y0105922D01*
X0254906Y0106237D01*
X0255466Y0106644D01*
X0255956Y0107134D01*
X0256363Y0107694D01*
X0256678Y0108311D01*
X0256892Y0108970D01*
X0257000Y0109654D01*
X0257000Y0110000D01*
X0250000Y0110000D01*
X0250000Y0110000D01*
X0250000Y0110000D01*
X0250000Y0114400D01*
X0247054Y0114400D01*
X0246370Y0114292D01*
X0245711Y0114078D01*
X0245094Y0113763D01*
X0244534Y0113356D01*
X0244044Y0112866D01*
X0243637Y0112306D01*
X0243322Y0111689D01*
X0243108Y0111030D01*
X0243000Y0110346D01*
X0243000Y0110000D01*
X0243000Y0109654D01*
X0243108Y0108970D01*
X0243322Y0108311D01*
X0243637Y0107694D01*
X0244044Y0107134D01*
X0244534Y0106644D01*
X0245094Y0106237D01*
X0245711Y0105922D01*
X0246370Y0105708D01*
X0247054Y0105600D01*
X0250000Y0105600D01*
X0250000Y0110000D01*
X0250000Y0110502D02*
X0250000Y0110502D01*
X0250000Y0112100D02*
X0250000Y0112100D01*
X0250000Y0113699D02*
X0250000Y0113699D01*
X0250000Y0108903D02*
X0250000Y0108903D01*
X0250000Y0107305D02*
X0250000Y0107305D01*
X0250000Y0105706D02*
X0250000Y0105706D01*
X0253617Y0105706D02*
X0272800Y0105706D01*
X0272800Y0104108D02*
X0232200Y0104108D01*
X0232200Y0105706D02*
X0246383Y0105706D01*
X0243920Y0107305D02*
X0232200Y0107305D01*
X0232200Y0108903D02*
X0243130Y0108903D01*
X0243025Y0110502D02*
X0232200Y0110502D01*
X0232200Y0112100D02*
X0243532Y0112100D01*
X0245005Y0113699D02*
X0232200Y0113699D01*
X0232200Y0115297D02*
X0272800Y0115297D01*
X0272800Y0115800D02*
X0272800Y0075911D01*
X0269089Y0072200D01*
X0220033Y0072200D01*
X0219493Y0073502D01*
X0218002Y0074993D01*
X0216778Y0075500D01*
X0218002Y0076007D01*
X0219493Y0077498D01*
X0219618Y0077800D01*
X0220911Y0077800D01*
X0222200Y0079089D01*
X0232200Y0089089D01*
X0232200Y0115800D01*
X0233435Y0115800D01*
X0234979Y0116439D01*
X0236161Y0117621D01*
X0236800Y0119165D01*
X0236800Y0120835D01*
X0236161Y0122379D01*
X0234979Y0123561D01*
X0233435Y0124200D01*
X0226565Y0124200D01*
X0225021Y0123561D01*
X0223839Y0122379D01*
X0223200Y0120835D01*
X0223200Y0119165D01*
X0223839Y0117621D01*
X0225021Y0116439D01*
X0226565Y0115800D01*
X0227800Y0115800D01*
X0227800Y0090911D01*
X0219756Y0082867D01*
X0219493Y0083502D01*
X0218002Y0084993D01*
X0216054Y0085800D01*
X0213946Y0085800D01*
X0211998Y0084993D01*
X0210507Y0083502D01*
X0209793Y0081778D01*
X0209493Y0082502D01*
X0208002Y0083993D01*
X0206054Y0084800D01*
X0203946Y0084800D01*
X0201998Y0083993D01*
X0200507Y0082502D01*
X0200207Y0081778D01*
X0199493Y0083502D01*
X0198002Y0084993D01*
X0196054Y0085800D01*
X0193946Y0085800D01*
X0193144Y0085468D01*
X0172200Y0106411D01*
X0172200Y0109321D01*
X0172635Y0108886D01*
X0174170Y0108250D01*
X0175830Y0108250D01*
X0177365Y0108886D01*
X0178539Y0110060D01*
X0179175Y0111595D01*
X0179175Y0118405D01*
X0178539Y0119940D01*
X0177365Y0121114D01*
X0175830Y0121750D01*
X0174170Y0121750D01*
X0172635Y0121114D01*
X0172200Y0120679D01*
X0172200Y0120911D01*
X0170911Y0122200D01*
X0167200Y0125911D01*
X0167200Y0125911D01*
X0165911Y0127200D01*
X0160911Y0127200D01*
X0157200Y0130911D01*
X0157200Y0133765D01*
X0157379Y0133839D01*
X0158561Y0135021D01*
X0159200Y0136565D01*
X0159200Y0143435D01*
X0158561Y0144979D01*
X0157379Y0146161D01*
X0155835Y0146800D01*
X0154165Y0146800D01*
X0152621Y0146161D01*
X0151439Y0144979D01*
X0150800Y0143435D01*
X0150800Y0136565D01*
X0151439Y0135021D01*
X0152621Y0133839D01*
X0152800Y0133765D01*
X0152800Y0129089D01*
X0157800Y0124089D01*
X0159089Y0122800D01*
X0164089Y0122800D01*
X0164939Y0121950D01*
X0164656Y0121950D01*
X0163976Y0121842D01*
X0163321Y0121629D01*
X0162707Y0121316D01*
X0162150Y0120912D01*
X0161663Y0120425D01*
X0161258Y0119868D01*
X0160946Y0119254D01*
X0160733Y0118599D01*
X0160625Y0117919D01*
X0160625Y0115000D01*
X0165000Y0115000D01*
X0165000Y0108050D01*
X0165000Y0115000D01*
X0165000Y0115000D01*
X0165000Y0115000D01*
X0160625Y0115000D01*
X0160625Y0112081D01*
X0160733Y0111401D01*
X0160946Y0110746D01*
X0161258Y0110132D01*
X0161663Y0109575D01*
X0162150Y0109088D01*
X0162707Y0108684D01*
X0163321Y0108371D01*
X0163976Y0108158D01*
X0164656Y0108050D01*
X0165000Y0108050D01*
X0165344Y0108050D01*
X0166024Y0108158D01*
X0166679Y0108371D01*
X0167293Y0108684D01*
X0167800Y0109052D01*
X0167800Y0104089D01*
X0169089Y0102800D01*
X0169589Y0102800D01*
X0190032Y0082356D01*
X0189700Y0081554D01*
X0189700Y0079446D01*
X0190507Y0077498D01*
X0191998Y0076007D01*
X0193222Y0075500D01*
X0191998Y0074993D01*
X0190507Y0073502D01*
X0189967Y0072200D01*
X0185911Y0072200D01*
X0152200Y0105911D01*
X0152200Y0109321D01*
X0152635Y0108886D01*
X0154170Y0108250D01*
X0155830Y0108250D01*
X0157365Y0108886D01*
X0158539Y0110060D01*
X0159175Y0111595D01*
X0159175Y0118405D01*
X0158539Y0119940D01*
X0157365Y0121114D01*
X0155830Y0121750D01*
X0154170Y0121750D01*
X0152635Y0121114D01*
X0152200Y0120679D01*
X0152200Y0120911D01*
X0150911Y0122200D01*
X0147200Y0125911D01*
X0147200Y0133765D01*
X0147379Y0133839D01*
X0148561Y0135021D01*
X0149200Y0136565D01*
X0149200Y0143435D01*
X0148561Y0144979D01*
X0147379Y0146161D01*
X0145835Y0146800D01*
X0144165Y0146800D01*
X0142621Y0146161D01*
X0141439Y0144979D01*
X0140800Y0143435D01*
X0140800Y0136565D01*
X0141439Y0135021D01*
X0142621Y0133839D01*
X0142800Y0133765D01*
X0142800Y0124089D01*
X0145139Y0121750D01*
X0144170Y0121750D01*
X0142635Y0121114D01*
X0141461Y0119940D01*
X0140825Y0118405D01*
X0140825Y0111595D01*
X0141461Y0110060D01*
X0142635Y0108886D01*
X0144170Y0108250D01*
X0145830Y0108250D01*
X0147365Y0108886D01*
X0147800Y0109321D01*
X0147800Y0104089D01*
X0182800Y0069089D01*
X0184089Y0067800D01*
X0189189Y0067800D01*
X0177800Y0056411D01*
X0177800Y0045325D01*
X0176998Y0044993D01*
X0175507Y0043502D01*
X0174891Y0042015D01*
X0174704Y0042383D01*
X0174195Y0043083D01*
X0173583Y0043695D01*
X0172883Y0044204D01*
X0172111Y0044597D01*
X0171288Y0044865D01*
X0170433Y0045000D01*
X0170200Y0045000D01*
X0170200Y0039700D01*
X0169800Y0039700D01*
X0169800Y0045000D01*
X0169567Y0045000D01*
X0168712Y0044865D01*
X0167889Y0044597D01*
X0167117Y0044204D01*
X0166417Y0043695D01*
X0165805Y0043083D01*
X0165296Y0042383D01*
X0165109Y0042015D01*
X0164493Y0043502D01*
X0163002Y0044993D01*
X0162200Y0045325D01*
X0162200Y0080911D01*
X0160911Y0082200D01*
X0137200Y0105911D01*
X0137200Y0108818D01*
X0137365Y0108886D01*
X0138539Y0110060D01*
X0139175Y0111595D01*
X0139175Y0118405D01*
X0138539Y0119940D01*
X0137365Y0121114D01*
X0137200Y0121182D01*
X0137200Y0133765D01*
X0137379Y0133839D01*
X0138561Y0135021D01*
X0139200Y0136565D01*
X0139200Y0143435D01*
X0138561Y0144979D01*
X0137379Y0146161D01*
X0135835Y0146800D01*
X0134165Y0146800D01*
X0132621Y0146161D01*
X0131439Y0144979D01*
X0130800Y0143435D01*
X0130800Y0136565D01*
X0131439Y0135021D01*
X0132621Y0133839D01*
X0132800Y0133765D01*
X0132800Y0121182D01*
X0132635Y0121114D01*
X0131461Y0119940D01*
X0130825Y0118405D01*
X0130825Y0111595D01*
X0131461Y0110060D01*
X0132635Y0108886D01*
X0132800Y0108818D01*
X0132800Y0104089D01*
X0157800Y0079089D01*
X0157800Y0045325D01*
X0156998Y0044993D01*
X0155507Y0043502D01*
X0154891Y0042015D01*
X0154704Y0042383D01*
X0154195Y0043083D01*
X0153583Y0043695D01*
X0152883Y0044204D01*
X0152111Y0044597D01*
X0151288Y0044865D01*
X0150433Y0045000D01*
X0150200Y0045000D01*
X0150200Y0039700D01*
X0149800Y0039700D01*
X0149800Y0045000D01*
X0149567Y0045000D01*
X0148712Y0044865D01*
X0147889Y0044597D01*
X0147117Y0044204D01*
X0146417Y0043695D01*
X0145805Y0043083D01*
X0145296Y0042383D01*
X0145109Y0042015D01*
X0144493Y0043502D01*
X0143002Y0044993D01*
X0142200Y0045325D01*
X0142200Y0085911D01*
X0140911Y0087200D01*
X0127200Y0100911D01*
X0127200Y0108818D01*
X0127365Y0108886D01*
X0128539Y0110060D01*
X0129175Y0111595D01*
X0129175Y0118405D01*
X0128539Y0119940D01*
X0127365Y0121114D01*
X0127200Y0121182D01*
X0127200Y0133765D01*
X0127379Y0133839D01*
X0128561Y0135021D01*
X0129200Y0136565D01*
X0129200Y0143435D01*
X0128561Y0144979D01*
X0127379Y0146161D01*
X0125835Y0146800D01*
X0124165Y0146800D01*
X0122621Y0146161D01*
X0121439Y0144979D01*
X0120800Y0143435D01*
X0120800Y0136565D01*
X0121439Y0135021D01*
X0122621Y0133839D01*
X0122800Y0133765D01*
X0122800Y0121182D01*
X0122635Y0121114D01*
X0121461Y0119940D01*
X0120825Y0118405D01*
X0120825Y0111595D01*
X0121461Y0110060D01*
X0122635Y0108886D01*
X0122800Y0108818D01*
X0122800Y0099089D01*
X0137800Y0084089D01*
X0137800Y0045325D01*
X0136998Y0044993D01*
X0135507Y0043502D01*
X0134700Y0041554D01*
X0134700Y0039446D01*
X0135507Y0037498D01*
X0136998Y0036007D01*
X0138946Y0035200D01*
X0141054Y0035200D01*
X0143002Y0036007D01*
X0144493Y0037498D01*
X0144703Y0038004D01*
X0144903Y0037389D01*
X0145296Y0036617D01*
X0145805Y0035917D01*
X0146417Y0035305D01*
X0147117Y0034796D01*
X0147889Y0034403D01*
X0148712Y0034135D01*
X0149567Y0034000D01*
X0149800Y0034000D01*
X0149800Y0039300D01*
X0150200Y0039300D01*
X0150200Y0034000D01*
X0150433Y0034000D01*
X0151288Y0034135D01*
X0152111Y0034403D01*
X0152883Y0034796D01*
X0153583Y0035305D01*
X0154195Y0035917D01*
X0154704Y0036617D01*
X0155097Y0037389D01*
X0155297Y0038004D01*
X0155507Y0037498D01*
X0156998Y0036007D01*
X0158946Y0035200D01*
X0161054Y0035200D01*
X0163002Y0036007D01*
X0164493Y0037498D01*
X0164703Y0038004D01*
X0164903Y0037389D01*
X0165296Y0036617D01*
X0165805Y0035917D01*
X0166417Y0035305D01*
X0167117Y0034796D01*
X0167889Y0034403D01*
X0168712Y0034135D01*
X0169567Y0034000D01*
X0169800Y0034000D01*
X0169800Y0039300D01*
X0170200Y0039300D01*
X0170200Y0034000D01*
X0170433Y0034000D01*
X0171288Y0034135D01*
X0172111Y0034403D01*
X0172883Y0034796D01*
X0173583Y0035305D01*
X0174195Y0035917D01*
X0174704Y0036617D01*
X0175097Y0037389D01*
X0175297Y0038004D01*
X0175507Y0037498D01*
X0176998Y0036007D01*
X0178946Y0035200D01*
X0181054Y0035200D01*
X0183002Y0036007D01*
X0184493Y0037498D01*
X0184703Y0038004D01*
X0184903Y0037389D01*
X0185296Y0036617D01*
X0185805Y0035917D01*
X0186417Y0035305D01*
X0187117Y0034796D01*
X0187889Y0034403D01*
X0188712Y0034135D01*
X0189567Y0034000D01*
X0189800Y0034000D01*
X0189800Y0039300D01*
X0190200Y0039300D01*
X0190200Y0034000D01*
X0190433Y0034000D01*
X0191288Y0034135D01*
X0192111Y0034403D01*
X0192883Y0034796D01*
X0193583Y0035305D01*
X0194195Y0035917D01*
X0194704Y0036617D01*
X0195097Y0037389D01*
X0195297Y0038004D01*
X0195507Y0037498D01*
X0196998Y0036007D01*
X0198946Y0035200D01*
X0201054Y0035200D01*
X0203002Y0036007D01*
X0204493Y0037498D01*
X0204500Y0037514D01*
X0204500Y0035563D01*
X0204623Y0035105D01*
X0204860Y0034695D01*
X0205195Y0034360D01*
X0205605Y0034123D01*
X0206063Y0034000D01*
X0209800Y0034000D01*
X0209800Y0039300D01*
X0210200Y0039300D01*
X0210200Y0039700D01*
X0209800Y0039700D01*
X0209800Y0045000D01*
X0206063Y0045000D01*
X0205605Y0044877D01*
X0205195Y0044640D01*
X0204860Y0044305D01*
X0204623Y0043895D01*
X0204508Y0043466D01*
X0204493Y0043502D01*
X0203002Y0044993D01*
X0201054Y0045800D01*
X0198946Y0045800D01*
X0196998Y0044993D01*
X0195507Y0043502D01*
X0194891Y0042015D01*
X0194704Y0042383D01*
X0194195Y0043083D01*
X0193583Y0043695D01*
X0192883Y0044204D01*
X0192111Y0044597D01*
X0191288Y0044865D01*
X0190433Y0045000D01*
X0190200Y0045000D01*
X0190200Y0039700D01*
X0189800Y0039700D01*
X0189800Y0045000D01*
X0189567Y0045000D01*
X0188712Y0044865D01*
X0187889Y0044597D01*
X0187117Y0044204D01*
X0186417Y0043695D01*
X0185805Y0043083D01*
X0185296Y0042383D01*
X0185109Y0042015D01*
X0184493Y0043502D01*
X0183002Y0044993D01*
X0182200Y0045325D01*
X0182200Y0054589D01*
X0193144Y0065532D01*
X0193946Y0065200D01*
X0196054Y0065200D01*
X0198002Y0066007D01*
X0199493Y0067498D01*
X0199793Y0068222D01*
X0200507Y0066498D01*
X0201998Y0065007D01*
X0203946Y0064200D01*
X0206054Y0064200D01*
X0208002Y0065007D01*
X0209493Y0066498D01*
X0210207Y0068222D01*
X0210507Y0067498D01*
X0211998Y0066007D01*
X0213946Y0065200D01*
X0216054Y0065200D01*
X0218002Y0066007D01*
X0219493Y0067498D01*
X0219618Y0067800D01*
X0270911Y0067800D01*
X0272200Y0069089D01*
X0277200Y0074089D01*
X0277200Y0115800D01*
X0278435Y0115800D01*
X0279979Y0116439D01*
X0281161Y0117621D01*
X0281800Y0119165D01*
X0281800Y0120835D01*
X0281161Y0122379D01*
X0279979Y0123561D01*
X0278435Y0124200D01*
X0271565Y0124200D01*
X0270021Y0123561D01*
X0268839Y0122379D01*
X0268200Y0120835D01*
X0268200Y0119165D01*
X0268839Y0117621D01*
X0270021Y0116439D01*
X0271565Y0115800D01*
X0272800Y0115800D01*
X0272800Y0113699D02*
X0254995Y0113699D01*
X0256468Y0112100D02*
X0272800Y0112100D01*
X0272800Y0110502D02*
X0256975Y0110502D01*
X0256870Y0108903D02*
X0272800Y0108903D01*
X0272800Y0107305D02*
X0256080Y0107305D01*
X0269565Y0116896D02*
X0235435Y0116896D01*
X0236522Y0118494D02*
X0268478Y0118494D01*
X0268200Y0120093D02*
X0236800Y0120093D01*
X0236445Y0121691D02*
X0268555Y0121691D01*
X0269750Y0123290D02*
X0235250Y0123290D01*
X0243839Y0127621D02*
X0245021Y0126439D01*
X0246565Y0125800D01*
X0253435Y0125800D01*
X0254979Y0126439D01*
X0256161Y0127621D01*
X0256800Y0129165D01*
X0256800Y0130835D01*
X0256161Y0132379D01*
X0254979Y0133561D01*
X0253435Y0134200D01*
X0246565Y0134200D01*
X0245021Y0133561D01*
X0243839Y0132379D01*
X0243200Y0130835D01*
X0243200Y0129165D01*
X0243839Y0127621D01*
X0243647Y0128085D02*
X0160026Y0128085D01*
X0158427Y0129684D02*
X0243200Y0129684D01*
X0243385Y0131282D02*
X0157200Y0131282D01*
X0157200Y0132881D02*
X0244341Y0132881D01*
X0244973Y0126487D02*
X0166624Y0126487D01*
X0168223Y0124888D02*
X0393200Y0124888D01*
X0393200Y0123290D02*
X0280250Y0123290D01*
X0281445Y0121691D02*
X0393200Y0121691D01*
X0393200Y0120093D02*
X0281800Y0120093D01*
X0281522Y0118494D02*
X0393200Y0118494D01*
X0393200Y0116896D02*
X0280435Y0116896D01*
X0277200Y0115297D02*
X0393200Y0115297D01*
X0393200Y0113699D02*
X0299995Y0113699D01*
X0299906Y0113763D02*
X0299289Y0114078D01*
X0298630Y0114292D01*
X0297946Y0114400D01*
X0295000Y0114400D01*
X0295000Y0110000D01*
X0295000Y0110000D01*
X0302000Y0110000D01*
X0302000Y0110346D01*
X0301892Y0111030D01*
X0301678Y0111689D01*
X0301363Y0112306D01*
X0300956Y0112866D01*
X0300466Y0113356D01*
X0299906Y0113763D01*
X0301468Y0112100D02*
X0393200Y0112100D01*
X0393200Y0110502D02*
X0301975Y0110502D01*
X0302000Y0110000D02*
X0295000Y0110000D01*
X0295000Y0110000D01*
X0295000Y0105600D01*
X0297946Y0105600D01*
X0298630Y0105708D01*
X0299289Y0105922D01*
X0299906Y0106237D01*
X0300466Y0106644D01*
X0300956Y0107134D01*
X0301363Y0107694D01*
X0301678Y0108311D01*
X0301892Y0108970D01*
X0302000Y0109654D01*
X0302000Y0110000D01*
X0301870Y0108903D02*
X0393200Y0108903D01*
X0393200Y0107305D02*
X0301080Y0107305D01*
X0298617Y0105706D02*
X0393200Y0105706D01*
X0393200Y0104108D02*
X0277200Y0104108D01*
X0277200Y0105706D02*
X0291383Y0105706D01*
X0291370Y0105708D02*
X0292054Y0105600D01*
X0295000Y0105600D01*
X0295000Y0110000D01*
X0295000Y0110000D01*
X0295000Y0110000D01*
X0288000Y0110000D01*
X0288000Y0110346D01*
X0288108Y0111030D01*
X0288322Y0111689D01*
X0288637Y0112306D01*
X0289044Y0112866D01*
X0289534Y0113356D01*
X0290094Y0113763D01*
X0290711Y0114078D01*
X0291370Y0114292D01*
X0292054Y0114400D01*
X0295000Y0114400D01*
X0295000Y0110000D01*
X0288000Y0110000D01*
X0288000Y0109654D01*
X0288108Y0108970D01*
X0288322Y0108311D01*
X0288637Y0107694D01*
X0289044Y0107134D01*
X0289534Y0106644D01*
X0290094Y0106237D01*
X0290711Y0105922D01*
X0291370Y0105708D01*
X0288920Y0107305D02*
X0277200Y0107305D01*
X0277200Y0108903D02*
X0288130Y0108903D01*
X0288025Y0110502D02*
X0277200Y0110502D01*
X0277200Y0112100D02*
X0288532Y0112100D01*
X0290005Y0113699D02*
X0277200Y0113699D01*
X0277200Y0102509D02*
X0329936Y0102509D01*
X0330585Y0103158D02*
X0324342Y0096915D01*
X0324342Y0093300D01*
X0334200Y0093300D01*
X0334200Y0103158D01*
X0330585Y0103158D01*
X0328338Y0100911D02*
X0277200Y0100911D01*
X0277200Y0099312D02*
X0326739Y0099312D01*
X0325141Y0097714D02*
X0277200Y0097714D01*
X0277200Y0096115D02*
X0324342Y0096115D01*
X0324342Y0094517D02*
X0277200Y0094517D01*
X0277200Y0092918D02*
X0334200Y0092918D01*
X0334200Y0093300D02*
X0334200Y0091700D01*
X0335800Y0091700D01*
X0335800Y0093300D01*
X0345658Y0093300D01*
X0345658Y0096915D01*
X0339415Y0103158D01*
X0335800Y0103158D01*
X0335800Y0093300D01*
X0334200Y0093300D01*
X0334200Y0094517D02*
X0335800Y0094517D01*
X0335800Y0096115D02*
X0334200Y0096115D01*
X0334200Y0097714D02*
X0335800Y0097714D01*
X0335800Y0099312D02*
X0334200Y0099312D01*
X0334200Y0100911D02*
X0335800Y0100911D01*
X0335800Y0102509D02*
X0334200Y0102509D01*
X0340064Y0102509D02*
X0393200Y0102509D01*
X0393200Y0100911D02*
X0341662Y0100911D01*
X0343261Y0099312D02*
X0393200Y0099312D01*
X0393200Y0097714D02*
X0344859Y0097714D01*
X0345658Y0096115D02*
X0393200Y0096115D01*
X0393200Y0094517D02*
X0345658Y0094517D01*
X0345658Y0091700D02*
X0335800Y0091700D01*
X0335800Y0081842D01*
X0339415Y0081842D01*
X0345658Y0088085D01*
X0345658Y0091700D01*
X0345658Y0091320D02*
X0393200Y0091320D01*
X0393200Y0092918D02*
X0335800Y0092918D01*
X0335800Y0091320D02*
X0334200Y0091320D01*
X0334200Y0091700D02*
X0334200Y0081842D01*
X0330585Y0081842D01*
X0324342Y0088085D01*
X0324342Y0091700D01*
X0334200Y0091700D01*
X0334200Y0089721D02*
X0335800Y0089721D01*
X0335800Y0088123D02*
X0334200Y0088123D01*
X0334200Y0086524D02*
X0335800Y0086524D01*
X0335800Y0084926D02*
X0334200Y0084926D01*
X0334200Y0083327D02*
X0335800Y0083327D01*
X0340900Y0083327D02*
X0343407Y0083327D01*
X0343638Y0084189D02*
X0342898Y0081429D01*
X0342898Y0078571D01*
X0343638Y0075811D01*
X0345066Y0073337D01*
X0347087Y0071316D01*
X0349561Y0069888D01*
X0352321Y0069148D01*
X0355179Y0069148D01*
X0357939Y0069888D01*
X0360413Y0071316D01*
X0362434Y0073337D01*
X0363862Y0075811D01*
X0364602Y0078571D01*
X0364602Y0081429D01*
X0363862Y0084189D01*
X0362434Y0086663D01*
X0360413Y0088684D01*
X0357939Y0090112D01*
X0355179Y0090852D01*
X0352321Y0090852D01*
X0349561Y0090112D01*
X0347087Y0088684D01*
X0345066Y0086663D01*
X0343638Y0084189D01*
X0344063Y0084926D02*
X0342499Y0084926D01*
X0344097Y0086524D02*
X0344986Y0086524D01*
X0345658Y0088123D02*
X0346526Y0088123D01*
X0345658Y0089721D02*
X0348884Y0089721D01*
X0358616Y0089721D02*
X0393200Y0089721D01*
X0393200Y0088123D02*
X0360974Y0088123D01*
X0362514Y0086524D02*
X0393200Y0086524D01*
X0393200Y0084926D02*
X0363437Y0084926D01*
X0364093Y0083327D02*
X0393200Y0083327D01*
X0393200Y0081729D02*
X0364522Y0081729D01*
X0364602Y0080130D02*
X0393200Y0080130D01*
X0393200Y0078532D02*
X0364591Y0078532D01*
X0364163Y0076933D02*
X0393200Y0076933D01*
X0393200Y0075334D02*
X0363587Y0075334D01*
X0362664Y0073736D02*
X0393200Y0073736D01*
X0393200Y0072137D02*
X0361234Y0072137D01*
X0359067Y0070539D02*
X0393200Y0070539D01*
X0393200Y0068940D02*
X0345849Y0068940D01*
X0345852Y0068929D02*
X0345112Y0071689D01*
X0343684Y0074163D01*
X0341663Y0076184D01*
X0339189Y0077612D01*
X0336429Y0078352D01*
X0333571Y0078352D01*
X0330811Y0077612D01*
X0328337Y0076184D01*
X0326316Y0074163D01*
X0324888Y0071689D01*
X0324148Y0068929D01*
X0324148Y0066071D01*
X0324888Y0063311D01*
X0326316Y0060837D01*
X0328337Y0058816D01*
X0330811Y0057388D01*
X0333571Y0056648D01*
X0336429Y0056648D01*
X0339189Y0057388D01*
X0341663Y0058816D01*
X0343684Y0060837D01*
X0345112Y0063311D01*
X0345852Y0066071D01*
X0345852Y0068929D01*
X0345852Y0067342D02*
X0393200Y0067342D01*
X0393200Y0065743D02*
X0345764Y0065743D01*
X0345336Y0064145D02*
X0393200Y0064145D01*
X0393200Y0062546D02*
X0344671Y0062546D01*
X0343748Y0060948D02*
X0393200Y0060948D01*
X0393200Y0059349D02*
X0342196Y0059349D01*
X0339818Y0057751D02*
X0393200Y0057751D01*
X0393200Y0056152D02*
X0183764Y0056152D01*
X0182200Y0054554D02*
X0239362Y0054554D01*
X0239183Y0054424D02*
X0238537Y0053778D01*
X0238001Y0053040D01*
X0237586Y0052226D01*
X0237304Y0051358D01*
X0237161Y0050456D01*
X0237161Y0050381D01*
X0242580Y0050381D01*
X0242580Y0049619D01*
X0237161Y0049619D01*
X0237161Y0049544D01*
X0237304Y0048642D01*
X0237586Y0047774D01*
X0238001Y0046960D01*
X0238537Y0046222D01*
X0239183Y0045576D01*
X0239922Y0045039D01*
X0240735Y0044625D01*
X0241603Y0044343D01*
X0242505Y0044200D01*
X0242580Y0044200D01*
X0242580Y0049619D01*
X0243343Y0049619D01*
X0243343Y0050381D01*
X0248761Y0050381D01*
X0248761Y0050456D01*
X0248619Y0051358D01*
X0248336Y0052226D01*
X0247922Y0053040D01*
X0247385Y0053778D01*
X0246740Y0054424D01*
X0246001Y0054961D01*
X0245188Y0055375D01*
X0244320Y0055657D01*
X0243418Y0055800D01*
X0243343Y0055800D01*
X0243343Y0050381D01*
X0242580Y0050381D01*
X0242580Y0055800D01*
X0242505Y0055800D01*
X0241603Y0055657D01*
X0240735Y0055375D01*
X0239922Y0054961D01*
X0239183Y0054424D01*
X0237958Y0052955D02*
X0182200Y0052955D01*
X0182200Y0051357D02*
X0237304Y0051357D01*
X0237461Y0048160D02*
X0182200Y0048160D01*
X0182200Y0049758D02*
X0242580Y0049758D01*
X0243343Y0049758D02*
X0252541Y0049758D01*
X0252541Y0048886D02*
X0253393Y0046828D01*
X0254969Y0045253D01*
X0257027Y0044400D01*
X0259255Y0044400D01*
X0261313Y0045253D01*
X0262888Y0046828D01*
X0263741Y0048886D01*
X0263741Y0051114D01*
X0262888Y0053172D01*
X0261313Y0054747D01*
X0259255Y0055600D01*
X0257027Y0055600D01*
X0254969Y0054747D01*
X0253393Y0053172D01*
X0252541Y0051114D01*
X0252541Y0048886D01*
X0252842Y0048160D02*
X0248462Y0048160D01*
X0248336Y0047774D02*
X0248619Y0048642D01*
X0248761Y0049544D01*
X0248761Y0049619D01*
X0243343Y0049619D01*
X0243343Y0044200D01*
X0243418Y0044200D01*
X0244320Y0044343D01*
X0245188Y0044625D01*
X0246001Y0045039D01*
X0246740Y0045576D01*
X0247385Y0046222D01*
X0247922Y0046960D01*
X0248336Y0047774D01*
X0247632Y0046561D02*
X0253660Y0046561D01*
X0255668Y0044963D02*
X0245851Y0044963D01*
X0243343Y0044963D02*
X0242580Y0044963D01*
X0242580Y0046561D02*
X0243343Y0046561D01*
X0243343Y0048160D02*
X0242580Y0048160D01*
X0242580Y0051357D02*
X0243343Y0051357D01*
X0243343Y0052955D02*
X0242580Y0052955D01*
X0242580Y0054554D02*
X0243343Y0054554D01*
X0246561Y0054554D02*
X0254775Y0054554D01*
X0253304Y0052955D02*
X0247965Y0052955D01*
X0248619Y0051357D02*
X0252642Y0051357D01*
X0261507Y0054554D02*
X0266921Y0054554D01*
X0266742Y0054424D02*
X0266096Y0053778D01*
X0265560Y0053040D01*
X0265145Y0052226D01*
X0264863Y0051358D01*
X0264720Y0050456D01*
X0264720Y0050381D01*
X0270139Y0050381D01*
X0270139Y0049619D01*
X0264720Y0049619D01*
X0264720Y0049544D01*
X0264863Y0048642D01*
X0265145Y0047774D01*
X0265560Y0046960D01*
X0266096Y0046222D01*
X0266742Y0045576D01*
X0267481Y0045039D01*
X0268294Y0044625D01*
X0269162Y0044343D01*
X0270064Y0044200D01*
X0270139Y0044200D01*
X0270139Y0049619D01*
X0270902Y0049619D01*
X0270902Y0050381D01*
X0276320Y0050381D01*
X0276320Y0050456D01*
X0276178Y0051358D01*
X0275896Y0052226D01*
X0275481Y0053040D01*
X0274944Y0053778D01*
X0274299Y0054424D01*
X0273560Y0054961D01*
X0272747Y0055375D01*
X0271879Y0055657D01*
X0270977Y0055800D01*
X0270902Y0055800D01*
X0270902Y0050381D01*
X0270139Y0050381D01*
X0270139Y0055800D01*
X0270064Y0055800D01*
X0269162Y0055657D01*
X0268294Y0055375D01*
X0267481Y0054961D01*
X0266742Y0054424D01*
X0265517Y0052955D02*
X0262978Y0052955D01*
X0263640Y0051357D02*
X0264863Y0051357D01*
X0263741Y0049758D02*
X0270139Y0049758D01*
X0270902Y0049758D02*
X0280100Y0049758D01*
X0280100Y0048160D02*
X0276021Y0048160D01*
X0275896Y0047774D02*
X0276178Y0048642D01*
X0276320Y0049544D01*
X0276320Y0049619D01*
X0270902Y0049619D01*
X0270902Y0044200D01*
X0270977Y0044200D01*
X0271879Y0044343D01*
X0272747Y0044625D01*
X0273560Y0045039D01*
X0274299Y0045576D01*
X0274944Y0046222D01*
X0275481Y0046960D01*
X0275896Y0047774D01*
X0275191Y0046561D02*
X0280100Y0046561D01*
X0280100Y0045337D02*
X0281037Y0044400D01*
X0290363Y0044400D01*
X0291300Y0045337D01*
X0291300Y0054663D01*
X0290363Y0055600D01*
X0281037Y0055600D01*
X0280100Y0054663D01*
X0280100Y0045337D01*
X0280474Y0044963D02*
X0273410Y0044963D01*
X0270902Y0044963D02*
X0270139Y0044963D01*
X0270139Y0046561D02*
X0270902Y0046561D01*
X0270902Y0048160D02*
X0270139Y0048160D01*
X0270139Y0051357D02*
X0270902Y0051357D01*
X0270902Y0052955D02*
X0270139Y0052955D01*
X0270139Y0054554D02*
X0270902Y0054554D01*
X0274120Y0054554D02*
X0280100Y0054554D01*
X0280100Y0052955D02*
X0275524Y0052955D01*
X0276178Y0051357D02*
X0280100Y0051357D01*
X0291300Y0051357D02*
X0393200Y0051357D01*
X0393200Y0052955D02*
X0291300Y0052955D01*
X0291300Y0054554D02*
X0393200Y0054554D01*
X0393200Y0049758D02*
X0291300Y0049758D01*
X0291300Y0048160D02*
X0393200Y0048160D01*
X0393200Y0046561D02*
X0291300Y0046561D01*
X0290926Y0044963D02*
X0393200Y0044963D01*
X0393200Y0043364D02*
X0215500Y0043364D01*
X0215500Y0043437D02*
X0215377Y0043895D01*
X0215140Y0044305D01*
X0214805Y0044640D01*
X0214395Y0044877D01*
X0213937Y0045000D01*
X0210200Y0045000D01*
X0210200Y0039700D01*
X0215500Y0039700D01*
X0215500Y0043437D01*
X0215500Y0041766D02*
X0393200Y0041766D01*
X0393200Y0040167D02*
X0215500Y0040167D01*
X0215500Y0039300D02*
X0210200Y0039300D01*
X0210200Y0034000D01*
X0213937Y0034000D01*
X0214395Y0034123D01*
X0214805Y0034360D01*
X0215140Y0034695D01*
X0215377Y0035105D01*
X0215500Y0035563D01*
X0215500Y0039300D01*
X0215500Y0038569D02*
X0393200Y0038569D01*
X0393200Y0036970D02*
X0382295Y0036970D01*
X0382892Y0036810D02*
X0379669Y0037674D01*
X0376331Y0037674D01*
X0373108Y0036810D01*
X0370218Y0035142D01*
X0367858Y0032782D01*
X0366190Y0029892D01*
X0365326Y0026669D01*
X0365326Y0023331D01*
X0366190Y0020108D01*
X0367858Y0017218D01*
X0370218Y0014858D01*
X0373108Y0013190D01*
X0376331Y0012326D01*
X0379669Y0012326D01*
X0382892Y0013190D01*
X0385782Y0014858D01*
X0388142Y0017218D01*
X0389810Y0020108D01*
X0390674Y0023331D01*
X0390674Y0026669D01*
X0389810Y0029892D01*
X0388142Y0032782D01*
X0385782Y0035142D01*
X0382892Y0036810D01*
X0385384Y0035372D02*
X0393200Y0035372D01*
X0393200Y0033773D02*
X0387151Y0033773D01*
X0388492Y0032175D02*
X0393200Y0032175D01*
X0393200Y0030576D02*
X0389415Y0030576D01*
X0390055Y0028978D02*
X0393200Y0028978D01*
X0393200Y0027379D02*
X0390484Y0027379D01*
X0390674Y0025781D02*
X0393200Y0025781D01*
X0393200Y0024182D02*
X0390674Y0024182D01*
X0390474Y0022584D02*
X0393200Y0022584D01*
X0393200Y0020985D02*
X0390045Y0020985D01*
X0389394Y0019387D02*
X0393200Y0019387D01*
X0393200Y0017788D02*
X0388471Y0017788D01*
X0387113Y0016190D02*
X0393200Y0016190D01*
X0393200Y0014955D02*
X0393137Y0014281D01*
X0392740Y0012949D01*
X0392012Y0011764D01*
X0391002Y0010809D01*
X0389779Y0010147D01*
X0388427Y0009825D01*
X0387779Y0009800D01*
X0387664Y0009800D01*
X0386776Y0009825D01*
X0386712Y0009800D01*
X0014843Y0009800D01*
X0014184Y0009843D01*
X0012913Y0010184D01*
X0011773Y0010842D01*
X0010842Y0011773D01*
X0010184Y0012913D01*
X0009843Y0014184D01*
X0009800Y0014843D01*
X0009800Y0264183D01*
X0009846Y0264313D01*
X0009800Y0265133D01*
X0009800Y0265955D01*
X0009799Y0265956D01*
X0009800Y0266004D01*
X0010101Y0267444D01*
X0010765Y0268757D01*
X0011747Y0269854D01*
X0012978Y0270659D01*
X0014377Y0271118D01*
X0015048Y0271200D01*
X0387484Y0271200D01*
X0388233Y0271130D01*
X0389710Y0270689D01*
X0391023Y0269882D01*
X0392083Y0268762D01*
X0392816Y0267406D01*
X0393173Y0265906D01*
X0393200Y0265184D01*
X0393200Y0265067D01*
X0393175Y0264180D01*
X0393200Y0264115D01*
X0393200Y0014955D01*
X0393166Y0014591D02*
X0385319Y0014591D01*
X0382156Y0012993D02*
X0392753Y0012993D01*
X0391621Y0011394D02*
X0011221Y0011394D01*
X0010162Y0012993D02*
X0020844Y0012993D01*
X0020108Y0013190D02*
X0023331Y0012326D01*
X0026669Y0012326D01*
X0029892Y0013190D01*
X0032782Y0014858D01*
X0035142Y0017218D01*
X0036810Y0020108D01*
X0037674Y0023331D01*
X0037674Y0026669D01*
X0036810Y0029892D01*
X0035142Y0032782D01*
X0032782Y0035142D01*
X0029892Y0036810D01*
X0026669Y0037674D01*
X0023331Y0037674D01*
X0020108Y0036810D01*
X0017218Y0035142D01*
X0014858Y0032782D01*
X0013190Y0029892D01*
X0012326Y0026669D01*
X0012326Y0023331D01*
X0013190Y0020108D01*
X0014858Y0017218D01*
X0017218Y0014858D01*
X0020108Y0013190D01*
X0017681Y0014591D02*
X0009816Y0014591D01*
X0009800Y0016190D02*
X0015887Y0016190D01*
X0014529Y0017788D02*
X0009800Y0017788D01*
X0009800Y0019387D02*
X0013606Y0019387D01*
X0012955Y0020985D02*
X0009800Y0020985D01*
X0009800Y0022584D02*
X0012526Y0022584D01*
X0012326Y0024182D02*
X0009800Y0024182D01*
X0009800Y0025781D02*
X0012326Y0025781D01*
X0012516Y0027379D02*
X0009800Y0027379D01*
X0009800Y0028978D02*
X0012945Y0028978D01*
X0013585Y0030576D02*
X0009800Y0030576D01*
X0009800Y0032175D02*
X0014508Y0032175D01*
X0015849Y0033773D02*
X0009800Y0033773D01*
X0009800Y0035372D02*
X0017616Y0035372D01*
X0020705Y0036970D02*
X0009800Y0036970D01*
X0009800Y0038569D02*
X0045063Y0038569D01*
X0044700Y0039446D02*
X0045507Y0037498D01*
X0046998Y0036007D01*
X0048946Y0035200D01*
X0051054Y0035200D01*
X0053002Y0036007D01*
X0054493Y0037498D01*
X0054703Y0038004D01*
X0054903Y0037389D01*
X0055296Y0036617D01*
X0055805Y0035917D01*
X0056417Y0035305D01*
X0057117Y0034796D01*
X0057889Y0034403D01*
X0058712Y0034135D01*
X0059567Y0034000D01*
X0059800Y0034000D01*
X0059800Y0039300D01*
X0060200Y0039300D01*
X0060200Y0034000D01*
X0060433Y0034000D01*
X0061288Y0034135D01*
X0062111Y0034403D01*
X0062883Y0034796D01*
X0063583Y0035305D01*
X0064195Y0035917D01*
X0064704Y0036617D01*
X0065097Y0037389D01*
X0065297Y0038004D01*
X0065507Y0037498D01*
X0066998Y0036007D01*
X0068946Y0035200D01*
X0071054Y0035200D01*
X0073002Y0036007D01*
X0074493Y0037498D01*
X0074703Y0038004D01*
X0074903Y0037389D01*
X0075296Y0036617D01*
X0075805Y0035917D01*
X0076417Y0035305D01*
X0077117Y0034796D01*
X0077889Y0034403D01*
X0078712Y0034135D01*
X0079567Y0034000D01*
X0079800Y0034000D01*
X0079800Y0039300D01*
X0080200Y0039300D01*
X0080200Y0034000D01*
X0080433Y0034000D01*
X0081288Y0034135D01*
X0082111Y0034403D01*
X0082883Y0034796D01*
X0083583Y0035305D01*
X0084195Y0035917D01*
X0084704Y0036617D01*
X0085097Y0037389D01*
X0085297Y0038004D01*
X0085507Y0037498D01*
X0086998Y0036007D01*
X0088946Y0035200D01*
X0091054Y0035200D01*
X0093002Y0036007D01*
X0094493Y0037498D01*
X0094703Y0038004D01*
X0094903Y0037389D01*
X0095296Y0036617D01*
X0095805Y0035917D01*
X0096417Y0035305D01*
X0097117Y0034796D01*
X0097889Y0034403D01*
X0098712Y0034135D01*
X0099567Y0034000D01*
X0099800Y0034000D01*
X0099800Y0039300D01*
X0100200Y0039300D01*
X0100200Y0034000D01*
X0100433Y0034000D01*
X0101288Y0034135D01*
X0102111Y0034403D01*
X0102883Y0034796D01*
X0103583Y0035305D01*
X0104195Y0035917D01*
X0104704Y0036617D01*
X0105097Y0037389D01*
X0105297Y0038004D01*
X0105507Y0037498D01*
X0106998Y0036007D01*
X0108946Y0035200D01*
X0111054Y0035200D01*
X0113002Y0036007D01*
X0114493Y0037498D01*
X0114500Y0037514D01*
X0114500Y0035563D01*
X0114623Y0035105D01*
X0114860Y0034695D01*
X0115195Y0034360D01*
X0115605Y0034123D01*
X0116063Y0034000D01*
X0119800Y0034000D01*
X0119800Y0039300D01*
X0120200Y0039300D01*
X0120200Y0039700D01*
X0119800Y0039700D01*
X0119800Y0045000D01*
X0116063Y0045000D01*
X0115605Y0044877D01*
X0115195Y0044640D01*
X0114860Y0044305D01*
X0114623Y0043895D01*
X0114508Y0043466D01*
X0114493Y0043502D01*
X0113002Y0044993D01*
X0112200Y0045325D01*
X0112200Y0094089D01*
X0117200Y0099089D01*
X0117200Y0108818D01*
X0117365Y0108886D01*
X0118539Y0110060D01*
X0119175Y0111595D01*
X0119175Y0118405D01*
X0118539Y0119940D01*
X0117365Y0121114D01*
X0117200Y0121182D01*
X0117200Y0133765D01*
X0117379Y0133839D01*
X0118561Y0135021D01*
X0119200Y0136565D01*
X0119200Y0143435D01*
X0118561Y0144979D01*
X0117379Y0146161D01*
X0115835Y0146800D01*
X0114165Y0146800D01*
X0112621Y0146161D01*
X0111439Y0144979D01*
X0110800Y0143435D01*
X0110800Y0136565D01*
X0111439Y0135021D01*
X0112621Y0133839D01*
X0112800Y0133765D01*
X0112800Y0121182D01*
X0112635Y0121114D01*
X0111461Y0119940D01*
X0110825Y0118405D01*
X0110825Y0111595D01*
X0111461Y0110060D01*
X0112635Y0108886D01*
X0112800Y0108818D01*
X0112800Y0100911D01*
X0109089Y0097200D01*
X0107800Y0095911D01*
X0107800Y0045325D01*
X0106998Y0044993D01*
X0105507Y0043502D01*
X0104891Y0042015D01*
X0104704Y0042383D01*
X0104195Y0043083D01*
X0103583Y0043695D01*
X0102883Y0044204D01*
X0102111Y0044597D01*
X0101288Y0044865D01*
X0100433Y0045000D01*
X0100200Y0045000D01*
X0100200Y0039700D01*
X0099800Y0039700D01*
X0099800Y0045000D01*
X0099567Y0045000D01*
X0098712Y0044865D01*
X0097889Y0044597D01*
X0097117Y0044204D01*
X0096417Y0043695D01*
X0095805Y0043083D01*
X0095296Y0042383D01*
X0095109Y0042015D01*
X0094493Y0043502D01*
X0093002Y0044993D01*
X0092200Y0045325D01*
X0092200Y0084089D01*
X0107200Y0099089D01*
X0107200Y0108818D01*
X0107365Y0108886D01*
X0108539Y0110060D01*
X0109175Y0111595D01*
X0109175Y0118405D01*
X0108539Y0119940D01*
X0107365Y0121114D01*
X0107200Y0121182D01*
X0107200Y0133765D01*
X0107379Y0133839D01*
X0108561Y0135021D01*
X0109200Y0136565D01*
X0109200Y0143435D01*
X0108561Y0144979D01*
X0107379Y0146161D01*
X0105835Y0146800D01*
X0104165Y0146800D01*
X0102621Y0146161D01*
X0101439Y0144979D01*
X0100800Y0143435D01*
X0100800Y0136565D01*
X0101439Y0135021D01*
X0102621Y0133839D01*
X0102800Y0133765D01*
X0102800Y0121182D01*
X0102635Y0121114D01*
X0101461Y0119940D01*
X0100825Y0118405D01*
X0100825Y0111595D01*
X0101461Y0110060D01*
X0102635Y0108886D01*
X0102800Y0108818D01*
X0102800Y0100911D01*
X0089089Y0087200D01*
X0087800Y0085911D01*
X0087800Y0045325D01*
X0086998Y0044993D01*
X0085507Y0043502D01*
X0084891Y0042015D01*
X0084704Y0042383D01*
X0084195Y0043083D01*
X0083583Y0043695D01*
X0082883Y0044204D01*
X0082111Y0044597D01*
X0081288Y0044865D01*
X0080433Y0045000D01*
X0080200Y0045000D01*
X0080200Y0039700D01*
X0079800Y0039700D01*
X0079800Y0045000D01*
X0079567Y0045000D01*
X0078712Y0044865D01*
X0077889Y0044597D01*
X0077117Y0044204D01*
X0076417Y0043695D01*
X0075805Y0043083D01*
X0075296Y0042383D01*
X0075109Y0042015D01*
X0074493Y0043502D01*
X0073002Y0044993D01*
X0072200Y0045325D01*
X0072200Y0079089D01*
X0095911Y0102800D01*
X0095911Y0102800D01*
X0097200Y0104089D01*
X0097200Y0108818D01*
X0097365Y0108886D01*
X0098539Y0110060D01*
X0099175Y0111595D01*
X0099175Y0118405D01*
X0098539Y0119940D01*
X0097365Y0121114D01*
X0097200Y0121182D01*
X0097200Y0133765D01*
X0097379Y0133839D01*
X0098561Y0135021D01*
X0099200Y0136565D01*
X0099200Y0143435D01*
X0098561Y0144979D01*
X0097379Y0146161D01*
X0095835Y0146800D01*
X0094165Y0146800D01*
X0092621Y0146161D01*
X0091439Y0144979D01*
X0090800Y0143435D01*
X0090800Y0136565D01*
X0091439Y0135021D01*
X0092621Y0133839D01*
X0092800Y0133765D01*
X0092800Y0121182D01*
X0092635Y0121114D01*
X0091461Y0119940D01*
X0090825Y0118405D01*
X0090825Y0111595D01*
X0091461Y0110060D01*
X0092635Y0108886D01*
X0092800Y0108818D01*
X0092800Y0105911D01*
X0067800Y0080911D01*
X0067800Y0045325D01*
X0066998Y0044993D01*
X0065507Y0043502D01*
X0064891Y0042015D01*
X0064704Y0042383D01*
X0064195Y0043083D01*
X0063583Y0043695D01*
X0062883Y0044204D01*
X0062111Y0044597D01*
X0061288Y0044865D01*
X0060433Y0045000D01*
X0060200Y0045000D01*
X0060200Y0039700D01*
X0059800Y0039700D01*
X0059800Y0045000D01*
X0059567Y0045000D01*
X0058712Y0044865D01*
X0057889Y0044597D01*
X0057117Y0044204D01*
X0056417Y0043695D01*
X0055805Y0043083D01*
X0055296Y0042383D01*
X0055109Y0042015D01*
X0054493Y0043502D01*
X0053002Y0044993D01*
X0052200Y0045325D01*
X0052200Y0084089D01*
X0065911Y0097800D01*
X0080911Y0097800D01*
X0085911Y0102800D01*
X0087200Y0104089D01*
X0087200Y0108818D01*
X0087365Y0108886D01*
X0088539Y0110060D01*
X0089175Y0111595D01*
X0089175Y0118405D01*
X0088539Y0119940D01*
X0087365Y0121114D01*
X0087200Y0121182D01*
X0087200Y0133765D01*
X0087379Y0133839D01*
X0088561Y0135021D01*
X0089200Y0136565D01*
X0089200Y0143435D01*
X0088561Y0144979D01*
X0087379Y0146161D01*
X0085835Y0146800D01*
X0084165Y0146800D01*
X0082621Y0146161D01*
X0081439Y0144979D01*
X0080800Y0143435D01*
X0080800Y0136565D01*
X0081439Y0135021D01*
X0082621Y0133839D01*
X0082800Y0133765D01*
X0082800Y0121182D01*
X0082635Y0121114D01*
X0081461Y0119940D01*
X0080825Y0118405D01*
X0080825Y0111595D01*
X0081461Y0110060D01*
X0082635Y0108886D01*
X0082800Y0108818D01*
X0082800Y0105911D01*
X0079089Y0102200D01*
X0064089Y0102200D01*
X0062800Y0100911D01*
X0047800Y0085911D01*
X0047800Y0045325D01*
X0046998Y0044993D01*
X0045507Y0043502D01*
X0044700Y0041554D01*
X0044700Y0039446D01*
X0044700Y0040167D02*
X0009800Y0040167D01*
X0009800Y0041766D02*
X0044788Y0041766D01*
X0045450Y0043364D02*
X0009800Y0043364D01*
X0009800Y0044963D02*
X0046967Y0044963D01*
X0047800Y0046561D02*
X0009800Y0046561D01*
X0009800Y0048160D02*
X0047800Y0048160D01*
X0047800Y0049758D02*
X0009800Y0049758D01*
X0009800Y0051357D02*
X0047800Y0051357D01*
X0047800Y0052955D02*
X0009800Y0052955D01*
X0009800Y0054554D02*
X0047800Y0054554D01*
X0047800Y0056152D02*
X0009800Y0056152D01*
X0009800Y0057751D02*
X0047800Y0057751D01*
X0047800Y0059349D02*
X0009800Y0059349D01*
X0009800Y0060948D02*
X0047800Y0060948D01*
X0047800Y0062546D02*
X0009800Y0062546D01*
X0009800Y0064145D02*
X0047800Y0064145D01*
X0047800Y0065743D02*
X0009800Y0065743D01*
X0009800Y0067342D02*
X0047800Y0067342D01*
X0047800Y0068940D02*
X0009800Y0068940D01*
X0009800Y0070539D02*
X0047800Y0070539D01*
X0047800Y0072137D02*
X0009800Y0072137D01*
X0009800Y0073736D02*
X0047800Y0073736D01*
X0047800Y0075334D02*
X0009800Y0075334D01*
X0009800Y0076933D02*
X0047800Y0076933D01*
X0047800Y0078532D02*
X0009800Y0078532D01*
X0009800Y0080130D02*
X0047800Y0080130D01*
X0047800Y0081729D02*
X0009800Y0081729D01*
X0009800Y0083327D02*
X0047800Y0083327D01*
X0047800Y0084926D02*
X0009800Y0084926D01*
X0009800Y0086524D02*
X0048413Y0086524D01*
X0050011Y0088123D02*
X0009800Y0088123D01*
X0009800Y0089721D02*
X0051610Y0089721D01*
X0053208Y0091320D02*
X0009800Y0091320D01*
X0009800Y0092918D02*
X0054807Y0092918D01*
X0056405Y0094517D02*
X0009800Y0094517D01*
X0009800Y0096115D02*
X0058004Y0096115D01*
X0059602Y0097714D02*
X0009800Y0097714D01*
X0009800Y0099312D02*
X0061201Y0099312D01*
X0062799Y0100911D02*
X0027906Y0100911D01*
X0027502Y0100507D02*
X0028993Y0101998D01*
X0029800Y0103946D01*
X0029800Y0106054D01*
X0028993Y0108002D01*
X0027502Y0109493D01*
X0026778Y0109793D01*
X0028502Y0110507D01*
X0029993Y0111998D01*
X0030800Y0113946D01*
X0030800Y0116054D01*
X0029993Y0118002D01*
X0028502Y0119493D01*
X0026778Y0120207D01*
X0027502Y0120507D01*
X0028993Y0121998D01*
X0029800Y0123946D01*
X0029800Y0126054D01*
X0028993Y0128002D01*
X0027502Y0129493D01*
X0026778Y0129793D01*
X0028502Y0130507D01*
X0029993Y0131998D01*
X0030800Y0133946D01*
X0030800Y0136054D01*
X0029993Y0138002D01*
X0028502Y0139493D01*
X0026778Y0140207D01*
X0027502Y0140507D01*
X0028993Y0141998D01*
X0029800Y0143946D01*
X0029800Y0146054D01*
X0028993Y0148002D01*
X0027502Y0149493D01*
X0026778Y0149793D01*
X0028502Y0150507D01*
X0029993Y0151998D01*
X0030800Y0153946D01*
X0030800Y0156054D01*
X0029993Y0158002D01*
X0028502Y0159493D01*
X0026778Y0160207D01*
X0027502Y0160507D01*
X0028993Y0161998D01*
X0029800Y0163946D01*
X0029800Y0166054D01*
X0028993Y0168002D01*
X0027502Y0169493D01*
X0027003Y0169700D01*
X0027689Y0169700D01*
X0052800Y0144589D01*
X0052800Y0121182D01*
X0052635Y0121114D01*
X0051461Y0119940D01*
X0050825Y0118405D01*
X0050825Y0111595D01*
X0051461Y0110060D01*
X0052635Y0108886D01*
X0054170Y0108250D01*
X0055830Y0108250D01*
X0057365Y0108886D01*
X0058539Y0110060D01*
X0059175Y0111595D01*
X0059175Y0118405D01*
X0058539Y0119940D01*
X0057365Y0121114D01*
X0057200Y0121182D01*
X0057200Y0146411D01*
X0030800Y0172811D01*
X0030800Y0179363D01*
X0029863Y0180300D01*
X0021137Y0180300D01*
X0020200Y0179363D01*
X0020200Y0170637D01*
X0021137Y0169700D01*
X0021997Y0169700D01*
X0021498Y0169493D01*
X0020007Y0168002D01*
X0019200Y0166054D01*
X0019200Y0163946D01*
X0020007Y0161998D01*
X0021498Y0160507D01*
X0023222Y0159793D01*
X0022498Y0159493D01*
X0021007Y0158002D01*
X0020200Y0156054D01*
X0020200Y0153946D01*
X0021007Y0151998D01*
X0022498Y0150507D01*
X0023222Y0150207D01*
X0021498Y0149493D01*
X0020007Y0148002D01*
X0019200Y0146054D01*
X0019200Y0143946D01*
X0020007Y0141998D01*
X0021498Y0140507D01*
X0023222Y0139793D01*
X0022498Y0139493D01*
X0021007Y0138002D01*
X0020200Y0136054D01*
X0020200Y0133946D01*
X0021007Y0131998D01*
X0022498Y0130507D01*
X0023222Y0130207D01*
X0021498Y0129493D01*
X0020007Y0128002D01*
X0019200Y0126054D01*
X0019200Y0123946D01*
X0020007Y0121998D01*
X0021498Y0120507D01*
X0023222Y0119793D01*
X0022498Y0119493D01*
X0021007Y0118002D01*
X0020200Y0116054D01*
X0020200Y0113946D01*
X0021007Y0111998D01*
X0022498Y0110507D01*
X0023222Y0110207D01*
X0021498Y0109493D01*
X0020007Y0108002D01*
X0019200Y0106054D01*
X0019200Y0103946D01*
X0020007Y0101998D01*
X0021498Y0100507D01*
X0023446Y0099700D01*
X0025554Y0099700D01*
X0027502Y0100507D01*
X0029205Y0102509D02*
X0079398Y0102509D01*
X0080996Y0104108D02*
X0029800Y0104108D01*
X0029800Y0105706D02*
X0082595Y0105706D01*
X0082800Y0107305D02*
X0029282Y0107305D01*
X0028092Y0108903D02*
X0052618Y0108903D01*
X0051278Y0110502D02*
X0028490Y0110502D01*
X0030036Y0112100D02*
X0050825Y0112100D01*
X0050825Y0113699D02*
X0030698Y0113699D01*
X0030800Y0115297D02*
X0050825Y0115297D01*
X0050825Y0116896D02*
X0030451Y0116896D01*
X0029501Y0118494D02*
X0050862Y0118494D01*
X0051614Y0120093D02*
X0027054Y0120093D01*
X0028687Y0121691D02*
X0052800Y0121691D01*
X0052800Y0123290D02*
X0029528Y0123290D01*
X0029800Y0124888D02*
X0052800Y0124888D01*
X0052800Y0126487D02*
X0029621Y0126487D01*
X0028910Y0128085D02*
X0052800Y0128085D01*
X0052800Y0129684D02*
X0027042Y0129684D01*
X0029278Y0131282D02*
X0052800Y0131282D01*
X0052800Y0132881D02*
X0030359Y0132881D01*
X0030800Y0134479D02*
X0052800Y0134479D01*
X0052800Y0136078D02*
X0030790Y0136078D01*
X0030128Y0137676D02*
X0052800Y0137676D01*
X0052800Y0139275D02*
X0028720Y0139275D01*
X0027869Y0140873D02*
X0052800Y0140873D01*
X0052800Y0142472D02*
X0029190Y0142472D01*
X0029800Y0144070D02*
X0052800Y0144070D01*
X0051720Y0145669D02*
X0029800Y0145669D01*
X0029297Y0147268D02*
X0050121Y0147268D01*
X0048523Y0148866D02*
X0028129Y0148866D01*
X0028400Y0150465D02*
X0046924Y0150465D01*
X0045326Y0152063D02*
X0030020Y0152063D01*
X0030682Y0153662D02*
X0043727Y0153662D01*
X0042129Y0155260D02*
X0030800Y0155260D01*
X0030467Y0156859D02*
X0040530Y0156859D01*
X0038932Y0158457D02*
X0029538Y0158457D01*
X0027144Y0160056D02*
X0037333Y0160056D01*
X0035735Y0161654D02*
X0028649Y0161654D01*
X0029513Y0163253D02*
X0034136Y0163253D01*
X0032538Y0164851D02*
X0029800Y0164851D01*
X0029636Y0166450D02*
X0030939Y0166450D01*
X0029341Y0168048D02*
X0028947Y0168048D01*
X0027742Y0169647D02*
X0027131Y0169647D01*
X0030800Y0172844D02*
X0050825Y0172844D01*
X0050825Y0171595D02*
X0051461Y0170060D01*
X0052635Y0168886D01*
X0054170Y0168250D01*
X0055830Y0168250D01*
X0057365Y0168886D01*
X0058539Y0170060D01*
X0059175Y0171595D01*
X0059175Y0178405D01*
X0058539Y0179940D01*
X0057365Y0181114D01*
X0055830Y0181750D01*
X0054170Y0181750D01*
X0052635Y0181114D01*
X0051461Y0179940D01*
X0050825Y0178405D01*
X0050825Y0171595D01*
X0050970Y0171245D02*
X0032366Y0171245D01*
X0033965Y0169647D02*
X0051874Y0169647D01*
X0058126Y0169647D02*
X0061874Y0169647D01*
X0061461Y0170060D02*
X0062635Y0168886D01*
X0064170Y0168250D01*
X0065830Y0168250D01*
X0067365Y0168886D01*
X0068539Y0170060D01*
X0069175Y0171595D01*
X0069175Y0178405D01*
X0068539Y0179940D01*
X0067365Y0181114D01*
X0065830Y0181750D01*
X0064170Y0181750D01*
X0062635Y0181114D01*
X0061461Y0179940D01*
X0060825Y0178405D01*
X0060825Y0171595D01*
X0061461Y0170060D01*
X0060970Y0171245D02*
X0059030Y0171245D01*
X0059175Y0172844D02*
X0060825Y0172844D01*
X0060825Y0174442D02*
X0059175Y0174442D01*
X0059175Y0176041D02*
X0060825Y0176041D01*
X0060825Y0177639D02*
X0059175Y0177639D01*
X0058830Y0179238D02*
X0061170Y0179238D01*
X0062357Y0180836D02*
X0057643Y0180836D01*
X0052357Y0180836D02*
X0009800Y0180836D01*
X0009800Y0179238D02*
X0020200Y0179238D01*
X0020200Y0177639D02*
X0009800Y0177639D01*
X0009800Y0176041D02*
X0020200Y0176041D01*
X0020200Y0174442D02*
X0009800Y0174442D01*
X0009800Y0172844D02*
X0020200Y0172844D01*
X0020200Y0171245D02*
X0009800Y0171245D01*
X0009800Y0169647D02*
X0021869Y0169647D01*
X0020053Y0168048D02*
X0009800Y0168048D01*
X0009800Y0166450D02*
X0019364Y0166450D01*
X0019200Y0164851D02*
X0009800Y0164851D01*
X0009800Y0163253D02*
X0019487Y0163253D01*
X0020351Y0161654D02*
X0009800Y0161654D01*
X0009800Y0160056D02*
X0022587Y0160056D01*
X0021462Y0158457D02*
X0009800Y0158457D01*
X0009800Y0156859D02*
X0020533Y0156859D01*
X0020200Y0155260D02*
X0009800Y0155260D01*
X0009800Y0153662D02*
X0020318Y0153662D01*
X0020980Y0152063D02*
X0009800Y0152063D01*
X0009800Y0150465D02*
X0022600Y0150465D01*
X0020871Y0148866D02*
X0009800Y0148866D01*
X0009800Y0147268D02*
X0019703Y0147268D01*
X0019200Y0145669D02*
X0009800Y0145669D01*
X0009800Y0144070D02*
X0019200Y0144070D01*
X0019810Y0142472D02*
X0009800Y0142472D01*
X0009800Y0140873D02*
X0021131Y0140873D01*
X0022280Y0139275D02*
X0009800Y0139275D01*
X0009800Y0137676D02*
X0020872Y0137676D01*
X0020210Y0136078D02*
X0009800Y0136078D01*
X0009800Y0134479D02*
X0020200Y0134479D01*
X0020641Y0132881D02*
X0009800Y0132881D01*
X0009800Y0131282D02*
X0021722Y0131282D01*
X0021958Y0129684D02*
X0009800Y0129684D01*
X0009800Y0128085D02*
X0020090Y0128085D01*
X0019379Y0126487D02*
X0009800Y0126487D01*
X0009800Y0124888D02*
X0019200Y0124888D01*
X0019472Y0123290D02*
X0009800Y0123290D01*
X0009800Y0121691D02*
X0020313Y0121691D01*
X0022497Y0120093D02*
X0009800Y0120093D01*
X0009800Y0118494D02*
X0021499Y0118494D01*
X0020549Y0116896D02*
X0009800Y0116896D01*
X0009800Y0115297D02*
X0020200Y0115297D01*
X0020302Y0113699D02*
X0009800Y0113699D01*
X0009800Y0112100D02*
X0020964Y0112100D01*
X0022510Y0110502D02*
X0009800Y0110502D01*
X0009800Y0108903D02*
X0020908Y0108903D01*
X0019718Y0107305D02*
X0009800Y0107305D01*
X0009800Y0105706D02*
X0019200Y0105706D01*
X0019200Y0104108D02*
X0009800Y0104108D01*
X0009800Y0102509D02*
X0019795Y0102509D01*
X0021094Y0100911D02*
X0009800Y0100911D01*
X0052200Y0083327D02*
X0070216Y0083327D01*
X0071814Y0084926D02*
X0053037Y0084926D01*
X0054635Y0086524D02*
X0073413Y0086524D01*
X0075011Y0088123D02*
X0056234Y0088123D01*
X0057832Y0089721D02*
X0076610Y0089721D01*
X0078208Y0091320D02*
X0059431Y0091320D01*
X0061029Y0092918D02*
X0079807Y0092918D01*
X0081405Y0094517D02*
X0062628Y0094517D01*
X0064226Y0096115D02*
X0083004Y0096115D01*
X0084602Y0097714D02*
X0065825Y0097714D01*
X0065830Y0108250D02*
X0067365Y0108886D01*
X0068539Y0110060D01*
X0069175Y0111595D01*
X0069175Y0118405D01*
X0068539Y0119940D01*
X0067365Y0121114D01*
X0065830Y0121750D01*
X0064170Y0121750D01*
X0062635Y0121114D01*
X0061461Y0119940D01*
X0060825Y0118405D01*
X0060825Y0111595D01*
X0061461Y0110060D01*
X0062635Y0108886D01*
X0064170Y0108250D01*
X0065830Y0108250D01*
X0067382Y0108903D02*
X0072618Y0108903D01*
X0072635Y0108886D02*
X0074170Y0108250D01*
X0075830Y0108250D01*
X0077365Y0108886D01*
X0078539Y0110060D01*
X0079175Y0111595D01*
X0079175Y0118405D01*
X0078539Y0119940D01*
X0077365Y0121114D01*
X0075830Y0121750D01*
X0074170Y0121750D01*
X0072635Y0121114D01*
X0071461Y0119940D01*
X0070825Y0118405D01*
X0070825Y0111595D01*
X0071461Y0110060D01*
X0072635Y0108886D01*
X0071278Y0110502D02*
X0068722Y0110502D01*
X0069175Y0112100D02*
X0070825Y0112100D01*
X0070825Y0113699D02*
X0069175Y0113699D01*
X0069175Y0115297D02*
X0070825Y0115297D01*
X0070825Y0116896D02*
X0069175Y0116896D01*
X0069138Y0118494D02*
X0070862Y0118494D01*
X0071614Y0120093D02*
X0068386Y0120093D01*
X0065971Y0121691D02*
X0074029Y0121691D01*
X0075971Y0121691D02*
X0082800Y0121691D01*
X0082800Y0123290D02*
X0057200Y0123290D01*
X0057200Y0124888D02*
X0082800Y0124888D01*
X0082800Y0126487D02*
X0057200Y0126487D01*
X0057200Y0128085D02*
X0082800Y0128085D01*
X0082800Y0129684D02*
X0057200Y0129684D01*
X0057200Y0131282D02*
X0082800Y0131282D01*
X0082800Y0132881D02*
X0057200Y0132881D01*
X0057200Y0134479D02*
X0081981Y0134479D01*
X0081002Y0136078D02*
X0057200Y0136078D01*
X0057200Y0137676D02*
X0080800Y0137676D01*
X0080800Y0139275D02*
X0057200Y0139275D01*
X0057200Y0140873D02*
X0080800Y0140873D01*
X0080800Y0142472D02*
X0057200Y0142472D01*
X0057200Y0144070D02*
X0081063Y0144070D01*
X0082129Y0145669D02*
X0057200Y0145669D01*
X0056344Y0147268D02*
X0393200Y0147268D01*
X0393200Y0148866D02*
X0054745Y0148866D01*
X0053147Y0150465D02*
X0393200Y0150465D01*
X0393200Y0152063D02*
X0051548Y0152063D01*
X0049950Y0153662D02*
X0393200Y0153662D01*
X0393200Y0155260D02*
X0048351Y0155260D01*
X0046753Y0156859D02*
X0393200Y0156859D01*
X0393200Y0158457D02*
X0045154Y0158457D01*
X0043556Y0160056D02*
X0393200Y0160056D01*
X0393200Y0161654D02*
X0041957Y0161654D01*
X0040359Y0163253D02*
X0393200Y0163253D01*
X0393200Y0164851D02*
X0038760Y0164851D01*
X0037162Y0166450D02*
X0393200Y0166450D01*
X0393200Y0168048D02*
X0035563Y0168048D01*
X0030800Y0174442D02*
X0050825Y0174442D01*
X0050825Y0176041D02*
X0030800Y0176041D01*
X0030800Y0177639D02*
X0050825Y0177639D01*
X0051170Y0179238D02*
X0030800Y0179238D01*
X0009800Y0182435D02*
X0072300Y0182435D01*
X0072300Y0184033D02*
X0009800Y0184033D01*
X0009800Y0185632D02*
X0072300Y0185632D01*
X0072300Y0187230D02*
X0009800Y0187230D01*
X0009800Y0188829D02*
X0072300Y0188829D01*
X0072300Y0190427D02*
X0009800Y0190427D01*
X0009800Y0192026D02*
X0072300Y0192026D01*
X0072300Y0193624D02*
X0009800Y0193624D01*
X0009800Y0195223D02*
X0072300Y0195223D01*
X0072300Y0196821D02*
X0009800Y0196821D01*
X0009800Y0198420D02*
X0072300Y0198420D01*
X0072300Y0200018D02*
X0009800Y0200018D01*
X0009800Y0201617D02*
X0072300Y0201617D01*
X0072300Y0203215D02*
X0009800Y0203215D01*
X0009800Y0204814D02*
X0072300Y0204814D01*
X0072300Y0205175D02*
X0072300Y0180779D01*
X0071461Y0179940D01*
X0070825Y0178405D01*
X0070825Y0171595D01*
X0071461Y0170060D01*
X0072635Y0168886D01*
X0074170Y0168250D01*
X0075830Y0168250D01*
X0077365Y0168886D01*
X0078539Y0170060D01*
X0079175Y0171595D01*
X0079175Y0178405D01*
X0078539Y0179940D01*
X0077365Y0181114D01*
X0076700Y0181389D01*
X0076700Y0205175D01*
X0077502Y0205507D01*
X0078993Y0206998D01*
X0079500Y0208222D01*
X0080007Y0206998D01*
X0081498Y0205507D01*
X0082300Y0205175D01*
X0082300Y0180779D01*
X0081461Y0179940D01*
X0080825Y0178405D01*
X0080825Y0171595D01*
X0081461Y0170060D01*
X0082635Y0168886D01*
X0084170Y0168250D01*
X0085830Y0168250D01*
X0087365Y0168886D01*
X0088539Y0170060D01*
X0089175Y0171595D01*
X0089175Y0178405D01*
X0088539Y0179940D01*
X0087365Y0181114D01*
X0086700Y0181389D01*
X0086700Y0205175D01*
X0087502Y0205507D01*
X0088993Y0206998D01*
X0089800Y0208946D01*
X0089800Y0211054D01*
X0088993Y0213002D01*
X0087502Y0214493D01*
X0086996Y0214703D01*
X0087611Y0214903D01*
X0088383Y0215296D01*
X0089083Y0215805D01*
X0089695Y0216417D01*
X0090204Y0217117D01*
X0090597Y0217889D01*
X0090865Y0218712D01*
X0091000Y0219567D01*
X0091000Y0219800D01*
X0085700Y0219800D01*
X0085700Y0220200D01*
X0091000Y0220200D01*
X0091000Y0220433D01*
X0090865Y0221288D01*
X0090597Y0222111D01*
X0090204Y0222883D01*
X0089695Y0223583D01*
X0089083Y0224195D01*
X0088383Y0224704D01*
X0087611Y0225097D01*
X0086996Y0225297D01*
X0087502Y0225507D01*
X0088993Y0226998D01*
X0089800Y0228946D01*
X0089800Y0231054D01*
X0088993Y0233002D01*
X0087502Y0234493D01*
X0085554Y0235300D01*
X0083446Y0235300D01*
X0081498Y0234493D01*
X0080007Y0233002D01*
X0079500Y0231778D01*
X0078993Y0233002D01*
X0077502Y0234493D01*
X0075554Y0235300D01*
X0073446Y0235300D01*
X0071498Y0234493D01*
X0070007Y0233002D01*
X0069200Y0231054D01*
X0069200Y0228946D01*
X0070007Y0226998D01*
X0071498Y0225507D01*
X0072984Y0224891D01*
X0072617Y0224704D01*
X0071917Y0224195D01*
X0071305Y0223583D01*
X0070796Y0222883D01*
X0070403Y0222111D01*
X0070135Y0221288D01*
X0070000Y0220433D01*
X0070000Y0220200D01*
X0075300Y0220200D01*
X0075300Y0219800D01*
X0070000Y0219800D01*
X0070000Y0219567D01*
X0070135Y0218712D01*
X0070403Y0217889D01*
X0070796Y0217117D01*
X0071305Y0216417D01*
X0071917Y0215805D01*
X0072617Y0215296D01*
X0072984Y0215109D01*
X0071498Y0214493D01*
X0070007Y0213002D01*
X0069200Y0211054D01*
X0069200Y0208946D01*
X0070007Y0206998D01*
X0071498Y0205507D01*
X0072300Y0205175D01*
X0070592Y0206412D02*
X0009800Y0206412D01*
X0009800Y0208011D02*
X0069587Y0208011D01*
X0069200Y0209609D02*
X0009800Y0209609D01*
X0009800Y0211208D02*
X0069264Y0211208D01*
X0069926Y0212806D02*
X0009800Y0212806D01*
X0009800Y0214405D02*
X0071410Y0214405D01*
X0071718Y0216003D02*
X0009800Y0216003D01*
X0009800Y0217602D02*
X0070549Y0217602D01*
X0070058Y0219201D02*
X0009800Y0219201D01*
X0009800Y0220799D02*
X0070058Y0220799D01*
X0070549Y0222398D02*
X0009800Y0222398D01*
X0009800Y0223996D02*
X0071718Y0223996D01*
X0071410Y0225595D02*
X0009800Y0225595D01*
X0009800Y0227193D02*
X0069926Y0227193D01*
X0069264Y0228792D02*
X0009800Y0228792D01*
X0009800Y0230390D02*
X0069200Y0230390D01*
X0069587Y0231989D02*
X0009800Y0231989D01*
X0009800Y0233587D02*
X0070592Y0233587D01*
X0073170Y0235186D02*
X0009800Y0235186D01*
X0009800Y0236784D02*
X0174500Y0236784D01*
X0174500Y0235700D02*
X0179800Y0235700D01*
X0179800Y0241000D01*
X0176063Y0241000D01*
X0175605Y0240877D01*
X0175195Y0240640D01*
X0174860Y0240305D01*
X0174623Y0239895D01*
X0174500Y0239437D01*
X0174500Y0235700D01*
X0174500Y0235300D02*
X0174500Y0231563D01*
X0174623Y0231105D01*
X0174860Y0230695D01*
X0175195Y0230360D01*
X0175605Y0230123D01*
X0176063Y0230000D01*
X0179800Y0230000D01*
X0179800Y0235300D01*
X0180200Y0235300D01*
X0180200Y0230000D01*
X0183937Y0230000D01*
X0184395Y0230123D01*
X0184805Y0230360D01*
X0185140Y0230695D01*
X0185377Y0231105D01*
X0185492Y0231534D01*
X0185507Y0231498D01*
X0186998Y0230007D01*
X0188946Y0229200D01*
X0191054Y0229200D01*
X0193002Y0230007D01*
X0194493Y0231498D01*
X0195207Y0233222D01*
X0195507Y0232498D01*
X0196998Y0231007D01*
X0197633Y0230744D01*
X0194089Y0227200D01*
X0154089Y0227200D01*
X0152800Y0225911D01*
X0132800Y0205911D01*
X0132800Y0181182D01*
X0132635Y0181114D01*
X0131461Y0179940D01*
X0130825Y0178405D01*
X0130825Y0171595D01*
X0131461Y0170060D01*
X0132635Y0168886D01*
X0134170Y0168250D01*
X0135830Y0168250D01*
X0137365Y0168886D01*
X0138539Y0170060D01*
X0139175Y0171595D01*
X0139175Y0178405D01*
X0138539Y0179940D01*
X0137365Y0181114D01*
X0137200Y0181182D01*
X0137200Y0204089D01*
X0155911Y0222800D01*
X0195911Y0222800D01*
X0200911Y0227800D01*
X0202200Y0229089D01*
X0202200Y0230675D01*
X0203002Y0231007D01*
X0204493Y0232498D01*
X0204793Y0233222D01*
X0205507Y0231498D01*
X0206998Y0230007D01*
X0208946Y0229200D01*
X0211054Y0229200D01*
X0213002Y0230007D01*
X0214493Y0231498D01*
X0215109Y0232984D01*
X0215296Y0232617D01*
X0215805Y0231917D01*
X0216417Y0231305D01*
X0217117Y0230796D01*
X0217889Y0230403D01*
X0218712Y0230135D01*
X0219567Y0230000D01*
X0219800Y0230000D01*
X0219800Y0235300D01*
X0220200Y0235300D01*
X0220200Y0230000D01*
X0220433Y0230000D01*
X0221288Y0230135D01*
X0222111Y0230403D01*
X0222883Y0230796D01*
X0223583Y0231305D01*
X0224195Y0231917D01*
X0224704Y0232617D01*
X0224891Y0232984D01*
X0225507Y0231498D01*
X0226998Y0230007D01*
X0227800Y0229675D01*
X0227800Y0219825D01*
X0226998Y0219493D01*
X0225507Y0218002D01*
X0224700Y0216054D01*
X0224700Y0213946D01*
X0225507Y0211998D01*
X0226998Y0210507D01*
X0228946Y0209700D01*
X0231054Y0209700D01*
X0233002Y0210507D01*
X0234493Y0211998D01*
X0235300Y0213946D01*
X0235300Y0216054D01*
X0234493Y0218002D01*
X0233002Y0219493D01*
X0232200Y0219825D01*
X0232200Y0229675D01*
X0233002Y0230007D01*
X0234493Y0231498D01*
X0235109Y0232984D01*
X0235296Y0232617D01*
X0235805Y0231917D01*
X0236417Y0231305D01*
X0237117Y0230796D01*
X0237889Y0230403D01*
X0238712Y0230135D01*
X0239567Y0230000D01*
X0239800Y0230000D01*
X0239800Y0235300D01*
X0240200Y0235300D01*
X0240200Y0230000D01*
X0240433Y0230000D01*
X0241288Y0230135D01*
X0242111Y0230403D01*
X0242883Y0230796D01*
X0243583Y0231305D01*
X0244195Y0231917D01*
X0244704Y0232617D01*
X0244891Y0232984D01*
X0245507Y0231498D01*
X0246998Y0230007D01*
X0247800Y0229675D01*
X0247800Y0219825D01*
X0246998Y0219493D01*
X0245507Y0218002D01*
X0244700Y0216054D01*
X0244700Y0213946D01*
X0245507Y0211998D01*
X0246998Y0210507D01*
X0248946Y0209700D01*
X0251054Y0209700D01*
X0253002Y0210507D01*
X0254493Y0211998D01*
X0255300Y0213946D01*
X0255300Y0216054D01*
X0254493Y0218002D01*
X0253002Y0219493D01*
X0252200Y0219825D01*
X0252200Y0229675D01*
X0253002Y0230007D01*
X0254493Y0231498D01*
X0255300Y0233446D01*
X0255300Y0235554D01*
X0254493Y0237502D01*
X0253002Y0238993D01*
X0251054Y0239800D01*
X0248946Y0239800D01*
X0246998Y0238993D01*
X0245507Y0237502D01*
X0245297Y0236996D01*
X0245097Y0237611D01*
X0244704Y0238383D01*
X0246387Y0238383D01*
X0244704Y0238383D02*
X0244195Y0239083D01*
X0243583Y0239695D01*
X0242883Y0240204D01*
X0242111Y0240597D01*
X0241288Y0240865D01*
X0240433Y0241000D01*
X0240200Y0241000D01*
X0240200Y0235700D01*
X0239800Y0235700D01*
X0239800Y0241000D01*
X0239567Y0241000D01*
X0238712Y0240865D01*
X0237889Y0240597D01*
X0237117Y0240204D01*
X0236417Y0239695D01*
X0235805Y0239083D01*
X0235296Y0238383D01*
X0233613Y0238383D01*
X0233002Y0238993D02*
X0234493Y0237502D01*
X0234703Y0236996D01*
X0234903Y0237611D01*
X0235296Y0238383D01*
X0236811Y0239981D02*
X0223189Y0239981D01*
X0222883Y0240204D02*
X0222111Y0240597D01*
X0221288Y0240865D01*
X0220433Y0241000D01*
X0220200Y0241000D01*
X0220200Y0235700D01*
X0219800Y0235700D01*
X0219800Y0241000D01*
X0219567Y0241000D01*
X0218712Y0240865D01*
X0217889Y0240597D01*
X0217117Y0240204D01*
X0216417Y0239695D01*
X0215805Y0239083D01*
X0215296Y0238383D01*
X0213613Y0238383D01*
X0213002Y0238993D02*
X0211054Y0239800D01*
X0208946Y0239800D01*
X0206998Y0238993D01*
X0205507Y0237502D01*
X0205207Y0236778D01*
X0204493Y0238502D01*
X0203002Y0239993D01*
X0201054Y0240800D01*
X0198946Y0240800D01*
X0196998Y0239993D01*
X0195507Y0238502D01*
X0194793Y0236778D01*
X0194493Y0237502D01*
X0193002Y0238993D01*
X0191054Y0239800D01*
X0188946Y0239800D01*
X0186998Y0238993D01*
X0185507Y0237502D01*
X0185500Y0237486D01*
X0185500Y0239437D01*
X0185377Y0239895D01*
X0185140Y0240305D01*
X0184805Y0240640D01*
X0184395Y0240877D01*
X0183937Y0241000D01*
X0180200Y0241000D01*
X0180200Y0235700D01*
X0179800Y0235700D01*
X0179800Y0235300D01*
X0174500Y0235300D01*
X0174500Y0235186D02*
X0085830Y0235186D01*
X0083170Y0235186D02*
X0075830Y0235186D01*
X0078408Y0233587D02*
X0080592Y0233587D01*
X0079587Y0231989D02*
X0079413Y0231989D01*
X0088408Y0233587D02*
X0174500Y0233587D01*
X0174500Y0231989D02*
X0089413Y0231989D01*
X0089800Y0230390D02*
X0175164Y0230390D01*
X0179800Y0230390D02*
X0180200Y0230390D01*
X0180200Y0231989D02*
X0179800Y0231989D01*
X0179800Y0233587D02*
X0180200Y0233587D01*
X0180200Y0235186D02*
X0179800Y0235186D01*
X0179800Y0236784D02*
X0180200Y0236784D01*
X0180200Y0238383D02*
X0179800Y0238383D01*
X0179800Y0239981D02*
X0180200Y0239981D01*
X0185327Y0239981D02*
X0196986Y0239981D01*
X0195457Y0238383D02*
X0193613Y0238383D01*
X0194791Y0236784D02*
X0194795Y0236784D01*
X0194696Y0231989D02*
X0196016Y0231989D01*
X0197279Y0230390D02*
X0193385Y0230390D01*
X0195680Y0228792D02*
X0089736Y0228792D01*
X0089074Y0227193D02*
X0154082Y0227193D01*
X0152483Y0225595D02*
X0087590Y0225595D01*
X0089282Y0223996D02*
X0150885Y0223996D01*
X0149286Y0222398D02*
X0090451Y0222398D01*
X0090942Y0220799D02*
X0147688Y0220799D01*
X0146089Y0219201D02*
X0090942Y0219201D01*
X0090451Y0217602D02*
X0144491Y0217602D01*
X0142892Y0216003D02*
X0089282Y0216003D01*
X0087590Y0214405D02*
X0141294Y0214405D01*
X0139695Y0212806D02*
X0089074Y0212806D01*
X0089736Y0211208D02*
X0138097Y0211208D01*
X0136498Y0209609D02*
X0089800Y0209609D01*
X0089413Y0208011D02*
X0134900Y0208011D01*
X0133301Y0206412D02*
X0088408Y0206412D01*
X0086700Y0204814D02*
X0132800Y0204814D01*
X0132800Y0203215D02*
X0086700Y0203215D01*
X0086700Y0201617D02*
X0132800Y0201617D01*
X0132800Y0200018D02*
X0086700Y0200018D01*
X0086700Y0198420D02*
X0132800Y0198420D01*
X0132800Y0196821D02*
X0086700Y0196821D01*
X0086700Y0195223D02*
X0132800Y0195223D01*
X0132800Y0193624D02*
X0086700Y0193624D01*
X0086700Y0192026D02*
X0132800Y0192026D01*
X0132800Y0190427D02*
X0086700Y0190427D01*
X0086700Y0188829D02*
X0132800Y0188829D01*
X0132800Y0187230D02*
X0086700Y0187230D01*
X0086700Y0185632D02*
X0132800Y0185632D01*
X0132800Y0184033D02*
X0086700Y0184033D01*
X0086700Y0182435D02*
X0132800Y0182435D01*
X0132357Y0180836D02*
X0127643Y0180836D01*
X0127365Y0181114D02*
X0125830Y0181750D01*
X0124170Y0181750D01*
X0122635Y0181114D01*
X0121461Y0179940D01*
X0120825Y0178405D01*
X0120825Y0171595D01*
X0121461Y0170060D01*
X0122635Y0168886D01*
X0124170Y0168250D01*
X0125830Y0168250D01*
X0127365Y0168886D01*
X0128539Y0170060D01*
X0129175Y0171595D01*
X0129175Y0178405D01*
X0128539Y0179940D01*
X0127365Y0181114D01*
X0128830Y0179238D02*
X0131170Y0179238D01*
X0130825Y0177639D02*
X0129175Y0177639D01*
X0129175Y0176041D02*
X0130825Y0176041D01*
X0130825Y0174442D02*
X0129175Y0174442D01*
X0129175Y0172844D02*
X0130825Y0172844D01*
X0130970Y0171245D02*
X0129030Y0171245D01*
X0128126Y0169647D02*
X0131874Y0169647D01*
X0138126Y0169647D02*
X0141874Y0169647D01*
X0141461Y0170060D02*
X0142635Y0168886D01*
X0144170Y0168250D01*
X0145830Y0168250D01*
X0147365Y0168886D01*
X0148539Y0170060D01*
X0149175Y0171595D01*
X0149175Y0178405D01*
X0148539Y0179940D01*
X0147365Y0181114D01*
X0145830Y0181750D01*
X0144170Y0181750D01*
X0142635Y0181114D01*
X0141461Y0179940D01*
X0140825Y0178405D01*
X0140825Y0171595D01*
X0141461Y0170060D01*
X0140970Y0171245D02*
X0139030Y0171245D01*
X0139175Y0172844D02*
X0140825Y0172844D01*
X0140825Y0174442D02*
X0139175Y0174442D01*
X0139175Y0176041D02*
X0140825Y0176041D01*
X0140825Y0177639D02*
X0139175Y0177639D01*
X0138830Y0179238D02*
X0141170Y0179238D01*
X0142357Y0180836D02*
X0137643Y0180836D01*
X0137200Y0182435D02*
X0393200Y0182435D01*
X0393200Y0184033D02*
X0137200Y0184033D01*
X0137200Y0185632D02*
X0393200Y0185632D01*
X0393200Y0187230D02*
X0137200Y0187230D01*
X0137200Y0188829D02*
X0393200Y0188829D01*
X0393200Y0190427D02*
X0137200Y0190427D01*
X0137200Y0192026D02*
X0393200Y0192026D01*
X0393200Y0193624D02*
X0137200Y0193624D01*
X0137200Y0195223D02*
X0393200Y0195223D01*
X0393200Y0196821D02*
X0137200Y0196821D01*
X0137200Y0198420D02*
X0393200Y0198420D01*
X0393200Y0200018D02*
X0137200Y0200018D01*
X0137200Y0201617D02*
X0393200Y0201617D01*
X0393200Y0203215D02*
X0137200Y0203215D01*
X0137925Y0204814D02*
X0393200Y0204814D01*
X0393200Y0206412D02*
X0139524Y0206412D01*
X0141122Y0208011D02*
X0393200Y0208011D01*
X0393200Y0209609D02*
X0142721Y0209609D01*
X0144319Y0211208D02*
X0226297Y0211208D01*
X0225172Y0212806D02*
X0145918Y0212806D01*
X0147516Y0214405D02*
X0224700Y0214405D01*
X0224700Y0216003D02*
X0149115Y0216003D01*
X0150713Y0217602D02*
X0225341Y0217602D01*
X0226705Y0219201D02*
X0152312Y0219201D01*
X0153910Y0220799D02*
X0227800Y0220799D01*
X0227800Y0222398D02*
X0155509Y0222398D01*
X0174500Y0238383D02*
X0009800Y0238383D01*
X0009800Y0239981D02*
X0174673Y0239981D01*
X0185500Y0238383D02*
X0186387Y0238383D01*
X0186615Y0230390D02*
X0184836Y0230390D01*
X0197107Y0223996D02*
X0227800Y0223996D01*
X0227800Y0225595D02*
X0198706Y0225595D01*
X0200304Y0227193D02*
X0227800Y0227193D01*
X0227800Y0228792D02*
X0201903Y0228792D01*
X0202200Y0230390D02*
X0206615Y0230390D01*
X0205304Y0231989D02*
X0203984Y0231989D01*
X0205205Y0236784D02*
X0205209Y0236784D01*
X0204543Y0238383D02*
X0206387Y0238383D01*
X0203014Y0239981D02*
X0216811Y0239981D01*
X0215296Y0238383D02*
X0214903Y0237611D01*
X0214703Y0236996D01*
X0214493Y0237502D01*
X0213002Y0238993D01*
X0219800Y0238383D02*
X0220200Y0238383D01*
X0220200Y0239981D02*
X0219800Y0239981D01*
X0222883Y0240204D02*
X0223583Y0239695D01*
X0224195Y0239083D01*
X0224704Y0238383D01*
X0226387Y0238383D01*
X0226998Y0238993D02*
X0225507Y0237502D01*
X0225297Y0236996D01*
X0225097Y0237611D01*
X0224704Y0238383D01*
X0226998Y0238993D02*
X0228946Y0239800D01*
X0231054Y0239800D01*
X0233002Y0238993D01*
X0239800Y0238383D02*
X0240200Y0238383D01*
X0240200Y0239981D02*
X0239800Y0239981D01*
X0239800Y0236784D02*
X0240200Y0236784D01*
X0240200Y0235186D02*
X0239800Y0235186D01*
X0239800Y0233587D02*
X0240200Y0233587D01*
X0240200Y0231989D02*
X0239800Y0231989D01*
X0239800Y0230390D02*
X0240200Y0230390D01*
X0242072Y0230390D02*
X0246615Y0230390D01*
X0247800Y0228792D02*
X0232200Y0228792D01*
X0232200Y0227193D02*
X0247800Y0227193D01*
X0247800Y0225595D02*
X0232200Y0225595D01*
X0232200Y0223996D02*
X0247800Y0223996D01*
X0247800Y0222398D02*
X0232200Y0222398D01*
X0232200Y0220799D02*
X0247800Y0220799D01*
X0246705Y0219201D02*
X0233295Y0219201D01*
X0234659Y0217602D02*
X0245341Y0217602D01*
X0244700Y0216003D02*
X0235300Y0216003D01*
X0235300Y0214405D02*
X0244700Y0214405D01*
X0245172Y0212806D02*
X0234828Y0212806D01*
X0233703Y0211208D02*
X0246297Y0211208D01*
X0253703Y0211208D02*
X0393200Y0211208D01*
X0393200Y0212806D02*
X0254828Y0212806D01*
X0255300Y0214405D02*
X0393200Y0214405D01*
X0393200Y0216003D02*
X0255300Y0216003D01*
X0254659Y0217602D02*
X0393200Y0217602D01*
X0393200Y0219201D02*
X0253295Y0219201D01*
X0252200Y0220799D02*
X0393200Y0220799D01*
X0393200Y0222398D02*
X0252200Y0222398D01*
X0252200Y0223996D02*
X0393200Y0223996D01*
X0393200Y0225595D02*
X0252200Y0225595D01*
X0252200Y0227193D02*
X0393200Y0227193D01*
X0393200Y0228792D02*
X0252200Y0228792D01*
X0253385Y0230390D02*
X0393200Y0230390D01*
X0393200Y0231989D02*
X0254696Y0231989D01*
X0255300Y0233587D02*
X0393200Y0233587D01*
X0393200Y0235186D02*
X0255300Y0235186D01*
X0254791Y0236784D02*
X0393200Y0236784D01*
X0393200Y0238383D02*
X0253613Y0238383D01*
X0243189Y0239981D02*
X0393200Y0239981D01*
X0393200Y0241580D02*
X0009800Y0241580D01*
X0009800Y0243178D02*
X0393200Y0243178D01*
X0393200Y0244777D02*
X0383909Y0244777D01*
X0382892Y0244190D02*
X0385782Y0245858D01*
X0388142Y0248218D01*
X0389810Y0251108D01*
X0390674Y0254331D01*
X0390674Y0257669D01*
X0389810Y0260892D01*
X0388142Y0263782D01*
X0385782Y0266142D01*
X0382892Y0267810D01*
X0379669Y0268674D01*
X0376331Y0268674D01*
X0373108Y0267810D01*
X0370218Y0266142D01*
X0367858Y0263782D01*
X0366190Y0260892D01*
X0365326Y0257669D01*
X0365326Y0254331D01*
X0366190Y0251108D01*
X0367858Y0248218D01*
X0370218Y0245858D01*
X0373108Y0244190D01*
X0376331Y0243326D01*
X0379669Y0243326D01*
X0382892Y0244190D01*
X0386299Y0246375D02*
X0393200Y0246375D01*
X0393200Y0247974D02*
X0387897Y0247974D01*
X0388924Y0249572D02*
X0393200Y0249572D01*
X0393200Y0251171D02*
X0389827Y0251171D01*
X0390255Y0252769D02*
X0393200Y0252769D01*
X0393200Y0254368D02*
X0390674Y0254368D01*
X0390674Y0255966D02*
X0393200Y0255966D01*
X0393200Y0257565D02*
X0390674Y0257565D01*
X0390273Y0259163D02*
X0393200Y0259163D01*
X0393200Y0260762D02*
X0389845Y0260762D01*
X0388963Y0262360D02*
X0393200Y0262360D01*
X0393200Y0263959D02*
X0387965Y0263959D01*
X0386366Y0265557D02*
X0393186Y0265557D01*
X0392875Y0267156D02*
X0384026Y0267156D01*
X0390257Y0270353D02*
X0012510Y0270353D01*
X0010764Y0268754D02*
X0392086Y0268754D01*
X0371974Y0267156D02*
X0031026Y0267156D01*
X0029892Y0267810D02*
X0032782Y0266142D01*
X0035142Y0263782D01*
X0036810Y0260892D01*
X0037674Y0257669D01*
X0037674Y0254331D01*
X0036810Y0251108D01*
X0035142Y0248218D01*
X0032782Y0245858D01*
X0029892Y0244190D01*
X0026669Y0243326D01*
X0023331Y0243326D01*
X0020108Y0244190D01*
X0017218Y0245858D01*
X0014858Y0248218D01*
X0013190Y0251108D01*
X0012326Y0254331D01*
X0012326Y0257669D01*
X0013190Y0260892D01*
X0014858Y0263782D01*
X0017218Y0266142D01*
X0020108Y0267810D01*
X0023331Y0268674D01*
X0026669Y0268674D01*
X0029892Y0267810D01*
X0033366Y0265557D02*
X0369634Y0265557D01*
X0368035Y0263959D02*
X0034965Y0263959D01*
X0035963Y0262360D02*
X0367037Y0262360D01*
X0366155Y0260762D02*
X0036845Y0260762D01*
X0037273Y0259163D02*
X0365727Y0259163D01*
X0365326Y0257565D02*
X0037674Y0257565D01*
X0037674Y0255966D02*
X0365326Y0255966D01*
X0365326Y0254368D02*
X0037674Y0254368D01*
X0037255Y0252769D02*
X0365745Y0252769D01*
X0366173Y0251171D02*
X0036827Y0251171D01*
X0035924Y0249572D02*
X0367076Y0249572D01*
X0368102Y0247974D02*
X0034897Y0247974D01*
X0033299Y0246375D02*
X0369701Y0246375D01*
X0372091Y0244777D02*
X0030909Y0244777D01*
X0019091Y0244777D02*
X0009800Y0244777D01*
X0009800Y0246375D02*
X0016701Y0246375D01*
X0015102Y0247974D02*
X0009800Y0247974D01*
X0009800Y0249572D02*
X0014076Y0249572D01*
X0013173Y0251171D02*
X0009800Y0251171D01*
X0009800Y0252769D02*
X0012745Y0252769D01*
X0012326Y0254368D02*
X0009800Y0254368D01*
X0009800Y0255966D02*
X0012326Y0255966D01*
X0012326Y0257565D02*
X0009800Y0257565D01*
X0009800Y0259163D02*
X0012727Y0259163D01*
X0013155Y0260762D02*
X0009800Y0260762D01*
X0009800Y0262360D02*
X0014037Y0262360D01*
X0015035Y0263959D02*
X0009800Y0263959D01*
X0009800Y0265557D02*
X0016634Y0265557D01*
X0018974Y0267156D02*
X0010041Y0267156D01*
X0075700Y0220200D02*
X0085300Y0220200D01*
X0085300Y0219800D01*
X0080000Y0219800D01*
X0075700Y0219800D01*
X0075700Y0220200D01*
X0079413Y0208011D02*
X0079587Y0208011D01*
X0080592Y0206412D02*
X0078408Y0206412D01*
X0076700Y0204814D02*
X0082300Y0204814D01*
X0082300Y0203215D02*
X0076700Y0203215D01*
X0076700Y0201617D02*
X0082300Y0201617D01*
X0082300Y0200018D02*
X0076700Y0200018D01*
X0076700Y0198420D02*
X0082300Y0198420D01*
X0082300Y0196821D02*
X0076700Y0196821D01*
X0076700Y0195223D02*
X0082300Y0195223D01*
X0082300Y0193624D02*
X0076700Y0193624D01*
X0076700Y0192026D02*
X0082300Y0192026D01*
X0082300Y0190427D02*
X0076700Y0190427D01*
X0076700Y0188829D02*
X0082300Y0188829D01*
X0082300Y0187230D02*
X0076700Y0187230D01*
X0076700Y0185632D02*
X0082300Y0185632D01*
X0082300Y0184033D02*
X0076700Y0184033D01*
X0076700Y0182435D02*
X0082300Y0182435D01*
X0082300Y0180836D02*
X0077643Y0180836D01*
X0078830Y0179238D02*
X0081170Y0179238D01*
X0080825Y0177639D02*
X0079175Y0177639D01*
X0079175Y0176041D02*
X0080825Y0176041D01*
X0080825Y0174442D02*
X0079175Y0174442D01*
X0079175Y0172844D02*
X0080825Y0172844D01*
X0080970Y0171245D02*
X0079030Y0171245D01*
X0078126Y0169647D02*
X0081874Y0169647D01*
X0088126Y0169647D02*
X0091874Y0169647D01*
X0091461Y0170060D02*
X0092635Y0168886D01*
X0094170Y0168250D01*
X0095830Y0168250D01*
X0097365Y0168886D01*
X0098539Y0170060D01*
X0099175Y0171595D01*
X0099175Y0178405D01*
X0098539Y0179940D01*
X0097365Y0181114D01*
X0095830Y0181750D01*
X0094170Y0181750D01*
X0092635Y0181114D01*
X0091461Y0179940D01*
X0090825Y0178405D01*
X0090825Y0171595D01*
X0091461Y0170060D01*
X0090970Y0171245D02*
X0089030Y0171245D01*
X0089175Y0172844D02*
X0090825Y0172844D01*
X0090825Y0174442D02*
X0089175Y0174442D01*
X0089175Y0176041D02*
X0090825Y0176041D01*
X0090825Y0177639D02*
X0089175Y0177639D01*
X0088830Y0179238D02*
X0091170Y0179238D01*
X0092357Y0180836D02*
X0087643Y0180836D01*
X0097643Y0180836D02*
X0102357Y0180836D01*
X0102635Y0181114D02*
X0101461Y0179940D01*
X0100825Y0178405D01*
X0100825Y0171595D01*
X0101461Y0170060D01*
X0102635Y0168886D01*
X0104170Y0168250D01*
X0105830Y0168250D01*
X0107365Y0168886D01*
X0108539Y0170060D01*
X0109175Y0171595D01*
X0109175Y0178405D01*
X0108539Y0179940D01*
X0107365Y0181114D01*
X0105830Y0181750D01*
X0104170Y0181750D01*
X0102635Y0181114D01*
X0101170Y0179238D02*
X0098830Y0179238D01*
X0099175Y0177639D02*
X0100825Y0177639D01*
X0100825Y0176041D02*
X0099175Y0176041D01*
X0099175Y0174442D02*
X0100825Y0174442D01*
X0100825Y0172844D02*
X0099175Y0172844D01*
X0099030Y0171245D02*
X0100970Y0171245D01*
X0101874Y0169647D02*
X0098126Y0169647D01*
X0108126Y0169647D02*
X0111874Y0169647D01*
X0111461Y0170060D02*
X0112635Y0168886D01*
X0114170Y0168250D01*
X0115830Y0168250D01*
X0117365Y0168886D01*
X0118539Y0170060D01*
X0119175Y0171595D01*
X0119175Y0178405D01*
X0118539Y0179940D01*
X0117365Y0181114D01*
X0115830Y0181750D01*
X0114170Y0181750D01*
X0112635Y0181114D01*
X0111461Y0179940D01*
X0110825Y0178405D01*
X0110825Y0171595D01*
X0111461Y0170060D01*
X0110970Y0171245D02*
X0109030Y0171245D01*
X0109175Y0172844D02*
X0110825Y0172844D01*
X0110825Y0174442D02*
X0109175Y0174442D01*
X0109175Y0176041D02*
X0110825Y0176041D01*
X0110825Y0177639D02*
X0109175Y0177639D01*
X0108830Y0179238D02*
X0111170Y0179238D01*
X0112357Y0180836D02*
X0107643Y0180836D01*
X0117643Y0180836D02*
X0122357Y0180836D01*
X0121170Y0179238D02*
X0118830Y0179238D01*
X0119175Y0177639D02*
X0120825Y0177639D01*
X0120825Y0176041D02*
X0119175Y0176041D01*
X0119175Y0174442D02*
X0120825Y0174442D01*
X0120825Y0172844D02*
X0119175Y0172844D01*
X0119030Y0171245D02*
X0120970Y0171245D01*
X0121874Y0169647D02*
X0118126Y0169647D01*
X0148126Y0169647D02*
X0151874Y0169647D01*
X0151461Y0170060D02*
X0152635Y0168886D01*
X0154170Y0168250D01*
X0155830Y0168250D01*
X0157365Y0168886D01*
X0158539Y0170060D01*
X0159175Y0171595D01*
X0159175Y0178405D01*
X0158539Y0179940D01*
X0157365Y0181114D01*
X0155830Y0181750D01*
X0154170Y0181750D01*
X0152635Y0181114D01*
X0151461Y0179940D01*
X0150825Y0178405D01*
X0150825Y0171595D01*
X0151461Y0170060D01*
X0150970Y0171245D02*
X0149030Y0171245D01*
X0149175Y0172844D02*
X0150825Y0172844D01*
X0150825Y0174442D02*
X0149175Y0174442D01*
X0149175Y0176041D02*
X0150825Y0176041D01*
X0150825Y0177639D02*
X0149175Y0177639D01*
X0148830Y0179238D02*
X0151170Y0179238D01*
X0152357Y0180836D02*
X0147643Y0180836D01*
X0157643Y0180836D02*
X0162357Y0180836D01*
X0162635Y0181114D02*
X0161461Y0179940D01*
X0160825Y0178405D01*
X0160825Y0171595D01*
X0161461Y0170060D01*
X0162635Y0168886D01*
X0164170Y0168250D01*
X0165830Y0168250D01*
X0167365Y0168886D01*
X0168539Y0170060D01*
X0169175Y0171595D01*
X0169175Y0178405D01*
X0168539Y0179940D01*
X0167365Y0181114D01*
X0165830Y0181750D01*
X0164170Y0181750D01*
X0162635Y0181114D01*
X0161170Y0179238D02*
X0158830Y0179238D01*
X0159175Y0177639D02*
X0160825Y0177639D01*
X0160825Y0176041D02*
X0159175Y0176041D01*
X0159175Y0174442D02*
X0160825Y0174442D01*
X0160825Y0172844D02*
X0159175Y0172844D01*
X0159030Y0171245D02*
X0160970Y0171245D01*
X0161874Y0169647D02*
X0158126Y0169647D01*
X0168126Y0169647D02*
X0171874Y0169647D01*
X0171461Y0170060D02*
X0172635Y0168886D01*
X0174170Y0168250D01*
X0175830Y0168250D01*
X0177365Y0168886D01*
X0178539Y0170060D01*
X0179175Y0171595D01*
X0179175Y0178405D01*
X0178539Y0179940D01*
X0177365Y0181114D01*
X0175830Y0181750D01*
X0174170Y0181750D01*
X0172635Y0181114D01*
X0171461Y0179940D01*
X0170825Y0178405D01*
X0170825Y0171595D01*
X0171461Y0170060D01*
X0170970Y0171245D02*
X0169030Y0171245D01*
X0169175Y0172844D02*
X0170825Y0172844D01*
X0170825Y0174442D02*
X0169175Y0174442D01*
X0169175Y0176041D02*
X0170825Y0176041D01*
X0170825Y0177639D02*
X0169175Y0177639D01*
X0168830Y0179238D02*
X0171170Y0179238D01*
X0172357Y0180836D02*
X0167643Y0180836D01*
X0177643Y0180836D02*
X0182357Y0180836D01*
X0182635Y0181114D02*
X0181461Y0179940D01*
X0180825Y0178405D01*
X0180825Y0171595D01*
X0181461Y0170060D01*
X0182635Y0168886D01*
X0184170Y0168250D01*
X0185830Y0168250D01*
X0187365Y0168886D01*
X0188539Y0170060D01*
X0189175Y0171595D01*
X0189175Y0178405D01*
X0188539Y0179940D01*
X0187365Y0181114D01*
X0185830Y0181750D01*
X0184170Y0181750D01*
X0182635Y0181114D01*
X0181170Y0179238D02*
X0178830Y0179238D01*
X0179175Y0177639D02*
X0180825Y0177639D01*
X0180825Y0176041D02*
X0179175Y0176041D01*
X0179175Y0174442D02*
X0180825Y0174442D01*
X0180825Y0172844D02*
X0179175Y0172844D01*
X0179030Y0171245D02*
X0180970Y0171245D01*
X0181874Y0169647D02*
X0178126Y0169647D01*
X0188126Y0169647D02*
X0191874Y0169647D01*
X0191461Y0170060D02*
X0192635Y0168886D01*
X0194170Y0168250D01*
X0195830Y0168250D01*
X0197365Y0168886D01*
X0198539Y0170060D01*
X0199175Y0171595D01*
X0199175Y0178405D01*
X0198539Y0179940D01*
X0197365Y0181114D01*
X0195830Y0181750D01*
X0194170Y0181750D01*
X0192635Y0181114D01*
X0191461Y0179940D01*
X0190825Y0178405D01*
X0190825Y0171595D01*
X0191461Y0170060D01*
X0190970Y0171245D02*
X0189030Y0171245D01*
X0189175Y0172844D02*
X0190825Y0172844D01*
X0190825Y0174442D02*
X0189175Y0174442D01*
X0189175Y0176041D02*
X0190825Y0176041D01*
X0190825Y0177639D02*
X0189175Y0177639D01*
X0188830Y0179238D02*
X0191170Y0179238D01*
X0192357Y0180836D02*
X0187643Y0180836D01*
X0197643Y0180836D02*
X0349461Y0180836D01*
X0349167Y0180666D02*
X0348460Y0180123D01*
X0347829Y0179493D01*
X0347287Y0178786D01*
X0346841Y0178014D01*
X0346500Y0177190D01*
X0346269Y0176329D01*
X0346153Y0175446D01*
X0346153Y0175200D01*
X0352753Y0175200D01*
X0352753Y0181800D01*
X0352507Y0181800D01*
X0351623Y0181684D01*
X0350762Y0181453D01*
X0349939Y0181112D01*
X0349167Y0180666D01*
X0347633Y0179238D02*
X0253258Y0179238D01*
X0253002Y0179493D02*
X0251054Y0180300D01*
X0248946Y0180300D01*
X0246998Y0179493D01*
X0245507Y0178002D01*
X0244700Y0176054D01*
X0244700Y0173946D01*
X0245507Y0171998D01*
X0246998Y0170507D01*
X0248946Y0169700D01*
X0251054Y0169700D01*
X0253002Y0170507D01*
X0254493Y0171998D01*
X0255300Y0173946D01*
X0255300Y0176054D01*
X0254493Y0178002D01*
X0253002Y0179493D01*
X0254643Y0177639D02*
X0346686Y0177639D01*
X0346231Y0176041D02*
X0255300Y0176041D01*
X0255300Y0174442D02*
X0346168Y0174442D01*
X0346153Y0174554D02*
X0346269Y0173671D01*
X0346500Y0172810D01*
X0346841Y0171986D01*
X0347287Y0171214D01*
X0347829Y0170507D01*
X0348460Y0169877D01*
X0349167Y0169334D01*
X0349939Y0168888D01*
X0350762Y0168547D01*
X0351623Y0168316D01*
X0352507Y0168200D01*
X0352753Y0168200D01*
X0352753Y0174800D01*
X0353153Y0174800D01*
X0353153Y0168200D01*
X0353398Y0168200D01*
X0354282Y0168316D01*
X0355143Y0168547D01*
X0355967Y0168888D01*
X0356739Y0169334D01*
X0357446Y0169877D01*
X0358076Y0170507D01*
X0358619Y0171214D01*
X0359065Y0171986D01*
X0359406Y0172810D01*
X0359463Y0173023D01*
X0359463Y0172266D01*
X0363329Y0168400D01*
X0368797Y0168400D01*
X0372663Y0172266D01*
X0372663Y0177734D01*
X0368797Y0181600D01*
X0363329Y0181600D01*
X0359463Y0177734D01*
X0359463Y0176977D01*
X0359406Y0177190D01*
X0359065Y0178014D01*
X0358619Y0178786D01*
X0358076Y0179493D01*
X0357446Y0180123D01*
X0356739Y0180666D01*
X0355967Y0181112D01*
X0355143Y0181453D01*
X0354282Y0181684D01*
X0353398Y0181800D01*
X0353153Y0181800D01*
X0353153Y0175200D01*
X0352753Y0175200D01*
X0352753Y0174800D01*
X0346153Y0174800D01*
X0346153Y0174554D01*
X0346491Y0172844D02*
X0254843Y0172844D01*
X0253741Y0171245D02*
X0347269Y0171245D01*
X0348759Y0169647D02*
X0198126Y0169647D01*
X0199030Y0171245D02*
X0226259Y0171245D01*
X0226998Y0170507D02*
X0228946Y0169700D01*
X0231054Y0169700D01*
X0233002Y0170507D01*
X0234493Y0171998D01*
X0235300Y0173946D01*
X0235300Y0176054D01*
X0234493Y0178002D01*
X0233002Y0179493D01*
X0231054Y0180300D01*
X0228946Y0180300D01*
X0226998Y0179493D01*
X0225507Y0178002D01*
X0224700Y0176054D01*
X0224700Y0173946D01*
X0225507Y0171998D01*
X0226998Y0170507D01*
X0225156Y0172844D02*
X0199175Y0172844D01*
X0199175Y0174442D02*
X0224700Y0174442D01*
X0224700Y0176041D02*
X0199175Y0176041D01*
X0199175Y0177639D02*
X0225357Y0177639D01*
X0226742Y0179238D02*
X0198830Y0179238D01*
X0233258Y0179238D02*
X0246742Y0179238D01*
X0245357Y0177639D02*
X0234643Y0177639D01*
X0235300Y0176041D02*
X0244700Y0176041D01*
X0244700Y0174442D02*
X0235300Y0174442D01*
X0234843Y0172844D02*
X0245156Y0172844D01*
X0246259Y0171245D02*
X0233741Y0171245D01*
X0255659Y0132881D02*
X0289341Y0132881D01*
X0288839Y0132379D02*
X0288200Y0130835D01*
X0288200Y0129165D01*
X0288839Y0127621D01*
X0290021Y0126439D01*
X0291565Y0125800D01*
X0298435Y0125800D01*
X0299979Y0126439D01*
X0301161Y0127621D01*
X0301800Y0129165D01*
X0301800Y0130835D01*
X0301161Y0132379D01*
X0299979Y0133561D01*
X0298435Y0134200D01*
X0291565Y0134200D01*
X0290021Y0133561D01*
X0288839Y0132379D01*
X0288385Y0131282D02*
X0256615Y0131282D01*
X0256800Y0129684D02*
X0288200Y0129684D01*
X0288647Y0128085D02*
X0256353Y0128085D01*
X0255027Y0126487D02*
X0289973Y0126487D01*
X0300027Y0126487D02*
X0393200Y0126487D01*
X0393200Y0128085D02*
X0301353Y0128085D01*
X0301800Y0129684D02*
X0393200Y0129684D01*
X0393200Y0131282D02*
X0368141Y0131282D01*
X0367747Y0130888D02*
X0369112Y0132253D01*
X0369850Y0134035D01*
X0369850Y0135965D01*
X0369112Y0137747D01*
X0367747Y0139112D01*
X0365965Y0139850D01*
X0364035Y0139850D01*
X0362253Y0139112D01*
X0360888Y0137747D01*
X0360150Y0135965D01*
X0360150Y0134035D01*
X0360888Y0132253D01*
X0362253Y0130888D01*
X0364035Y0130150D01*
X0365965Y0130150D01*
X0367747Y0130888D01*
X0369372Y0132881D02*
X0393200Y0132881D01*
X0393200Y0134479D02*
X0369850Y0134479D01*
X0369803Y0136078D02*
X0393200Y0136078D01*
X0393200Y0137676D02*
X0369141Y0137676D01*
X0367353Y0139275D02*
X0393200Y0139275D01*
X0393200Y0140873D02*
X0169200Y0140873D01*
X0169200Y0139275D02*
X0352292Y0139275D01*
X0352353Y0139319D02*
X0351710Y0138852D01*
X0351148Y0138290D01*
X0350681Y0137647D01*
X0350320Y0136939D01*
X0350074Y0136183D01*
X0349950Y0135397D01*
X0349950Y0135000D01*
X0355000Y0135000D01*
X0360050Y0135000D01*
X0360050Y0135397D01*
X0359926Y0136183D01*
X0359680Y0136939D01*
X0359319Y0137647D01*
X0358852Y0138290D01*
X0358290Y0138852D01*
X0357647Y0139319D01*
X0356939Y0139680D01*
X0356183Y0139926D01*
X0355397Y0140050D01*
X0355000Y0140050D01*
X0355000Y0135000D01*
X0355000Y0135000D01*
X0355000Y0135000D01*
X0360050Y0135000D01*
X0360050Y0134603D01*
X0359926Y0133817D01*
X0359680Y0133061D01*
X0359319Y0132353D01*
X0358852Y0131710D01*
X0358290Y0131148D01*
X0357647Y0130681D01*
X0356939Y0130320D01*
X0356183Y0130074D01*
X0355397Y0129950D01*
X0355000Y0129950D01*
X0355000Y0135000D01*
X0355000Y0135000D01*
X0355000Y0135000D01*
X0355000Y0140050D01*
X0354603Y0140050D01*
X0353817Y0139926D01*
X0353061Y0139680D01*
X0352353Y0139319D01*
X0350702Y0137676D02*
X0169200Y0137676D01*
X0169200Y0136565D02*
X0168561Y0135021D01*
X0167379Y0133839D01*
X0165835Y0133200D01*
X0164165Y0133200D01*
X0162621Y0133839D01*
X0161439Y0135021D01*
X0160800Y0136565D01*
X0160800Y0143435D01*
X0161439Y0144979D01*
X0162621Y0146161D01*
X0164165Y0146800D01*
X0165835Y0146800D01*
X0167379Y0146161D01*
X0168561Y0144979D01*
X0169200Y0143435D01*
X0169200Y0136565D01*
X0168998Y0136078D02*
X0350058Y0136078D01*
X0349950Y0135000D02*
X0349950Y0134603D01*
X0350074Y0133817D01*
X0350320Y0133061D01*
X0350681Y0132353D01*
X0351148Y0131710D01*
X0351710Y0131148D01*
X0352353Y0130681D01*
X0353061Y0130320D01*
X0353817Y0130074D01*
X0354603Y0129950D01*
X0355000Y0129950D01*
X0355000Y0135000D01*
X0349950Y0135000D01*
X0349970Y0134479D02*
X0168019Y0134479D01*
X0161981Y0134479D02*
X0158019Y0134479D01*
X0158998Y0136078D02*
X0161002Y0136078D01*
X0160800Y0137676D02*
X0159200Y0137676D01*
X0159200Y0139275D02*
X0160800Y0139275D01*
X0160800Y0140873D02*
X0159200Y0140873D01*
X0159200Y0142472D02*
X0160800Y0142472D01*
X0161063Y0144070D02*
X0158937Y0144070D01*
X0157871Y0145669D02*
X0162129Y0145669D01*
X0167871Y0145669D02*
X0393200Y0145669D01*
X0393200Y0144070D02*
X0168937Y0144070D01*
X0169200Y0142472D02*
X0393200Y0142472D01*
X0362647Y0139275D02*
X0357708Y0139275D01*
X0359298Y0137676D02*
X0360859Y0137676D01*
X0360197Y0136078D02*
X0359942Y0136078D01*
X0360030Y0134479D02*
X0360150Y0134479D01*
X0360628Y0132881D02*
X0359588Y0132881D01*
X0358424Y0131282D02*
X0361859Y0131282D01*
X0355000Y0131282D02*
X0355000Y0131282D01*
X0355000Y0132881D02*
X0355000Y0132881D01*
X0355000Y0134479D02*
X0355000Y0134479D01*
X0355000Y0136078D02*
X0355000Y0136078D01*
X0355000Y0137676D02*
X0355000Y0137676D01*
X0355000Y0139275D02*
X0355000Y0139275D01*
X0350412Y0132881D02*
X0300659Y0132881D01*
X0301615Y0131282D02*
X0351576Y0131282D01*
X0352753Y0169647D02*
X0353153Y0169647D01*
X0353153Y0171245D02*
X0352753Y0171245D01*
X0352753Y0172844D02*
X0353153Y0172844D01*
X0353153Y0174442D02*
X0352753Y0174442D01*
X0352753Y0176041D02*
X0353153Y0176041D01*
X0353153Y0177639D02*
X0352753Y0177639D01*
X0352753Y0179238D02*
X0353153Y0179238D01*
X0353153Y0180836D02*
X0352753Y0180836D01*
X0356444Y0180836D02*
X0362565Y0180836D01*
X0360967Y0179238D02*
X0358272Y0179238D01*
X0359220Y0177639D02*
X0359463Y0177639D01*
X0359415Y0172844D02*
X0359463Y0172844D01*
X0358637Y0171245D02*
X0360484Y0171245D01*
X0362083Y0169647D02*
X0357146Y0169647D01*
X0370043Y0169647D02*
X0393200Y0169647D01*
X0393200Y0171245D02*
X0371642Y0171245D01*
X0372663Y0172844D02*
X0393200Y0172844D01*
X0393200Y0174442D02*
X0372663Y0174442D01*
X0372663Y0176041D02*
X0393200Y0176041D01*
X0393200Y0177639D02*
X0372663Y0177639D01*
X0371159Y0179238D02*
X0393200Y0179238D01*
X0393200Y0180836D02*
X0369561Y0180836D01*
X0295000Y0113699D02*
X0295000Y0113699D01*
X0295000Y0112100D02*
X0295000Y0112100D01*
X0295000Y0110502D02*
X0295000Y0110502D01*
X0295000Y0108903D02*
X0295000Y0108903D01*
X0295000Y0107305D02*
X0295000Y0107305D01*
X0295000Y0105706D02*
X0295000Y0105706D01*
X0277200Y0091320D02*
X0324342Y0091320D01*
X0324342Y0089721D02*
X0277200Y0089721D01*
X0277200Y0088123D02*
X0324342Y0088123D01*
X0325903Y0086524D02*
X0277200Y0086524D01*
X0277200Y0084926D02*
X0327501Y0084926D01*
X0329100Y0083327D02*
X0277200Y0083327D01*
X0277200Y0081729D02*
X0342978Y0081729D01*
X0342898Y0080130D02*
X0277200Y0080130D01*
X0277200Y0078532D02*
X0342909Y0078532D01*
X0343337Y0076933D02*
X0340365Y0076933D01*
X0342512Y0075334D02*
X0343913Y0075334D01*
X0343930Y0073736D02*
X0344836Y0073736D01*
X0344853Y0072137D02*
X0346266Y0072137D01*
X0345420Y0070539D02*
X0348433Y0070539D01*
X0329635Y0076933D02*
X0277200Y0076933D01*
X0277200Y0075334D02*
X0327488Y0075334D01*
X0326070Y0073736D02*
X0276847Y0073736D01*
X0275249Y0072137D02*
X0325147Y0072137D01*
X0324580Y0070539D02*
X0273650Y0070539D01*
X0272052Y0068940D02*
X0324151Y0068940D01*
X0324148Y0067342D02*
X0219337Y0067342D01*
X0217366Y0065743D02*
X0324236Y0065743D01*
X0324664Y0064145D02*
X0191756Y0064145D01*
X0190158Y0062546D02*
X0325329Y0062546D01*
X0326252Y0060948D02*
X0188559Y0060948D01*
X0186961Y0059349D02*
X0327804Y0059349D01*
X0330182Y0057751D02*
X0185362Y0057751D01*
X0182337Y0060948D02*
X0162200Y0060948D01*
X0162200Y0062546D02*
X0183935Y0062546D01*
X0185534Y0064145D02*
X0162200Y0064145D01*
X0162200Y0065743D02*
X0187132Y0065743D01*
X0188731Y0067342D02*
X0162200Y0067342D01*
X0162200Y0068940D02*
X0182948Y0068940D01*
X0181350Y0070539D02*
X0162200Y0070539D01*
X0162200Y0072137D02*
X0179751Y0072137D01*
X0178153Y0073736D02*
X0162200Y0073736D01*
X0162200Y0075334D02*
X0176554Y0075334D01*
X0174956Y0076933D02*
X0162200Y0076933D01*
X0162200Y0078532D02*
X0173357Y0078532D01*
X0171759Y0080130D02*
X0162200Y0080130D01*
X0161383Y0081729D02*
X0170160Y0081729D01*
X0168562Y0083327D02*
X0159784Y0083327D01*
X0158186Y0084926D02*
X0166963Y0084926D01*
X0165365Y0086524D02*
X0156587Y0086524D01*
X0154989Y0088123D02*
X0163766Y0088123D01*
X0162168Y0089721D02*
X0153390Y0089721D01*
X0151792Y0091320D02*
X0160569Y0091320D01*
X0158971Y0092918D02*
X0150193Y0092918D01*
X0148595Y0094517D02*
X0157372Y0094517D01*
X0155774Y0096115D02*
X0146996Y0096115D01*
X0145398Y0097714D02*
X0154175Y0097714D01*
X0152577Y0099312D02*
X0143799Y0099312D01*
X0142201Y0100911D02*
X0150978Y0100911D01*
X0149380Y0102509D02*
X0140602Y0102509D01*
X0139004Y0104108D02*
X0147800Y0104108D01*
X0147800Y0105706D02*
X0137405Y0105706D01*
X0137200Y0107305D02*
X0147800Y0107305D01*
X0147800Y0108903D02*
X0147382Y0108903D01*
X0142618Y0108903D02*
X0137382Y0108903D01*
X0138722Y0110502D02*
X0141278Y0110502D01*
X0140825Y0112100D02*
X0139175Y0112100D01*
X0139175Y0113699D02*
X0140825Y0113699D01*
X0140825Y0115297D02*
X0139175Y0115297D01*
X0139175Y0116896D02*
X0140825Y0116896D01*
X0140862Y0118494D02*
X0139138Y0118494D01*
X0138386Y0120093D02*
X0141614Y0120093D01*
X0144029Y0121691D02*
X0137200Y0121691D01*
X0137200Y0123290D02*
X0143599Y0123290D01*
X0142800Y0124888D02*
X0137200Y0124888D01*
X0137200Y0126487D02*
X0142800Y0126487D01*
X0142800Y0128085D02*
X0137200Y0128085D01*
X0137200Y0129684D02*
X0142800Y0129684D01*
X0142800Y0131282D02*
X0137200Y0131282D01*
X0137200Y0132881D02*
X0142800Y0132881D01*
X0141981Y0134479D02*
X0138019Y0134479D01*
X0138998Y0136078D02*
X0141002Y0136078D01*
X0140800Y0137676D02*
X0139200Y0137676D01*
X0139200Y0139275D02*
X0140800Y0139275D01*
X0140800Y0140873D02*
X0139200Y0140873D01*
X0139200Y0142472D02*
X0140800Y0142472D01*
X0141063Y0144070D02*
X0138937Y0144070D01*
X0137871Y0145669D02*
X0142129Y0145669D01*
X0147871Y0145669D02*
X0152129Y0145669D01*
X0151063Y0144070D02*
X0148937Y0144070D01*
X0149200Y0142472D02*
X0150800Y0142472D01*
X0150800Y0140873D02*
X0149200Y0140873D01*
X0149200Y0139275D02*
X0150800Y0139275D01*
X0150800Y0137676D02*
X0149200Y0137676D01*
X0148998Y0136078D02*
X0151002Y0136078D01*
X0151981Y0134479D02*
X0148019Y0134479D01*
X0147200Y0132881D02*
X0152800Y0132881D01*
X0152800Y0131282D02*
X0147200Y0131282D01*
X0147200Y0129684D02*
X0152800Y0129684D01*
X0153803Y0128085D02*
X0147200Y0128085D01*
X0147200Y0126487D02*
X0155402Y0126487D01*
X0157000Y0124888D02*
X0148223Y0124888D01*
X0149821Y0123290D02*
X0158599Y0123290D01*
X0155971Y0121691D02*
X0163512Y0121691D01*
X0161422Y0120093D02*
X0158386Y0120093D01*
X0159138Y0118494D02*
X0160716Y0118494D01*
X0160625Y0116896D02*
X0159175Y0116896D01*
X0159175Y0115297D02*
X0160625Y0115297D01*
X0160625Y0113699D02*
X0159175Y0113699D01*
X0159175Y0112100D02*
X0160625Y0112100D01*
X0161070Y0110502D02*
X0158722Y0110502D01*
X0157382Y0108903D02*
X0162405Y0108903D01*
X0165000Y0108903D02*
X0165000Y0108903D01*
X0165000Y0110502D02*
X0165000Y0110502D01*
X0165000Y0112100D02*
X0165000Y0112100D01*
X0165000Y0113699D02*
X0165000Y0113699D01*
X0167595Y0108903D02*
X0167800Y0108903D01*
X0167800Y0107305D02*
X0152200Y0107305D01*
X0152200Y0108903D02*
X0152618Y0108903D01*
X0152405Y0105706D02*
X0167800Y0105706D01*
X0167800Y0104108D02*
X0154004Y0104108D01*
X0155602Y0102509D02*
X0169880Y0102509D01*
X0171478Y0100911D02*
X0157201Y0100911D01*
X0158799Y0099312D02*
X0173077Y0099312D01*
X0174675Y0097714D02*
X0160398Y0097714D01*
X0161996Y0096115D02*
X0176274Y0096115D01*
X0177872Y0094517D02*
X0163595Y0094517D01*
X0165193Y0092918D02*
X0179471Y0092918D01*
X0181069Y0091320D02*
X0166792Y0091320D01*
X0168390Y0089721D02*
X0182668Y0089721D01*
X0184266Y0088123D02*
X0169989Y0088123D01*
X0171587Y0086524D02*
X0185865Y0086524D01*
X0187463Y0084926D02*
X0173186Y0084926D01*
X0174784Y0083327D02*
X0189062Y0083327D01*
X0189772Y0081729D02*
X0176383Y0081729D01*
X0177981Y0080130D02*
X0189700Y0080130D01*
X0190079Y0078532D02*
X0179580Y0078532D01*
X0181178Y0076933D02*
X0191072Y0076933D01*
X0192822Y0075334D02*
X0182777Y0075334D01*
X0184375Y0073736D02*
X0190741Y0073736D01*
X0197366Y0065743D02*
X0201261Y0065743D01*
X0200157Y0067342D02*
X0199337Y0067342D01*
X0208739Y0065743D02*
X0212634Y0065743D01*
X0210663Y0067342D02*
X0209843Y0067342D01*
X0217178Y0075334D02*
X0272223Y0075334D01*
X0272800Y0076933D02*
X0218928Y0076933D01*
X0221643Y0078532D02*
X0272800Y0078532D01*
X0272800Y0080130D02*
X0223241Y0080130D01*
X0224840Y0081729D02*
X0272800Y0081729D01*
X0272800Y0083327D02*
X0226438Y0083327D01*
X0228037Y0084926D02*
X0272800Y0084926D01*
X0272800Y0086524D02*
X0229635Y0086524D01*
X0231234Y0088123D02*
X0272800Y0088123D01*
X0272800Y0089721D02*
X0232200Y0089721D01*
X0232200Y0091320D02*
X0272800Y0091320D01*
X0272800Y0092918D02*
X0232200Y0092918D01*
X0232200Y0094517D02*
X0272800Y0094517D01*
X0272800Y0096115D02*
X0232200Y0096115D01*
X0232200Y0097714D02*
X0272800Y0097714D01*
X0272800Y0099312D02*
X0232200Y0099312D01*
X0232200Y0100911D02*
X0272800Y0100911D01*
X0272800Y0102509D02*
X0232200Y0102509D01*
X0227800Y0102509D02*
X0176102Y0102509D01*
X0177701Y0100911D02*
X0227800Y0100911D01*
X0227800Y0099312D02*
X0179299Y0099312D01*
X0180898Y0097714D02*
X0227800Y0097714D01*
X0227800Y0096115D02*
X0182496Y0096115D01*
X0184095Y0094517D02*
X0227800Y0094517D01*
X0227800Y0092918D02*
X0185693Y0092918D01*
X0187292Y0091320D02*
X0227800Y0091320D01*
X0226610Y0089721D02*
X0188890Y0089721D01*
X0190489Y0088123D02*
X0225011Y0088123D01*
X0223413Y0086524D02*
X0192087Y0086524D01*
X0198070Y0084926D02*
X0211930Y0084926D01*
X0210434Y0083327D02*
X0208668Y0083327D01*
X0201332Y0083327D02*
X0199566Y0083327D01*
X0218070Y0084926D02*
X0221814Y0084926D01*
X0220216Y0083327D02*
X0219566Y0083327D01*
X0219259Y0073736D02*
X0270625Y0073736D01*
X0265020Y0048160D02*
X0263440Y0048160D01*
X0262622Y0046561D02*
X0265850Y0046561D01*
X0267631Y0044963D02*
X0260614Y0044963D01*
X0240072Y0044963D02*
X0214076Y0044963D01*
X0210200Y0044963D02*
X0209800Y0044963D01*
X0209800Y0043364D02*
X0210200Y0043364D01*
X0210200Y0041766D02*
X0209800Y0041766D01*
X0209800Y0040167D02*
X0210200Y0040167D01*
X0210200Y0038569D02*
X0209800Y0038569D01*
X0209800Y0036970D02*
X0210200Y0036970D01*
X0210200Y0035372D02*
X0209800Y0035372D01*
X0204551Y0035372D02*
X0201469Y0035372D01*
X0198531Y0035372D02*
X0193650Y0035372D01*
X0194884Y0036970D02*
X0196034Y0036970D01*
X0190200Y0036970D02*
X0189800Y0036970D01*
X0189800Y0035372D02*
X0190200Y0035372D01*
X0190200Y0038569D02*
X0189800Y0038569D01*
X0189800Y0040167D02*
X0190200Y0040167D01*
X0190200Y0041766D02*
X0189800Y0041766D01*
X0189800Y0043364D02*
X0190200Y0043364D01*
X0190200Y0044963D02*
X0189800Y0044963D01*
X0189332Y0044963D02*
X0183033Y0044963D01*
X0182200Y0046561D02*
X0238291Y0046561D01*
X0215500Y0036970D02*
X0373705Y0036970D01*
X0370616Y0035372D02*
X0215449Y0035372D01*
X0204500Y0036970D02*
X0203966Y0036970D01*
X0195450Y0043364D02*
X0193914Y0043364D01*
X0196967Y0044963D02*
X0190668Y0044963D01*
X0186086Y0043364D02*
X0184550Y0043364D01*
X0185116Y0036970D02*
X0183966Y0036970D01*
X0186350Y0035372D02*
X0181469Y0035372D01*
X0178531Y0035372D02*
X0173650Y0035372D01*
X0174884Y0036970D02*
X0176034Y0036970D01*
X0170200Y0036970D02*
X0169800Y0036970D01*
X0169800Y0035372D02*
X0170200Y0035372D01*
X0170200Y0038569D02*
X0169800Y0038569D01*
X0169800Y0040167D02*
X0170200Y0040167D01*
X0170200Y0041766D02*
X0169800Y0041766D01*
X0169800Y0043364D02*
X0170200Y0043364D01*
X0170200Y0044963D02*
X0169800Y0044963D01*
X0169332Y0044963D02*
X0163033Y0044963D01*
X0162200Y0046561D02*
X0177800Y0046561D01*
X0177800Y0048160D02*
X0162200Y0048160D01*
X0162200Y0049758D02*
X0177800Y0049758D01*
X0177800Y0051357D02*
X0162200Y0051357D01*
X0162200Y0052955D02*
X0177800Y0052955D01*
X0177800Y0054554D02*
X0162200Y0054554D01*
X0162200Y0056152D02*
X0177800Y0056152D01*
X0179140Y0057751D02*
X0162200Y0057751D01*
X0162200Y0059349D02*
X0180738Y0059349D01*
X0176967Y0044963D02*
X0170668Y0044963D01*
X0173914Y0043364D02*
X0175450Y0043364D01*
X0166086Y0043364D02*
X0164550Y0043364D01*
X0157800Y0046561D02*
X0142200Y0046561D01*
X0142200Y0048160D02*
X0157800Y0048160D01*
X0157800Y0049758D02*
X0142200Y0049758D01*
X0142200Y0051357D02*
X0157800Y0051357D01*
X0157800Y0052955D02*
X0142200Y0052955D01*
X0142200Y0054554D02*
X0157800Y0054554D01*
X0157800Y0056152D02*
X0142200Y0056152D01*
X0142200Y0057751D02*
X0157800Y0057751D01*
X0157800Y0059349D02*
X0142200Y0059349D01*
X0142200Y0060948D02*
X0157800Y0060948D01*
X0157800Y0062546D02*
X0142200Y0062546D01*
X0142200Y0064145D02*
X0157800Y0064145D01*
X0157800Y0065743D02*
X0142200Y0065743D01*
X0142200Y0067342D02*
X0157800Y0067342D01*
X0157800Y0068940D02*
X0142200Y0068940D01*
X0142200Y0070539D02*
X0157800Y0070539D01*
X0157800Y0072137D02*
X0142200Y0072137D01*
X0142200Y0073736D02*
X0157800Y0073736D01*
X0157800Y0075334D02*
X0142200Y0075334D01*
X0142200Y0076933D02*
X0157800Y0076933D01*
X0157800Y0078532D02*
X0142200Y0078532D01*
X0142200Y0080130D02*
X0156759Y0080130D01*
X0155160Y0081729D02*
X0142200Y0081729D01*
X0142200Y0083327D02*
X0153562Y0083327D01*
X0151963Y0084926D02*
X0142200Y0084926D01*
X0141587Y0086524D02*
X0150365Y0086524D01*
X0148766Y0088123D02*
X0139989Y0088123D01*
X0138390Y0089721D02*
X0147168Y0089721D01*
X0145569Y0091320D02*
X0136792Y0091320D01*
X0135193Y0092918D02*
X0143971Y0092918D01*
X0142372Y0094517D02*
X0133595Y0094517D01*
X0131996Y0096115D02*
X0140774Y0096115D01*
X0139175Y0097714D02*
X0130398Y0097714D01*
X0128799Y0099312D02*
X0137577Y0099312D01*
X0135978Y0100911D02*
X0127201Y0100911D01*
X0127200Y0102509D02*
X0134380Y0102509D01*
X0132800Y0104108D02*
X0127200Y0104108D01*
X0127200Y0105706D02*
X0132800Y0105706D01*
X0132800Y0107305D02*
X0127200Y0107305D01*
X0127382Y0108903D02*
X0132618Y0108903D01*
X0131278Y0110502D02*
X0128722Y0110502D01*
X0129175Y0112100D02*
X0130825Y0112100D01*
X0130825Y0113699D02*
X0129175Y0113699D01*
X0129175Y0115297D02*
X0130825Y0115297D01*
X0130825Y0116896D02*
X0129175Y0116896D01*
X0129138Y0118494D02*
X0130862Y0118494D01*
X0131614Y0120093D02*
X0128386Y0120093D01*
X0127200Y0121691D02*
X0132800Y0121691D01*
X0132800Y0123290D02*
X0127200Y0123290D01*
X0127200Y0124888D02*
X0132800Y0124888D01*
X0132800Y0126487D02*
X0127200Y0126487D01*
X0127200Y0128085D02*
X0132800Y0128085D01*
X0132800Y0129684D02*
X0127200Y0129684D01*
X0127200Y0131282D02*
X0132800Y0131282D01*
X0132800Y0132881D02*
X0127200Y0132881D01*
X0128019Y0134479D02*
X0131981Y0134479D01*
X0131002Y0136078D02*
X0128998Y0136078D01*
X0129200Y0137676D02*
X0130800Y0137676D01*
X0130800Y0139275D02*
X0129200Y0139275D01*
X0129200Y0140873D02*
X0130800Y0140873D01*
X0130800Y0142472D02*
X0129200Y0142472D01*
X0128937Y0144070D02*
X0131063Y0144070D01*
X0132129Y0145669D02*
X0127871Y0145669D01*
X0122129Y0145669D02*
X0117871Y0145669D01*
X0118937Y0144070D02*
X0121063Y0144070D01*
X0120800Y0142472D02*
X0119200Y0142472D01*
X0119200Y0140873D02*
X0120800Y0140873D01*
X0120800Y0139275D02*
X0119200Y0139275D01*
X0119200Y0137676D02*
X0120800Y0137676D01*
X0121002Y0136078D02*
X0118998Y0136078D01*
X0118019Y0134479D02*
X0121981Y0134479D01*
X0122800Y0132881D02*
X0117200Y0132881D01*
X0117200Y0131282D02*
X0122800Y0131282D01*
X0122800Y0129684D02*
X0117200Y0129684D01*
X0117200Y0128085D02*
X0122800Y0128085D01*
X0122800Y0126487D02*
X0117200Y0126487D01*
X0117200Y0124888D02*
X0122800Y0124888D01*
X0122800Y0123290D02*
X0117200Y0123290D01*
X0117200Y0121691D02*
X0122800Y0121691D01*
X0121614Y0120093D02*
X0118386Y0120093D01*
X0119138Y0118494D02*
X0120862Y0118494D01*
X0120825Y0116896D02*
X0119175Y0116896D01*
X0119175Y0115297D02*
X0120825Y0115297D01*
X0120825Y0113699D02*
X0119175Y0113699D01*
X0119175Y0112100D02*
X0120825Y0112100D01*
X0121278Y0110502D02*
X0118722Y0110502D01*
X0117382Y0108903D02*
X0122618Y0108903D01*
X0122800Y0107305D02*
X0117200Y0107305D01*
X0117200Y0105706D02*
X0122800Y0105706D01*
X0122800Y0104108D02*
X0117200Y0104108D01*
X0117200Y0102509D02*
X0122800Y0102509D01*
X0122800Y0100911D02*
X0117200Y0100911D01*
X0117200Y0099312D02*
X0122800Y0099312D01*
X0124175Y0097714D02*
X0115825Y0097714D01*
X0114226Y0096115D02*
X0125774Y0096115D01*
X0127372Y0094517D02*
X0112628Y0094517D01*
X0112200Y0092918D02*
X0128971Y0092918D01*
X0130569Y0091320D02*
X0112200Y0091320D01*
X0112200Y0089721D02*
X0132168Y0089721D01*
X0133766Y0088123D02*
X0112200Y0088123D01*
X0112200Y0086524D02*
X0135365Y0086524D01*
X0136963Y0084926D02*
X0112200Y0084926D01*
X0112200Y0083327D02*
X0137800Y0083327D01*
X0137800Y0081729D02*
X0112200Y0081729D01*
X0112200Y0080130D02*
X0137800Y0080130D01*
X0137800Y0078532D02*
X0112200Y0078532D01*
X0112200Y0076933D02*
X0137800Y0076933D01*
X0137800Y0075334D02*
X0112200Y0075334D01*
X0112200Y0073736D02*
X0137800Y0073736D01*
X0137800Y0072137D02*
X0112200Y0072137D01*
X0112200Y0070539D02*
X0137800Y0070539D01*
X0137800Y0068940D02*
X0112200Y0068940D01*
X0112200Y0067342D02*
X0137800Y0067342D01*
X0137800Y0065743D02*
X0112200Y0065743D01*
X0112200Y0064145D02*
X0137800Y0064145D01*
X0137800Y0062546D02*
X0112200Y0062546D01*
X0112200Y0060948D02*
X0137800Y0060948D01*
X0137800Y0059349D02*
X0112200Y0059349D01*
X0112200Y0057751D02*
X0137800Y0057751D01*
X0137800Y0056152D02*
X0112200Y0056152D01*
X0112200Y0054554D02*
X0137800Y0054554D01*
X0137800Y0052955D02*
X0112200Y0052955D01*
X0112200Y0051357D02*
X0137800Y0051357D01*
X0137800Y0049758D02*
X0112200Y0049758D01*
X0112200Y0048160D02*
X0137800Y0048160D01*
X0137800Y0046561D02*
X0112200Y0046561D01*
X0113033Y0044963D02*
X0115924Y0044963D01*
X0119800Y0044963D02*
X0120200Y0044963D01*
X0120200Y0045000D02*
X0120200Y0039700D01*
X0125500Y0039700D01*
X0125500Y0043437D01*
X0125377Y0043895D01*
X0125140Y0044305D01*
X0124805Y0044640D01*
X0124395Y0044877D01*
X0123937Y0045000D01*
X0120200Y0045000D01*
X0120200Y0043364D02*
X0119800Y0043364D01*
X0119800Y0041766D02*
X0120200Y0041766D01*
X0120200Y0040167D02*
X0119800Y0040167D01*
X0120200Y0039300D02*
X0125500Y0039300D01*
X0125500Y0035563D01*
X0125377Y0035105D01*
X0125140Y0034695D01*
X0124805Y0034360D01*
X0124395Y0034123D01*
X0123937Y0034000D01*
X0120200Y0034000D01*
X0120200Y0039300D01*
X0120200Y0038569D02*
X0119800Y0038569D01*
X0119800Y0036970D02*
X0120200Y0036970D01*
X0120200Y0035372D02*
X0119800Y0035372D01*
X0114551Y0035372D02*
X0111469Y0035372D01*
X0108531Y0035372D02*
X0103650Y0035372D01*
X0104884Y0036970D02*
X0106034Y0036970D01*
X0113966Y0036970D02*
X0114500Y0036970D01*
X0125500Y0036970D02*
X0136034Y0036970D01*
X0135063Y0038569D02*
X0125500Y0038569D01*
X0125500Y0040167D02*
X0134700Y0040167D01*
X0134788Y0041766D02*
X0125500Y0041766D01*
X0125500Y0043364D02*
X0135450Y0043364D01*
X0136967Y0044963D02*
X0124076Y0044963D01*
X0125449Y0035372D02*
X0138531Y0035372D01*
X0141469Y0035372D02*
X0146350Y0035372D01*
X0145116Y0036970D02*
X0143966Y0036970D01*
X0149800Y0036970D02*
X0150200Y0036970D01*
X0150200Y0035372D02*
X0149800Y0035372D01*
X0149800Y0038569D02*
X0150200Y0038569D01*
X0150200Y0040167D02*
X0149800Y0040167D01*
X0149800Y0041766D02*
X0150200Y0041766D01*
X0150200Y0043364D02*
X0149800Y0043364D01*
X0149800Y0044963D02*
X0150200Y0044963D01*
X0150668Y0044963D02*
X0156967Y0044963D01*
X0155450Y0043364D02*
X0153914Y0043364D01*
X0149332Y0044963D02*
X0143033Y0044963D01*
X0144550Y0043364D02*
X0146086Y0043364D01*
X0154884Y0036970D02*
X0156034Y0036970D01*
X0153650Y0035372D02*
X0158531Y0035372D01*
X0161469Y0035372D02*
X0166350Y0035372D01*
X0165116Y0036970D02*
X0163966Y0036970D01*
X0203033Y0044963D02*
X0205924Y0044963D01*
X0227800Y0104108D02*
X0174504Y0104108D01*
X0172905Y0105706D02*
X0227800Y0105706D01*
X0227800Y0107305D02*
X0172200Y0107305D01*
X0172200Y0108903D02*
X0172618Y0108903D01*
X0177382Y0108903D02*
X0182618Y0108903D01*
X0182635Y0108886D02*
X0184170Y0108250D01*
X0185830Y0108250D01*
X0187365Y0108886D01*
X0188539Y0110060D01*
X0189175Y0111595D01*
X0189175Y0118405D01*
X0188539Y0119940D01*
X0187365Y0121114D01*
X0185830Y0121750D01*
X0184170Y0121750D01*
X0182635Y0121114D01*
X0181461Y0119940D01*
X0180825Y0118405D01*
X0180825Y0111595D01*
X0181461Y0110060D01*
X0182635Y0108886D01*
X0181278Y0110502D02*
X0178722Y0110502D01*
X0179175Y0112100D02*
X0180825Y0112100D01*
X0180825Y0113699D02*
X0179175Y0113699D01*
X0179175Y0115297D02*
X0180825Y0115297D01*
X0180825Y0116896D02*
X0179175Y0116896D01*
X0179138Y0118494D02*
X0180862Y0118494D01*
X0181614Y0120093D02*
X0178386Y0120093D01*
X0175971Y0121691D02*
X0184029Y0121691D01*
X0185971Y0121691D02*
X0194029Y0121691D01*
X0194170Y0121750D02*
X0192635Y0121114D01*
X0191461Y0119940D01*
X0190825Y0118405D01*
X0190825Y0111595D01*
X0191461Y0110060D01*
X0192635Y0108886D01*
X0194170Y0108250D01*
X0195830Y0108250D01*
X0197365Y0108886D01*
X0198539Y0110060D01*
X0199175Y0111595D01*
X0199175Y0118405D01*
X0198539Y0119940D01*
X0197365Y0121114D01*
X0195830Y0121750D01*
X0194170Y0121750D01*
X0195971Y0121691D02*
X0223555Y0121691D01*
X0223200Y0120093D02*
X0198386Y0120093D01*
X0199138Y0118494D02*
X0223478Y0118494D01*
X0224565Y0116896D02*
X0199175Y0116896D01*
X0199175Y0115297D02*
X0227800Y0115297D01*
X0227800Y0113699D02*
X0199175Y0113699D01*
X0199175Y0112100D02*
X0227800Y0112100D01*
X0227800Y0110502D02*
X0198722Y0110502D01*
X0197382Y0108903D02*
X0227800Y0108903D01*
X0224750Y0123290D02*
X0169821Y0123290D01*
X0170911Y0122200D02*
X0170911Y0122200D01*
X0171420Y0121691D02*
X0174029Y0121691D01*
X0188386Y0120093D02*
X0191614Y0120093D01*
X0190862Y0118494D02*
X0189138Y0118494D01*
X0189175Y0116896D02*
X0190825Y0116896D01*
X0190825Y0115297D02*
X0189175Y0115297D01*
X0189175Y0113699D02*
X0190825Y0113699D01*
X0190825Y0112100D02*
X0189175Y0112100D01*
X0188722Y0110502D02*
X0191278Y0110502D01*
X0192618Y0108903D02*
X0187382Y0108903D01*
X0154029Y0121691D02*
X0151420Y0121691D01*
X0112800Y0121691D02*
X0107200Y0121691D01*
X0107200Y0123290D02*
X0112800Y0123290D01*
X0112800Y0124888D02*
X0107200Y0124888D01*
X0107200Y0126487D02*
X0112800Y0126487D01*
X0112800Y0128085D02*
X0107200Y0128085D01*
X0107200Y0129684D02*
X0112800Y0129684D01*
X0112800Y0131282D02*
X0107200Y0131282D01*
X0107200Y0132881D02*
X0112800Y0132881D01*
X0111981Y0134479D02*
X0108019Y0134479D01*
X0108998Y0136078D02*
X0111002Y0136078D01*
X0110800Y0137676D02*
X0109200Y0137676D01*
X0109200Y0139275D02*
X0110800Y0139275D01*
X0110800Y0140873D02*
X0109200Y0140873D01*
X0109200Y0142472D02*
X0110800Y0142472D01*
X0111063Y0144070D02*
X0108937Y0144070D01*
X0107871Y0145669D02*
X0112129Y0145669D01*
X0102129Y0145669D02*
X0097871Y0145669D01*
X0098937Y0144070D02*
X0101063Y0144070D01*
X0100800Y0142472D02*
X0099200Y0142472D01*
X0099200Y0140873D02*
X0100800Y0140873D01*
X0100800Y0139275D02*
X0099200Y0139275D01*
X0099200Y0137676D02*
X0100800Y0137676D01*
X0101002Y0136078D02*
X0098998Y0136078D01*
X0098019Y0134479D02*
X0101981Y0134479D01*
X0102800Y0132881D02*
X0097200Y0132881D01*
X0097200Y0131282D02*
X0102800Y0131282D01*
X0102800Y0129684D02*
X0097200Y0129684D01*
X0097200Y0128085D02*
X0102800Y0128085D01*
X0102800Y0126487D02*
X0097200Y0126487D01*
X0097200Y0124888D02*
X0102800Y0124888D01*
X0102800Y0123290D02*
X0097200Y0123290D01*
X0097200Y0121691D02*
X0102800Y0121691D01*
X0101614Y0120093D02*
X0098386Y0120093D01*
X0099138Y0118494D02*
X0100862Y0118494D01*
X0100825Y0116896D02*
X0099175Y0116896D01*
X0099175Y0115297D02*
X0100825Y0115297D01*
X0100825Y0113699D02*
X0099175Y0113699D01*
X0099175Y0112100D02*
X0100825Y0112100D01*
X0101278Y0110502D02*
X0098722Y0110502D01*
X0097382Y0108903D02*
X0102618Y0108903D01*
X0102800Y0107305D02*
X0097200Y0107305D01*
X0097200Y0105706D02*
X0102800Y0105706D01*
X0102800Y0104108D02*
X0097200Y0104108D01*
X0095620Y0102509D02*
X0102800Y0102509D01*
X0102799Y0100911D02*
X0094022Y0100911D01*
X0092423Y0099312D02*
X0101201Y0099312D01*
X0099602Y0097714D02*
X0090825Y0097714D01*
X0089226Y0096115D02*
X0098004Y0096115D01*
X0096405Y0094517D02*
X0087628Y0094517D01*
X0086029Y0092918D02*
X0094807Y0092918D01*
X0093208Y0091320D02*
X0084431Y0091320D01*
X0082832Y0089721D02*
X0091610Y0089721D01*
X0090011Y0088123D02*
X0081234Y0088123D01*
X0079635Y0086524D02*
X0088413Y0086524D01*
X0087800Y0084926D02*
X0078037Y0084926D01*
X0076438Y0083327D02*
X0087800Y0083327D01*
X0087800Y0081729D02*
X0074840Y0081729D01*
X0073241Y0080130D02*
X0087800Y0080130D01*
X0087800Y0078532D02*
X0072200Y0078532D01*
X0072200Y0076933D02*
X0087800Y0076933D01*
X0087800Y0075334D02*
X0072200Y0075334D01*
X0072200Y0073736D02*
X0087800Y0073736D01*
X0087800Y0072137D02*
X0072200Y0072137D01*
X0072200Y0070539D02*
X0087800Y0070539D01*
X0087800Y0068940D02*
X0072200Y0068940D01*
X0072200Y0067342D02*
X0087800Y0067342D01*
X0087800Y0065743D02*
X0072200Y0065743D01*
X0072200Y0064145D02*
X0087800Y0064145D01*
X0087800Y0062546D02*
X0072200Y0062546D01*
X0072200Y0060948D02*
X0087800Y0060948D01*
X0087800Y0059349D02*
X0072200Y0059349D01*
X0072200Y0057751D02*
X0087800Y0057751D01*
X0087800Y0056152D02*
X0072200Y0056152D01*
X0072200Y0054554D02*
X0087800Y0054554D01*
X0087800Y0052955D02*
X0072200Y0052955D01*
X0072200Y0051357D02*
X0087800Y0051357D01*
X0087800Y0049758D02*
X0072200Y0049758D01*
X0072200Y0048160D02*
X0087800Y0048160D01*
X0087800Y0046561D02*
X0072200Y0046561D01*
X0073033Y0044963D02*
X0079332Y0044963D01*
X0079800Y0044963D02*
X0080200Y0044963D01*
X0080668Y0044963D02*
X0086967Y0044963D01*
X0085450Y0043364D02*
X0083914Y0043364D01*
X0080200Y0043364D02*
X0079800Y0043364D01*
X0079800Y0041766D02*
X0080200Y0041766D01*
X0080200Y0040167D02*
X0079800Y0040167D01*
X0079800Y0038569D02*
X0080200Y0038569D01*
X0080200Y0036970D02*
X0079800Y0036970D01*
X0079800Y0035372D02*
X0080200Y0035372D01*
X0083650Y0035372D02*
X0088531Y0035372D01*
X0091469Y0035372D02*
X0096350Y0035372D01*
X0095116Y0036970D02*
X0093966Y0036970D01*
X0099800Y0036970D02*
X0100200Y0036970D01*
X0100200Y0035372D02*
X0099800Y0035372D01*
X0099800Y0038569D02*
X0100200Y0038569D01*
X0100200Y0040167D02*
X0099800Y0040167D01*
X0099800Y0041766D02*
X0100200Y0041766D01*
X0100200Y0043364D02*
X0099800Y0043364D01*
X0099800Y0044963D02*
X0100200Y0044963D01*
X0100668Y0044963D02*
X0106967Y0044963D01*
X0107800Y0046561D02*
X0092200Y0046561D01*
X0092200Y0048160D02*
X0107800Y0048160D01*
X0107800Y0049758D02*
X0092200Y0049758D01*
X0092200Y0051357D02*
X0107800Y0051357D01*
X0107800Y0052955D02*
X0092200Y0052955D01*
X0092200Y0054554D02*
X0107800Y0054554D01*
X0107800Y0056152D02*
X0092200Y0056152D01*
X0092200Y0057751D02*
X0107800Y0057751D01*
X0107800Y0059349D02*
X0092200Y0059349D01*
X0092200Y0060948D02*
X0107800Y0060948D01*
X0107800Y0062546D02*
X0092200Y0062546D01*
X0092200Y0064145D02*
X0107800Y0064145D01*
X0107800Y0065743D02*
X0092200Y0065743D01*
X0092200Y0067342D02*
X0107800Y0067342D01*
X0107800Y0068940D02*
X0092200Y0068940D01*
X0092200Y0070539D02*
X0107800Y0070539D01*
X0107800Y0072137D02*
X0092200Y0072137D01*
X0092200Y0073736D02*
X0107800Y0073736D01*
X0107800Y0075334D02*
X0092200Y0075334D01*
X0092200Y0076933D02*
X0107800Y0076933D01*
X0107800Y0078532D02*
X0092200Y0078532D01*
X0092200Y0080130D02*
X0107800Y0080130D01*
X0107800Y0081729D02*
X0092200Y0081729D01*
X0092200Y0083327D02*
X0107800Y0083327D01*
X0107800Y0084926D02*
X0093037Y0084926D01*
X0094635Y0086524D02*
X0107800Y0086524D01*
X0107800Y0088123D02*
X0096234Y0088123D01*
X0097832Y0089721D02*
X0107800Y0089721D01*
X0107800Y0091320D02*
X0099431Y0091320D01*
X0101029Y0092918D02*
X0107800Y0092918D01*
X0107800Y0094517D02*
X0102628Y0094517D01*
X0104226Y0096115D02*
X0108004Y0096115D01*
X0109602Y0097714D02*
X0105825Y0097714D01*
X0107200Y0099312D02*
X0111201Y0099312D01*
X0112799Y0100911D02*
X0107200Y0100911D01*
X0107200Y0102509D02*
X0112800Y0102509D01*
X0112800Y0104108D02*
X0107200Y0104108D01*
X0107200Y0105706D02*
X0112800Y0105706D01*
X0112800Y0107305D02*
X0107200Y0107305D01*
X0107382Y0108903D02*
X0112618Y0108903D01*
X0111278Y0110502D02*
X0108722Y0110502D01*
X0109175Y0112100D02*
X0110825Y0112100D01*
X0110825Y0113699D02*
X0109175Y0113699D01*
X0109175Y0115297D02*
X0110825Y0115297D01*
X0110825Y0116896D02*
X0109175Y0116896D01*
X0109138Y0118494D02*
X0110862Y0118494D01*
X0111614Y0120093D02*
X0108386Y0120093D01*
X0092800Y0121691D02*
X0087200Y0121691D01*
X0087200Y0123290D02*
X0092800Y0123290D01*
X0092800Y0124888D02*
X0087200Y0124888D01*
X0087200Y0126487D02*
X0092800Y0126487D01*
X0092800Y0128085D02*
X0087200Y0128085D01*
X0087200Y0129684D02*
X0092800Y0129684D01*
X0092800Y0131282D02*
X0087200Y0131282D01*
X0087200Y0132881D02*
X0092800Y0132881D01*
X0091981Y0134479D02*
X0088019Y0134479D01*
X0088998Y0136078D02*
X0091002Y0136078D01*
X0090800Y0137676D02*
X0089200Y0137676D01*
X0089200Y0139275D02*
X0090800Y0139275D01*
X0090800Y0140873D02*
X0089200Y0140873D01*
X0089200Y0142472D02*
X0090800Y0142472D01*
X0091063Y0144070D02*
X0088937Y0144070D01*
X0087871Y0145669D02*
X0092129Y0145669D01*
X0071874Y0169647D02*
X0068126Y0169647D01*
X0069030Y0171245D02*
X0070970Y0171245D01*
X0070825Y0172844D02*
X0069175Y0172844D01*
X0069175Y0174442D02*
X0070825Y0174442D01*
X0070825Y0176041D02*
X0069175Y0176041D01*
X0069175Y0177639D02*
X0070825Y0177639D01*
X0071170Y0179238D02*
X0068830Y0179238D01*
X0067643Y0180836D02*
X0072300Y0180836D01*
X0064029Y0121691D02*
X0057200Y0121691D01*
X0058386Y0120093D02*
X0061614Y0120093D01*
X0060862Y0118494D02*
X0059138Y0118494D01*
X0059175Y0116896D02*
X0060825Y0116896D01*
X0060825Y0115297D02*
X0059175Y0115297D01*
X0059175Y0113699D02*
X0060825Y0113699D01*
X0060825Y0112100D02*
X0059175Y0112100D01*
X0058722Y0110502D02*
X0061278Y0110502D01*
X0062618Y0108903D02*
X0057382Y0108903D01*
X0077382Y0108903D02*
X0082618Y0108903D01*
X0081278Y0110502D02*
X0078722Y0110502D01*
X0079175Y0112100D02*
X0080825Y0112100D01*
X0080825Y0113699D02*
X0079175Y0113699D01*
X0079175Y0115297D02*
X0080825Y0115297D01*
X0080825Y0116896D02*
X0079175Y0116896D01*
X0079138Y0118494D02*
X0080862Y0118494D01*
X0081614Y0120093D02*
X0078386Y0120093D01*
X0088386Y0120093D02*
X0091614Y0120093D01*
X0090862Y0118494D02*
X0089138Y0118494D01*
X0089175Y0116896D02*
X0090825Y0116896D01*
X0090825Y0115297D02*
X0089175Y0115297D01*
X0089175Y0113699D02*
X0090825Y0113699D01*
X0090825Y0112100D02*
X0089175Y0112100D01*
X0088722Y0110502D02*
X0091278Y0110502D01*
X0092618Y0108903D02*
X0087382Y0108903D01*
X0087200Y0107305D02*
X0092800Y0107305D01*
X0092595Y0105706D02*
X0087200Y0105706D01*
X0087200Y0104108D02*
X0090996Y0104108D01*
X0089398Y0102509D02*
X0085620Y0102509D01*
X0084022Y0100911D02*
X0087799Y0100911D01*
X0086201Y0099312D02*
X0082423Y0099312D01*
X0068617Y0081729D02*
X0052200Y0081729D01*
X0052200Y0080130D02*
X0067800Y0080130D01*
X0067800Y0078532D02*
X0052200Y0078532D01*
X0052200Y0076933D02*
X0067800Y0076933D01*
X0067800Y0075334D02*
X0052200Y0075334D01*
X0052200Y0073736D02*
X0067800Y0073736D01*
X0067800Y0072137D02*
X0052200Y0072137D01*
X0052200Y0070539D02*
X0067800Y0070539D01*
X0067800Y0068940D02*
X0052200Y0068940D01*
X0052200Y0067342D02*
X0067800Y0067342D01*
X0067800Y0065743D02*
X0052200Y0065743D01*
X0052200Y0064145D02*
X0067800Y0064145D01*
X0067800Y0062546D02*
X0052200Y0062546D01*
X0052200Y0060948D02*
X0067800Y0060948D01*
X0067800Y0059349D02*
X0052200Y0059349D01*
X0052200Y0057751D02*
X0067800Y0057751D01*
X0067800Y0056152D02*
X0052200Y0056152D01*
X0052200Y0054554D02*
X0067800Y0054554D01*
X0067800Y0052955D02*
X0052200Y0052955D01*
X0052200Y0051357D02*
X0067800Y0051357D01*
X0067800Y0049758D02*
X0052200Y0049758D01*
X0052200Y0048160D02*
X0067800Y0048160D01*
X0067800Y0046561D02*
X0052200Y0046561D01*
X0053033Y0044963D02*
X0059332Y0044963D01*
X0059800Y0044963D02*
X0060200Y0044963D01*
X0060668Y0044963D02*
X0066967Y0044963D01*
X0065450Y0043364D02*
X0063914Y0043364D01*
X0060200Y0043364D02*
X0059800Y0043364D01*
X0059800Y0041766D02*
X0060200Y0041766D01*
X0060200Y0040167D02*
X0059800Y0040167D01*
X0059800Y0038569D02*
X0060200Y0038569D01*
X0060200Y0036970D02*
X0059800Y0036970D01*
X0059800Y0035372D02*
X0060200Y0035372D01*
X0063650Y0035372D02*
X0068531Y0035372D01*
X0071469Y0035372D02*
X0076350Y0035372D01*
X0075116Y0036970D02*
X0073966Y0036970D01*
X0074550Y0043364D02*
X0076086Y0043364D01*
X0066034Y0036970D02*
X0064884Y0036970D01*
X0056350Y0035372D02*
X0051469Y0035372D01*
X0048531Y0035372D02*
X0032384Y0035372D01*
X0034151Y0033773D02*
X0368849Y0033773D01*
X0367508Y0032175D02*
X0035492Y0032175D01*
X0036415Y0030576D02*
X0366585Y0030576D01*
X0365945Y0028978D02*
X0037055Y0028978D01*
X0037484Y0027379D02*
X0365516Y0027379D01*
X0365326Y0025781D02*
X0037674Y0025781D01*
X0037674Y0024182D02*
X0365326Y0024182D01*
X0365526Y0022584D02*
X0037474Y0022584D01*
X0037045Y0020985D02*
X0365955Y0020985D01*
X0366606Y0019387D02*
X0036394Y0019387D01*
X0035471Y0017788D02*
X0367529Y0017788D01*
X0368887Y0016190D02*
X0034113Y0016190D01*
X0032319Y0014591D02*
X0370681Y0014591D01*
X0373844Y0012993D02*
X0029156Y0012993D01*
X0029295Y0036970D02*
X0046034Y0036970D01*
X0053966Y0036970D02*
X0055116Y0036970D01*
X0054550Y0043364D02*
X0056086Y0043364D01*
X0084884Y0036970D02*
X0086034Y0036970D01*
X0094550Y0043364D02*
X0096086Y0043364D01*
X0093033Y0044963D02*
X0099332Y0044963D01*
X0103914Y0043364D02*
X0105450Y0043364D01*
X0213385Y0230390D02*
X0217928Y0230390D01*
X0219800Y0230390D02*
X0220200Y0230390D01*
X0220200Y0231989D02*
X0219800Y0231989D01*
X0219800Y0233587D02*
X0220200Y0233587D01*
X0220200Y0235186D02*
X0219800Y0235186D01*
X0219800Y0236784D02*
X0220200Y0236784D01*
X0224247Y0231989D02*
X0225304Y0231989D01*
X0226615Y0230390D02*
X0222072Y0230390D01*
X0215753Y0231989D02*
X0214696Y0231989D01*
X0233385Y0230390D02*
X0237928Y0230390D01*
X0235753Y0231989D02*
X0234696Y0231989D01*
X0244247Y0231989D02*
X0245304Y0231989D01*
D23*
X0250000Y0234500D02*
X0250000Y0215000D01*
X0230000Y0215000D02*
X0230000Y0234500D01*
X0200000Y0235500D02*
X0200000Y0230000D01*
X0195000Y0225000D01*
X0155000Y0225000D01*
X0135000Y0205000D01*
X0135000Y0175000D01*
X0085000Y0175000D02*
X0084500Y0175500D01*
X0084500Y0210000D01*
X0074500Y0210000D02*
X0074500Y0175500D01*
X0075000Y0175000D01*
X0055000Y0145500D02*
X0025500Y0175000D01*
X0055000Y0145500D02*
X0055000Y0115000D01*
X0065000Y0100000D02*
X0080000Y0100000D01*
X0085000Y0105000D01*
X0085000Y0115000D01*
X0085000Y0140000D01*
X0095000Y0140000D02*
X0095000Y0115000D01*
X0095000Y0105000D01*
X0070000Y0080000D01*
X0070000Y0040500D01*
X0070000Y0040000D01*
X0090000Y0040000D02*
X0090000Y0085000D01*
X0105000Y0100000D01*
X0105000Y0115000D01*
X0105000Y0140000D01*
X0115000Y0140000D02*
X0115000Y0115000D01*
X0115000Y0100000D01*
X0110000Y0095000D01*
X0110000Y0040500D01*
X0140000Y0040000D02*
X0140000Y0085000D01*
X0125000Y0100000D01*
X0125000Y0115000D01*
X0125000Y0140000D01*
X0135000Y0140000D02*
X0135000Y0115000D01*
X0135000Y0105000D01*
X0160000Y0080000D01*
X0160000Y0040500D01*
X0180000Y0040500D02*
X0180000Y0055500D01*
X0195000Y0070500D01*
X0194500Y0070000D01*
X0185000Y0070000D01*
X0150000Y0105000D01*
X0150000Y0120000D01*
X0145000Y0125000D01*
X0145000Y0140000D01*
X0155000Y0140000D02*
X0155000Y0130000D01*
X0160000Y0125000D01*
X0165000Y0125000D01*
X0170000Y0120000D01*
X0170000Y0105000D01*
X0170500Y0105000D01*
X0195000Y0080500D01*
X0215000Y0080500D02*
X0215500Y0080000D01*
X0220000Y0080000D01*
X0230000Y0090000D01*
X0230000Y0120000D01*
X0275000Y0120000D02*
X0275000Y0075000D01*
X0270000Y0070000D01*
X0215500Y0070000D01*
X0215000Y0070500D01*
X0065000Y0100000D02*
X0050000Y0085000D01*
X0050000Y0040500D01*
M02*
