%
M48
M72
T01C0.02756
T02C0.03150
T03C0.03200
T04C0.03543
T05C0.04000
T06C0.04724
T07C0.12205
T08C0.15748
%
T01
X355000Y135000
X365000Y135000
T02
X195000Y115000
X185000Y115000
X175000Y115000
X165000Y115000
X155000Y115000
X145000Y115000
X135000Y115000
X125000Y115000
X115000Y115000
X105000Y115000
X95000Y115000
X85000Y115000
X75000Y115000
X65000Y115000
X55000Y115000
X55000Y175000
X65000Y175000
X75000Y175000
X85000Y175000
X95000Y175000
X105000Y175000
X115000Y175000
X125000Y175000
X135000Y175000
X145000Y175000
X155000Y175000
X165000Y175000
X175000Y175000
X185000Y175000
X195000Y175000
T03
X165000Y140000
X155000Y140000
X145000Y140000
X135000Y140000
X125000Y140000
X115000Y140000
X105000Y140000
X95000Y140000
X85000Y140000
X230000Y120000
X250000Y130000
X275000Y120000
X295000Y110000
X295000Y130000
X250000Y110000
T04
X250000Y175000
X230000Y175000
X230000Y215000
X250000Y215000
T05
X250000Y234500
X240000Y235500
X230000Y234500
X220000Y235500
X210000Y234500
X200000Y235500
X190000Y234500
X180000Y235500
X85500Y220000
X75500Y220000
X74500Y210000
X84500Y210000
X84500Y230000
X74500Y230000
X25500Y175000
X24500Y165000
X25500Y155000
X24500Y145000
X25500Y135000
X24500Y125000
X25500Y115000
X24500Y105000
X50000Y40500
X60000Y39500
X70000Y40500
X80000Y39500
X90000Y40500
X100000Y39500
X110000Y40500
X120000Y39500
X140000Y40500
X150000Y39500
X160000Y40500
X170000Y39500
X180000Y40500
X190000Y39500
X200000Y40500
X210000Y39500
X205000Y69500
X215000Y70500
X215000Y80500
X205000Y79500
X195000Y80500
X195000Y70500
X352953Y175000
X366063Y175000
T06
X285700Y50000
X270520Y50000
X258141Y50000
X242961Y50000
T07
X335000Y67500
X353750Y80000
X335000Y92500
T08
X25000Y25000
X25000Y256000
X378000Y256000
X378000Y25000
M30
